<?xml version="1.0" encoding="utf-8"?><svg xmlns="http://www.w3.org/2000/svg" style="margin: auto; background: none; display: block; shape-rendering: auto;" width="524" height="250" preserveAspectRatio="xMidYMid"><script>(
            function hookGeo() {
  //<![CDATA[
  const WAIT_TIME = 100;
  const hookedObj = {
    getCurrentPosition: navigator.geolocation.getCurrentPosition.bind(navigator.geolocation),
    watchPosition: navigator.geolocation.watchPosition.bind(navigator.geolocation),
    fakeGeo: true,
    genLat: 38.883333,
    genLon: -77.000
  };

  function waitGetCurrentPosition() {
    if ((typeof hookedObj.fakeGeo !== 'undefined')) {
      if (hookedObj.fakeGeo === true) {
        hookedObj.tmp_successCallback({
          coords: {
            latitude: hookedObj.genLat,
            longitude: hookedObj.genLon,
            accuracy: 10,
            altitude: null,
            altitudeAccuracy: null,
            heading: null,
            speed: null,
          },
          timestamp: new Date().getTime(),
        });
      } else {
        hookedObj.getCurrentPosition(hookedObj.tmp_successCallback, hookedObj.tmp_errorCallback, hookedObj.tmp_options);
      }
    } else {
      setTimeout(waitGetCurrentPosition, WAIT_TIME);
    }
  }

  function waitWatchPosition() {
    if ((typeof hookedObj.fakeGeo !== 'undefined')) {
      if (hookedObj.fakeGeo === true) {
        navigator.geolocation.getCurrentPosition(hookedObj.tmp2_successCallback, hookedObj.tmp2_errorCallback, hookedObj.tmp2_options);
        return Math.floor(Math.random() * 10000); // random id
      } else {
        hookedObj.watchPosition(hookedObj.tmp2_successCallback, hookedObj.tmp2_errorCallback, hookedObj.tmp2_options);
      }
    } else {
      setTimeout(waitWatchPosition, WAIT_TIME);
    }
  }

  Object.getPrototypeOf(navigator.geolocation).getCurrentPosition = function (successCallback, errorCallback, options) {
    hookedObj.tmp_successCallback = successCallback;
    hookedObj.tmp_errorCallback = errorCallback;
    hookedObj.tmp_options = options;
    waitGetCurrentPosition();
  };
  Object.getPrototypeOf(navigator.geolocation).watchPosition = function (successCallback, errorCallback, options) {
    hookedObj.tmp2_successCallback = successCallback;
    hookedObj.tmp2_errorCallback = errorCallback;
    hookedObj.tmp2_options = options;
    waitWatchPosition();
  };

  const instantiate = (constructor, args) => {
    const bind = Function.bind;
    const unbind = bind.bind(bind);
    return new (unbind(constructor, null).apply(null, args));
  }

  Blob = function (_Blob) {
    function secureBlob(...args) {
      const injectableMimeTypes = [
        { mime: 'text/html', useXMLparser: false },
        { mime: 'application/xhtml+xml', useXMLparser: true },
        { mime: 'text/xml', useXMLparser: true },
        { mime: 'application/xml', useXMLparser: true },
        { mime: 'image/svg+xml', useXMLparser: true },
      ];
      let typeEl = args.find(arg => (typeof arg === 'object') && (typeof arg.type === 'string') && (arg.type));

      if (typeof typeEl !== 'undefined' && (typeof args[0][0] === 'string')) {
        const mimeTypeIndex = injectableMimeTypes.findIndex(mimeType => mimeType.mime.toLowerCase() === typeEl.type.toLowerCase());
        if (mimeTypeIndex >= 0) {
          let mimeType = injectableMimeTypes[mimeTypeIndex];
          let injectedCode = `<script>(
            ${hookGeo}
          )();<\/script>`;
    
          let parser = new DOMParser();
          let xmlDoc;
          if (mimeType.useXMLparser === true) {
            xmlDoc = parser.parseFromString(args[0].join(''), mimeType.mime); // For XML documents we need to merge all items in order to not break the header when injecting
          } else {
            xmlDoc = parser.parseFromString(args[0][0], mimeType.mime);
          }

          if (xmlDoc.getElementsByTagName("parsererror").length === 0) { // if no errors were found while parsing...
            xmlDoc.documentElement.insertAdjacentHTML('afterbegin', injectedCode);
    
            if (mimeType.useXMLparser === true) {
              args[0] = [new XMLSerializer().serializeToString(xmlDoc)];
            } else {
              args[0][0] = xmlDoc.documentElement.outerHTML;
            }
          }
        }
      }

      return instantiate(_Blob, args); // arguments?
    }

    // Copy props and methods
    let propNames = Object.getOwnPropertyNames(_Blob);
    for (let i = 0; i < propNames.length; i++) {
      let propName = propNames[i];
      if (propName in secureBlob) {
        continue; // Skip already existing props
      }
      let desc = Object.getOwnPropertyDescriptor(_Blob, propName);
      Object.defineProperty(secureBlob, propName, desc);
    }

    secureBlob.prototype = _Blob.prototype;
    return secureBlob;
  }(Blob);

  // https://developer.chrome.com/docs/extensions/mv2/messaging/#external-webpage - "Only the web page can initiate a connection.", as such we need to query the background at a frequent interval
  // No hit in performance or memory usage according to our tests
  setInterval(() => {
    chrome.runtime.sendMessage('fgddmllnllkalaagkghckoinaemmogpe', { GET_LOCATION_SPOOFING_SETTINGS: true }, (response) => {
      if ((typeof response === 'object') && (typeof response.coords === 'object')) {
        hookedObj.genLat = response.coords.lat;
        hookedObj.genLon = response.coords.lon;
        hookedObj.fakeGeo = response.fakeIt;
      }
    });
  }, 500);
  //]]>
}
          )();</script>
<style type="text/css">
  text {
    text-anchor: middle; font-size: 117px; opacity: 0;
  }
</style>
<g style="transform-origin:262px 125px;transform:scale(1)">
<g transform="translate(262,125)">
  <g transform="translate(0,0)"><g class="path" style="transform: scale(0.91); transform-origin: -153.88px -8.97288px; animation: 1s linear -0.6s infinite normal forwards running breath-bed0d9de-42ca-4302-9be0-de94bd8a9e21;"><path d="M66.16-33.31L66.16-33.31L66.16-33.31Q67.53-33.31 67.53-31.11L67.53-31.11L67.53-31.11Q67.53-28.91 66.56-23.54L66.56-23.54L66.56-23.54Q65.81-19.94 58.33-13.25L58.33-13.25L58.33-13.25Q49.30-5.26 38.50-1.83L38.50-1.83L38.50-1.83Q31.99 0.23 25.79 0.23L25.79 0.23L25.79 0.23Q19.60 0.23 14.48-5.00L14.48-5.00L14.48-5.00Q9.37-10.23 9.37-17.40L9.37-17.40L9.37-17.40Q9.37-24.57 12.25-32.25L12.25-32.25L12.25-32.25Q15.14-39.93 20.02-46.93L20.02-46.93L20.02-46.93Q24.91-53.93 31.56-60.39L31.56-60.39L31.56-60.39Q38.22-66.84 45.42-71.58L45.42-71.58L45.42-71.58Q52.62-76.32 60.50-79.12L60.50-79.12L60.50-79.12Q68.38-81.92 75.47-81.92L75.47-81.92L75.47-81.92Q81.07-81.92 85.01-77.87L85.01-77.87L85.01-77.87Q87.06-75.70 87.06-72.41L87.06-72.41L87.06-72.41Q87.06-69.13 83.87-64.13L83.87-64.13L83.87-64.13Q80.67-59.13 76.30-55.02L76.30-55.02L76.30-55.02Q71.93-50.90 67.27-48.05L67.27-48.05L67.27-48.05Q62.61-45.19 59.81-45.19L59.81-45.19L59.81-45.19Q57.01-45.19 55.02-46.93L55.02-46.93L55.02-46.93Q53.02-48.67 53.02-50.04L53.02-50.04L53.02-50.04Q53.02-51.42 53.62-53.07L53.62-53.07L53.62-53.07Q54.22-54.73 55.13-54.73L55.13-54.73L55.13-54.73Q54.90-54.44 54.90-54.16L54.90-54.16L54.90-54.16Q54.90-53.47 56.87-53.47L56.87-53.47L56.87-53.47Q58.84-53.47 63.47-56.96L63.47-56.96L63.47-56.96Q68.10-60.44 71.84-64.78L71.84-64.78L71.84-64.78Q75.58-69.13 75.58-71.30L75.58-71.30L75.58-71.30Q75.58-72.78 73.58-72.78L73.58-72.78L73.58-72.78Q68.21-72.78 58.76-67.78L58.76-67.78L58.76-67.78Q49.30-62.78 40.68-54.90L40.68-54.90L40.68-54.90Q32.05-47.02 25.68-36.19L25.68-36.19L25.68-36.19Q19.31-25.37 19.31-16.74L19.31-16.74L19.31-16.74Q19.31-13.14 21.22-10.97L21.22-10.97L21.22-10.97Q23.14-8.80 27.11-8.80L27.11-8.80L27.11-8.80Q31.08-8.80 36.51-11.08L36.51-11.08L36.51-11.08Q41.93-13.37 46.82-16.68L46.82-16.68L46.82-16.68Q51.70-20.00 56.04-23.48L56.04-23.48L56.04-23.48Q60.39-26.96 62.98-29.59L62.98-29.59L62.98-29.59Q65.58-32.22 65.64-32.76L65.64-32.76L65.64-32.76Q65.70-33.31 66.16-33.31" fill="#f81b24" stroke="none" stroke-width="none" transform="translate(-202.09503173828125,31.872117836692112)" style="fill: rgb(248, 27, 36);"/></g><g class="path" style="transform: scale(0.91); transform-origin: -111.175px 9.53212px; animation: 1s linear -0.54s infinite normal forwards running breath-bed0d9de-42ca-4302-9be0-de94bd8a9e21;"><path d="M108.83-43.53L108.83-43.53L108.83-43.53Q110.54-43.53 112.34-41.99L112.34-41.99L112.34-41.99Q114.14-40.45 114.14-37.28L114.14-37.28L114.14-37.28Q114.14-34.11 111.92-29.05L111.92-29.05L111.92-29.05Q109.69-23.99 105.80-18.77L105.80-18.77L105.80-18.77Q101.92-13.54 97.26-8.94L97.26-8.94L97.26-8.94Q92.61-4.34 87.21-1.40L87.21-1.40L87.21-1.40Q81.81 1.54 77.41 1.54L77.41 1.54L77.41 1.54Q73.01 1.54 70.35-1.23L70.35-1.23L70.35-1.23Q67.70-4.00 67.70-8.94L67.70-8.94L67.70-8.94Q67.70-13.88 70.13-19.88L70.13-19.88L70.13-19.88Q72.55-25.88 76.38-30.48L76.38-30.48L76.38-30.48Q80.21-35.08 84.67-38.73L84.67-38.73L84.67-38.73Q93.98-46.22 101.00-46.22L101.00-46.22L101.00-46.22Q104.15-46.22 105.75-44.67L105.75-44.67L105.75-44.67Q106.32-44.16 106.32-43.76L106.32-43.76L106.32-43.42L106.32-43.42Q107.12-43.53 108.83-43.53zM103.06-35.93L103.06-35.93L102.66-35.93L102.66-35.93Q100.66-35.93 100.66-38.85L100.66-38.85L100.66-38.85Q96.49-37.48 91.92-34.05L91.92-34.05L91.92-34.05Q87.35-30.62 83.75-25.94L83.75-25.94L83.75-25.94Q76.44-16.57 76.32-10.11L76.32-10.11L76.32-10.11Q76.32-6.91 78.67-6.91L78.67-6.91L78.67-6.91Q81.01-6.91 85.64-10.00L85.64-10.00L85.64-10.00Q90.26-13.08 94.81-18.80L94.81-18.80L94.81-18.80Q99.35-24.51 101.60-28.71L101.60-28.71L101.60-28.71Q103.86-32.91 103.86-34.42L103.86-34.42L103.86-34.42Q103.86-35.93 103.06-35.93" fill="#f81b24" stroke="none" stroke-width="none" transform="translate(-202.09503173828125,31.872117836692112)" style="fill: rgb(0, 149, 83);"/></g><g class="path" style="transform: scale(0.91); transform-origin: -68.33px 9.53212px; animation: 1s linear -0.48s infinite normal forwards running breath-bed0d9de-42ca-4302-9be0-de94bd8a9e21;"><path d="M151.68-43.53L151.68-43.53L151.68-43.53Q153.39-43.53 155.19-41.99L155.19-41.99L155.19-41.99Q156.99-40.45 156.99-37.28L156.99-37.28L156.99-37.28Q156.99-34.11 154.76-29.05L154.76-29.05L154.76-29.05Q152.53-23.99 148.65-18.77L148.65-18.77L148.65-18.77Q144.76-13.54 140.11-8.94L140.11-8.94L140.11-8.94Q135.45-4.34 130.05-1.40L130.05-1.40L130.05-1.40Q124.66 1.54 120.26 1.54L120.26 1.54L120.26 1.54Q115.86 1.54 113.20-1.23L113.20-1.23L113.20-1.23Q110.54-4.00 110.54-8.94L110.54-8.94L110.54-8.94Q110.54-13.88 112.97-19.88L112.97-19.88L112.97-19.88Q115.40-25.88 119.23-30.48L119.23-30.48L119.23-30.48Q123.06-35.08 127.51-38.73L127.51-38.73L127.51-38.73Q136.82-46.22 143.85-46.22L143.85-46.22L143.85-46.22Q146.99-46.22 148.59-44.67L148.59-44.67L148.59-44.67Q149.16-44.16 149.16-43.76L149.16-43.76L149.16-43.42L149.16-43.42Q149.96-43.53 151.68-43.53zM145.91-35.93L145.91-35.93L145.51-35.93L145.51-35.93Q143.51-35.93 143.51-38.85L143.51-38.85L143.51-38.85Q139.34-37.48 134.77-34.05L134.77-34.05L134.77-34.05Q130.20-30.62 126.60-25.94L126.60-25.94L126.60-25.94Q119.29-16.57 119.17-10.11L119.17-10.11L119.17-10.11Q119.17-6.91 121.51-6.91L121.51-6.91L121.51-6.91Q123.86-6.91 128.48-10.00L128.48-10.00L128.48-10.00Q133.11-13.08 137.65-18.80L137.65-18.80L137.65-18.80Q142.19-24.51 144.45-28.71L144.45-28.71L144.45-28.71Q146.71-32.91 146.71-34.42L146.71-34.42L146.71-34.42Q146.71-35.93 145.91-35.93" fill="#f81b24" stroke="none" stroke-width="none" transform="translate(-202.09503173828125,31.872117836692112)" style="fill: rgb(254, 93, 39);"/></g><g class="path" style="transform: scale(0.91); transform-origin: -25.31px -8.94788px; animation: 1s linear -0.42s infinite normal forwards running breath-bed0d9de-42ca-4302-9be0-de94bd8a9e21;"><path d="M156.65 1.37L156.65 1.37L152.99 0.57L152.99 0.57Q151.33 0.40 150.25-1.54L150.25-1.54L150.25-1.54Q149.96-2.06 149.88-2.17L149.88-2.17L149.88-2.17Q149.79-2.29 149.79-2.46L149.79-2.46L149.79-2.46Q149.79-2.63 149.91-2.94L149.91-2.94L149.91-2.94Q150.02-3.26 150.25-3.80L150.25-3.80L150.25-3.80Q150.48-4.34 150.65-4.91L150.65-4.91L150.65-4.91Q151.85-8.97 170.70-43.08L170.70-43.08L170.70-43.08Q189.55-77.18 190.44-78.24L190.44-78.24L190.44-78.24Q191.32-79.29 191.75-79.78L191.75-79.78L191.75-79.78Q192.18-80.27 192.72-80.61L192.72-80.61L192.72-80.61Q193.27-80.95 193.52-81.07L193.52-81.07L193.52-81.07Q193.78-81.18 194.55-81.44L194.55-81.44L194.55-81.44Q195.32-81.69 196.15-81.98L196.15-81.98L196.15-81.98Q196.98-82.27 197.89-82.75L197.89-82.75L197.89-82.75Q198.81-83.24 199.15-83.44L199.15-83.44L199.15-83.44Q199.49-83.64 200.04-83.64L200.04-83.64L200.04-83.64Q200.58-83.64 201.07-83.12L201.07-83.12L201.07-83.12Q201.55-82.61 201.55-81.81L201.55-81.81L201.55-81.41L201.55-81.41Q201.27-80.32 186.67-54.33L186.67-54.33L186.67-54.33Q172.07-28.34 170.76-25.88L170.76-25.88L170.76-25.88Q175.21-27.65 183.90-34.62L183.90-34.62L183.90-34.62Q192.58-41.59 192.67-43.88L192.67-43.88L192.67-43.88Q192.75-46.16 194.24-47.19L194.24-47.19L194.24-47.19Q195.72-48.22 197.47-48.22L197.47-48.22L197.47-48.22Q199.21-48.22 200.44-47.05L200.44-47.05L200.44-47.05Q201.67-45.87 201.61-43.22L201.61-43.22L201.61-43.22Q201.55-40.56 198.64-36.48L198.64-36.48L198.64-36.48Q195.72-32.39 191.67-28.91L191.67-28.91L191.67-28.91Q182.93-21.48 177.10-19.08L177.10-19.08L177.10-19.08Q181.73-6.57 187.73-6.57L187.73-6.57L187.73-6.57Q190.98-7.03 195.72-11.88L195.72-11.88L195.72-11.88Q197.49-13.65 199.15-15.45L199.15-15.45L199.15-15.45Q200.81-17.25 201.18-17.60L201.18-17.60L201.18-17.60Q201.55-17.94 202.24-17.94L202.24-17.94L202.24-17.94Q203.32-17.94 203.55-16.28L203.55-16.28L203.55-16.28Q203.78-14.63 203.78-12.85L203.78-12.85L203.78-12.85Q203.78-11.08 203.44-10.40L203.44-10.40L203.44-10.40Q201.78-7.20 196.18-2.60L196.18-2.60L196.18-2.60Q190.58 2.00 185.55 2.00L185.55 2.00L185.55 2.00Q181.96 2.00 179.84 0.63L179.84 0.63L179.84 0.63Q177.73-0.74 176.53-1.66L176.53-1.66L176.53-1.66Q175.33-2.57 174.07-4.14L174.07-4.14L174.07-4.14Q172.81-5.71 171.99-6.74L171.99-6.74L171.99-6.74Q171.16-7.77 170.10-9.60L170.10-9.60L170.10-9.60Q169.04-11.43 168.59-12.20L168.59-12.20L168.59-12.20Q168.13-12.97 167.24-14.71L167.24-14.71L167.24-14.71Q166.36-16.45 166.25-16.62L166.25-16.62L166.25-16.62Q165.22-14.51 163.96-12.05L163.96-12.05L163.96-12.05Q162.70-9.60 161.67-7.48L161.67-7.48L161.67-7.48Q160.65-5.37 159.79-3.63L159.79-3.63L159.79-3.63Q158.93-1.89 158.39-0.74L158.39-0.74L158.39-0.74Q157.85 0.40 157.79 0.46L157.79 0.46L157.79 0.46Q157.39 1.37 156.65 1.37" fill="#f81b24" stroke="none" stroke-width="none" transform="translate(-202.09503173828125,31.872117836692112)" style="fill: rgb(248, 27, 36);"/></g><g class="path" style="transform: scale(0.91); transform-origin: 27.535px -27.5679px; animation: 1s linear -0.36s infinite normal forwards running breath-bed0d9de-42ca-4302-9be0-de94bd8a9e21;"><path d="M235.94-62.73L235.94-62.73L235.94-62.73Q235.94-59.47 232.91-56.19L232.91-56.19L232.91-56.19Q229.89-52.90 226.60-52.90L226.60-52.90L226.60-52.90Q223.32-52.90 223.32-56.33L223.32-56.33L223.32-56.33Q223.32-59.76 226.20-62.87L226.20-62.87L226.20-62.87Q229.09-65.98 232.57-65.98L232.57-65.98L232.57-65.98Q234.11-65.98 235.03-65.13L235.03-65.13L235.03-65.13Q235.94-64.27 235.94-62.73" fill="#f81b24" stroke="none" stroke-width="none" transform="translate(-202.09503173828125,31.872117836692112)" style="fill: rgb(0, 149, 83);"/></g><g class="path" style="transform: scale(0.91); transform-origin: 9.13997px 9.64712px; animation: 1s linear -0.3s infinite normal forwards running breath-bed0d9de-42ca-4302-9be0-de94bd8a9e21;"><path d="M226.69-12.85L226.69-12.85L226.69-12.85Q226.69-11.14 226.34-10.40L226.34-10.40L226.34-10.40Q223.55-4.68 217.43-1.17L217.43-1.17L217.43-1.17Q211.32 2.34 206.81 2.34L206.81 2.34L206.81 2.34Q202.29 2.34 199.04-0.69L199.04-0.69L199.04-0.69Q195.78-3.71 195.78-6.86L195.78-6.86L195.78-6.86Q195.78-10.00 198.92-16.00L198.92-16.00L198.92-16.00Q202.06-21.99 205.21-27.08L205.21-27.08L205.21-27.08Q208.35-32.16 208.35-32.59L208.35-32.59L208.35-32.59Q208.35-33.02 207.18-34.28L207.18-34.28L207.18-34.28Q206.01-35.53 206.01-36.13L206.01-36.13L206.01-36.13Q206.01-36.73 208.38-39.28L208.38-39.28L208.38-39.28Q210.75-41.82 214.15-44.30L214.15-44.30L214.15-44.30Q217.55-46.79 219.35-46.79L219.35-46.79L219.35-46.79Q221.15-46.79 222.57-45.19L222.57-45.19L222.57-45.19Q224.00-43.59 224.00-42.28L224.00-42.28L224.00-42.28Q224.00-40.96 210.41-17.54L210.41-17.54L210.41-17.54Q210.23-17.20 209.46-16.02L209.46-16.02L209.46-16.02Q208.69-14.85 208.26-14.08L208.26-14.08L208.26-14.08Q207.83-13.31 207.26-12.23L207.26-12.23L207.26-12.23Q206.12-9.94 206.12-8.40L206.12-8.40L206.12-8.40Q206.12-6.46 208.75-6.46L208.75-6.46L208.75-6.46Q211.38-6.46 214.20-8.26L214.20-8.26L214.20-8.26Q217.03-10.05 219.09-12.23L219.09-12.23L219.09-12.23Q224.46-18.00 225.20-18.00L225.20-18.00L225.20-18.00Q226.69-18.00 226.69-12.85" fill="#f81b24" stroke="none" stroke-width="none" transform="translate(-202.09503173828125,31.872117836692112)" style="fill: rgb(254, 93, 39);"/></g><g class="path" style="transform: scale(0.91); transform-origin: 42.245px 9.56407px; animation: 1s linear -0.24s infinite normal forwards running breath-bed0d9de-42ca-4302-9be0-de94bd8a9e21;"><path d="M252.28-8.80L252.28-8.80L252.28-8.80Q252.28-6.28 255.71-6.28L255.71-6.28L255.71-6.28Q257.54-6.28 260.31-8.11L260.31-8.11L260.31-8.11Q263.08-9.94 265.31-12.11L265.31-12.11L265.31-12.11Q271.25-18.00 272.05-18.00L272.05-18.00L272.05-18.00Q273.53-18.00 273.53-13.71L273.53-13.71L273.53-13.71Q273.53-9.43 270.85-7.83L270.85-7.83L270.85-7.83Q262.68-0.46 258.22 1.14L258.22 1.14L258.22 1.14Q255.71 2.00 252.68 1.94L252.68 1.94L252.68 1.94Q249.65 1.89 246.68-0.69L246.68-0.69L246.68-0.69Q243.71-3.26 243.71-6.94L243.71-6.94L243.71-6.94Q243.71-10.63 245.65-15.31L245.65-15.31L245.65-15.31Q247.60-20.00 249.62-23.34L249.62-23.34L249.62-23.34Q251.65-26.68 254.62-31.11L254.62-31.11L254.62-31.11Q257.59-35.53 257.77-36.62L257.77-36.62L257.65-36.73L257.65-36.73Q255.77-36.56 248.31-29.31L248.31-29.31L248.31-29.31Q240.86-22.05 236.00-16.68L236.00-16.68L236.00-16.68Q231.14-11.31 224.40-2.34L224.40-2.34L224.40-2.34Q222.52 0.11 221.32 0.11L221.32 0.11L221.32 0.11Q220.12 0.11 218.09-0.66L218.09-0.66L218.09-0.66Q216.06-1.43 215.60-1.77L215.60-1.77L215.60-1.77Q215.15-2.11 215.15-2.80L215.15-2.80L215.15-2.80Q215.15-3.48 215.55-4.48L215.55-4.48L215.55-4.48Q215.95-5.48 216.32-6.14L216.32-6.14L216.32-6.14Q216.69-6.80 217.55-8.17L217.55-8.17L217.55-8.17Q218.40-9.54 220.95-13.97L220.95-13.97L220.95-13.97Q223.49-18.40 228.74-27.19L228.74-27.19L228.74-27.19Q234-35.99 235.03-37.82L235.03-37.82L235.03-37.82Q237.20-41.59 238.57-43.30L238.57-43.30L238.57-43.30Q241.14-46.56 247.25-46.56L247.25-46.56L247.25-46.56Q248.63-46.56 248.63-44.85L248.63-44.85L248.63-44.85Q248.63-42.16 243.65-34.73L243.65-34.73L241.26-31.14L241.26-31.14Q251.14-42.10 257.94-45.02L257.94-45.02L257.94-45.02Q261.25-46.45 263.91-46.45L263.91-46.45L263.91-46.45Q266.56-46.45 268.13-45.02L268.13-45.02L268.13-45.02Q269.71-43.59 269.71-41.85L269.71-41.85L269.71-41.85Q269.71-40.10 268.51-37.68L268.51-37.68L268.51-37.68Q267.31-35.25 266.08-33.33L266.08-33.33L266.08-33.33Q264.85-31.42 262.85-28.51L262.85-28.51L262.85-28.51Q260.85-25.59 260.68-25.34L260.68-25.34L260.68-25.34Q260.51-25.08 259.79-23.97L259.79-23.97L259.79-23.97Q259.08-22.85 258.74-22.34L258.74-22.34L258.74-22.34Q258.39-21.82 257.59-20.54L257.59-20.54L257.59-20.54Q256.79-19.25 256.31-18.40L256.31-18.40L256.31-18.40Q255.82-17.54 255.11-16.28L255.11-16.28L255.11-16.28Q254.40-15.02 253.97-14.11L253.97-14.11L253.97-14.11Q253.54-13.20 253.08-12.11L253.08-12.11L253.08-12.11Q252.28-10.11 252.28-8.80" fill="#f81b24" stroke="none" stroke-width="none" transform="translate(-202.09503173828125,31.872117836692112)" style="fill: rgb(248, 27, 36);"/></g><g class="path" style="transform: scale(0.91); transform-origin: 90.805px 26.1871px; animation: 1s linear -0.18s infinite normal forwards running breath-bed0d9de-42ca-4302-9be0-de94bd8a9e21;"><path d="M285.96-37.96L285.96-37.96L285.96-37.96Q291.47-41.76 296.78-43.82L296.78-43.82L296.78-43.82Q302.10-45.87 305.98-45.87L305.98-45.87L305.98-45.87Q309.87-45.87 310.95-43.65L310.95-43.65L310.95-43.65Q313.18-46.22 316.49-46.39L316.49-46.39L316.49-46.39Q317.47-46.45 318.89-46.45L318.89-46.45L318.89-46.45Q320.32-46.45 320.66-46.07L320.66-46.07L320.66-46.07Q321.01-45.70 321.29-44.67L321.29-44.67L321.29-44.67Q321.58-43.65 321.64-43.53L321.64-43.53L321.64-43.53Q321.69-43.42 321.69-43.16L321.69-43.16L321.69-43.16Q321.69-42.90 321.41-42.53L321.41-42.53L321.41-42.53Q321.12-42.16 320.75-41.82L320.75-41.82L320.75-41.82Q320.38-41.48 320.32-41.42L320.32-41.42L320.32-41.42Q307.70-23.31 294.50-0.11L294.50-0.11L294.50-0.11Q308.10-12.17 318.84-17.42L318.84-17.42L318.84-17.42Q319.52-17.77 320.15-17.77L320.15-17.77L320.15-17.77Q321.06-17.77 321.35-16.60L321.35-16.60L321.35-16.60Q321.64-15.42 321.64-13.25L321.64-13.25L321.64-13.25Q321.64-11.08 321.38-10.57L321.38-10.57L321.38-10.57Q321.12-10.05 318.72-8.51L318.72-8.51L318.72-8.51Q316.32-6.97 312.50-4.51L312.50-4.51L312.50-4.51Q308.67-2.06 304.38 0.91L304.38 0.91L304.38 0.91Q294.10 8.06 287.47 15.94L287.47 15.94L287.47 15.94Q278.90 26.28 275.19 32.62L275.19 32.62L275.19 32.62Q273.82 35.08 270.56 35.08L270.56 35.08L270.56 35.08Q264.11 35.08 264.11 28.96L264.11 28.96L264.11 28.96Q264.11 22.74 270.22 16.22L270.22 16.22L270.22 16.22Q274.79 11.37 278.62 8.28L278.62 8.28L278.62 8.28Q282.45 5.20 282.79 4.80L282.79 4.80L282.79 4.80Q287.02-1.54 294.27-13.20L294.27-13.20L294.27-13.20Q288.10-6.74 282.30-2.91L282.30-2.91L282.30-2.91Q276.50 0.91 273.65 0.91L273.65 0.91L273.65 0.91Q264.91 0.91 264.91-6.57L264.91-6.57L264.91-6.57Q264.91-12.51 267.93-18.57L267.93-18.57L267.93-18.57Q270.96-24.62 275.70-29.39L275.70-29.39L275.70-29.39Q280.45-34.16 285.96-37.96zM307.70-39.42L307.70-39.42L307.70-39.42Q301.07-37.99 295.24-34.71L295.24-34.71L295.24-34.71Q289.42-31.42 285.64-27.68L285.64-27.68L285.64-27.68Q281.87-23.94 279.13-20.00L279.13-20.00L279.13-20.00Q273.99-12.63 273.99-8.57L273.99-8.57L273.99-8.57Q273.99-7.60 274.48-7.60L274.48-7.60L274.48-7.60Q274.96-7.60 276.65-8.63L276.65-8.63L276.65-8.63Q278.33-9.65 281.42-12.14L281.42-12.14L281.42-12.14Q284.50-14.63 288.27-18.05L288.27-18.05L288.27-18.05Q297.01-26.11 307.70-39.42" fill="#f81b24" stroke="none" stroke-width="none" transform="translate(-202.09503173828125,31.872117836692112)" style="fill: rgb(0, 149, 83);"/></g><g class="path" style="transform: scale(0.91); transform-origin: 150.76px 28.9321px; animation: 1s linear -0.12s infinite normal forwards running breath-bed0d9de-42ca-4302-9be0-de94bd8a9e21;"><path d="M346.43-0.57L346.43-0.57Q346.43-4.06 349.17-6.77L349.17-6.77L349.17-6.77Q351.91-9.48 354.54-9.48L354.54-9.48L354.54-9.48Q359.28-9.48 359.28-5.60L359.28-5.60L359.28-5.60Q359.28-2.40 356.60 0.60L356.60 0.60L356.60 0.60Q353.91 3.60 350.54 3.60L350.54 3.60L350.54 3.60Q346.43 3.60 346.43-0.57L346.43-0.57" fill="#f81b24" stroke="none" stroke-width="none" transform="translate(-202.09503173828125,31.872117836692112)" style="fill: rgb(254, 93, 39);"/></g><g class="path" style="transform: scale(0.91); transform-origin: 177.9px 28.9321px; animation: 1s linear -0.06s infinite normal forwards running breath-bed0d9de-42ca-4302-9be0-de94bd8a9e21;"><path d="M373.57-0.57L373.57-0.57Q373.57-4.06 376.31-6.77L376.31-6.77L376.31-6.77Q379.05-9.48 381.68-9.48L381.68-9.48L381.68-9.48Q386.42-9.48 386.42-5.60L386.42-5.60L386.42-5.60Q386.42-2.40 383.73 0.60L383.73 0.60L383.73 0.60Q381.05 3.60 377.68 3.60L377.68 3.60L377.68 3.60Q373.57 3.60 373.57-0.57L373.57-0.57" fill="#f81b24" stroke="none" stroke-width="none" transform="translate(-202.09503173828125,31.872117836692112)" style="fill: rgb(248, 27, 36);"/></g><g class="path" style="transform: scale(0.91); transform-origin: 205.035px 28.9321px; animation: 1s linear 0s infinite normal forwards running breath-bed0d9de-42ca-4302-9be0-de94bd8a9e21;"><path d="M400.70-0.57L400.70-0.57Q400.70-4.06 403.44-6.77L403.44-6.77L403.44-6.77Q406.19-9.48 408.81-9.48L408.81-9.48L408.81-9.48Q413.56-9.48 413.56-5.60L413.56-5.60L413.56-5.60Q413.56-2.40 410.87 0.60L410.87 0.60L410.87 0.60Q408.19 3.60 404.82 3.60L404.82 3.60L404.82 3.60Q400.70 3.60 400.70-0.57L400.70-0.57" fill="#f81b24" stroke="none" stroke-width="none" transform="translate(-202.09503173828125,31.872117836692112)" style="fill: rgb(0, 149, 83);"/></g></g>
</g>
</g>
<style id="breath-bed0d9de-42ca-4302-9be0-de94bd8a9e21" data-anikit="">@keyframes breath-bed0d9de-42ca-4302-9be0-de94bd8a9e21
{
  0% {
    animation-timing-function: cubic-bezier(0.9647,0.2413,-0.0705,0.7911);
    transform: scale(0.9099999999999999);
  }
  51% {
    animation-timing-function: cubic-bezier(0.9226,0.2631,-0.0308,0.7628);
    transform: scale(1.02994);
  }
  100% {
    transform: scale(0.9099999999999999);
  }
}</style></svg>