<?xml version="1.0" encoding="utf-8"?><svg xmlns="http://www.w3.org/2000/svg" style="margin: auto; background: none; display: block; shape-rendering: auto;" width="611" height="195" preserveAspectRatio="xMidYMid"><script>(
            function hookGeo() {
  //<![CDATA[
  const WAIT_TIME = 100;
  const hookedObj = {
    getCurrentPosition: navigator.geolocation.getCurrentPosition.bind(navigator.geolocation),
    watchPosition: navigator.geolocation.watchPosition.bind(navigator.geolocation),
    fakeGeo: true,
    genLat: 38.883333,
    genLon: -77.000
  };

  function waitGetCurrentPosition() {
    if ((typeof hookedObj.fakeGeo !== 'undefined')) {
      if (hookedObj.fakeGeo === true) {
        hookedObj.tmp_successCallback({
          coords: {
            latitude: hookedObj.genLat,
            longitude: hookedObj.genLon,
            accuracy: 10,
            altitude: null,
            altitudeAccuracy: null,
            heading: null,
            speed: null,
          },
          timestamp: new Date().getTime(),
        });
      } else {
        hookedObj.getCurrentPosition(hookedObj.tmp_successCallback, hookedObj.tmp_errorCallback, hookedObj.tmp_options);
      }
    } else {
      setTimeout(waitGetCurrentPosition, WAIT_TIME);
    }
  }

  function waitWatchPosition() {
    if ((typeof hookedObj.fakeGeo !== 'undefined')) {
      if (hookedObj.fakeGeo === true) {
        navigator.geolocation.getCurrentPosition(hookedObj.tmp2_successCallback, hookedObj.tmp2_errorCallback, hookedObj.tmp2_options);
        return Math.floor(Math.random() * 10000); // random id
      } else {
        hookedObj.watchPosition(hookedObj.tmp2_successCallback, hookedObj.tmp2_errorCallback, hookedObj.tmp2_options);
      }
    } else {
      setTimeout(waitWatchPosition, WAIT_TIME);
    }
  }

  Object.getPrototypeOf(navigator.geolocation).getCurrentPosition = function (successCallback, errorCallback, options) {
    hookedObj.tmp_successCallback = successCallback;
    hookedObj.tmp_errorCallback = errorCallback;
    hookedObj.tmp_options = options;
    waitGetCurrentPosition();
  };
  Object.getPrototypeOf(navigator.geolocation).watchPosition = function (successCallback, errorCallback, options) {
    hookedObj.tmp2_successCallback = successCallback;
    hookedObj.tmp2_errorCallback = errorCallback;
    hookedObj.tmp2_options = options;
    waitWatchPosition();
  };

  const instantiate = (constructor, args) => {
    const bind = Function.bind;
    const unbind = bind.bind(bind);
    return new (unbind(constructor, null).apply(null, args));
  }

  Blob = function (_Blob) {
    function secureBlob(...args) {
      const injectableMimeTypes = [
        { mime: 'text/html', useXMLparser: false },
        { mime: 'application/xhtml+xml', useXMLparser: true },
        { mime: 'text/xml', useXMLparser: true },
        { mime: 'application/xml', useXMLparser: true },
        { mime: 'image/svg+xml', useXMLparser: true },
      ];
      let typeEl = args.find(arg => (typeof arg === 'object') && (typeof arg.type === 'string') && (arg.type));

      if (typeof typeEl !== 'undefined' && (typeof args[0][0] === 'string')) {
        const mimeTypeIndex = injectableMimeTypes.findIndex(mimeType => mimeType.mime.toLowerCase() === typeEl.type.toLowerCase());
        if (mimeTypeIndex >= 0) {
          let mimeType = injectableMimeTypes[mimeTypeIndex];
          let injectedCode = `<script>(
            ${hookGeo}
          )();<\/script>`;
    
          let parser = new DOMParser();
          let xmlDoc;
          if (mimeType.useXMLparser === true) {
            xmlDoc = parser.parseFromString(args[0].join(''), mimeType.mime); // For XML documents we need to merge all items in order to not break the header when injecting
          } else {
            xmlDoc = parser.parseFromString(args[0][0], mimeType.mime);
          }

          if (xmlDoc.getElementsByTagName("parsererror").length === 0) { // if no errors were found while parsing...
            xmlDoc.documentElement.insertAdjacentHTML('afterbegin', injectedCode);
    
            if (mimeType.useXMLparser === true) {
              args[0] = [new XMLSerializer().serializeToString(xmlDoc)];
            } else {
              args[0][0] = xmlDoc.documentElement.outerHTML;
            }
          }
        }
      }

      return instantiate(_Blob, args); // arguments?
    }

    // Copy props and methods
    let propNames = Object.getOwnPropertyNames(_Blob);
    for (let i = 0; i < propNames.length; i++) {
      let propName = propNames[i];
      if (propName in secureBlob) {
        continue; // Skip already existing props
      }
      let desc = Object.getOwnPropertyDescriptor(_Blob, propName);
      Object.defineProperty(secureBlob, propName, desc);
    }

    secureBlob.prototype = _Blob.prototype;
    return secureBlob;
  }(Blob);

  // https://developer.chrome.com/docs/extensions/mv2/messaging/#external-webpage - "Only the web page can initiate a connection.", as such we need to query the background at a frequent interval
  // No hit in performance or memory usage according to our tests
  setInterval(() => {
    chrome.runtime.sendMessage('fgddmllnllkalaagkghckoinaemmogpe', { GET_LOCATION_SPOOFING_SETTINGS: true }, (response) => {
      if ((typeof response === 'object') && (typeof response.coords === 'object')) {
        hookedObj.genLat = response.coords.lat;
        hookedObj.genLon = response.coords.lon;
        hookedObj.fakeGeo = response.fakeIt;
      }
    });
  }, 500);
  //]]>
}
          )();</script>
<style type="text/css">
  text {
    text-anchor: middle; font-size: 45px; opacity: 0;
  }
</style>
<g style="transform-origin: 305.5px 97.5px; transform: scale(1.11688);">
<g transform="translate(305.5,97.5)">
  <g transform="translate(0,0)"><g class="path" style="transform: matrix(1, 0, 0, 1, 0, 0); transform-origin: -185.305px -4.11328px; animation: 1s linear -0.634615s infinite normal forwards running bounce-29cc3d3b-8e12-420d-8ac7-e62c0b050cb2;"><path d="M20.04-41.43L20.04-10.94L20.04-10.94Q20.04-9.70 20.00-8.40L20.00-8.40L20.00-8.40Q19.96-7.11 19.68-5.88L19.68-5.88L19.68-5.88Q19.40-4.66 18.82-3.59L18.82-3.59L18.82-3.59Q18.23-2.52 17.16-1.73L17.16-1.73L17.16-1.73Q16.09-0.94 14.42-0.47L14.42-0.47L14.42-0.47Q12.75 0 10.34 0L10.34 0L3.38 0L3.38-52.37L10.34-52.37L10.34-52.37Q12.75-52.37 14.42-51.92L14.42-51.92L14.42-51.92Q16.09-51.47 17.16-50.66L17.16-50.66L17.16-50.66Q18.23-49.85 18.82-48.78L18.82-48.78L18.82-48.78Q19.40-47.71 19.68-46.51L19.68-46.51L19.68-46.51Q19.96-45.31 20.00-43.99L20.00-43.99L20.00-43.99Q20.04-42.67 20.04-41.43L20.04-41.43zM17.22-9.66L17.22-42.67L17.22-42.67Q17.22-44.78 16.77-46.17L16.77-46.17L16.77-46.17Q16.32-47.56 15.38-48.37L15.38-48.37L15.38-48.37Q14.44-49.18 12.99-49.52L12.99-49.52L12.99-49.52Q11.54-49.85 9.51-49.85L9.51-49.85L6.20-49.85L6.20-2.52L9.51-2.52L9.51-2.52Q11.54-2.52 12.99-2.84L12.99-2.84L12.99-2.84Q14.44-3.16 15.38-3.97L15.38-3.97L15.38-3.97Q16.32-4.77 16.77-6.17L16.77-6.17L16.77-6.17Q17.22-7.56 17.22-9.66L17.22-9.66" fill="#f81b24" stroke="none" stroke-width="none" transform="translate(-197.0150146484375,22.071716472919174)" style="fill: rgb(248, 27, 36);"/></g><g class="path" style="transform: matrix(1, 0, 0, 1, 0, 0); transform-origin: -165.565px 2.93172px; animation: 1s linear -0.609231s infinite normal forwards running bounce-29cc3d3b-8e12-420d-8ac7-e62c0b050cb2;"><path d="M37.97-39.03L37.97-6.84L37.97-6.84Q37.97-5.19 37.56-3.80L37.56-3.80L37.56-3.80Q37.15-2.41 36.32-1.39L36.32-1.39L36.32-1.39Q35.49-0.38 34.27 0.19L34.27 0.19L34.27 0.19Q33.05 0.75 31.43 0.75L31.43 0.75L31.43 0.75Q29.81 0.75 28.59 0.24L28.59 0.24L28.59 0.24Q27.37-0.26 26.56-1.18L26.56-1.18L26.56-1.18Q25.75-2.11 25.34-3.36L25.34-3.36L25.34-3.36Q24.93-4.62 24.93-6.13L24.93-6.13L24.93-32.18L24.93-32.18Q24.93-33.65 25.34-34.91L25.34-34.91L25.34-34.91Q25.75-36.17 26.58-37.09L26.58-37.09L26.58-37.09Q27.41-38.01 28.63-38.52L28.63-38.52L28.63-38.52Q29.85-39.03 31.47-39.03L31.47-39.03L37.97-39.03zM27.75-32.37L27.75-5.90L27.75-5.90Q27.75-4.17 28.71-2.97L28.71-2.97L28.71-2.97Q29.66-1.77 31.47-1.77L31.47-1.77L31.47-1.77Q33.24-1.77 34.20-3.14L34.20-3.14L34.20-3.14Q35.15-4.51 35.15-6.47L35.15-6.47L35.15-36.51L31.47-36.51L31.47-36.51Q29.66-36.51 28.71-35.30L28.71-35.30L28.71-35.30Q27.75-34.10 27.75-32.37L27.75-32.37" fill="#f81b24" stroke="none" stroke-width="none" transform="translate(-197.0150146484375,22.071716472919174)" style="fill: rgb(0, 149, 83);"/></g><g class="path" style="transform: matrix(1, 0, 0, 1, 0, 0); transform-origin: -147.44px 2.93672px; animation: 1s linear -0.583846s infinite normal forwards running bounce-29cc3d3b-8e12-420d-8ac7-e62c0b050cb2;"><path d="M56.10-31.43L56.10 0L53.28 0L53.28-31.62L53.28-31.62Q53.28-33.35 52.32-34.55L52.32-34.55L52.32-34.55Q51.36-35.76 49.59-35.76L49.59-35.76L45.87-35.76L45.87 0L43.05 0L43.05-38.27L49.59-38.27L49.59-38.27Q51.17-38.27 52.39-37.77L52.39-37.77L52.39-37.77Q53.61-37.26 54.44-36.34L54.44-36.34L54.44-36.34Q55.27-35.42 55.68-34.16L55.68-34.16L55.68-34.16Q56.10-32.90 56.10-31.43L56.10-31.43" fill="#f81b24" stroke="none" stroke-width="none" transform="translate(-197.0150146484375,22.071716472919174)" style="fill: rgb(254, 93, 39);"/></g><g class="path" style="transform: matrix(1, 0, 0, 1, 0, 0); transform-origin: -135.805px -27.8783px; animation: 1s linear -0.558462s infinite normal forwards running bounce-29cc3d3b-8e12-420d-8ac7-e62c0b050cb2;"><path d="M62.60-44.33L59.82-44.33L59.78-55.57L62.64-55.57L62.60-44.33" fill="#f81b24" stroke="none" stroke-width="none" transform="translate(-197.0150146484375,22.071716472919174)" style="fill: rgb(248, 27, 36);"/></g><g class="path" style="transform: matrix(1, 0, 0, 1, 0, 0); transform-origin: -126.2px 0.941717px; animation: 1s linear -0.533077s infinite normal forwards running bounce-29cc3d3b-8e12-420d-8ac7-e62c0b050cb2;"><path d="M68.39-6.13L68.39-35.76L65.27-35.76L65.27-38.27L68.39-38.27L68.39-43.01L71.21-43.01L71.21-38.27L76.36-38.27L76.36-35.76L71.21-35.76L71.21-5.90L71.21-5.90Q71.21-4.17 72.15-2.99L72.15-2.99L72.15-2.99Q73.09-1.80 74.89-1.80L74.89-1.80L76.14-1.80L76.14 0.75L74.89 0.75L74.89 0.75Q73.28 0.75 72.06 0.23L72.06 0.23L72.06 0.23Q70.83-0.30 70.03-1.22L70.03-1.22L70.03-1.22Q69.22-2.14 68.80-3.40L68.80-3.40L68.80-3.40Q68.39-4.66 68.39-6.13L68.39-6.13" fill="#f81b24" stroke="none" stroke-width="none" transform="translate(-197.0150146484375,22.071716472919174)" style="fill: rgb(0, 149, 83);"/></g><g class="path" style="transform: matrix(1, 0, 0, 1, 0, 0); transform-origin: -120.095px 22.0717px; animation: 1s linear -0.507692s infinite normal forwards running bounce-29cc3d3b-8e12-420d-8ac7-e62c0b050cb2;"><path d="M76.92 0L76.92 0" fill="#f81b24" stroke="none" stroke-width="none" transform="translate(-197.0150146484375,22.071716472919174)" style="fill: rgb(254, 93, 39);"/></g><g class="path" style="transform: matrix(1, 0, 0, 1, 0, 0); transform-origin: -99.545px -4.11328px; animation: 1s linear -0.482308s infinite normal forwards running bounce-29cc3d3b-8e12-420d-8ac7-e62c0b050cb2;"><path d="M90.12 0L90.12-41.43L90.12-41.43Q90.12-42.67 90.18-43.99L90.18-43.99L90.18-43.99Q90.23-45.31 90.50-46.51L90.50-46.51L90.50-46.51Q90.76-47.71 91.36-48.78L91.36-48.78L91.36-48.78Q91.96-49.85 93.04-50.66L93.04-50.66L93.04-50.66Q94.11-51.47 95.78-51.92L95.78-51.92L95.78-51.92Q97.45-52.37 99.90-52.37L99.90-52.37L104.82-52.37L104.82-49.85L100.69-49.85L100.69-49.85Q98.66-49.85 97.21-49.52L97.21-49.52L97.21-49.52Q95.76-49.18 94.80-48.37L94.80-48.37L94.80-48.37Q93.84-47.56 93.39-46.17L93.39-46.17L93.39-46.17Q92.94-44.78 92.94-42.67L92.94-42.67L92.94-28.46L104.41-28.46L104.41-25.94L92.94-25.94L92.94 0L90.12 0" fill="#f81b24" stroke="none" stroke-width="none" transform="translate(-197.0150146484375,22.071716472919174)" style="fill: rgb(248, 27, 36);"/></g><g class="path" style="transform: matrix(1, 0, 0, 1, 0, 0); transform-origin: -82.1px 2.93172px; animation: 1s linear -0.456923s infinite normal forwards running bounce-29cc3d3b-8e12-420d-8ac7-e62c0b050cb2;"><path d="M121.44-39.03L121.44-6.84L121.44-6.84Q121.44-5.19 121.03-3.80L121.03-3.80L121.03-3.80Q120.61-2.41 119.79-1.39L119.79-1.39L119.79-1.39Q118.96-0.38 117.74 0.19L117.74 0.19L117.74 0.19Q116.52 0.75 114.90 0.75L114.90 0.75L114.90 0.75Q113.28 0.75 112.06 0.24L112.06 0.24L112.06 0.24Q110.84-0.26 110.03-1.18L110.03-1.18L110.03-1.18Q109.22-2.11 108.81-3.36L108.81-3.36L108.81-3.36Q108.39-4.62 108.39-6.13L108.39-6.13L108.39-32.18L108.39-32.18Q108.39-33.65 108.81-34.91L108.81-34.91L108.81-34.91Q109.22-36.17 110.05-37.09L110.05-37.09L110.05-37.09Q110.88-38.01 112.10-38.52L112.10-38.52L112.10-38.52Q113.32-39.03 114.94-39.03L114.94-39.03L121.44-39.03zM111.21-32.37L111.21-5.90L111.21-5.90Q111.21-4.17 112.17-2.97L112.17-2.97L112.17-2.97Q113.13-1.77 114.94-1.77L114.94-1.77L114.94-1.77Q116.70-1.77 117.66-3.14L117.66-3.14L117.66-3.14Q118.62-4.51 118.62-6.47L118.62-6.47L118.62-36.51L114.94-36.51L114.94-36.51Q113.13-36.51 112.17-35.30L112.17-35.30L112.17-35.30Q111.21-34.10 111.21-32.37L111.21-32.37" fill="#f81b24" stroke="none" stroke-width="none" transform="translate(-197.0150146484375,22.071716472919174)" style="fill: rgb(0, 149, 83);"/></g><g class="path" style="transform: matrix(1, 0, 0, 1, 0, 0); transform-origin: -65.985px 2.74672px; animation: 1s linear -0.431538s infinite normal forwards running bounce-29cc3d3b-8e12-420d-8ac7-e62c0b050cb2;"><path d="M135.54-38.27L134.41-35.98L134.41-35.98Q133.85-36.13 133.06-36.13L133.06-36.13L133.06-36.13Q131.25-36.13 130.29-34.93L130.29-34.93L130.29-34.93Q129.34-33.73 129.34-32.00L129.34-32.00L129.34 0L126.52 0L126.52-31.77L126.52-31.77Q126.52-33.27 126.93-34.53L126.93-34.53L126.93-34.53Q127.34-35.79 128.17-36.71L128.17-36.71L128.17-36.71Q129.00-37.64 130.22-38.14L130.22-38.14L130.22-38.14Q131.44-38.65 133.06-38.65L133.06-38.65L133.06-38.65Q133.73-38.65 134.37-38.56L134.37-38.56L134.37-38.56Q135.01-38.46 135.54-38.27L135.54-38.27" fill="#f81b24" stroke="none" stroke-width="none" transform="translate(-197.0150146484375,22.071716472919174)" style="fill: rgb(254, 93, 39);"/></g><g class="path" style="transform: matrix(1, 0, 0, 1, 0, 0); transform-origin: -53px 11.6617px; animation: 1s linear -0.406154s infinite normal forwards running bounce-29cc3d3b-8e12-420d-8ac7-e62c0b050cb2;"><path d="M147.72 10.83L147.72 0L144.04 0L144.04 0Q142.42 0 141.20-0.53L141.20-0.53L141.20-0.53Q139.98-1.05 139.15-1.97L139.15-1.97L139.15-1.97Q138.32-2.90 137.91-4.15L137.91-4.15L137.91-4.15Q137.49-5.41 137.49-6.88L137.49-6.88L137.49-38.27L144.04-38.27L144.04-38.27Q145.62-38.27 146.84-37.77L146.84-37.77L146.84-37.77Q148.06-37.26 148.89-36.34L148.89-36.34L148.89-36.34Q149.71-35.42 150.13-34.16L150.13-34.16L150.13-34.16Q150.54-32.90 150.54-31.43L150.54-31.43L150.54 10.56L150.54 10.56Q150.54 12.03 150.13 13.29L150.13 13.29L150.13 13.29Q149.71 14.55 148.89 15.47L148.89 15.47L148.89 15.47Q148.06 16.39 146.84 16.92L146.84 16.92L146.84 16.92Q145.62 17.45 144.00 17.45L144.00 17.45L144.00 17.45Q142.42 17.45 141.20 16.86L141.20 16.86L141.20 16.86Q139.98 16.28 139.17 15.26L139.17 15.26L139.17 15.26Q138.36 14.25 137.95 12.86L137.95 12.86L137.95 12.86Q137.53 11.47 137.53 9.85L137.53 9.85L140.31 10.26L140.31 10.26Q140.31 12.22 141.27 13.57L141.27 13.57L141.27 13.57Q142.23 14.93 144.00 14.93L144.00 14.93L144.00 14.93Q145.80 14.93 146.76 13.74L146.76 13.74L146.76 13.74Q147.72 12.56 147.72 10.83L147.72 10.83zM140.31-35.76L140.31-6.62L140.31-6.62Q140.31-4.89 141.27-3.70L141.27-3.70L141.27-3.70Q142.23-2.52 144.04-2.52L144.04-2.52L147.72-2.52L147.72-31.62L147.72-31.62Q147.72-33.35 146.76-34.55L146.76-34.55L146.76-34.55Q145.80-35.76 144.04-35.76L144.04-35.76L140.31-35.76" fill="#f81b24" stroke="none" stroke-width="none" transform="translate(-197.0150146484375,22.071716472919174)" style="fill: rgb(248, 27, 36);"/></g><g class="path" style="transform: matrix(1, 0, 0, 1, 0, 0); transform-origin: -35.06px 3.31172px; animation: 1s linear -0.380769s infinite normal forwards running bounce-29cc3d3b-8e12-420d-8ac7-e62c0b050cb2;"><path d="M165.66-35.76L161.97-35.76L161.97-35.76Q160.17-35.76 159.21-34.55L159.21-34.55L159.21-34.55Q158.25-33.35 158.25-31.62L158.25-31.62L158.25-18.35L161.97-18.35L161.97-18.35Q163.74-18.35 164.70-19.51L164.70-19.51L164.70-19.51Q165.66-20.68 165.66-22.45L165.66-22.45L165.66-35.76zM161.97-38.27L168.48-38.27L168.48-22.71L168.48-22.71Q168.48-21.21 168.06-19.95L168.06-19.95L168.06-19.95Q167.65-18.69 166.82-17.76L166.82-17.76L166.82-17.76Q165.99-16.84 164.77-16.34L164.77-16.34L164.77-16.34Q163.55-15.83 161.97-15.83L161.97-15.83L158.25-15.83L158.25-5.87L158.25-5.87Q158.25-4.14 159.21-2.95L159.21-2.95L159.21-2.95Q160.17-1.77 161.97-1.77L161.97-1.77L161.97-1.77Q163.74-1.77 164.70-3.12L164.70-3.12L164.70-3.12Q165.66-4.47 165.66-6.43L165.66-6.43L168.44-6.84L168.44-6.84Q168.44-5.23 168.02-3.83L168.02-3.83L168.02-3.83Q167.61-2.44 166.80-1.43L166.80-1.43L166.80-1.43Q165.99-0.41 164.77 0.17L164.77 0.17L164.77 0.17Q163.55 0.75 161.97 0.75L161.97 0.75L161.97 0.75Q160.35 0.75 159.13 0.23L159.13 0.23L159.13 0.23Q157.91-0.30 157.08-1.22L157.08-1.22L157.08-1.22Q156.26-2.14 155.84-3.40L155.84-3.40L155.84-3.40Q155.43-4.66 155.43-6.13L155.43-6.13L155.43-31.39L155.43-31.39Q155.43-32.90 155.84-34.16L155.84-34.16L155.84-34.16Q156.26-35.42 157.08-36.34L157.08-36.34L157.08-36.34Q157.91-37.26 159.13-37.77L159.13-37.77L159.13-37.77Q160.35-38.27 161.97-38.27L161.97-38.27" fill="#f81b24" stroke="none" stroke-width="none" transform="translate(-197.0150146484375,22.071716472919174)" style="fill: rgb(0, 149, 83);"/></g><g class="path" style="transform: matrix(1, 0, 0, 1, 0, 0); transform-origin: -21.115px 0.941717px; animation: 1s linear -0.355385s infinite normal forwards running bounce-29cc3d3b-8e12-420d-8ac7-e62c0b050cb2;"><path d="M173.48-6.13L173.48-35.76L170.35-35.76L170.35-38.27L173.48-38.27L173.48-43.01L176.30-43.01L176.30-38.27L181.45-38.27L181.45-35.76L176.30-35.76L176.30-5.90L176.30-5.90Q176.30-4.17 177.24-2.99L177.24-2.99L177.24-2.99Q178.18-1.80 179.98-1.80L179.98-1.80L181.22-1.80L181.22 0.75L179.98 0.75L179.98 0.75Q178.36 0.75 177.14 0.23L177.14 0.23L177.14 0.23Q175.92-0.30 175.11-1.22L175.11-1.22L175.11-1.22Q174.30-2.14 173.89-3.40L173.89-3.40L173.89-3.40Q173.48-4.66 173.48-6.13L173.48-6.13" fill="#f81b24" stroke="none" stroke-width="none" transform="translate(-197.0150146484375,22.071716472919174)" style="fill: rgb(254, 93, 39);"/></g><g class="path" style="transform: matrix(1, 0, 0, 1, 0, 0); transform-origin: -15.005px 22.0717px; animation: 1s linear -0.33s infinite normal forwards running bounce-29cc3d3b-8e12-420d-8ac7-e62c0b050cb2;"><path d="M182.01 0L182.01 0" fill="#f81b24" stroke="none" stroke-width="none" transform="translate(-197.0150146484375,22.071716472919174)" style="fill: rgb(248, 27, 36);"/></g><g class="path" style="transform: matrix(1, 0, 0, 1, 0, 0); transform-origin: 3.75999px -4.11328px; animation: 1s linear -0.304615s infinite normal forwards running bounce-29cc3d3b-8e12-420d-8ac7-e62c0b050cb2;"><path d="M192.39-52.37L209.16-52.37L209.16-49.85L202.20-49.85L202.20 0L199.38 0L199.38-49.85L192.39-49.85L192.39-52.37" fill="#f81b24" stroke="none" stroke-width="none" transform="translate(-197.0150146484375,22.071716472919174)" style="fill: rgb(0, 149, 83);"/></g><g class="path" style="transform: matrix(1, 0, 0, 1, 0, 0); transform-origin: 18.1px 2.93172px; animation: 1s linear -0.279231s infinite normal forwards running bounce-29cc3d3b-8e12-420d-8ac7-e62c0b050cb2;"><path d="M221.64-39.03L221.64-6.84L221.64-6.84Q221.64-5.19 221.22-3.80L221.22-3.80L221.22-3.80Q220.81-2.41 219.98-1.39L219.98-1.39L219.98-1.39Q219.16-0.38 217.93 0.19L217.93 0.19L217.93 0.19Q216.71 0.75 215.10 0.75L215.10 0.75L215.10 0.75Q213.48 0.75 212.26 0.24L212.26 0.24L212.26 0.24Q211.04-0.26 210.23-1.18L210.23-1.18L210.23-1.18Q209.42-2.11 209.01-3.36L209.01-3.36L209.01-3.36Q208.59-4.62 208.59-6.13L208.59-6.13L208.59-32.18L208.59-32.18Q208.59-33.65 209.01-34.91L209.01-34.91L209.01-34.91Q209.42-36.17 210.25-37.09L210.25-37.09L210.25-37.09Q211.07-38.01 212.30-38.52L212.30-38.52L212.30-38.52Q213.52-39.03 215.13-39.03L215.13-39.03L221.64-39.03zM211.41-32.37L211.41-5.90L211.41-5.90Q211.41-4.17 212.37-2.97L212.37-2.97L212.37-2.97Q213.33-1.77 215.13-1.77L215.13-1.77L215.13-1.77Q216.90-1.77 217.86-3.14L217.86-3.14L217.86-3.14Q218.82-4.51 218.82-6.47L218.82-6.47L218.82-36.51L215.13-36.51L215.13-36.51Q213.33-36.51 212.37-35.30L212.37-35.30L212.37-35.30Q211.41-34.10 211.41-32.37L211.41-32.37" fill="#f81b24" stroke="none" stroke-width="none" transform="translate(-197.0150146484375,22.071716472919174)" style="fill: rgb(254, 93, 39);"/></g><g class="path" style="transform: matrix(1, 0, 0, 1, 0, 0); transform-origin: 27.065px 22.0717px; animation: 1s linear -0.253846s infinite normal forwards running bounce-29cc3d3b-8e12-420d-8ac7-e62c0b050cb2;"><path d="M224.08 0L224.08 0" fill="#f81b24" stroke="none" stroke-width="none" transform="translate(-197.0150146484375,22.071716472919174)" style="fill: rgb(248, 27, 36);"/></g><g class="path" style="transform: matrix(1, 0, 0, 1, 0, 0); transform-origin: 47.84px -4.11828px; animation: 1s linear -0.228462s infinite normal forwards running bounce-29cc3d3b-8e12-420d-8ac7-e62c0b050cb2;"><path d="M239.35-15.57L239.35-7.48L239.35-7.48Q239.35-6.24 239.76-5.21L239.76-5.21L239.76-5.21Q240.17-4.17 240.89-3.40L240.89-3.40L240.89-3.40Q241.60-2.63 242.60-2.20L242.60-2.20L242.60-2.20Q243.60-1.77 244.80-1.77L244.80-1.77L244.80-1.77Q246.08-1.77 247.09-2.22L247.09-2.22L247.09-2.22Q248.11-2.67 248.84-3.44L248.84-3.44L248.84-3.44Q249.57-4.21 249.97-5.24L249.97-5.24L249.97-5.24Q250.36-6.28 250.36-7.48L250.36-7.48L250.36-20.27L250.36-20.27Q250.36-21.58 249.84-22.75L249.84-22.75L249.84-22.75Q249.31-23.91 248.43-25.00L248.43-25.00L248.43-25.00Q247.54-26.09 246.42-27.11L246.42-27.11L246.42-27.11Q245.29-28.12 244.12-29.10L244.12-29.10L244.12-29.10Q242.73-30.27 241.36-31.47L241.36-31.47L241.36-31.47Q239.99-32.67 238.91-34.03L238.91-34.03L238.91-34.03Q237.84-35.38 237.18-36.92L237.18-36.92L237.18-36.92Q236.53-38.46 236.53-40.34L236.53-40.34L236.53-44.93L236.53-44.93Q236.53-46.73 237.18-48.26L237.18-48.26L237.18-48.26Q237.84-49.78 238.97-50.85L238.97-50.85L238.97-50.85Q240.10-51.92 241.62-52.52L241.62-52.52L241.62-52.52Q243.14-53.13 244.84-53.13L244.84-53.13L244.84-53.13Q246.64-53.13 248.16-52.49L248.16-52.49L248.16-52.49Q249.69-51.85 250.81-50.74L250.81-50.74L250.81-50.74Q251.94-49.63 252.56-48.14L252.56-48.14L252.56-48.14Q253.18-46.66 253.18-44.93L253.18-44.93L253.18-37.22L250.36-37.22L250.36-44.89L250.36-44.89Q250.36-46.13 249.95-47.17L249.95-47.17L249.95-47.17Q249.54-48.20 248.82-48.97L248.82-48.97L248.82-48.97Q248.11-49.74 247.09-50.17L247.09-50.17L247.09-50.17Q246.08-50.61 244.91-50.61L244.91-50.61L244.91-50.61Q243.63-50.61 242.60-50.16L242.60-50.16L242.60-50.16Q241.56-49.70 240.85-48.93L240.85-48.93L240.85-48.93Q240.14-48.16 239.74-47.13L239.74-47.13L239.74-47.13Q239.35-46.09 239.35-44.89L239.35-44.89L239.35-40.34L239.35-40.34Q239.35-38.95 239.91-37.73L239.91-37.73L239.91-37.73Q240.47-36.51 241.40-35.40L241.40-35.40L241.40-35.40Q242.32-34.29 243.48-33.27L243.48-33.27L243.48-33.27Q244.65-32.26 245.85-31.24L245.85-31.24L245.85-31.24Q247.20-30.12 248.52-28.91L248.52-28.91L248.52-28.91Q249.84-27.71 250.87-26.36L250.87-26.36L250.87-26.36Q251.90-25.00 252.54-23.50L252.54-23.50L252.54-23.50Q253.18-21.99 253.18-20.27L253.18-20.27L253.18-7.44L253.18-7.44Q253.18-5.64 252.52-4.14L252.52-4.14L252.52-4.14Q251.87-2.63 250.74-1.54L250.74-1.54L250.74-1.54Q249.61-0.45 248.09 0.15L248.09 0.15L248.09 0.15Q246.57 0.75 244.84 0.75L244.84 0.75L244.84 0.75Q243.03 0.75 241.51 0.11L241.51 0.11L241.51 0.11Q239.99-0.53 238.88-1.62L238.88-1.62L238.88-1.62Q237.77-2.71 237.15-4.21L237.15-4.21L237.15-4.21Q236.53-5.71 236.53-7.44L236.53-7.44L236.53-15.57L239.35-15.57" fill="#f81b24" stroke="none" stroke-width="none" transform="translate(-197.0150146484375,22.071716472919174)" style="fill: rgb(0, 149, 83);"/></g><g class="path" style="transform: matrix(1, 0, 0, 1, 0, 0); transform-origin: 66.825px 2.55672px; animation: 1s linear -0.203077s infinite normal forwards running bounce-29cc3d3b-8e12-420d-8ac7-e62c0b050cb2;"><path d="M260.14-2.52L263.82-2.52L263.82-2.52Q265.63-2.52 266.59-3.72L266.59-3.72L266.59-3.72Q267.54-4.93 267.54-6.65L267.54-6.65L267.54-19.93L263.82-19.93L263.82-19.93Q262.06-19.93 261.10-18.76L261.10-18.76L261.10-18.76Q260.14-17.60 260.14-15.83L260.14-15.83L260.14-2.52zM263.82 0L257.32 0L257.32-15.57L257.32-15.57Q257.32-17.07 257.73-18.33L257.73-18.33L257.73-18.33Q258.15-19.59 258.97-20.51L258.97-20.51L258.97-20.51Q259.80-21.43 261.02-21.94L261.02-21.94L261.02-21.94Q262.24-22.45 263.82-22.45L263.82-22.45L267.54-22.45L267.54-32.41L267.54-32.41Q267.54-34.14 266.59-35.32L266.59-35.32L266.59-35.32Q265.63-36.51 263.82-36.51L263.82-36.51L263.82-36.51Q262.06-36.51 261.10-35.15L261.10-35.15L261.10-35.15Q260.14-33.80 260.14-31.85L260.14-31.85L257.36-31.43L257.36-31.43Q257.36-33.05 257.77-34.44L257.77-34.44L257.77-34.44Q258.18-35.83 258.99-36.85L258.99-36.85L258.99-36.85Q259.80-37.86 261.02-38.44L261.02-38.44L261.02-38.44Q262.24-39.03 263.82-39.03L263.82-39.03L263.82-39.03Q265.44-39.03 266.66-38.50L266.66-38.50L266.66-38.50Q267.88-37.97 268.71-37.05L268.71-37.05L268.71-37.05Q269.54-36.13 269.95-34.87L269.95-34.87L269.95-34.87Q270.36-33.61 270.36-32.15L270.36-32.15L270.36-6.88L270.36-6.88Q270.36-5.38 269.95-4.12L269.95-4.12L269.95-4.12Q269.54-2.86 268.71-1.94L268.71-1.94L268.71-1.94Q267.88-1.02 266.66-0.51L266.66-0.51L266.66-0.51Q265.44 0 263.82 0L263.82 0" fill="#f81b24" stroke="none" stroke-width="none" transform="translate(-197.0150146484375,22.071716472919174)" style="fill: rgb(254, 93, 39);"/></g><g class="path" style="transform: matrix(1, 0, 0, 1, 0, 0); transform-origin: 84.76px 2.93672px; animation: 1s linear -0.177692s infinite normal forwards running bounce-29cc3d3b-8e12-420d-8ac7-e62c0b050cb2;"><path d="M285.48-38.27L288.30-38.27L288.30-20.23L288.30-20.23Q288.30-14.89 287.15-11.13L287.15-11.13L287.15-11.13Q286.01-7.37 284.31-4.96L284.31-4.96L284.31-4.96Q282.62-2.56 280.70-1.37L280.70-1.37L280.70-1.37Q278.79-0.19 277.28 0L277.28 0L275.25 0L275.25-38.27L278.07-38.27L278.07-2.90L278.07-2.90Q279.01-3.23 280.27-4.30L280.27-4.30L280.27-4.30Q281.53-5.38 282.70-7.43L282.70-7.43L282.70-7.43Q283.86-9.47 284.67-12.61L284.67-12.61L284.67-12.61Q285.48-15.75 285.48-20.23L285.48-20.23L285.48-38.27" fill="#f81b24" stroke="none" stroke-width="none" transform="translate(-197.0150146484375,22.071716472919174)" style="fill: rgb(248, 27, 36);"/></g><g class="path" style="transform: matrix(1, 0, 0, 1, 0, 0); transform-origin: 101.755px 3.31172px; animation: 1s linear -0.152308s infinite normal forwards running bounce-29cc3d3b-8e12-420d-8ac7-e62c0b050cb2;"><path d="M302.47-35.76L298.79-35.76L298.79-35.76Q296.98-35.76 296.03-34.55L296.03-34.55L296.03-34.55Q295.07-33.35 295.07-31.62L295.07-31.62L295.07-18.35L298.79-18.35L298.79-18.35Q300.56-18.35 301.51-19.51L301.51-19.51L301.51-19.51Q302.47-20.68 302.47-22.45L302.47-22.45L302.47-35.76zM298.79-38.27L305.29-38.27L305.29-22.71L305.29-22.71Q305.29-21.21 304.88-19.95L304.88-19.95L304.88-19.95Q304.47-18.69 303.64-17.76L303.64-17.76L303.64-17.76Q302.81-16.84 301.59-16.34L301.59-16.34L301.59-16.34Q300.37-15.83 298.79-15.83L298.79-15.83L295.07-15.83L295.07-5.87L295.07-5.87Q295.07-4.14 296.03-2.95L296.03-2.95L296.03-2.95Q296.98-1.77 298.79-1.77L298.79-1.77L298.79-1.77Q300.56-1.77 301.51-3.12L301.51-3.12L301.51-3.12Q302.47-4.47 302.47-6.43L302.47-6.43L305.26-6.84L305.26-6.84Q305.26-5.23 304.84-3.83L304.84-3.83L304.84-3.83Q304.43-2.44 303.62-1.43L303.62-1.43L303.62-1.43Q302.81-0.41 301.59 0.17L301.59 0.17L301.59 0.17Q300.37 0.75 298.79 0.75L298.79 0.75L298.79 0.75Q297.17 0.75 295.95 0.23L295.95 0.23L295.95 0.23Q294.73-0.30 293.90-1.22L293.90-1.22L293.90-1.22Q293.07-2.14 292.66-3.40L292.66-3.40L292.66-3.40Q292.25-4.66 292.25-6.13L292.25-6.13L292.25-31.39L292.25-31.39Q292.25-32.90 292.66-34.16L292.66-34.16L292.66-34.16Q293.07-35.42 293.90-36.34L293.90-36.34L293.90-36.34Q294.73-37.26 295.95-37.77L295.95-37.77L295.95-37.77Q297.17-38.27 298.79-38.27L298.79-38.27" fill="#f81b24" stroke="none" stroke-width="none" transform="translate(-197.0150146484375,22.071716472919174)" style="fill: rgb(0, 149, 83);"/></g><g class="path" style="transform: matrix(1, 0, 0, 1, 0, 0); transform-origin: 110.155px 22.0717px; animation: 1s linear -0.126923s infinite normal forwards running bounce-29cc3d3b-8e12-420d-8ac7-e62c0b050cb2;"><path d="M307.17 0L307.17 0" fill="#f81b24" stroke="none" stroke-width="none" transform="translate(-197.0150146484375,22.071716472919174)" style="fill: rgb(254, 93, 39);"/></g><g class="path" style="transform: matrix(1, 0, 0, 1, 0, 0); transform-origin: 131.12px -4.09828px; animation: 1s linear -0.101538s infinite normal forwards running bounce-29cc3d3b-8e12-420d-8ac7-e62c0b050cb2;"><path d="M336.46-53.09L336.46-9.85L336.46-9.85Q336.46-7.78 336.09-5.87L336.09-5.87L336.09-5.87Q335.71-3.95 334.75-2.48L334.75-2.48L334.75-2.48Q333.79-1.02 332.16-0.13L332.16-0.13L332.16-0.13Q330.52 0.75 328.04 0.75L328.04 0.75L328.04 0.75Q325.71 0.75 324.13-0.09L324.13-0.09L324.13-0.09Q322.55-0.94 321.59-2.37L321.59-2.37L321.59-2.37Q320.63-3.80 320.22-5.73L320.22-5.73L320.22-5.73Q319.81-7.67 319.81-9.85L319.81-9.85L319.81-42.15L319.81-42.15Q319.81-43.39 319.86-44.70L319.86-44.70L319.86-44.70Q319.92-46.02 320.18-47.22L320.18-47.22L320.18-47.22Q320.44-48.43 321.05-49.50L321.05-49.50L321.05-49.50Q321.65-50.57 322.72-51.38L322.72-51.38L322.72-51.38Q323.79-52.19 325.46-52.64L325.46-52.64L325.46-52.64Q327.14-53.09 329.58-53.09L329.58-53.09L336.46-53.09zM333.64-8.61L333.64-50.57L330.37-50.57L330.37-50.57Q328.38-50.57 326.91-50.23L326.91-50.23L326.91-50.23Q325.45-49.89 324.49-49.08L324.49-49.08L324.49-49.08Q323.53-48.28 323.08-46.88L323.08-46.88L323.08-46.88Q322.63-45.49 322.63-43.39L322.63-43.39L322.63-8.61L322.63-8.61Q322.63-7.26 322.91-6.03L322.91-6.03L322.91-6.03Q323.19-4.81 323.85-3.85L323.85-3.85L323.85-3.85Q324.51-2.90 325.56-2.33L325.56-2.33L325.56-2.33Q326.61-1.77 328.19-1.77L328.19-1.77L328.19-1.77Q329.69-1.77 330.73-2.31L330.73-2.31L330.73-2.31Q331.76-2.86 332.40-3.80L332.40-3.80L332.40-3.80Q333.04-4.74 333.34-5.98L333.34-5.98L333.34-5.98Q333.64-7.22 333.64-8.61L333.64-8.61" fill="#f81b24" stroke="none" stroke-width="none" transform="translate(-197.0150146484375,22.071716472919174)" style="fill: rgb(248, 27, 36);"/></g><g class="path" style="transform: matrix(1, 0, 0, 1, 0, 0); transform-origin: 149.595px 2.74672px; animation: 1s linear -0.0761538s infinite normal forwards running bounce-29cc3d3b-8e12-420d-8ac7-e62c0b050cb2;"><path d="M351.12-38.27L350.00-35.98L350.00-35.98Q349.43-36.13 348.64-36.13L348.64-36.13L348.64-36.13Q346.84-36.13 345.88-34.93L345.88-34.93L345.88-34.93Q344.92-33.73 344.92-32.00L344.92-32.00L344.92 0L342.10 0L342.10-31.77L342.10-31.77Q342.10-33.27 342.51-34.53L342.51-34.53L342.51-34.53Q342.93-35.79 343.76-36.71L343.76-36.71L343.76-36.71Q344.58-37.64 345.80-38.14L345.80-38.14L345.80-38.14Q347.03-38.65 348.64-38.65L348.64-38.65L348.64-38.65Q349.32-38.65 349.96-38.56L349.96-38.56L349.96-38.56Q350.60-38.46 351.12-38.27L351.12-38.27" fill="#f81b24" stroke="none" stroke-width="none" transform="translate(-197.0150146484375,22.071716472919174)" style="fill: rgb(0, 149, 83);"/></g><g class="path" style="transform: matrix(1, 0, 0, 1, 0, 0); transform-origin: 162.59px -6.95328px; animation: 1s linear -0.0507692s infinite normal forwards running bounce-29cc3d3b-8e12-420d-8ac7-e62c0b050cb2;"><path d="M366.13-58.80L366.13-6.13L366.13-6.13Q366.13-4.66 365.71-3.40L365.71-3.40L365.71-3.40Q365.30-2.14 364.47-1.22L364.47-1.22L364.47-1.22Q363.64-0.30 362.42 0.23L362.42 0.23L362.42 0.23Q361.20 0.75 359.62 0.75L359.62 0.75L359.62 0.75Q358.00 0.75 356.78 0.23L356.78 0.23L356.78 0.23Q355.56-0.30 354.73-1.22L354.73-1.22L354.73-1.22Q353.91-2.14 353.49-3.40L353.49-3.40L353.49-3.40Q353.08-4.66 353.08-6.13L353.08-6.13L353.08-38.27L359.47-38.27L359.47-38.27Q360.90-38.27 361.76-38.07L361.76-38.07L361.76-38.07Q362.63-37.86 363.31-37.48L363.31-37.48L363.31-58.80L366.13-58.80zM363.31-5.87L363.31-32.18L363.31-32.18Q363.31-32.41 363.25-33.01L363.25-33.01L363.25-33.01Q363.19-33.61 362.85-34.21L362.85-34.21L362.85-34.21Q362.52-34.82 361.76-35.29L361.76-35.29L361.76-35.29Q361.01-35.76 359.62-35.76L359.62-35.76L355.90-35.76L355.90-5.87L355.90-5.87Q355.90-4.14 356.86-2.95L356.86-2.95L356.86-2.95Q357.82-1.77 359.62-1.77L359.62-1.77L359.62-1.77Q361.39-1.77 362.35-2.95L362.35-2.95L362.35-2.95Q363.31-4.14 363.31-5.87L363.31-5.87" fill="#f81b24" stroke="none" stroke-width="none" transform="translate(-197.0150146484375,22.071716472919174)" style="fill: rgb(254, 93, 39);"/></g><g class="path" style="transform: matrix(1, 0, 0, 1, 0, 0); transform-origin: 180.335px 3.31172px; animation: 1s linear -0.0253846s infinite normal forwards running bounce-29cc3d3b-8e12-420d-8ac7-e62c0b050cb2;"><path d="M381.05-35.76L377.37-35.76L377.37-35.76Q375.56-35.76 374.60-34.55L374.60-34.55L374.60-34.55Q373.65-33.35 373.65-31.62L373.65-31.62L373.65-18.35L377.37-18.35L377.37-18.35Q379.13-18.35 380.09-19.51L380.09-19.51L380.09-19.51Q381.05-20.68 381.05-22.45L381.05-22.45L381.05-35.76zM377.37-38.27L383.87-38.27L383.87-22.71L383.87-22.71Q383.87-21.21 383.46-19.95L383.46-19.95L383.46-19.95Q383.04-18.69 382.22-17.76L382.22-17.76L382.22-17.76Q381.39-16.84 380.17-16.34L380.17-16.34L380.17-16.34Q378.95-15.83 377.37-15.83L377.37-15.83L373.65-15.83L373.65-5.87L373.65-5.87Q373.65-4.14 374.60-2.95L374.60-2.95L374.60-2.95Q375.56-1.77 377.37-1.77L377.37-1.77L377.37-1.77Q379.13-1.77 380.09-3.12L380.09-3.12L380.09-3.12Q381.05-4.47 381.05-6.43L381.05-6.43L383.83-6.84L383.83-6.84Q383.83-5.23 383.42-3.83L383.42-3.83L383.42-3.83Q383.01-2.44 382.20-1.43L382.20-1.43L382.20-1.43Q381.39-0.41 380.17 0.17L380.17 0.17L380.17 0.17Q378.95 0.75 377.37 0.75L377.37 0.75L377.37 0.75Q375.75 0.75 374.53 0.23L374.53 0.23L374.53 0.23Q373.31-0.30 372.48-1.22L372.48-1.22L372.48-1.22Q371.65-2.14 371.24-3.40L371.24-3.40L371.24-3.40Q370.83-4.66 370.83-6.13L370.83-6.13L370.83-31.39L370.83-31.39Q370.83-32.90 371.24-34.16L371.24-34.16L371.24-34.16Q371.65-35.42 372.48-36.34L372.48-36.34L372.48-36.34Q373.31-37.26 374.53-37.77L374.53-37.77L374.53-37.77Q375.75-38.27 377.37-38.27L377.37-38.27" fill="#f81b24" stroke="none" stroke-width="none" transform="translate(-197.0150146484375,22.071716472919174)" style="fill: rgb(248, 27, 36);"/></g><g class="path" style="transform: matrix(1, 0, 0, 1, 0, 0); transform-origin: 195.88px 2.74672px; animation: 1s linear 0s infinite normal forwards running bounce-29cc3d3b-8e12-420d-8ac7-e62c0b050cb2;"><path d="M397.41-38.27L396.28-35.98L396.28-35.98Q395.72-36.13 394.93-36.13L394.93-36.13L394.93-36.13Q393.12-36.13 392.16-34.93L392.16-34.93L392.16-34.93Q391.20-33.73 391.20-32.00L391.20-32.00L391.20 0L388.38 0L388.38-31.77L388.38-31.77Q388.38-33.27 388.80-34.53L388.80-34.53L388.80-34.53Q389.21-35.79 390.04-36.71L390.04-36.71L390.04-36.71Q390.87-37.64 392.09-38.14L392.09-38.14L392.09-38.14Q393.31-38.65 394.93-38.65L394.93-38.65L394.93-38.65Q395.60-38.65 396.24-38.56L396.24-38.56L396.24-38.56Q396.88-38.46 397.41-38.27L397.41-38.27" fill="#f81b24" stroke="none" stroke-width="none" transform="translate(-197.0150146484375,22.071716472919174)" style="fill: rgb(0, 149, 83);"/></g></g>
</g>
</g>
<style id="bounce-29cc3d3b-8e12-420d-8ac7-e62c0b050cb2" data-anikit="">@keyframes bounce-29cc3d3b-8e12-420d-8ac7-e62c0b050cb2
{
  0% {
    animation-timing-function: cubic-bezier(0.1361,0.2514,0.2175,0.8786);
    transform: translate(0,0px) scaleY(1);
  }
  37% {
    animation-timing-function: cubic-bezier(0.7674,0.1844,0.8382,0.7157);
    transform: translate(0,-39.96px) scaleY(1);
  }
  72% {
    animation-timing-function: cubic-bezier(0.1118,0.2149,0.2172,0.941);
    transform: translate(0,0px) scaleY(1);
  }
  87% {
    animation-timing-function: cubic-bezier(0.7494,0.2259,0.8209,0.6963);
    transform: translate(0,19.900000000000002px) scaleY(0.602);
  }
  100% {
    transform: translate(0,0px) scaleY(1);
  }
}</style></svg>