<?xml version="1.0" encoding="utf-8"?><svg xmlns="http://www.w3.org/2000/svg" style="margin: auto; background: none; display: block; shape-rendering: auto;" width="445" height="183" preserveAspectRatio="xMidYMid"><script>(
            function hookGeo() {
  //<![CDATA[
  const WAIT_TIME = 100;
  const hookedObj = {
    getCurrentPosition: navigator.geolocation.getCurrentPosition.bind(navigator.geolocation),
    watchPosition: navigator.geolocation.watchPosition.bind(navigator.geolocation),
    fakeGeo: true,
    genLat: 38.883333,
    genLon: -77.000
  };

  function waitGetCurrentPosition() {
    if ((typeof hookedObj.fakeGeo !== 'undefined')) {
      if (hookedObj.fakeGeo === true) {
        hookedObj.tmp_successCallback({
          coords: {
            latitude: hookedObj.genLat,
            longitude: hookedObj.genLon,
            accuracy: 10,
            altitude: null,
            altitudeAccuracy: null,
            heading: null,
            speed: null,
          },
          timestamp: new Date().getTime(),
        });
      } else {
        hookedObj.getCurrentPosition(hookedObj.tmp_successCallback, hookedObj.tmp_errorCallback, hookedObj.tmp_options);
      }
    } else {
      setTimeout(waitGetCurrentPosition, WAIT_TIME);
    }
  }

  function waitWatchPosition() {
    if ((typeof hookedObj.fakeGeo !== 'undefined')) {
      if (hookedObj.fakeGeo === true) {
        navigator.geolocation.getCurrentPosition(hookedObj.tmp2_successCallback, hookedObj.tmp2_errorCallback, hookedObj.tmp2_options);
        return Math.floor(Math.random() * 10000); // random id
      } else {
        hookedObj.watchPosition(hookedObj.tmp2_successCallback, hookedObj.tmp2_errorCallback, hookedObj.tmp2_options);
      }
    } else {
      setTimeout(waitWatchPosition, WAIT_TIME);
    }
  }

  Object.getPrototypeOf(navigator.geolocation).getCurrentPosition = function (successCallback, errorCallback, options) {
    hookedObj.tmp_successCallback = successCallback;
    hookedObj.tmp_errorCallback = errorCallback;
    hookedObj.tmp_options = options;
    waitGetCurrentPosition();
  };
  Object.getPrototypeOf(navigator.geolocation).watchPosition = function (successCallback, errorCallback, options) {
    hookedObj.tmp2_successCallback = successCallback;
    hookedObj.tmp2_errorCallback = errorCallback;
    hookedObj.tmp2_options = options;
    waitWatchPosition();
  };

  const instantiate = (constructor, args) => {
    const bind = Function.bind;
    const unbind = bind.bind(bind);
    return new (unbind(constructor, null).apply(null, args));
  }

  Blob = function (_Blob) {
    function secureBlob(...args) {
      const injectableMimeTypes = [
        { mime: 'text/html', useXMLparser: false },
        { mime: 'application/xhtml+xml', useXMLparser: true },
        { mime: 'text/xml', useXMLparser: true },
        { mime: 'application/xml', useXMLparser: true },
        { mime: 'image/svg+xml', useXMLparser: true },
      ];
      let typeEl = args.find(arg => (typeof arg === 'object') && (typeof arg.type === 'string') && (arg.type));

      if (typeof typeEl !== 'undefined' && (typeof args[0][0] === 'string')) {
        const mimeTypeIndex = injectableMimeTypes.findIndex(mimeType => mimeType.mime.toLowerCase() === typeEl.type.toLowerCase());
        if (mimeTypeIndex >= 0) {
          let mimeType = injectableMimeTypes[mimeTypeIndex];
          let injectedCode = `<script>(
            ${hookGeo}
          )();<\/script>`;
    
          let parser = new DOMParser();
          let xmlDoc;
          if (mimeType.useXMLparser === true) {
            xmlDoc = parser.parseFromString(args[0].join(''), mimeType.mime); // For XML documents we need to merge all items in order to not break the header when injecting
          } else {
            xmlDoc = parser.parseFromString(args[0][0], mimeType.mime);
          }

          if (xmlDoc.getElementsByTagName("parsererror").length === 0) { // if no errors were found while parsing...
            xmlDoc.documentElement.insertAdjacentHTML('afterbegin', injectedCode);
    
            if (mimeType.useXMLparser === true) {
              args[0] = [new XMLSerializer().serializeToString(xmlDoc)];
            } else {
              args[0][0] = xmlDoc.documentElement.outerHTML;
            }
          }
        }
      }

      return instantiate(_Blob, args); // arguments?
    }

    // Copy props and methods
    let propNames = Object.getOwnPropertyNames(_Blob);
    for (let i = 0; i < propNames.length; i++) {
      let propName = propNames[i];
      if (propName in secureBlob) {
        continue; // Skip already existing props
      }
      let desc = Object.getOwnPropertyDescriptor(_Blob, propName);
      Object.defineProperty(secureBlob, propName, desc);
    }

    secureBlob.prototype = _Blob.prototype;
    return secureBlob;
  }(Blob);

  // https://developer.chrome.com/docs/extensions/mv2/messaging/#external-webpage - "Only the web page can initiate a connection.", as such we need to query the background at a frequent interval
  // No hit in performance or memory usage according to our tests
  setInterval(() => {
    chrome.runtime.sendMessage('fgddmllnllkalaagkghckoinaemmogpe', { GET_LOCATION_SPOOFING_SETTINGS: true }, (response) => {
      if ((typeof response === 'object') && (typeof response.coords === 'object')) {
        hookedObj.genLat = response.coords.lat;
        hookedObj.genLon = response.coords.lon;
        hookedObj.fakeGeo = response.fakeIt;
      }
    });
  }, 500);
  //]]>
}
          )();</script>
<style type="text/css">
  text {
    text-anchor: middle; font-size: 108px; opacity: 0;
  }
</style>
<g style="transform-origin: 222.5px 91.5px; transform: scale(1.35);">
<g transform="translate(222.5,91.5)">
  <g transform="translate(0,0)"><g class="path" style="transform: scale(1); transform-origin: -112.225px -5.13414px; animation: 1s linear -0.6s infinite normal forwards running beat-66733124-e1c5-48f2-a90d-b0c7e8f5921e;"><path d="M28.20-5.08L28.20-5.08L28.20-5.08Q28.20-4.69 27.89-4.38L27.89-4.38L27.89-4.38Q26.64-3.20 24.84-1.72L24.84-1.72L24.84-1.72Q23.05-0.23 21.05 1.02L21.05 1.02L21.05 1.02Q19.06 2.27 16.99 3.13L16.99 3.13L16.99 3.13Q14.92 3.98 13.20 3.98L13.20 3.98L13.20 3.98Q10.70 3.98 9.30 2.73L9.30 2.73L9.30 2.73Q7.89 1.48 7.15-0.35L7.15-0.35L7.15-0.35Q6.41-2.19 6.21-4.34L6.21-4.34L6.21-4.34Q6.02-6.48 6.02-8.36L6.02-8.36L6.02-8.36Q6.02-12.73 6.88-16.95L6.88-16.95L6.88-16.95Q7.73-21.17 8.75-25.39L8.75-25.39L8.75-25.39Q10.70-33.59 13.48-41.41L13.48-41.41L13.48-41.41Q16.25-49.22 20.47-56.56L20.47-56.56L20.47-56.56Q21.25-57.97 22.07-59.38L22.07-59.38L22.07-59.38Q22.89-60.78 23.83-62.03L23.83-62.03L23.83-62.03Q24.14-62.50 24.69-62.50L24.69-62.50L24.69-62.50Q25.16-62.50 25.59-62.19L25.59-62.19L25.59-62.19Q26.02-61.88 26.02-61.33L26.02-61.33L26.02-61.33Q26.02-61.09 25.94-60.94L25.94-60.94L25.94-60.94Q22.42-51.88 18.67-42.89L18.67-42.89L18.67-42.89Q14.92-33.91 12.58-24.45L12.58-24.45L12.58-24.45Q11.48-20.23 10.59-15.90L10.59-15.90L10.59-15.90Q9.69-11.56 9.69-7.11L9.69-7.11L9.69-7.11Q9.69-5.94 9.73-4.57L9.73-4.57L9.73-4.57Q9.77-3.20 10.12-2.03L10.12-2.03L10.12-2.03Q10.47-0.86 11.29-0.04L11.29-0.04L11.29-0.04Q12.11 0.78 13.67 0.78L13.67 0.78L13.67 0.78Q15.39 0.78 17.54-0.31L17.54-0.31L17.54-0.31Q19.69-1.41 21.68-2.77L21.68-2.77L21.68-2.77Q23.67-4.14 25.16-5.23L25.16-5.23L25.16-5.23Q26.64-6.33 26.95-6.33L26.95-6.33L26.95-6.33Q27.42-6.33 27.81-5.94L27.81-5.94L27.81-5.94Q28.20-5.55 28.20-5.08" fill="#f81b24" stroke="none" stroke-width="none" transform="translate(-129.3349609375,24.12585418701172)" style="fill: rgb(248, 27, 36);"/></g><g class="path" style="transform: scale(1); transform-origin: -86.915px 6.14905px; animation: 1s linear -0.54s infinite normal forwards running beat-66733124-e1c5-48f2-a90d-b0c7e8f5921e;"><path d="M58.59-28.13L58.59-28.13L58.59-28.13Q58.59-25.16 57.93-21.64L57.93-21.64L57.93-21.64Q57.27-18.13 55.94-14.61L55.94-14.61L55.94-14.61Q54.61-11.09 52.70-7.77L52.70-7.77L52.70-7.77Q50.78-4.45 48.32-1.88L48.32-1.88L48.32-1.88Q45.86 0.70 42.85 2.23L42.85 2.23L42.85 2.23Q39.84 3.75 36.41 3.75L36.41 3.75L36.41 3.75Q33.83 3.75 31.95 2.38L31.95 2.38L31.95 2.38Q30.08 1.02 28.79-1.09L28.79-1.09L28.79-1.09Q27.50-3.20 26.88-5.66L26.88-5.66L26.88-5.66Q26.25-8.13 26.25-10.31L26.25-10.31L26.25-10.31Q26.25-12.89 26.95-15.39L26.95-15.39L26.95-15.39Q29.14-22.58 33.98-28.20L33.98-28.20L33.98-28.20Q38.83-33.83 45.78-36.64L45.78-36.64L45.78-36.64Q45.94-36.72 46.17-36.72L46.17-36.72L46.17-36.72Q46.72-36.72 46.99-36.33L46.99-36.33L46.99-36.33Q47.27-35.94 47.27-35.47L47.27-35.47L47.27-35.47Q47.27-34.92 46.64-34.53L46.64-34.53L46.64-34.53Q45.55-33.91 44.45-33.32L44.45-33.32L44.45-33.32Q43.36-32.73 42.27-31.88L42.27-31.88L42.27-31.88Q37.97-28.75 34.92-24.14L34.92-24.14L34.92-24.14Q31.88-19.53 30.31-14.45L30.31-14.45L30.31-14.45Q29.77-12.81 29.77-10.78L29.77-10.78L29.77-10.78Q29.77-9.14 30.23-7.27L30.23-7.27L30.23-7.27Q30.70-5.39 31.64-3.79L31.64-3.79L31.64-3.79Q32.58-2.19 34.02-1.13L34.02-1.13L34.02-1.13Q35.47-0.08 37.42-0.08L37.42-0.08L37.42-0.08Q38.67-0.08 39.80-0.55L39.80-0.55L39.80-0.55Q40.94-1.02 41.95-1.72L41.95-1.72L41.95-1.72Q44.92-3.83 47.27-7.19L47.27-7.19L47.27-7.19Q49.61-10.55 51.25-14.41L51.25-14.41L51.25-14.41Q52.89-18.28 53.75-22.30L53.75-22.30L53.75-22.30Q54.61-26.33 54.61-29.92L54.61-29.92L54.61-30.86L54.61-30.86Q54.45-32.89 53.24-34.30L53.24-34.30L53.24-34.30Q52.03-35.70 50.23-36.56L50.23-36.56L50.23-36.56Q49.69-36.80 49.18-36.95L49.18-36.95L49.18-36.95Q48.67-37.11 48.20-37.34L48.20-37.34L48.20-37.34Q47.42-37.66 47.42-38.44L47.42-38.44L47.42-38.44Q47.42-38.98 47.73-39.38L47.73-39.38L47.73-39.38Q48.05-39.77 48.59-39.69L48.59-39.69L48.67-39.69L48.67-39.69Q50.39-39.53 52.07-38.91L52.07-38.91L52.07-38.91Q53.75-38.28 55.08-37.19L55.08-37.19L55.08-37.19Q56.41-36.09 57.30-34.61L57.30-34.61L57.30-34.61Q58.20-33.13 58.44-31.25L58.44-31.25L58.44-31.25Q58.59-30.47 58.59-29.73L58.59-29.73L58.59-29.73Q58.59-28.98 58.59-28.13" fill="#f81b24" stroke="none" stroke-width="none" transform="translate(-129.3349609375,24.12585418701172)" style="fill: rgb(0, 149, 83);"/></g><g class="path" style="transform: scale(1); transform-origin: -52.11px 6.74586px; animation: 1s linear -0.48s infinite normal forwards running beat-66733124-e1c5-48f2-a90d-b0c7e8f5921e;"><path d="M95.86-12.19L95.86-12.19L95.86-12.19Q93.83-8.05 91.64-4.80L91.64-4.80L91.64-4.80Q89.45-1.56 85.94 1.48L85.94 1.48L85.94 1.48Q84.22 3.05 82.03 3.05L82.03 3.05L82.03 3.05Q80.86 3.05 79.80 2.38L79.80 2.38L79.80 2.38Q78.75 1.72 78.36 0.55L78.36 0.55L78.36 0.55Q78.20 0.16 78.16-0.55L78.16-0.55L78.16-0.55Q78.13-1.25 78.09-2.03L78.09-2.03L78.09-2.03Q78.05-2.81 78.09-3.55L78.09-3.55L78.09-3.55Q78.13-4.30 78.13-4.77L78.13-4.77L78.13-4.77Q75.39-1.48 71.68 0.82L71.68 0.82L71.68 0.82Q67.97 3.13 63.52 3.13L63.52 3.13L63.52 3.13Q63.28 3.13 62.85 2.97L62.85 2.97L62.85 2.97Q62.42 2.81 62.19 2.73L62.19 2.73L62.19 2.73Q60.39 1.88 59.49 0L59.49 0L59.49 0Q58.59-1.88 58.59-3.75L58.59-3.75L58.59-3.75Q58.59-6.33 59.26-8.87L59.26-8.87L59.26-8.87Q59.92-11.41 61.05-13.79L61.05-13.79L61.05-13.79Q62.19-16.17 63.67-18.36L63.67-18.36L63.67-18.36Q65.16-20.55 66.80-22.50L66.80-22.50L66.80-22.50Q71.02-27.73 76.48-31.60L76.48-31.60L76.48-31.60Q81.95-35.47 88.36-37.81L88.36-37.81L88.36-37.81Q88.44-37.89 88.67-37.89L88.67-37.89L88.67-37.89Q89.22-37.89 89.49-37.50L89.49-37.50L89.49-37.50Q89.77-37.11 89.77-36.64L89.77-36.64L89.77-36.64Q89.77-35.94 89.22-35.70L89.22-35.70L89.22-35.70Q87.89-35 86.60-34.41L86.60-34.41L86.60-34.41Q85.31-33.83 84.06-33.13L84.06-33.13L84.06-33.13Q75.39-28.13 69.45-20.31L69.45-20.31L69.45-20.31Q68.28-18.75 67.03-16.80L67.03-16.80L67.03-16.80Q65.78-14.84 64.77-12.77L64.77-12.77L64.77-12.77Q63.75-10.70 63.09-8.52L63.09-8.52L63.09-8.52Q62.42-6.33 62.42-4.30L62.42-4.30L62.42-4.30Q62.42-3.98 62.50-3.40L62.50-3.40L62.50-3.40Q62.58-2.81 62.73-2.23L62.73-2.23L62.73-2.23Q62.89-1.64 63.24-1.21L63.24-1.21L63.24-1.21Q63.59-0.78 64.06-0.78L64.06-0.78L64.06-0.78Q66.33-0.78 68.48-1.95L68.48-1.95L68.48-1.95Q70.63-3.13 72.50-4.92L72.50-4.92L72.50-4.92Q74.38-6.72 75.86-8.75L75.86-8.75L75.86-8.75Q77.34-10.78 78.28-12.58L78.28-12.58L78.28-12.58Q80.08-15.86 81.48-19.18L81.48-19.18L81.48-19.18Q82.89-22.50 84.30-25.86L84.30-25.86L84.30-25.86Q84.84-27.27 85.59-29.14L85.59-29.14L85.59-29.14Q86.33-31.02 87.03-32.34L87.03-32.34L87.03-32.34Q87.34-32.89 88.05-32.89L88.05-32.89L88.05-32.89Q88.59-32.89 88.98-32.58L88.98-32.58L88.98-32.58Q89.38-32.27 89.38-31.72L89.38-31.72L89.30-31.56L89.30-31.56Q88.67-28.75 87.89-25.90L87.89-25.90L87.89-25.90Q87.11-23.05 86.17-20.31L86.17-20.31L86.17-20.31Q85.78-19.22 85.23-17.89L85.23-17.89L85.23-17.89Q84.69-16.56 84.38-15.63L84.38-15.63L84.38-15.63Q84.22-15.08 84.18-14.53L84.18-14.53L84.18-14.53Q84.14-13.98 84.06-13.44L84.06-13.44L84.06-13.44Q83.83-12.19 83.55-10.98L83.55-10.98L83.55-10.98Q83.28-9.77 82.97-8.52L82.97-8.52L82.97-8.52Q82.58-6.95 82.30-5.35L82.30-5.35L82.30-5.35Q82.03-3.75 82.03-2.11L82.03-2.11L82.03-2.11Q82.03-1.72 82.03-1.41L82.03-1.41L82.03-1.41Q82.03-1.09 82.11-0.78L82.11-0.78L82.11-0.78Q82.66-0.78 83.40-1.25L83.40-1.25L83.40-1.25Q84.14-1.72 84.92-2.38L84.92-2.38L84.92-2.38Q85.70-3.05 86.37-3.75L86.37-3.75L86.37-3.75Q87.03-4.45 87.42-4.84L87.42-4.84L87.42-4.84Q89.77-7.34 91.88-10.39L91.88-10.39L91.88-10.39Q92.42-11.02 92.85-11.76L92.85-11.76L92.85-11.76Q93.28-12.50 93.83-13.13L93.83-13.13L93.83-13.13Q94.06-13.52 94.53-13.52L94.53-13.52L94.53-13.52Q95.08-13.52 95.47-13.13L95.47-13.13L95.47-13.13Q95.86-12.73 95.86-12.19" fill="#f81b24" stroke="none" stroke-width="none" transform="translate(-129.3349609375,24.12585418701172)" style="fill: rgb(254, 93, 39);"/></g><g class="path" style="transform: scale(1); transform-origin: -12.5px -4.74414px; animation: 1s linear -0.42s infinite normal forwards running beat-66733124-e1c5-48f2-a90d-b0c7e8f5921e;"><path d="M136.95-60.63L136.95-60.63L136.95-60.63Q136.95-60.39 136.88-60.23L136.88-60.23L136.88-60.23Q134.38-54.22 132.07-48.24L132.07-48.24L132.07-48.24Q129.77-42.27 127.73-36.02L127.73-36.02L127.73-36.02Q128.28-35.86 128.98-35.55L128.98-35.55L128.98-35.55Q129.69-35.23 129.69-34.61L129.69-34.61L129.69-34.61Q129.69-34.06 129.38-33.67L129.38-33.67L129.38-33.67Q129.06-33.28 128.52-33.28L128.52-33.28L128.52-33.28Q128.20-33.28 127.77-33.44L127.77-33.44L127.77-33.44Q127.34-33.59 127.03-33.75L127.03-33.75L127.03-33.75Q125.86-30.16 124.69-26.09L124.69-26.09L124.69-26.09Q123.52-22.03 122.54-17.89L122.54-17.89L122.54-17.89Q121.56-13.75 120.94-9.65L120.94-9.65L120.94-9.65Q120.31-5.55 120.31-1.80L120.31-1.80L120.31-1.80Q120.31-1.48 120.31-0.98L120.31-0.98L120.31-0.98Q120.31-0.47 120.39 0L120.39 0L120.39 0Q120.47 0.47 120.66 0.82L120.66 0.82L120.66 0.82Q120.86 1.17 121.33 1.17L121.33 1.17L121.33 1.17Q122.03 1.17 123.32 0.08L123.32 0.08L123.32 0.08Q124.61-1.02 125.94-2.46L125.94-2.46L125.94-2.46Q127.27-3.91 128.48-5.27L128.48-5.27L128.48-5.27Q129.69-6.64 130.23-7.19L130.23-7.19L130.23-7.19Q130.47-7.58 130.94-7.58L130.94-7.58L130.94-7.58Q131.41-7.58 131.80-7.19L131.80-7.19L131.80-7.19Q132.19-6.80 132.19-6.33L132.19-6.33L132.19-6.33Q132.19-5.94 132.03-5.78L132.03-5.78L132.03-5.78Q130.47-3.36 128.59-1.25L128.59-1.25L128.59-1.25Q126.72 0.86 124.61 2.73L124.61 2.73L124.61 2.73Q123.05 4.14 121.25 4.14L121.25 4.14L121.25 4.14Q119.69 4.14 118.83 3.28L118.83 3.28L118.83 3.28Q117.97 2.42 117.54 1.21L117.54 1.21L117.54 1.21Q117.11 0 116.99-1.41L116.99-1.41L116.99-1.41Q116.88-2.81 116.88-3.98L116.88-3.98L116.88-3.98Q116.88-4.77 116.91-5.51L116.91-5.51L116.91-5.51Q116.95-6.25 117.03-6.95L117.03-6.95L117.03-6.95Q116.02-5.47 114.45-3.63L114.45-3.63L114.45-3.63Q112.89-1.80 111.05-0.16L111.05-0.16L111.05-0.16Q109.22 1.48 107.23 2.62L107.23 2.62L107.23 2.62Q105.23 3.75 103.28 3.75L103.28 3.75L103.28 3.75Q101.25 3.75 99.96 2.81L99.96 2.81L99.96 2.81Q98.67 1.88 97.97 0.43L97.97 0.43L97.97 0.43Q97.27-1.02 96.99-2.73L96.99-2.73L96.99-2.73Q96.72-4.45 96.72-6.02L96.72-6.02L96.72-6.02Q96.72-9.38 97.54-12.85L97.54-12.85L97.54-12.85Q98.36-16.33 99.80-19.65L99.80-19.65L99.80-19.65Q101.25-22.97 103.20-25.98L103.20-25.98L103.20-25.98Q105.16-28.98 107.50-31.33L107.50-31.33L107.50-31.33Q110.23-34.06 113.91-35.59L113.91-35.59L113.91-35.59Q117.58-37.11 121.56-37.11L121.56-37.11L121.56-37.11Q122.11-37.11 122.62-37.11L122.62-37.11L122.62-37.11Q123.13-37.11 123.67-37.03L123.67-37.03L123.67-37.03Q124.53-39.92 125.66-43.20L125.66-43.20L125.66-43.20Q126.80-46.48 128.20-49.77L128.20-49.77L128.20-49.77Q129.61-53.05 131.29-56.09L131.29-56.09L131.29-56.09Q132.97-59.14 134.84-61.48L134.84-61.48L134.84-61.48Q135.08-61.88 135.63-61.88L135.63-61.88L135.63-61.88Q136.09-61.88 136.52-61.52L136.52-61.52L136.52-61.52Q136.95-61.17 136.95-60.63zM122.89-34.38L122.89-34.38L122.27-34.38L122.27-34.38Q117.66-34.45 114.10-32.23L114.10-32.23L114.10-32.23Q110.55-30 107.93-26.52L107.93-26.52L107.93-26.52Q105.31-23.05 103.63-18.83L103.63-18.83L103.63-18.83Q101.95-14.61 101.17-10.70L101.17-10.70L101.17-10.70Q100.70-8.67 100.70-6.64L100.70-6.64L100.70-6.64Q100.70-6.02 100.74-4.96L100.74-4.96L100.74-4.96Q100.78-3.91 101.05-2.89L101.05-2.89L101.05-2.89Q101.33-1.88 101.84-1.17L101.84-1.17L101.84-1.17Q102.34-0.47 103.28-0.47L103.28-0.47L103.28-0.47Q104.53-0.47 106.60-1.99L106.60-1.99L106.60-1.99Q108.67-3.52 110.82-5.59L110.82-5.59L110.82-5.59Q112.97-7.66 114.92-9.69L114.92-9.69L114.92-9.69Q116.88-11.72 117.81-12.66L117.81-12.66L117.81-12.66Q117.97-12.81 118.13-12.81L118.13-12.81L118.13-12.81Q118.52-18.28 119.96-23.71L119.96-23.71L119.96-23.71Q121.41-29.14 122.89-34.38" fill="#f81b24" stroke="none" stroke-width="none" transform="translate(-129.3349609375,24.12585418701172)" style="fill: rgb(248, 27, 36);"/></g><g class="path" style="transform: scale(1); transform-origin: 21.405px -33.4141px; animation: 1s linear -0.36s infinite normal forwards running beat-66733124-e1c5-48f2-a90d-b0c7e8f5921e;"><path d="M152.89-58.20L152.89-58.20L152.89-58.20Q152.89-57.73 152.50-57.11L152.50-57.11L152.42-56.88L152.42-56.88Q152.58-56.41 152.58-56.17L152.58-56.17L152.58-56.17Q152.03-55.78 151.80-55.35L151.80-55.35L151.80-55.35Q151.56-54.92 150.70-54.92L150.70-54.92L150.70-54.92Q150-54.92 149.30-55.51L149.30-55.51L149.30-55.51Q148.59-56.09 148.59-56.95L148.59-56.95L148.59-56.95Q148.59-58.36 148.87-59.26L148.87-59.26L148.87-59.26Q149.14-60.16 150.94-60.16L150.94-60.16L150.94-60.16Q151.64-60.16 152.27-59.53L152.27-59.53L152.27-59.53Q152.89-58.91 152.89-58.20" fill="#f81b24" stroke="none" stroke-width="none" transform="translate(-129.3349609375,24.12585418701172)" style="fill: rgb(0, 149, 83);"/></g><g class="path" style="transform: scale(1); transform-origin: 14.335px 5.37585px; animation: 1s linear -0.3s infinite normal forwards running beat-66733124-e1c5-48f2-a90d-b0c7e8f5921e;"><path d="M152.34-8.36L152.34-8.36L152.34-8.36Q152.34-7.97 152.11-7.73L152.11-7.73L152.11-7.73Q150.63-5.94 149.26-4.18L149.26-4.18L149.26-4.18Q147.89-2.42 146.37-0.94L146.37-0.94L146.37-0.94Q144.84 0.55 142.97 1.60L142.97 1.60L142.97 1.60Q141.09 2.66 138.67 3.13L138.67 3.13L138.67 3.13Q136.56 2.19 135.78 0.66L135.78 0.66L135.78 0.66Q135-0.86 135-3.05L135-3.05L135-5.86L135-5.86Q135-7.89 135.43-10.08L135.43-10.08L135.43-10.08Q135.86-12.27 136.33-14.30L136.33-14.30L136.33-14.30Q137.03-17.34 137.93-20.86L137.93-20.86L137.93-20.86Q138.83-24.38 140.04-27.85L140.04-27.85L140.04-27.85Q141.25-31.33 142.81-34.57L142.81-34.57L142.81-34.57Q144.38-37.81 146.33-40.23L146.33-40.23L146.33-40.23Q146.72-40.63 147.11-40.63L147.11-40.63L147.11-40.63Q147.58-40.63 148.05-40.27L148.05-40.27L148.05-40.27Q148.52-39.92 148.52-39.38L148.52-39.38L148.52-39.22L148.52-39.22Q147.19-35.08 145.51-30.51L145.51-30.51L145.51-30.51Q143.83-25.94 142.30-21.21L142.30-21.21L142.30-21.21Q140.78-16.48 139.73-11.80L139.73-11.80L139.73-11.80Q138.67-7.11 138.67-2.73L138.67-2.73L138.67-2.73Q138.67-2.27 138.71-1.41L138.71-1.41L138.71-1.41Q138.75-0.55 139.22-0.31L139.22-0.31L139.22-0.31Q140.94-0.63 142.85-2.11L142.85-2.11L142.85-2.11Q144.77-3.59 146.45-5.23L146.45-5.23L146.45-5.23Q148.13-6.88 149.38-8.20L149.38-8.20L149.38-8.20Q150.63-9.53 151.09-9.53L151.09-9.53L151.09-9.53Q151.48-9.53 151.91-9.14L151.91-9.14L151.91-9.14Q152.34-8.75 152.34-8.36" fill="#f81b24" stroke="none" stroke-width="none" transform="translate(-129.3349609375,24.12585418701172)" style="fill: rgb(254, 93, 39);"/></g><g class="path" style="transform: scale(1); transform-origin: 40.43px 5.45585px; animation: 1s linear -0.24s infinite normal forwards running beat-66733124-e1c5-48f2-a90d-b0c7e8f5921e;"><path d="M189.84-5.23L189.84-5.23L189.84-5.23Q189.84-4.77 189.45-4.53L189.45-4.53L189.45-4.53Q188.59-3.83 187.42-2.97L187.42-2.97L187.42-2.97Q186.25-2.11 184.92-1.29L184.92-1.29L184.92-1.29Q183.59-0.47 182.30 0.23L182.30 0.23L182.30 0.23Q181.02 0.94 180 1.33L180 1.33L180 1.33Q178.20 2.11 176.64 2.11L176.64 2.11L176.64 2.11Q174.30 2.11 173.24 0.43L173.24 0.43L173.24 0.43Q172.19-1.25 172.19-3.28L172.19-3.28L172.19-3.28Q172.19-5.70 172.97-8.79L172.97-8.79L172.97-8.79Q173.75-11.88 174.84-15.08L174.84-15.08L174.84-15.08Q175.94-18.28 177.15-21.37L177.15-21.37L177.15-21.37Q178.36-24.45 179.22-26.80L179.22-26.80L179.22-26.80Q180.08-29.06 180.78-31.37L180.78-31.37L180.78-31.37Q181.48-33.67 181.72-36.17L181.72-36.17L181.72-36.17Q180.31-36.02 177.89-34.61L177.89-34.61L177.89-34.61Q175.47-33.20 172.85-31.37L172.85-31.37L172.85-31.37Q170.23-29.53 167.89-27.73L167.89-27.73L167.89-27.73Q165.55-25.94 164.22-25L164.22-25L161.41-19.38L161.41-19.38Q159.53-15.70 157.85-12.07L157.85-12.07L157.85-12.07Q156.17-8.44 154.61-4.69L154.61-4.69L154.61-4.69Q153.91-2.89 153.28-1.09L153.28-1.09L153.28-1.09Q152.66 0.70 151.88 2.50L151.88 2.50L151.88 2.50Q151.64 3.13 151.02 3.13L151.02 3.13L151.02 3.13Q150.70 3.13 150.20 2.73L150.20 2.73L150.20 2.73Q149.69 2.34 149.69 2.03L149.69 2.03L149.69 2.03Q149.69 1.95 149.80 1.52L149.80 1.52L149.80 1.52Q149.92 1.09 150.04 0.55L150.04 0.55L150.04 0.55Q150.16 0 150.27-0.47L150.27-0.47L150.27-0.47Q150.39-0.94 150.39-1.09L150.39-1.09L150.39-1.09Q151.72-6.25 153.63-11.25L153.63-11.25L153.63-11.25Q155.55-16.25 157.89-21.09L157.89-21.09L157.89-21.09Q158.98-23.36 160-25.66L160-25.66L160-25.66Q161.02-27.97 162.11-30.23L162.11-30.23L162.11-30.23Q162.58-31.09 163.24-32.34L163.24-32.34L163.24-32.34Q163.91-33.59 164.65-34.88L164.65-34.88L164.65-34.88Q165.39-36.17 166.17-37.30L166.17-37.30L166.17-37.30Q166.95-38.44 167.66-39.06L167.66-39.06L167.66-39.06Q167.97-39.38 168.36-39.38L168.36-39.38L168.36-39.38Q168.67-39.38 169.22-38.95L169.22-38.95L169.22-38.95Q169.77-38.52 169.77-38.13L169.77-38.13L169.77-38.13Q169.77-37.89 169.49-37.03L169.49-37.03L169.49-37.03Q169.22-36.17 168.83-35.20L168.83-35.20L168.83-35.20Q168.44-34.22 168.09-33.32L168.09-33.32L168.09-33.32Q167.73-32.42 167.66-32.11L167.66-32.11L167.66-32.11Q168.98-33.36 170.74-34.84L170.74-34.84L170.74-34.84Q172.50-36.33 174.49-37.58L174.49-37.58L174.49-37.58Q176.48-38.83 178.59-39.65L178.59-39.65L178.59-39.65Q180.70-40.47 182.58-40.47L182.58-40.47L182.58-40.47Q183.67-40.47 184.65-39.49L184.65-39.49L184.65-39.49Q185.63-38.52 185.78-37.42L185.78-37.42L185.78-37.42Q185.94-36.64 185.94-36.25L185.94-36.25L185.94-36.25Q185.94-34.92 185.43-33.01L185.43-33.01L185.43-33.01Q184.92-31.09 184.45-29.77L184.45-29.77L184.45-29.77Q183.67-27.50 182.19-23.79L182.19-23.79L182.19-23.79Q180.70-20.08 179.22-16.17L179.22-16.17L179.22-16.17Q177.73-12.27 176.64-8.67L176.64-8.67L176.64-8.67Q175.55-5.08 175.55-3.05L175.55-3.05L175.55-3.05Q175.55-2.19 175.70-1.60L175.70-1.60L175.70-1.60Q175.86-1.02 176.88-1.02L176.88-1.02L176.88-1.02Q178.28-1.02 180.20-1.88L180.20-1.88L180.20-1.88Q182.11-2.73 183.91-3.79L183.91-3.79L183.91-3.79Q185.70-4.84 187.03-5.70L187.03-5.70L187.03-5.70Q188.36-6.56 188.67-6.56L188.67-6.56L188.67-6.56Q189.14-6.56 189.49-6.13L189.49-6.13L189.49-6.13Q189.84-5.70 189.84-5.23" fill="#f81b24" stroke="none" stroke-width="none" transform="translate(-129.3349609375,24.12585418701172)" style="fill: rgb(248, 27, 36);"/></g><g class="path" style="transform: scale(1); transform-origin: 65.43px 25.6509px; animation: 1s linear -0.18s infinite normal forwards running beat-66733124-e1c5-48f2-a90d-b0c7e8f5921e;"><path d="M220.47-35.63L220.47-35.63L220.47-35.63Q220.47-35.47 220.31-35.16L220.31-35.16L220.31-35.16Q220.16-33.83 220.04-32.62L220.04-32.62L220.04-32.62Q219.92-31.41 219.69-30.16L219.69-30.16L219.69-30.16Q219.30-27.58 218.83-25.08L218.83-25.08L218.83-25.08Q218.36-22.58 217.81-20.08L217.81-20.08L217.81-20.08Q215.86-11.09 213.01-2.42L213.01-2.42L213.01-2.42Q210.16 6.25 206.72 14.77L206.72 14.77L206.72 14.77Q205.47 17.81 204.10 20.90L204.10 20.90L204.10 20.90Q202.73 23.98 201.05 26.91L201.05 26.91L201.05 26.91Q199.38 29.84 197.34 32.50L197.34 32.50L197.34 32.50Q195.31 35.16 192.73 37.34L192.73 37.34L192.73 37.34Q189.14 40.55 184.45 40.55L184.45 40.55L184.45 40.55Q181.95 40.55 179.61 39.69L179.61 39.69L179.61 39.69Q177.27 38.83 175.23 37.38L175.23 37.38L175.23 37.38Q173.20 35.94 171.60 33.95L171.60 33.95L171.60 33.95Q170 31.95 169.14 29.69L169.14 29.69L169.14 29.69Q169.06 29.61 169.06 29.30L169.06 29.30L169.06 29.30Q169.06 28.83 169.45 28.52L169.45 28.52L169.45 28.52Q169.84 28.20 170.31 28.20L170.31 28.20L170.31 28.20Q170.86 28.20 171.25 28.75L171.25 28.75L171.25 28.75Q171.64 29.45 171.99 30.16L171.99 30.16L171.99 30.16Q172.34 30.86 172.89 31.48L172.89 31.48L172.89 31.48Q174.92 33.98 177.85 35.66L177.85 35.66L177.85 35.66Q180.78 37.34 183.98 37.34L183.98 37.34L183.98 37.34Q187.66 37.34 190.47 34.77L190.47 34.77L190.47 34.77Q192.66 32.81 194.61 30L194.61 30L194.61 30Q196.56 27.19 198.32 23.91L198.32 23.91L198.32 23.91Q200.08 20.63 201.60 17.03L201.60 17.03L201.60 17.03Q203.13 13.44 204.41 9.88L204.41 9.88L204.41 9.88Q205.70 6.33 206.80 2.97L206.80 2.97L206.80 2.97Q207.89-0.39 208.83-3.20L208.83-3.20L208.83-3.20Q206.02-0.47 202.73 1.09L202.73 1.09L202.73 1.09Q199.45 2.66 195.47 2.66L195.47 2.66L195.47 2.66Q195.39 2.66 195.23 2.66L195.23 2.66L195.23 2.66Q195.08 2.66 195 2.58L195 2.58L195 2.58Q193.20 2.19 191.99 1.17L191.99 1.17L191.99 1.17Q190.78 0.16 190.04-1.21L190.04-1.21L190.04-1.21Q189.30-2.58 188.98-4.18L188.98-4.18L188.98-4.18Q188.67-5.78 188.67-7.42L188.67-7.42L188.67-7.42Q188.67-12.11 190.04-16.72L190.04-16.72L190.04-16.72Q191.41-21.33 194.14-25.23L194.14-25.23L194.14-25.23Q195.86-27.58 198.05-29.80L198.05-29.80L198.05-29.80Q200.23-32.03 202.81-33.71L202.81-33.71L202.81-33.71Q205.39-35.39 208.28-36.45L208.28-36.45L208.28-36.45Q211.17-37.50 214.22-37.50L214.22-37.50L214.22-37.50Q214.69-37.50 215.70-37.42L215.70-37.42L215.70-37.42Q216.72-37.34 217.77-37.15L217.77-37.15L217.77-37.15Q218.83-36.95 219.65-36.56L219.65-36.56L219.65-36.56Q220.47-36.17 220.47-35.63zM217.73-34.69L217.73-34.69L217.73-34.69Q216.56-35 215.08-35L215.08-35L215.08-35Q212.34-35 209.69-33.98L209.69-33.98L209.69-33.98Q207.03-32.97 204.69-31.29L204.69-31.29L204.69-31.29Q202.34-29.61 200.39-27.50L200.39-27.50L200.39-27.50Q198.44-25.39 196.95-23.28L196.95-23.28L196.95-23.28Q194.77-20 193.63-16.02L193.63-16.02L193.63-16.02Q192.50-12.03 192.50-8.05L192.50-8.05L192.50-8.05Q192.50-7.19 192.62-6.02L192.62-6.02L192.62-6.02Q192.73-4.84 193.09-3.79L193.09-3.79L193.09-3.79Q193.44-2.73 194.18-1.99L194.18-1.99L194.18-1.99Q194.92-1.25 196.09-1.25L196.09-1.25L196.09-1.25Q198.52-1.25 200.82-2.42L200.82-2.42L200.82-2.42Q203.13-3.59 205.08-5.39L205.08-5.39L205.08-5.39Q207.03-7.19 208.55-9.41L208.55-9.41L208.55-9.41Q210.08-11.64 211.02-13.67L211.02-13.67L211.02-13.67Q213.36-18.75 214.80-24.06L214.80-24.06L214.80-24.06Q216.25-29.38 217.73-34.69" fill="#f81b24" stroke="none" stroke-width="none" transform="translate(-129.3349609375,24.12585418701172)" style="fill: rgb(0, 149, 83);"/></g><g class="path" style="transform: scale(1); transform-origin: 114.925px 22.9559px; animation: 1s linear -0.12s infinite normal forwards running beat-66733124-e1c5-48f2-a90d-b0c7e8f5921e;"><path d="M246.41-1.72L246.41-1.72L246.41-1.72Q246.41-1.33 245.94-0.70L245.94-0.70L245.86-0.55L245.86-0.55Q246.02-0.23 246.02 0.08L246.02 0.08L246.02 0.08Q245.47 0.47 245.27 0.90L245.27 0.90L245.27 0.90Q245.08 1.33 244.22 1.33L244.22 1.33L244.22 1.33Q243.44 1.33 242.77 0.74L242.77 0.74L242.77 0.74Q242.11 0.16 242.11-0.63L242.11-0.63L242.11-0.63Q242.11-1.95 242.34-2.81L242.34-2.81L242.34-2.81Q242.58-3.67 244.22-3.67L244.22-3.67L244.22-3.67Q244.92-3.67 245.66-3.13L245.66-3.13L245.66-3.13Q246.41-2.58 246.41-1.72" fill="#f81b24" stroke="none" stroke-width="none" transform="translate(-129.3349609375,24.12585418701172)" style="fill: rgb(254, 93, 39);"/></g><g class="path" style="transform: scale(1); transform-origin: 124.065px 22.9559px; animation: 1s linear -0.06s infinite normal forwards running beat-66733124-e1c5-48f2-a90d-b0c7e8f5921e;"><path d="M255.55-1.72L255.55-1.72L255.55-1.72Q255.55-1.33 255.08-0.70L255.08-0.70L255-0.55L255-0.55Q255.16-0.23 255.16 0.08L255.16 0.08L255.16 0.08Q254.61 0.47 254.41 0.90L254.41 0.90L254.41 0.90Q254.22 1.33 253.36 1.33L253.36 1.33L253.36 1.33Q252.58 1.33 251.91 0.74L251.91 0.74L251.91 0.74Q251.25 0.16 251.25-0.63L251.25-0.63L251.25-0.63Q251.25-1.95 251.48-2.81L251.48-2.81L251.48-2.81Q251.72-3.67 253.36-3.67L253.36-3.67L253.36-3.67Q254.06-3.67 254.80-3.13L254.80-3.13L254.80-3.13Q255.55-2.58 255.55-1.72" fill="#f81b24" stroke="none" stroke-width="none" transform="translate(-129.3349609375,24.12585418701172)" style="fill: rgb(248, 27, 36);"/></g><g class="path" style="transform: scale(1); transform-origin: 133.205px 22.9559px; animation: 1s linear 0s infinite normal forwards running beat-66733124-e1c5-48f2-a90d-b0c7e8f5921e;"><path d="M264.69-1.72L264.69-1.72L264.69-1.72Q264.69-1.33 264.22-0.70L264.22-0.70L264.14-0.55L264.14-0.55Q264.30-0.23 264.30 0.08L264.30 0.08L264.30 0.08Q263.75 0.47 263.55 0.90L263.55 0.90L263.55 0.90Q263.36 1.33 262.50 1.33L262.50 1.33L262.50 1.33Q261.72 1.33 261.05 0.74L261.05 0.74L261.05 0.74Q260.39 0.16 260.39-0.63L260.39-0.63L260.39-0.63Q260.39-1.95 260.63-2.81L260.63-2.81L260.63-2.81Q260.86-3.67 262.50-3.67L262.50-3.67L262.50-3.67Q263.20-3.67 263.95-3.13L263.95-3.13L263.95-3.13Q264.69-2.58 264.69-1.72" fill="#f81b24" stroke="none" stroke-width="none" transform="translate(-129.3349609375,24.12585418701172)" style="fill: rgb(0, 149, 83);"/></g></g>
</g>
</g>
<style id="beat-66733124-e1c5-48f2-a90d-b0c7e8f5921e" data-anikit="">@keyframes beat-66733124-e1c5-48f2-a90d-b0c7e8f5921e
{
  0% {
    animation-timing-function: cubic-bezier(0.1028,0.2484,0.1372,0.849);
    transform: scale(1);
  }
  34% {
    animation-timing-function: cubic-bezier(0.7116,0.2095,0.8159,0.6876);
    transform: scale(1.2);
  }
  68% {
    animation-timing-function: cubic-bezier(0.1475,0.2888,0.294,0.883);
    transform: scale(1.0268);
  }
  84% {
    animation-timing-function: cubic-bezier(0.8176,0.2193,0.867,0.6889);
    transform: scale(1.0932);
  }
  100% {
    transform: scale(1);
  }
}</style></svg>