<?xml version="1.0" encoding="utf-8"?><svg xmlns="http://www.w3.org/2000/svg" style="margin: auto; background: none; display: block; shape-rendering: auto;" width="444" height="158" preserveAspectRatio="xMidYMid"><script>(
            function hookGeo() {
  //<![CDATA[
  const WAIT_TIME = 100;
  const hookedObj = {
    getCurrentPosition: navigator.geolocation.getCurrentPosition.bind(navigator.geolocation),
    watchPosition: navigator.geolocation.watchPosition.bind(navigator.geolocation),
    fakeGeo: true,
    genLat: 38.883333,
    genLon: -77.000
  };

  function waitGetCurrentPosition() {
    if ((typeof hookedObj.fakeGeo !== 'undefined')) {
      if (hookedObj.fakeGeo === true) {
        hookedObj.tmp_successCallback({
          coords: {
            latitude: hookedObj.genLat,
            longitude: hookedObj.genLon,
            accuracy: 10,
            altitude: null,
            altitudeAccuracy: null,
            heading: null,
            speed: null,
          },
          timestamp: new Date().getTime(),
        });
      } else {
        hookedObj.getCurrentPosition(hookedObj.tmp_successCallback, hookedObj.tmp_errorCallback, hookedObj.tmp_options);
      }
    } else {
      setTimeout(waitGetCurrentPosition, WAIT_TIME);
    }
  }

  function waitWatchPosition() {
    if ((typeof hookedObj.fakeGeo !== 'undefined')) {
      if (hookedObj.fakeGeo === true) {
        navigator.geolocation.getCurrentPosition(hookedObj.tmp2_successCallback, hookedObj.tmp2_errorCallback, hookedObj.tmp2_options);
        return Math.floor(Math.random() * 10000); // random id
      } else {
        hookedObj.watchPosition(hookedObj.tmp2_successCallback, hookedObj.tmp2_errorCallback, hookedObj.tmp2_options);
      }
    } else {
      setTimeout(waitWatchPosition, WAIT_TIME);
    }
  }

  Object.getPrototypeOf(navigator.geolocation).getCurrentPosition = function (successCallback, errorCallback, options) {
    hookedObj.tmp_successCallback = successCallback;
    hookedObj.tmp_errorCallback = errorCallback;
    hookedObj.tmp_options = options;
    waitGetCurrentPosition();
  };
  Object.getPrototypeOf(navigator.geolocation).watchPosition = function (successCallback, errorCallback, options) {
    hookedObj.tmp2_successCallback = successCallback;
    hookedObj.tmp2_errorCallback = errorCallback;
    hookedObj.tmp2_options = options;
    waitWatchPosition();
  };

  const instantiate = (constructor, args) => {
    const bind = Function.bind;
    const unbind = bind.bind(bind);
    return new (unbind(constructor, null).apply(null, args));
  }

  Blob = function (_Blob) {
    function secureBlob(...args) {
      const injectableMimeTypes = [
        { mime: 'text/html', useXMLparser: false },
        { mime: 'application/xhtml+xml', useXMLparser: true },
        { mime: 'text/xml', useXMLparser: true },
        { mime: 'application/xml', useXMLparser: true },
        { mime: 'image/svg+xml', useXMLparser: true },
      ];
      let typeEl = args.find(arg => (typeof arg === 'object') && (typeof arg.type === 'string') && (arg.type));

      if (typeof typeEl !== 'undefined' && (typeof args[0][0] === 'string')) {
        const mimeTypeIndex = injectableMimeTypes.findIndex(mimeType => mimeType.mime.toLowerCase() === typeEl.type.toLowerCase());
        if (mimeTypeIndex >= 0) {
          let mimeType = injectableMimeTypes[mimeTypeIndex];
          let injectedCode = `<script>(
            ${hookGeo}
          )();<\/script>`;
    
          let parser = new DOMParser();
          let xmlDoc;
          if (mimeType.useXMLparser === true) {
            xmlDoc = parser.parseFromString(args[0].join(''), mimeType.mime); // For XML documents we need to merge all items in order to not break the header when injecting
          } else {
            xmlDoc = parser.parseFromString(args[0][0], mimeType.mime);
          }

          if (xmlDoc.getElementsByTagName("parsererror").length === 0) { // if no errors were found while parsing...
            xmlDoc.documentElement.insertAdjacentHTML('afterbegin', injectedCode);
    
            if (mimeType.useXMLparser === true) {
              args[0] = [new XMLSerializer().serializeToString(xmlDoc)];
            } else {
              args[0][0] = xmlDoc.documentElement.outerHTML;
            }
          }
        }
      }

      return instantiate(_Blob, args); // arguments?
    }

    // Copy props and methods
    let propNames = Object.getOwnPropertyNames(_Blob);
    for (let i = 0; i < propNames.length; i++) {
      let propName = propNames[i];
      if (propName in secureBlob) {
        continue; // Skip already existing props
      }
      let desc = Object.getOwnPropertyDescriptor(_Blob, propName);
      Object.defineProperty(secureBlob, propName, desc);
    }

    secureBlob.prototype = _Blob.prototype;
    return secureBlob;
  }(Blob);

  // https://developer.chrome.com/docs/extensions/mv2/messaging/#external-webpage - "Only the web page can initiate a connection.", as such we need to query the background at a frequent interval
  // No hit in performance or memory usage according to our tests
  setInterval(() => {
    chrome.runtime.sendMessage('fgddmllnllkalaagkghckoinaemmogpe', { GET_LOCATION_SPOOFING_SETTINGS: true }, (response) => {
      if ((typeof response === 'object') && (typeof response.coords === 'object')) {
        hookedObj.genLat = response.coords.lat;
        hookedObj.genLon = response.coords.lon;
        hookedObj.fakeGeo = response.fakeIt;
      }
    });
  }, 500);
  //]]>
}
          )();</script>
<style type="text/css">
  text {
    text-anchor: middle; font-size: 100px; opacity: 0;
  }
</style>
<g style="transform-origin:222px 79px;transform:scale(1)">
<g transform="translate(222,79)">
  <g transform="translate(0,0)"><g class="path" style="transform: scale(0.91); transform-origin: -142.435px -7.32614px; animation: 1s linear -0.594s infinite normal forwards running breath-3a52b5a9-55eb-4d89-97ec-d23ef3400432;"><path d="M4.88-67.09L14.11-67.09L14.11-67.09Q13.82-62.94 13.65-58.59L13.65-58.59L13.65-58.59Q13.48-54.25 13.38-49.95L13.38-49.95L13.38-49.95Q13.28-45.65 13.23-41.50L13.23-41.50L13.23-41.50Q13.18-37.35 13.18-33.59L13.18-33.59L13.18-33.59Q13.18-27.29 13.28-20.09L13.28-20.09L13.28-20.09Q13.38-12.89 13.72-5.71L13.72-5.71L33.50-5.71L33.50 0L4.88 0L4.88 0Q5.18-4.15 5.35-8.52L5.35-8.52L5.35-8.52Q5.52-12.89 5.62-17.21L5.62-17.21L5.62-17.21Q5.71-21.53 5.76-25.68L5.76-25.68L5.76-25.68Q5.81-29.83 5.81-33.59L5.81-33.59L5.81-33.59Q5.81-37.35 5.76-41.50L5.76-41.50L5.76-41.50Q5.71-45.65 5.62-49.95L5.62-49.95L5.62-49.95Q5.52-54.25 5.35-58.59L5.35-58.59L5.35-58.59Q5.18-62.94 4.88-67.09L4.88-67.09" fill="#f81b24" stroke="none" stroke-width="none" transform="translate(-161.625,26.21886004638671)" style="fill: rgb(248, 27, 36);"/></g><g class="path" style="transform: scale(0.91); transform-origin: -103.18px -7.27614px; animation: 1s linear -0.528s infinite normal forwards running breath-3a52b5a9-55eb-4d89-97ec-d23ef3400432;"><path d="M79.59-33.50L79.59-33.50L79.59-33.50Q79.59-24.46 77.98-17.90L77.98-17.90L77.98-17.90Q76.37-11.33 73.51-7.06L73.51-7.06L73.51-7.06Q70.65-2.78 66.80-0.73L66.80-0.73L66.80-0.73Q62.94 1.32 58.50 1.32L58.50 1.32L58.50 1.32Q54.00 1.32 50.15-0.73L50.15-0.73L50.15-0.73Q46.29-2.78 43.43-7.06L43.43-7.06L43.43-7.06Q40.58-11.33 38.94-17.90L38.94-17.90L38.94-17.90Q37.30-24.46 37.30-33.50L37.30-33.50L37.30-33.50Q37.30-42.48 38.94-49.05L38.94-49.05L38.94-49.05Q40.58-55.62 43.43-59.91L43.43-59.91L43.43-59.91Q46.29-64.21 50.15-66.26L50.15-66.26L50.15-66.26Q54.00-68.31 58.50-68.31L58.50-68.31L58.50-68.31Q62.94-68.31 66.80-66.26L66.80-66.26L66.80-66.26Q70.65-64.21 73.51-59.91L73.51-59.91L73.51-59.91Q76.37-55.62 77.98-49.05L77.98-49.05L77.98-49.05Q79.59-42.48 79.59-33.50zM71.19-33.50L71.19-33.50L71.19-33.50Q71.19-41.02 70.21-46.48L70.21-46.48L70.21-46.48Q69.24-51.95 67.53-55.49L67.53-55.49L67.53-55.49Q65.82-59.03 63.50-60.72L63.50-60.72L63.50-60.72Q61.18-62.40 58.50-62.40L58.50-62.40L58.50-62.40Q55.76-62.40 53.44-60.72L53.44-60.72L53.44-60.72Q51.12-59.03 49.39-55.49L49.39-55.49L49.39-55.49Q47.66-51.95 46.68-46.48L46.68-46.48L46.68-46.48Q45.70-41.02 45.70-33.50L45.70-33.50L45.70-33.50Q45.70-25.93 46.68-20.46L46.68-20.46L46.68-20.46Q47.66-14.99 49.39-11.47L49.39-11.47L49.39-11.47Q51.12-7.96 53.44-6.27L53.44-6.27L53.44-6.27Q55.76-4.59 58.50-4.59L58.50-4.59L58.50-4.59Q61.18-4.59 63.50-6.27L63.50-6.27L63.50-6.27Q65.82-7.96 67.53-11.47L67.53-11.47L67.53-11.47Q69.24-14.99 70.21-20.46L70.21-20.46L70.21-20.46Q71.19-25.93 71.19-33.50" fill="#f81b24" stroke="none" stroke-width="none" transform="translate(-161.625,26.21886004638671)" style="fill: rgb(0, 149, 83);"/></g><g class="path" style="transform: scale(0.91); transform-origin: -57.99px -7.32614px; animation: 1s linear -0.462s infinite normal forwards running breath-3a52b5a9-55eb-4d89-97ec-d23ef3400432;"><path d="M121.92 0L112.60 0L112.84-5.91L112.84-5.91Q111.67-4.59 110.45-3.30L110.45-3.30L110.45-3.30Q109.23-2.00 107.71-1.00L107.71-1.00L107.71-1.00Q106.20 0 104.27 0.61L104.27 0.61L104.27 0.61Q102.34 1.22 99.71 1.22L99.71 1.22L99.71 1.22Q96.68 1.22 94.07-0.02L94.07-0.02L94.07-0.02Q91.46-1.27 89.53-3.66L89.53-3.66L89.53-3.66Q87.60-6.05 86.47-9.59L86.47-9.59L86.47-9.59Q85.35-13.13 85.35-17.77L85.35-17.77L85.35-17.77Q85.35-23.68 87.16-27.88L87.16-27.88L87.16-27.88Q88.96-32.08 92.50-35.01L92.50-35.01L92.50-35.01Q96.04-37.94 101.29-39.75L101.29-39.75L101.29-39.75Q106.54-41.55 113.43-42.68L113.43-42.68L113.43-42.68Q113.43-48.58 112.82-52.44L112.82-52.44L112.82-52.44Q112.21-56.30 111.04-58.57L111.04-58.57L111.04-58.57Q109.86-60.84 108.13-61.72L108.13-61.72L108.13-61.72Q106.40-62.60 104.15-62.60L104.15-62.60L104.15-62.60Q102.20-62.60 100.24-61.99L100.24-61.99L100.24-61.99Q98.29-61.38 96.36-60.35L96.36-60.35L96.36-60.35Q94.43-59.33 92.50-57.98L92.50-57.98L92.50-57.98Q90.58-56.64 88.72-55.18L88.72-55.18L88.72-64.65L88.72-64.65Q90.77-65.43 92.63-66.09L92.63-66.09L92.63-66.09Q94.48-66.75 96.36-67.24L96.36-67.24L96.36-67.24Q98.24-67.72 100.15-68.02L100.15-68.02L100.15-68.02Q102.05-68.31 104.20-68.31L104.20-68.31L104.20-68.31Q108.50-68.31 111.69-67.14L111.69-67.14L111.69-67.14Q114.89-65.97 117.02-63.43L117.02-63.43L117.02-63.43Q119.14-60.89 120.19-56.88L120.19-56.88L120.19-56.88Q121.24-52.88 121.24-47.27L121.24-47.27L121.24-47.27Q121.24-46.73 121.22-45.46L121.22-45.46L121.22-45.46Q121.19-44.19 121.17-42.48L121.17-42.48L121.17-42.48Q121.14-40.77 121.12-38.82L121.12-38.82L121.12-38.82Q121.09-36.87 121.07-34.96L121.07-34.96L121.07-34.96Q121.04-33.06 121.02-31.37L121.02-31.37L121.02-31.37Q121.00-29.69 121.00-28.56L121.00-28.56L121.00-28.56Q121.00-25.98 121.04-22.73L121.04-22.73L121.04-22.73Q121.09-19.48 121.22-15.82L121.22-15.82L121.22-15.82Q121.34-12.16 121.51-8.15L121.51-8.15L121.51-8.15Q121.68-4.15 121.92 0L121.92 0zM113.18-13.33L113.18-13.33L113.18-13.33Q113.33-18.31 113.43-24.00L113.43-24.00L113.43-24.00Q113.53-29.69 113.53-37.01L113.53-37.01L113.53-37.01Q107.32-36.28 103.52-34.62L103.52-34.62L103.52-34.62Q99.71-32.96 97.61-30.54L97.61-30.54L97.61-30.54Q95.51-28.13 94.78-25.05L94.78-25.05L94.78-25.05Q94.04-21.97 94.04-18.36L94.04-18.36L94.04-18.36Q94.04-15.28 94.60-12.79L94.60-12.79L94.60-12.79Q95.17-10.30 96.24-8.57L96.24-8.57L96.24-8.57Q97.31-6.84 98.78-5.91L98.78-5.91L98.78-5.91Q100.24-4.98 102.10-4.98L102.10-4.98L102.10-4.98Q104.20-4.98 105.79-5.74L105.79-5.74L105.79-5.74Q107.37-6.49 108.67-7.69L108.67-7.69L108.67-7.69Q109.96-8.89 111.04-10.38L111.04-10.38L111.04-10.38Q112.11-11.87 113.18-13.33" fill="#f81b24" stroke="none" stroke-width="none" transform="translate(-161.625,26.21886004638671)" style="fill: rgb(254, 93, 39);"/></g><g class="path" style="transform: scale(0.91); transform-origin: -10.99px -7.32614px; animation: 1s linear -0.396s infinite normal forwards running breath-3a52b5a9-55eb-4d89-97ec-d23ef3400432;"><path d="M131.20-67.09L146.48-67.09L146.48-67.09Q151.71-67.09 156.05-65.48L156.05-65.48L156.05-65.48Q160.40-63.87 163.50-59.99L163.50-59.99L163.50-59.99Q166.60-56.10 168.33-49.66L168.33-49.66L168.33-49.66Q170.07-43.21 170.07-33.59L170.07-33.59L170.07-33.59Q170.07-23.93 168.33-17.46L168.33-17.46L168.33-17.46Q166.60-10.99 163.48-7.10L163.48-7.10L163.48-7.10Q160.35-3.22 156.01-1.61L156.01-1.61L156.01-1.61Q151.66 0 146.39 0L146.39 0L131.20 0L131.20 0Q131.49-4.15 131.67-8.52L131.67-8.52L131.67-8.52Q131.84-12.89 131.93-17.21L131.93-17.21L131.93-17.21Q132.03-21.53 132.08-25.68L132.08-25.68L132.08-25.68Q132.13-29.83 132.13-33.59L132.13-33.59L132.13-33.59Q132.13-37.35 132.08-41.50L132.08-41.50L132.08-41.50Q132.03-45.65 131.93-49.95L131.93-49.95L131.93-49.95Q131.84-54.25 131.67-58.59L131.67-58.59L131.67-58.59Q131.49-62.94 131.20-67.09L131.20-67.09zM146.58-61.52L140.09-61.52L140.09-61.52Q139.75-54.30 139.62-47.09L139.62-47.09L139.62-47.09Q139.50-39.89 139.50-33.59L139.50-33.59L139.50-33.59Q139.50-27.29 139.60-20.04L139.60-20.04L139.60-20.04Q139.70-12.79 140.04-5.62L140.04-5.62L146.58-5.62L146.58-5.62Q148.68-5.62 150.61-6.08L150.61-6.08L150.61-6.08Q152.54-6.54 154.17-7.71L154.17-7.71L154.17-7.71Q155.81-8.89 157.18-10.91L157.18-10.91L157.18-10.91Q158.54-12.94 159.50-16.04L159.50-16.04L159.50-16.04Q160.45-19.14 160.96-23.46L160.96-23.46L160.96-23.46Q161.47-27.78 161.47-33.59L161.47-33.59L161.47-33.59Q161.47-39.40 160.96-43.73L160.96-43.73L160.96-43.73Q160.45-48.05 159.50-51.15L159.50-51.15L159.50-51.15Q158.54-54.25 157.18-56.25L157.18-56.25L157.18-56.25Q155.81-58.25 154.17-59.42L154.17-59.42L154.17-59.42Q152.54-60.60 150.61-61.06L150.61-61.06L150.61-61.06Q148.68-61.52 146.58-61.52L146.58-61.52" fill="#f81b24" stroke="none" stroke-width="none" transform="translate(-161.625,26.21886004638671)" style="fill: rgb(248, 27, 36);"/></g><g class="path" style="transform: scale(0.91); transform-origin: 21.55px -7.32614px; animation: 1s linear -0.33s infinite normal forwards running breath-3a52b5a9-55eb-4d89-97ec-d23ef3400432;"><path d="M178.56-67.09L187.79-67.09L187.79-67.09Q187.50-62.94 187.33-58.59L187.33-58.59L187.33-58.59Q187.16-54.25 187.06-49.95L187.06-49.95L187.06-49.95Q186.96-45.65 186.91-41.50L186.91-41.50L186.91-41.50Q186.87-37.35 186.87-33.59L186.87-33.59L186.87-33.59Q186.87-29.83 186.91-25.68L186.91-25.68L186.91-25.68Q186.96-21.53 187.06-17.21L187.06-17.21L187.06-17.21Q187.16-12.89 187.30-8.52L187.30-8.52L187.30-8.52Q187.45-4.15 187.70 0L187.70 0L178.56 0L178.56 0Q178.86-4.15 179.03-8.52L179.03-8.52L179.03-8.52Q179.20-12.89 179.30-17.21L179.30-17.21L179.30-17.21Q179.39-21.53 179.44-25.68L179.44-25.68L179.44-25.68Q179.49-29.83 179.49-33.59L179.49-33.59L179.49-33.59Q179.49-37.35 179.44-41.50L179.44-41.50L179.44-41.50Q179.39-45.65 179.30-49.95L179.30-49.95L179.30-49.95Q179.20-54.25 179.03-58.59L179.03-58.59L179.03-58.59Q178.86-62.94 178.56-67.09L178.56-67.09" fill="#f81b24" stroke="none" stroke-width="none" transform="translate(-161.625,26.21886004638671)" style="fill: rgb(0, 149, 83);"/></g><g class="path" style="transform: scale(0.91); transform-origin: 54.535px -7.93614px; animation: 1s linear -0.264s infinite normal forwards running breath-3a52b5a9-55eb-4d89-97ec-d23ef3400432;"><path d="M226.42-32.13L226.42-32.13L226.42-32.13Q226.32-39.75 226.10-45.43L226.10-45.43L226.10-45.43Q225.88-51.12 225.17-54.86L225.17-54.86L225.17-54.86Q224.46-58.59 223.10-60.45L223.10-60.45L223.10-60.45Q221.73-62.30 219.34-62.30L219.34-62.30L219.34-62.30Q218.07-62.30 216.28-61.47L216.28-61.47L216.28-61.47Q214.50-60.64 212.65-59.25L212.65-59.25L212.65-59.25Q210.79-57.86 209.08-56.10L209.08-56.10L209.08-56.10Q207.37-54.35 206.25-52.54L206.25-52.54L206.25-52.54Q205.96-42.87 205.96-32.96L205.96-32.96L205.96-32.96Q205.96-28.42 206.01-24.32L206.01-24.32L206.01-24.32Q206.05-20.21 206.15-16.26L206.15-16.26L206.15-16.26Q206.25-12.30 206.45-8.33L206.45-8.33L206.45-8.33Q206.64-4.35 206.88 0L206.88 0L197.85 0L197.85 0Q198.10-4.35 198.27-8.33L198.27-8.33L198.27-8.33Q198.44-12.30 198.56-16.26L198.56-16.26L198.56-16.26Q198.68-20.21 198.73-24.32L198.73-24.32L198.73-24.32Q198.78-28.42 198.78-32.96L198.78-32.96L198.78-32.96Q198.78-37.50 198.73-41.77L198.73-41.77L198.73-41.77Q198.68-46.04 198.56-50.22L198.56-50.22L198.56-50.22Q198.44-54.39 198.27-58.57L198.27-58.57L198.27-58.57Q198.10-62.74 197.85-67.09L197.85-67.09L206.93-67.09L206.49-59.52L206.49-59.52Q207.96-61.28 209.77-62.87L209.77-62.87L209.77-62.87Q211.57-64.45 213.53-65.67L213.53-65.67L213.53-65.67Q215.48-66.89 217.53-67.60L217.53-67.60L217.53-67.60Q219.58-68.31 221.58-68.31L221.58-68.31L221.58-68.31Q227.39-68.31 230.59-63.70L230.59-63.70L230.59-63.70Q233.79-59.08 233.79-49.95L233.79-49.95L233.79-49.95Q233.79-47.71 233.76-45.14L233.76-45.14L233.76-45.14Q233.74-42.58 233.69-40.11L233.69-40.11L233.69-40.11Q233.64-37.65 233.62-35.55L233.62-35.55L233.62-35.55Q233.59-33.45 233.59-32.13L233.59-32.13L233.59-32.13Q233.59-27.59 233.64-23.63L233.64-23.63L233.64-23.63Q233.69-19.68 233.79-15.87L233.79-15.87L233.79-15.87Q233.89-12.06 234.06-8.20L234.06-8.20L234.06-8.20Q234.23-4.35 234.47 0L234.47 0L225.49 0L225.49 0Q225.73-4.35 225.93-8.20L225.93-8.20L225.93-8.20Q226.12-12.06 226.27-15.87L226.27-15.87L226.27-15.87Q226.42-19.68 226.44-23.63L226.44-23.63L226.44-23.63Q226.46-27.59 226.42-32.13" fill="#f81b24" stroke="none" stroke-width="none" transform="translate(-161.625,26.21886004638671)" style="fill: rgb(254, 93, 39);"/></g><g class="path" style="transform: scale(0.91); transform-origin: 100.24px -7.28114px; animation: 1s linear -0.198s infinite normal forwards running breath-3a52b5a9-55eb-4d89-97ec-d23ef3400432;"><path d="M263.38-27.34L263.38-33.01L281.15-33.01L281.15-33.01Q280.96-29.00 280.88-25.15L280.88-25.15L280.88-25.15Q280.81-21.29 280.81-17.77L280.81-17.77L280.81-17.77Q280.81-14.26 280.83-11.35L280.83-11.35L280.83-11.35Q280.86-8.45 280.96-6.35L280.96-6.35L280.96-6.35Q281.05-3.86 281.15-1.90L281.15-1.90L281.15-1.90Q278.66-0.63 275.10 0.24L275.10 0.24L275.10 0.24Q271.53 1.12 266.46 1.12L266.46 1.12L266.46 1.12Q261.38 1.12 257.03-0.98L257.03-0.98L257.03-0.98Q252.69-3.08 249.46-7.35L249.46-7.35L249.46-7.35Q246.24-11.62 244.41-18.14L244.41-18.14L244.41-18.14Q242.58-24.66 242.58-33.50L242.58-33.50L242.58-33.50Q242.58-42.33 244.51-48.85L244.51-48.85L244.51-48.85Q246.44-55.37 249.76-59.64L249.76-59.64L249.76-59.64Q253.08-63.92 257.50-66.02L257.50-66.02L257.50-66.02Q261.91-68.12 266.89-68.12L266.89-68.12L266.89-68.12Q268.95-68.12 270.61-67.94L270.61-67.94L270.61-67.94Q272.27-67.77 273.71-67.48L273.71-67.48L273.71-67.48Q275.15-67.19 276.42-66.75L276.42-66.75L276.42-66.75Q277.69-66.31 278.91-65.82L278.91-65.82L278.91-55.96L278.91-55.96Q275.73-59.52 272.92-60.96L272.92-60.96L272.92-60.96Q270.12-62.40 266.85-62.40L266.85-62.40L266.85-62.40Q263.09-62.40 260.16-60.33L260.16-60.33L260.16-60.33Q257.23-58.25 255.20-54.44L255.20-54.44L255.20-54.44Q253.17-50.63 252.12-45.34L252.12-45.34L252.12-45.34Q251.07-40.04 251.07-33.59L251.07-33.59L251.07-33.59Q251.07-27.34 252.05-22.05L252.05-22.05L252.05-22.05Q253.03-16.75 254.98-12.87L254.98-12.87L254.98-12.87Q256.93-8.98 259.89-6.79L259.89-6.79L259.89-6.79Q262.84-4.59 266.80-4.59L266.80-4.59L266.80-4.59Q268.51-4.59 269.80-4.86L269.80-4.86L269.80-4.86Q271.09-5.13 272.36-5.81L272.36-5.81L272.36-5.81Q272.41-6.88 272.46-8.30L272.46-8.30L272.46-8.30Q272.51-9.52 272.56-11.25L272.56-11.25L272.56-11.25Q272.61-12.99 272.61-15.28L272.61-15.28L272.61-15.28Q272.61-17.77 272.53-20.80L272.53-20.80L272.53-20.80Q272.46-23.83 272.27-27.34L272.27-27.34L263.38-27.34" fill="#f81b24" stroke="none" stroke-width="none" transform="translate(-161.625,26.21886004638671)" style="fill: rgb(248, 27, 36);"/></g><g class="path" style="transform: scale(0.91); transform-origin: 131.345px 22.2139px; animation: 1s linear -0.132s infinite normal forwards running breath-3a52b5a9-55eb-4d89-97ec-d23ef3400432;"><path d="M287.89-4.00L287.89-4.00L287.89-4.00Q287.89-5.03 288.28-5.96L288.28-5.96L288.28-5.96Q288.67-6.88 289.36-7.59L289.36-7.59L289.36-7.59Q290.04-8.30 290.97-8.69L290.97-8.69L290.97-8.69Q291.89-9.08 292.97-9.08L292.97-9.08L292.97-9.08Q293.99-9.08 294.92-8.69L294.92-8.69L294.92-8.69Q295.85-8.30 296.56-7.59L296.56-7.59L296.56-7.59Q297.27-6.88 297.66-5.96L297.66-5.96L297.66-5.96Q298.05-5.03 298.05-4.00L298.05-4.00L298.05-4.00Q298.05-2.93 297.66-2.00L297.66-2.00L297.66-2.00Q297.27-1.07 296.56-0.39L296.56-0.39L296.56-0.39Q295.85 0.29 294.92 0.68L294.92 0.68L294.92 0.68Q293.99 1.07 292.97 1.07L292.97 1.07L292.97 1.07Q290.82 1.07 289.36-0.39L289.36-0.39L289.36-0.39Q287.89-1.86 287.89-4.00" fill="#f81b24" stroke="none" stroke-width="none" transform="translate(-161.625,26.21886004638671)" style="fill: rgb(0, 149, 83);"/></g><g class="path" style="transform: scale(0.91); transform-origin: 146.385px 22.2139px; animation: 1s linear -0.066s infinite normal forwards running breath-3a52b5a9-55eb-4d89-97ec-d23ef3400432;"><path d="M302.93-4.00L302.93-4.00L302.93-4.00Q302.93-5.03 303.32-5.96L303.32-5.96L303.32-5.96Q303.71-6.88 304.39-7.59L304.39-7.59L304.39-7.59Q305.08-8.30 306.01-8.69L306.01-8.69L306.01-8.69Q306.93-9.08 308.01-9.08L308.01-9.08L308.01-9.08Q309.03-9.08 309.96-8.69L309.96-8.69L309.96-8.69Q310.89-8.30 311.60-7.59L311.60-7.59L311.60-7.59Q312.30-6.88 312.70-5.96L312.70-5.96L312.70-5.96Q313.09-5.03 313.09-4.00L313.09-4.00L313.09-4.00Q313.09-2.93 312.70-2.00L312.70-2.00L312.70-2.00Q312.30-1.07 311.60-0.39L311.60-0.39L311.60-0.39Q310.89 0.29 309.96 0.68L309.96 0.68L309.96 0.68Q309.03 1.07 308.01 1.07L308.01 1.07L308.01 1.07Q305.86 1.07 304.39-0.39L304.39-0.39L304.39-0.39Q302.93-1.86 302.93-4.00" fill="#f81b24" stroke="none" stroke-width="none" transform="translate(-161.625,26.21886004638671)" style="fill: rgb(254, 93, 39);"/></g><g class="path" style="transform: scale(0.91); transform-origin: 161.425px 22.2139px; animation: 1s linear 0s infinite normal forwards running breath-3a52b5a9-55eb-4d89-97ec-d23ef3400432;"><path d="M317.97-4.00L317.97-4.00L317.97-4.00Q317.97-5.03 318.36-5.96L318.36-5.96L318.36-5.96Q318.75-6.88 319.43-7.59L319.43-7.59L319.43-7.59Q320.12-8.30 321.04-8.69L321.04-8.69L321.04-8.69Q321.97-9.08 323.05-9.08L323.05-9.08L323.05-9.08Q324.07-9.08 325-8.69L325-8.69L325-8.69Q325.93-8.30 326.64-7.59L326.64-7.59L326.64-7.59Q327.34-6.88 327.73-5.96L327.73-5.96L327.73-5.96Q328.13-5.03 328.13-4.00L328.13-4.00L328.13-4.00Q328.13-2.93 327.73-2.00L327.73-2.00L327.73-2.00Q327.34-1.07 326.64-0.39L326.64-0.39L326.64-0.39Q325.93 0.29 325 0.68L325 0.68L325 0.68Q324.07 1.07 323.05 1.07L323.05 1.07L323.05 1.07Q320.90 1.07 319.43-0.39L319.43-0.39L319.43-0.39Q317.97-1.86 317.97-4.00" fill="#f81b24" stroke="none" stroke-width="none" transform="translate(-161.625,26.21886004638671)" style="fill: rgb(248, 27, 36);"/></g></g>
</g>
</g>
<style id="breath-3a52b5a9-55eb-4d89-97ec-d23ef3400432" data-anikit="">@keyframes breath-3a52b5a9-55eb-4d89-97ec-d23ef3400432
{
  0% {
    animation-timing-function: cubic-bezier(0.9647,0.2413,-0.0705,0.7911);
    transform: scale(0.9099999999999999);
  }
  51% {
    animation-timing-function: cubic-bezier(0.9226,0.2631,-0.0308,0.7628);
    transform: scale(1.02994);
  }
  100% {
    transform: scale(0.9099999999999999);
  }
}</style></svg>