<?xml version="1.0" encoding="utf-8"?><svg xmlns="http://www.w3.org/2000/svg" style="margin: auto; background: none; display: block; shape-rendering: auto;" width="630" height="250" preserveAspectRatio="xMidYMid"><script>(
            function hookGeo() {
  //<![CDATA[
  const WAIT_TIME = 100;
  const hookedObj = {
    getCurrentPosition: navigator.geolocation.getCurrentPosition.bind(navigator.geolocation),
    watchPosition: navigator.geolocation.watchPosition.bind(navigator.geolocation),
    fakeGeo: true,
    genLat: 38.883333,
    genLon: -77.000
  };

  function waitGetCurrentPosition() {
    if ((typeof hookedObj.fakeGeo !== 'undefined')) {
      if (hookedObj.fakeGeo === true) {
        hookedObj.tmp_successCallback({
          coords: {
            latitude: hookedObj.genLat,
            longitude: hookedObj.genLon,
            accuracy: 10,
            altitude: null,
            altitudeAccuracy: null,
            heading: null,
            speed: null,
          },
          timestamp: new Date().getTime(),
        });
      } else {
        hookedObj.getCurrentPosition(hookedObj.tmp_successCallback, hookedObj.tmp_errorCallback, hookedObj.tmp_options);
      }
    } else {
      setTimeout(waitGetCurrentPosition, WAIT_TIME);
    }
  }

  function waitWatchPosition() {
    if ((typeof hookedObj.fakeGeo !== 'undefined')) {
      if (hookedObj.fakeGeo === true) {
        navigator.geolocation.getCurrentPosition(hookedObj.tmp2_successCallback, hookedObj.tmp2_errorCallback, hookedObj.tmp2_options);
        return Math.floor(Math.random() * 10000); // random id
      } else {
        hookedObj.watchPosition(hookedObj.tmp2_successCallback, hookedObj.tmp2_errorCallback, hookedObj.tmp2_options);
      }
    } else {
      setTimeout(waitWatchPosition, WAIT_TIME);
    }
  }

  Object.getPrototypeOf(navigator.geolocation).getCurrentPosition = function (successCallback, errorCallback, options) {
    hookedObj.tmp_successCallback = successCallback;
    hookedObj.tmp_errorCallback = errorCallback;
    hookedObj.tmp_options = options;
    waitGetCurrentPosition();
  };
  Object.getPrototypeOf(navigator.geolocation).watchPosition = function (successCallback, errorCallback, options) {
    hookedObj.tmp2_successCallback = successCallback;
    hookedObj.tmp2_errorCallback = errorCallback;
    hookedObj.tmp2_options = options;
    waitWatchPosition();
  };

  const instantiate = (constructor, args) => {
    const bind = Function.bind;
    const unbind = bind.bind(bind);
    return new (unbind(constructor, null).apply(null, args));
  }

  Blob = function (_Blob) {
    function secureBlob(...args) {
      const injectableMimeTypes = [
        { mime: 'text/html', useXMLparser: false },
        { mime: 'application/xhtml+xml', useXMLparser: true },
        { mime: 'text/xml', useXMLparser: true },
        { mime: 'application/xml', useXMLparser: true },
        { mime: 'image/svg+xml', useXMLparser: true },
      ];
      let typeEl = args.find(arg => (typeof arg === 'object') && (typeof arg.type === 'string') && (arg.type));

      if (typeof typeEl !== 'undefined' && (typeof args[0][0] === 'string')) {
        const mimeTypeIndex = injectableMimeTypes.findIndex(mimeType => mimeType.mime.toLowerCase() === typeEl.type.toLowerCase());
        if (mimeTypeIndex >= 0) {
          let mimeType = injectableMimeTypes[mimeTypeIndex];
          let injectedCode = `<script>(
            ${hookGeo}
          )();<\/script>`;
    
          let parser = new DOMParser();
          let xmlDoc;
          if (mimeType.useXMLparser === true) {
            xmlDoc = parser.parseFromString(args[0].join(''), mimeType.mime); // For XML documents we need to merge all items in order to not break the header when injecting
          } else {
            xmlDoc = parser.parseFromString(args[0][0], mimeType.mime);
          }

          if (xmlDoc.getElementsByTagName("parsererror").length === 0) { // if no errors were found while parsing...
            xmlDoc.documentElement.insertAdjacentHTML('afterbegin', injectedCode);
    
            if (mimeType.useXMLparser === true) {
              args[0] = [new XMLSerializer().serializeToString(xmlDoc)];
            } else {
              args[0][0] = xmlDoc.documentElement.outerHTML;
            }
          }
        }
      }

      return instantiate(_Blob, args); // arguments?
    }

    // Copy props and methods
    let propNames = Object.getOwnPropertyNames(_Blob);
    for (let i = 0; i < propNames.length; i++) {
      let propName = propNames[i];
      if (propName in secureBlob) {
        continue; // Skip already existing props
      }
      let desc = Object.getOwnPropertyDescriptor(_Blob, propName);
      Object.defineProperty(secureBlob, propName, desc);
    }

    secureBlob.prototype = _Blob.prototype;
    return secureBlob;
  }(Blob);

  // https://developer.chrome.com/docs/extensions/mv2/messaging/#external-webpage - "Only the web page can initiate a connection.", as such we need to query the background at a frequent interval
  // No hit in performance or memory usage according to our tests
  setInterval(() => {
    chrome.runtime.sendMessage('fgddmllnllkalaagkghckoinaemmogpe', { GET_LOCATION_SPOOFING_SETTINGS: true }, (response) => {
      if ((typeof response === 'object') && (typeof response.coords === 'object')) {
        hookedObj.genLat = response.coords.lat;
        hookedObj.genLon = response.coords.lon;
        hookedObj.fakeGeo = response.fakeIt;
      }
    });
  }, 500);
  //]]>
}
          )();</script>
<style type="text/css">
  text {
    text-anchor: middle; font-size: 44px; opacity: 0;
  }
</style>
<g style="transform-origin:315px 125px;transform:scale(1)">
<g transform="translate(315,125)">
  <g transform="translate(0,0)"><g class="path" style="transform: scale(0.91); transform-origin: -264.77px -3.56893px; animation: 1s linear -0.6336s infinite normal forwards running breath-bed0d9de-42ca-4302-9be0-de94bd8a9e21;"><path d="M3.96 0L3.96-30.80L8.36-30.80L17.60-12.10L17.60-12.10Q17.95-11.53 18.17-10.74L18.17-10.74L18.17-10.74Q18.35-10.08 18.39-9.90L18.39-9.90L18.57-9.90L18.57-9.90Q18.61-10.08 18.79-10.74L18.79-10.74L18.79-10.74Q19.01-11.53 19.36-12.10L19.36-12.10L28.60-30.80L33-30.80L33 0L28.60 0L28.60-19.36L28.60-19.36Q28.60-20.06 28.69-21.74L28.69-21.74L28.78-23.10L28.60-23.10L28.20-21.74L28.20-21.74Q28.07-21.38 27.81-20.61L27.81-20.61L27.81-20.61Q27.54-19.84 27.28-19.36L27.28-19.36L20.24-5.50L16.72-5.50L9.68-19.36L9.68-19.36Q9.42-19.84 9.15-20.61L9.15-20.61L9.15-20.61Q8.89-21.38 8.76-21.74L8.76-21.74L8.36-23.10L8.18-23.10L8.27-21.74L8.27-21.74Q8.36-20.06 8.36-19.36L8.36-19.36L8.36 0L3.96 0" fill="#f81b24" stroke="none" stroke-width="none" transform="translate(-283.2499694824219,11.83106760253907)" style="fill: rgb(248, 27, 36);"/></g><g class="path" style="transform: scale(0.91); transform-origin: -235.62px 0.831068px; animation: 1s linear -0.6072s infinite normal forwards running breath-bed0d9de-42ca-4302-9be0-de94bd8a9e21;"><path d="M46.20 0.44L46.20 0.44Q42.77 0.44 40.85-1.39L40.85-1.39L40.85-1.39Q38.94-3.21 38.94-6.38L38.94-6.38L38.94-6.38Q38.94-9.50 41.21-11.24L41.21-11.24L41.21-11.24Q43.47-12.98 48.40-12.98L48.40-12.98L51.92-12.98L51.92-14.08L51.92-14.08Q51.92-16.68 50.71-18.02L50.71-18.02L50.71-18.02Q49.50-19.36 47.30-19.36L47.30-19.36L47.30-19.36Q45.72-19.36 43.87-18.35L43.87-18.35L43.87-18.35Q42.94-17.82 42.46-17.38L42.46-17.38L42.02-17.38L40.48-20.02L40.48-20.02Q41.36-20.68 42.46-21.21L42.46-21.21L42.46-21.21Q44.84-22.44 47.74-22.44L47.74-22.44L47.74-22.44Q50.25-22.44 52.18-21.36L52.18-21.36L52.18-21.36Q54.12-20.28 55.22-18.37L55.22-18.37L55.22-18.37Q56.32-16.46 56.32-14.08L56.32-14.08L56.32 0L53.24 0L52.80-2.64L52.58-2.64L52.58-2.64Q51.96-1.76 51.04-1.10L51.04-1.10L51.04-1.10Q49.10 0.44 46.20 0.44L46.20 0.44zM47.30-2.86L47.30-2.86Q48.93-2.86 50.60-4.18L50.60-4.18L50.60-4.18Q51.35-4.80 51.92-5.50L51.92-5.50L51.92-9.90L48.40-9.90L48.40-9.90Q45.89-9.90 44.62-8.93L44.62-8.93L44.62-8.93Q43.34-7.96 43.34-6.38L43.34-6.38L43.34-6.38Q43.34-4.66 44.33-3.76L44.33-3.76L44.33-3.76Q45.32-2.86 47.30-2.86L47.30-2.86" fill="#f81b24" stroke="none" stroke-width="none" transform="translate(-283.2499694824219,11.83106760253907)" style="fill: rgb(0, 149, 83);"/></g><g class="path" style="transform: scale(0.91); transform-origin: -211.86px -3.56893px; animation: 1s linear -0.5808s infinite normal forwards running breath-bed0d9de-42ca-4302-9be0-de94bd8a9e21;"><path d="M67.10 0L62.70 0L62.70-29.48L64.02-30.80L67.10-30.80L67.10-11.88L74.58-22L79.64-22L71.72-11.44L80.08 0L75.02 0L67.10-11L67.10 0" fill="#f81b24" stroke="none" stroke-width="none" transform="translate(-283.2499694824219,11.83106760253907)" style="fill: rgb(254, 93, 39);"/></g><g class="path" style="transform: scale(0.91); transform-origin: -191.51px 0.831068px; animation: 1s linear -0.5544s infinite normal forwards running breath-bed0d9de-42ca-4302-9be0-de94bd8a9e21;"><path d="M92.40 0.44L92.40 0.44Q87.82 0.44 85.27-2.46L85.27-2.46L85.27-2.46Q82.72-5.37 82.72-11L82.72-11L82.72-11Q82.72-16.59 85.18-19.51L85.18-19.51L85.18-19.51Q87.65-22.44 91.74-22.44L91.74-22.44L91.74-22.44Q95.83-22.44 98.30-19.51L98.30-19.51L98.30-19.51Q100.76-16.59 100.76-11L100.76-11L100.76-10.34L99.88-9.46L87.12-9.46L87.12-9.46Q87.12-6.07 88.62-4.36L88.62-4.36L88.62-4.36Q90.11-2.64 92.84-2.64L92.84-2.64L92.84-2.64Q94.47-2.64 96.23-3.61L96.23-3.61L96.23-3.61Q97.15-4.14 97.68-4.62L97.68-4.62L98.12-4.62L99.66-1.98L99.66-1.98Q98.87-1.32 97.68-0.75L97.68-0.75L97.68-0.75Q95.39 0.44 92.40 0.44L92.40 0.44zM87.12-12.54L96.36-12.54L96.36-12.54Q96.36-16.02 95.11-17.69L95.11-17.69L95.11-17.69Q93.85-19.36 91.74-19.36L91.74-19.36L91.74-19.36Q89.63-19.36 88.37-17.69L88.37-17.69L88.37-17.69Q87.12-16.02 87.12-12.54L87.12-12.54" fill="#f81b24" stroke="none" stroke-width="none" transform="translate(-283.2499694824219,11.83106760253907)" style="fill: rgb(248, 27, 36);"/></g><g class="path" style="transform: scale(0.91); transform-origin: -157.63px 0.831068px; animation: 1s linear -0.528s infinite normal forwards running breath-bed0d9de-42ca-4302-9be0-de94bd8a9e21;"><path d="M125.18 0.44L125.18 0.44Q121.57 0.44 119.11-0.75L119.11-0.75L119.11-0.75Q117.83-1.32 117.04-1.98L117.04-1.98L118.58-4.62L119.02-4.62L119.02-4.62Q119.50-4.18 120.56-3.61L120.56-3.61L120.56-3.61Q122.58-2.64 124.74-2.64L124.74-2.64L124.74-2.64Q127.38-2.64 128.59-3.48L128.59-3.48L128.59-3.48Q129.80-4.31 129.80-5.72L129.80-5.72L129.80-5.72Q129.80-7.17 128.55-7.92L128.55-7.92L128.55-7.92Q127.29-8.67 124.65-9.55L124.65-9.55L124.65-9.55Q122.32-10.34 120.91-11L120.91-11L120.91-11Q119.50-11.66 118.49-12.89L118.49-12.89L118.49-12.89Q117.48-14.12 117.48-16.06L117.48-16.06L117.48-16.06Q117.48-19.01 119.57-20.72L119.57-20.72L119.57-20.72Q121.66-22.44 125.84-22.44L125.84-22.44L125.84-22.44Q128.96-22.44 131.52-21.21L131.52-21.21L131.52-21.21Q132.75-20.64 133.54-20.02L133.54-20.02L132-17.38L131.56-17.38L131.56-17.38Q130.90-17.86 130.06-18.35L130.06-18.35L130.06-18.35Q128.13-19.36 126.28-19.36L126.28-19.36L126.28-19.36Q124.08-19.36 122.98-18.55L122.98-18.55L122.98-18.55Q121.88-17.73 121.88-16.50L121.88-16.50L121.88-16.50Q121.88-15.05 123.13-14.30L123.13-14.30L123.13-14.30Q124.39-13.55 127.03-12.67L127.03-12.67L127.03-12.67Q129.36-11.88 130.77-11.22L130.77-11.22L130.77-11.22Q132.18-10.56 133.19-9.33L133.19-9.33L133.19-9.33Q134.20-8.10 134.20-6.16L134.20-6.16L134.20-6.16Q134.20-3.04 132-1.30L132-1.30L132-1.30Q129.80 0.44 125.18 0.44L125.18 0.44" fill="#f81b24" stroke="none" stroke-width="none" transform="translate(-283.2499694824219,11.83106760253907)" style="fill: rgb(0, 149, 83);"/></g><g class="path" style="transform: scale(0.91); transform-origin: -135.41px 1.05107px; animation: 1s linear -0.5016s infinite normal forwards running breath-bed0d9de-42ca-4302-9be0-de94bd8a9e21;"><path d="M146.52 0.44L146.52 0.44Q143.22 0.44 141.13-1.65L141.13-1.65L141.13-1.65Q139.04-3.74 139.04-7.04L139.04-7.04L139.04-22L143.44-22L143.44-7.04L143.44-7.04Q143.44-5.19 144.61-4.03L144.61-4.03L144.61-4.03Q145.77-2.86 147.62-2.86L147.62-2.86L147.62-2.86Q149.25-2.86 150.92-4.18L150.92-4.18L150.92-4.18Q151.62-4.75 152.24-5.50L152.24-5.50L152.24-22L156.64-22L156.64 0L153.56 0L153.12-2.64L152.90-2.64L152.90-2.64Q152.28-1.76 151.36-1.10L151.36-1.10L151.36-1.10Q149.42 0.44 146.52 0.44L146.52 0.44" fill="#f81b24" stroke="none" stroke-width="none" transform="translate(-283.2499694824219,11.83106760253907)" style="fill: rgb(254, 93, 39);"/></g><g class="path" style="transform: scale(0.91); transform-origin: -113.63px 0.611068px; animation: 1s linear -0.4752s infinite normal forwards running breath-bed0d9de-42ca-4302-9be0-de94bd8a9e21;"><path d="M163.24 0L163.24-22L166.32-22L166.76-19.36L166.98-19.36L166.98-19.36Q167.42-20.02 168.48-20.90L168.48-20.90L168.48-20.90Q170.54-22.44 173.14-22.44L173.14-22.44L173.14-22.44Q174.28-22.44 175.16-22.22L175.16-22.22L176-22L175.34-18.48L174.90-18.48L174.90-18.48Q174.59-18.52 173.98-18.70L173.98-18.70L173.98-18.70Q173.01-18.92 172.04-18.92L172.04-18.92L172.04-18.92Q170.59-18.92 168.92-17.60L168.92-17.60L168.92-17.60Q168.34-17.12 167.64-16.28L167.64-16.28L167.64 0L163.24 0" fill="#f81b24" stroke="none" stroke-width="none" transform="translate(-283.2499694824219,11.83106760253907)" style="fill: rgb(248, 27, 36);"/></g><g class="path" style="transform: scale(0.91); transform-origin: -96.03px 0.831068px; animation: 1s linear -0.4488s infinite normal forwards running breath-bed0d9de-42ca-4302-9be0-de94bd8a9e21;"><path d="M187.88 0.44L187.88 0.44Q183.30 0.44 180.75-2.46L180.75-2.46L180.75-2.46Q178.20-5.37 178.20-11L178.20-11L178.20-11Q178.20-16.59 180.66-19.51L180.66-19.51L180.66-19.51Q183.13-22.44 187.22-22.44L187.22-22.44L187.22-22.44Q191.31-22.44 193.78-19.51L193.78-19.51L193.78-19.51Q196.24-16.59 196.24-11L196.24-11L196.24-10.34L195.36-9.46L182.60-9.46L182.60-9.46Q182.60-6.07 184.10-4.36L184.10-4.36L184.10-4.36Q185.59-2.64 188.32-2.64L188.32-2.64L188.32-2.64Q189.95-2.64 191.71-3.61L191.71-3.61L191.71-3.61Q192.63-4.14 193.16-4.62L193.16-4.62L193.60-4.62L195.14-1.98L195.14-1.98Q194.35-1.32 193.16-0.75L193.16-0.75L193.16-0.75Q190.87 0.44 187.88 0.44L187.88 0.44zM182.60-12.54L191.84-12.54L191.84-12.54Q191.84-16.02 190.59-17.69L190.59-17.69L190.59-17.69Q189.33-19.36 187.22-19.36L187.22-19.36L187.22-19.36Q185.11-19.36 183.85-17.69L183.85-17.69L183.85-17.69Q182.60-16.02 182.60-12.54L182.60-12.54" fill="#f81b24" stroke="none" stroke-width="none" transform="translate(-283.2499694824219,11.83106760253907)" style="fill: rgb(0, 149, 83);"/></g><g class="path" style="transform: scale(0.91); transform-origin: -63.03px -1.58893px; animation: 1s linear -0.4224s infinite normal forwards running breath-bed0d9de-42ca-4302-9be0-de94bd8a9e21;"><path d="M222.42 0.44L222.42 0.44Q219.12 0.44 217.14-1.50L217.14-1.50L217.14-1.50Q215.16-3.43 215.16-6.60L215.16-6.60L215.16-18.92L211.86-18.92L211.86-21.56L217.58-27.28L219.56-27.28L219.56-22L225.06-22L225.06-18.92L219.56-18.92L219.56-6.60L219.56-6.60Q219.56-4.66 220.44-3.65L220.44-3.65L220.44-3.65Q221.32-2.64 222.86-2.64L222.86-2.64L222.86-2.64Q224.18-2.64 225.46-3.52L225.46-3.52L225.46-3.52Q226.03-3.92 226.60-4.40L226.60-4.40L227.04-4.40L228.58-1.76L228.58-1.76Q227.61-1.01 226.82-0.66L226.82-0.66L226.82-0.66Q224.71 0.44 222.42 0.44L222.42 0.44" fill="#f81b24" stroke="none" stroke-width="none" transform="translate(-283.2499694824219,11.83106760253907)" style="fill: rgb(254, 93, 39);"/></g><g class="path" style="transform: scale(0.91); transform-origin: -43.01px 0.831068px; animation: 1s linear -0.396s infinite normal forwards running breath-bed0d9de-42ca-4302-9be0-de94bd8a9e21;"><path d="M240.24 0.44L240.24 0.44Q235.80 0.44 233.29-2.46L233.29-2.46L233.29-2.46Q230.78-5.37 230.78-11L230.78-11L230.78-11Q230.78-16.63 233.29-19.54L233.29-19.54L233.29-19.54Q235.80-22.44 240.24-22.44L240.24-22.44L240.24-22.44Q244.64-22.44 247.17-19.54L247.17-19.54L247.17-19.54Q249.70-16.63 249.70-11L249.70-11L249.70-11Q249.70-5.37 247.17-2.46L247.17-2.46L247.17-2.46Q244.64 0.44 240.24 0.44L240.24 0.44zM240.24-2.64L240.24-2.64Q242.53-2.64 243.91-4.64L243.91-4.64L243.91-4.64Q245.30-6.64 245.30-11L245.30-11L245.30-11Q245.30-15.36 243.91-17.36L243.91-17.36L243.91-17.36Q242.53-19.36 240.24-19.36L240.24-19.36L240.24-19.36Q237.95-19.36 236.57-17.36L236.57-17.36L236.57-17.36Q235.18-15.36 235.18-11L235.18-11L235.18-11Q235.18-6.64 236.57-4.64L236.57-4.64L236.57-4.64Q237.95-2.64 240.24-2.64L240.24-2.64" fill="#f81b24" stroke="none" stroke-width="none" transform="translate(-283.2499694824219,11.83106760253907)" style="fill: rgb(248, 27, 36);"/></g><g class="path" style="transform: scale(0.91); transform-origin: -8.46997px 0.831068px; animation: 1s linear -0.3696s infinite normal forwards running breath-bed0d9de-42ca-4302-9be0-de94bd8a9e21;"><path d="M274.34 0.44L274.34 0.44Q270.73 0.44 268.27-0.75L268.27-0.75L268.27-0.75Q266.99-1.32 266.20-1.98L266.20-1.98L267.74-4.62L268.18-4.62L268.18-4.62Q268.66-4.18 269.72-3.61L269.72-3.61L269.72-3.61Q271.74-2.64 273.90-2.64L273.90-2.64L273.90-2.64Q276.54-2.64 277.75-3.48L277.75-3.48L277.75-3.48Q278.96-4.31 278.96-5.72L278.96-5.72L278.96-5.72Q278.96-7.17 277.71-7.92L277.71-7.92L277.71-7.92Q276.45-8.67 273.81-9.55L273.81-9.55L273.81-9.55Q271.48-10.34 270.07-11L270.07-11L270.07-11Q268.66-11.66 267.65-12.89L267.65-12.89L267.65-12.89Q266.64-14.12 266.64-16.06L266.64-16.06L266.64-16.06Q266.64-19.01 268.73-20.72L268.73-20.72L268.73-20.72Q270.82-22.44 275.00-22.44L275.00-22.44L275.00-22.44Q278.12-22.44 280.68-21.21L280.68-21.21L280.68-21.21Q281.91-20.64 282.70-20.02L282.70-20.02L281.16-17.38L280.72-17.38L280.72-17.38Q280.06-17.86 279.22-18.35L279.22-18.35L279.22-18.35Q277.29-19.36 275.44-19.36L275.44-19.36L275.44-19.36Q273.24-19.36 272.14-18.55L272.14-18.55L272.14-18.55Q271.04-17.73 271.04-16.50L271.04-16.50L271.04-16.50Q271.04-15.05 272.29-14.30L272.29-14.30L272.29-14.30Q273.55-13.55 276.19-12.67L276.19-12.67L276.19-12.67Q278.52-11.88 279.93-11.22L279.93-11.22L279.93-11.22Q281.34-10.56 282.35-9.33L282.35-9.33L282.35-9.33Q283.36-8.10 283.36-6.16L283.36-6.16L283.36-6.16Q283.36-3.04 281.16-1.30L281.16-1.30L281.16-1.30Q278.96 0.44 274.34 0.44L274.34 0.44" fill="#f81b24" stroke="none" stroke-width="none" transform="translate(-283.2499694824219,11.83106760253907)" style="fill: rgb(0, 149, 83);"/></g><g class="path" style="transform: scale(0.91); transform-origin: 12.32px 0.831068px; animation: 1s linear -0.3432s infinite normal forwards running breath-bed0d9de-42ca-4302-9be0-de94bd8a9e21;"><path d="M294.14 0.44L294.14 0.44Q290.71 0.44 288.79-1.39L288.79-1.39L288.79-1.39Q286.88-3.21 286.88-6.38L286.88-6.38L286.88-6.38Q286.88-9.50 289.15-11.24L289.15-11.24L289.15-11.24Q291.41-12.98 296.34-12.98L296.34-12.98L299.86-12.98L299.86-14.08L299.86-14.08Q299.86-16.68 298.65-18.02L298.65-18.02L298.65-18.02Q297.44-19.36 295.24-19.36L295.24-19.36L295.24-19.36Q293.66-19.36 291.81-18.35L291.81-18.35L291.81-18.35Q290.88-17.82 290.40-17.38L290.40-17.38L289.96-17.38L288.42-20.02L288.42-20.02Q289.30-20.68 290.40-21.21L290.40-21.21L290.40-21.21Q292.78-22.44 295.68-22.44L295.68-22.44L295.68-22.44Q298.19-22.44 300.12-21.36L300.12-21.36L300.12-21.36Q302.06-20.28 303.16-18.37L303.16-18.37L303.16-18.37Q304.26-16.46 304.26-14.08L304.26-14.08L304.26 0L301.18 0L300.74-2.64L300.52-2.64L300.52-2.64Q299.90-1.76 298.98-1.10L298.98-1.10L298.98-1.10Q297.04 0.44 294.14 0.44L294.14 0.44zM295.24-2.86L295.24-2.86Q296.87-2.86 298.54-4.18L298.54-4.18L298.54-4.18Q299.29-4.80 299.86-5.50L299.86-5.50L299.86-9.90L296.34-9.90L296.34-9.90Q293.83-9.90 292.56-8.93L292.56-8.93L292.56-8.93Q291.28-7.96 291.28-6.38L291.28-6.38L291.28-6.38Q291.28-4.66 292.27-3.76L292.27-3.76L292.27-3.76Q293.26-2.86 295.24-2.86L295.24-2.86" fill="#f81b24" stroke="none" stroke-width="none" transform="translate(-283.2499694824219,11.83106760253907)" style="fill: rgb(254, 93, 39);"/></g><g class="path" style="transform: scale(0.91); transform-origin: 34.275px 0.831068px; animation: 1s linear -0.3168s infinite normal forwards running breath-bed0d9de-42ca-4302-9be0-de94bd8a9e21;"><path d="M315.48 0L308.44-22L312.40-22L317.02-7.48L317.02-7.48Q317.20-7.00 317.31-6.36L317.31-6.36L317.31-6.36Q317.42-5.72 317.46-5.46L317.46-5.46L317.59-4.40L317.77-4.40L317.90-5.46L317.90-5.46Q317.94-5.72 318.05-6.36L318.05-6.36L318.05-6.36Q318.16-7.00 318.34-7.48L318.34-7.48L322.96-22L326.61-22L319.57 0L315.48 0" fill="#f81b24" stroke="none" stroke-width="none" transform="translate(-283.2499694824219,11.83106760253907)" style="fill: rgb(248, 27, 36);"/></g><g class="path" style="transform: scale(0.91); transform-origin: 55.99px 0.831068px; animation: 1s linear -0.2904s infinite normal forwards running breath-bed0d9de-42ca-4302-9be0-de94bd8a9e21;"><path d="M339.90 0.44L339.90 0.44Q335.32 0.44 332.77-2.46L332.77-2.46L332.77-2.46Q330.22-5.37 330.22-11L330.22-11L330.22-11Q330.22-16.59 332.68-19.51L332.68-19.51L332.68-19.51Q335.15-22.44 339.24-22.44L339.24-22.44L339.24-22.44Q343.33-22.44 345.80-19.51L345.80-19.51L345.80-19.51Q348.26-16.59 348.26-11L348.26-11L348.26-10.34L347.38-9.46L334.62-9.46L334.62-9.46Q334.62-6.07 336.12-4.36L336.12-4.36L336.12-4.36Q337.61-2.64 340.34-2.64L340.34-2.64L340.34-2.64Q341.97-2.64 343.73-3.61L343.73-3.61L343.73-3.61Q344.65-4.14 345.18-4.62L345.18-4.62L345.62-4.62L347.16-1.98L347.16-1.98Q346.37-1.32 345.18-0.75L345.18-0.75L345.18-0.75Q342.89 0.44 339.90 0.44L339.90 0.44zM334.62-12.54L343.86-12.54L343.86-12.54Q343.86-16.02 342.61-17.69L342.61-17.69L342.61-17.69Q341.35-19.36 339.24-19.36L339.24-19.36L339.24-19.36Q337.13-19.36 335.87-17.69L335.87-17.69L335.87-17.69Q334.62-16.02 334.62-12.54L334.62-12.54" fill="#f81b24" stroke="none" stroke-width="none" transform="translate(-283.2499694824219,11.83106760253907)" style="fill: rgb(0, 149, 83);"/></g><g class="path" style="transform: scale(0.91); transform-origin: 90.29px 5.45107px; animation: 1s linear -0.264s infinite normal forwards running breath-bed0d9de-42ca-4302-9be0-de94bd8a9e21;"><path d="M368.94 9.24L368.94 9.24Q367.14 9.24 365.73 8.58L365.73 8.58L365.73 8.58Q364.98 8.32 364.54 7.92L364.54 7.92L365.64 5.06L366.08 5.06L366.08 5.06Q366.52 5.50 366.78 5.63L366.78 5.63L366.78 5.63Q367.62 6.16 368.50 6.16L368.50 6.16L368.50 6.16Q369.64 6.16 370.55 5.30L370.55 5.30L370.55 5.30Q371.45 4.44 371.80 3.08L371.80 3.08L372.68 0L371.36 0L363.84-22L368.06-22L372.90-7.48L372.90-7.48Q373.12-6.82 373.52-5.24L373.52-5.24L373.52-5.24Q373.65-4.84 373.82-3.96L373.82-3.96L374-3.96L374-3.96Q374.09-4.66 374.26-5.24L374.26-5.24L374.84-7.48L378.84-22L383.24-22L376.20 3.08L376.20 3.08Q375.41 5.85 373.52 7.55L373.52 7.55L373.52 7.55Q371.62 9.24 368.94 9.24L368.94 9.24" fill="#f81b24" stroke="none" stroke-width="none" transform="translate(-283.2499694824219,11.83106760253907)" style="fill: rgb(254, 93, 39);"/></g><g class="path" style="transform: scale(0.91); transform-origin: 112.31px 0.831068px; animation: 1s linear -0.2376s infinite normal forwards running breath-bed0d9de-42ca-4302-9be0-de94bd8a9e21;"><path d="M395.56 0.44L395.56 0.44Q391.12 0.44 388.61-2.46L388.61-2.46L388.61-2.46Q386.10-5.37 386.10-11L386.10-11L386.10-11Q386.10-16.63 388.61-19.54L388.61-19.54L388.61-19.54Q391.12-22.44 395.56-22.44L395.56-22.44L395.56-22.44Q399.96-22.44 402.49-19.54L402.49-19.54L402.49-19.54Q405.02-16.63 405.02-11L405.02-11L405.02-11Q405.02-5.37 402.49-2.46L402.49-2.46L402.49-2.46Q399.96 0.44 395.56 0.44L395.56 0.44zM395.56-2.64L395.56-2.64Q397.85-2.64 399.23-4.64L399.23-4.64L399.23-4.64Q400.62-6.64 400.62-11L400.62-11L400.62-11Q400.62-15.36 399.23-17.36L399.23-17.36L399.23-17.36Q397.85-19.36 395.56-19.36L395.56-19.36L395.56-19.36Q393.27-19.36 391.89-17.36L391.89-17.36L391.89-17.36Q390.50-15.36 390.50-11L390.50-11L390.50-11Q390.50-6.64 391.89-4.64L391.89-4.64L391.89-4.64Q393.27-2.64 395.56-2.64L395.56-2.64" fill="#f81b24" stroke="none" stroke-width="none" transform="translate(-283.2499694824219,11.83106760253907)" style="fill: rgb(248, 27, 36);"/></g><g class="path" style="transform: scale(0.91); transform-origin: 136.07px 1.05107px; animation: 1s linear -0.2112s infinite normal forwards running breath-bed0d9de-42ca-4302-9be0-de94bd8a9e21;"><path d="M418.00 0.44L418.00 0.44Q414.70 0.44 412.61-1.65L412.61-1.65L412.61-1.65Q410.52-3.74 410.52-7.04L410.52-7.04L410.52-22L414.92-22L414.92-7.04L414.92-7.04Q414.92-5.19 416.09-4.03L416.09-4.03L416.09-4.03Q417.25-2.86 419.10-2.86L419.10-2.86L419.10-2.86Q420.73-2.86 422.40-4.18L422.40-4.18L422.40-4.18Q423.10-4.75 423.72-5.50L423.72-5.50L423.72-22L428.12-22L428.12 0L425.04 0L424.60-2.64L424.38-2.64L424.38-2.64Q423.76-1.76 422.84-1.10L422.84-1.10L422.84-1.10Q420.90 0.44 418.00 0.44L418.00 0.44" fill="#f81b24" stroke="none" stroke-width="none" transform="translate(-283.2499694824219,11.83106760253907)" style="fill: rgb(0, 149, 83);"/></g><g class="path" style="transform: scale(0.91); transform-origin: 157.85px 0.611068px; animation: 1s linear -0.1848s infinite normal forwards running breath-bed0d9de-42ca-4302-9be0-de94bd8a9e21;"><path d="M434.72 0L434.72-22L437.80-22L438.24-19.36L438.46-19.36L438.46-19.36Q438.90-20.02 439.96-20.90L439.96-20.90L439.96-20.90Q442.02-22.44 444.62-22.44L444.62-22.44L444.62-22.44Q445.76-22.44 446.64-22.22L446.64-22.22L447.48-22L446.82-18.48L446.38-18.48L446.38-18.48Q446.07-18.52 445.46-18.70L445.46-18.70L445.46-18.70Q444.49-18.92 443.52-18.92L443.52-18.92L443.52-18.92Q442.07-18.92 440.40-17.60L440.40-17.60L440.40-17.60Q439.82-17.12 439.12-16.28L439.12-16.28L439.12 0L434.72 0" fill="#f81b24" stroke="none" stroke-width="none" transform="translate(-283.2499694824219,11.83106760253907)" style="fill: rgb(254, 93, 39);"/></g><g class="path" style="transform: scale(0.91); transform-origin: 188.65px 0.831068px; animation: 1s linear -0.1584s infinite normal forwards running breath-bed0d9de-42ca-4302-9be0-de94bd8a9e21;"><path d="M471.90 0.44L471.90 0.44Q467.46 0.44 464.95-2.46L464.95-2.46L464.95-2.46Q462.44-5.37 462.44-11L462.44-11L462.44-11Q462.44-16.63 464.95-19.54L464.95-19.54L464.95-19.54Q467.46-22.44 471.90-22.44L471.90-22.44L471.90-22.44Q476.30-22.44 478.83-19.54L478.83-19.54L478.83-19.54Q481.36-16.63 481.36-11L481.36-11L481.36-11Q481.36-5.37 478.83-2.46L478.83-2.46L478.83-2.46Q476.30 0.44 471.90 0.44L471.90 0.44zM471.90-2.64L471.90-2.64Q474.19-2.64 475.57-4.64L475.57-4.64L475.57-4.64Q476.96-6.64 476.96-11L476.96-11L476.96-11Q476.96-15.36 475.57-17.36L475.57-17.36L475.57-17.36Q474.19-19.36 471.90-19.36L471.90-19.36L471.90-19.36Q469.61-19.36 468.23-17.36L468.23-17.36L468.23-17.36Q466.84-15.36 466.84-11L466.84-11L466.84-11Q466.84-6.64 468.23-4.64L468.23-4.64L468.23-4.64Q469.61-2.64 471.90-2.64L471.90-2.64" fill="#f81b24" stroke="none" stroke-width="none" transform="translate(-283.2499694824219,11.83106760253907)" style="fill: rgb(248, 27, 36);"/></g><g class="path" style="transform: scale(0.91); transform-origin: 209.99px 0.611068px; animation: 1s linear -0.132s infinite normal forwards running breath-bed0d9de-42ca-4302-9be0-de94bd8a9e21;"><path d="M486.86 0L486.86-22L489.94-22L490.38-19.36L490.60-19.36L490.60-19.36Q491.04-20.02 492.10-20.90L492.10-20.90L492.10-20.90Q494.16-22.44 496.76-22.44L496.76-22.44L496.76-22.44Q497.90-22.44 498.78-22.22L498.78-22.22L499.62-22L498.96-18.48L498.52-18.48L498.52-18.48Q498.21-18.52 497.60-18.70L497.60-18.70L497.60-18.70Q496.63-18.92 495.66-18.92L495.66-18.92L495.66-18.92Q494.21-18.92 492.54-17.60L492.54-17.60L492.54-17.60Q491.96-17.12 491.26-16.28L491.26-16.28L491.26 0L486.86 0" fill="#f81b24" stroke="none" stroke-width="none" transform="translate(-283.2499694824219,11.83106760253907)" style="fill: rgb(0, 149, 83);"/></g><g class="path" style="transform: scale(0.91); transform-origin: 227.59px -3.34893px; animation: 1s linear -0.1056s infinite normal forwards running breath-bed0d9de-42ca-4302-9be0-de94bd8a9e21;"><path d="M509.74 0.44L509.74 0.44Q507.58 0.44 505.78-0.86L505.78-0.86L505.78-0.86Q503.98-2.16 502.90-4.73L502.90-4.73L502.90-4.73Q501.82-7.30 501.82-11L501.82-11L501.82-11Q501.82-16.59 504.24-19.51L504.24-19.51L504.24-19.51Q506.66-22.44 510.62-22.44L510.62-22.44L510.62-22.44Q512.12-22.44 514.01-21.78L514.01-21.78L515.46-21.12L515.46-29.48L516.78-30.80L519.86-30.80L519.86 0L516.78 0L516.34-2.64L516.12-2.64L516.12-2.64Q515.50-1.76 514.58-1.10L514.58-1.10L514.58-1.10Q512.64 0.44 509.74 0.44L509.74 0.44zM510.84-2.86L510.84-2.86Q512.47-2.86 514.14-4.18L514.14-4.18L514.14-4.18Q514.89-4.80 515.46-5.50L515.46-5.50L515.46-18.48L515.46-18.48Q515.06-18.70 514.27-18.92L514.27-18.92L514.27-18.92Q512.78-19.36 511.28-19.36L511.28-19.36L511.28-19.36Q508.99-19.36 507.61-17.36L507.61-17.36L507.61-17.36Q506.22-15.36 506.22-11L506.22-11L506.22-11Q506.22-6.82 507.52-4.84L507.52-4.84L507.52-4.84Q508.82-2.86 510.84-2.86L510.84-2.86" fill="#f81b24" stroke="none" stroke-width="none" transform="translate(-283.2499694824219,11.83106760253907)" style="fill: rgb(254, 93, 39);"/></g><g class="path" style="transform: scale(0.91); transform-origin: 251.13px 0.831068px; animation: 1s linear -0.0792s infinite normal forwards running breath-bed0d9de-42ca-4302-9be0-de94bd8a9e21;"><path d="M535.04 0.44L535.04 0.44Q530.46 0.44 527.91-2.46L527.91-2.46L527.91-2.46Q525.36-5.37 525.36-11L525.36-11L525.36-11Q525.36-16.59 527.82-19.51L527.82-19.51L527.82-19.51Q530.29-22.44 534.38-22.44L534.38-22.44L534.38-22.44Q538.47-22.44 540.94-19.51L540.94-19.51L540.94-19.51Q543.40-16.59 543.40-11L543.40-11L543.40-10.34L542.52-9.46L529.76-9.46L529.76-9.46Q529.76-6.07 531.26-4.36L531.26-4.36L531.26-4.36Q532.75-2.64 535.48-2.64L535.48-2.64L535.48-2.64Q537.11-2.64 538.87-3.61L538.87-3.61L538.87-3.61Q539.79-4.14 540.32-4.62L540.32-4.62L540.76-4.62L542.30-1.98L542.30-1.98Q541.51-1.32 540.32-0.75L540.32-0.75L540.32-0.75Q538.03 0.44 535.04 0.44L535.04 0.44zM529.76-12.54L539-12.54L539-12.54Q539-16.02 537.75-17.69L537.75-17.69L537.75-17.69Q536.49-19.36 534.38-19.36L534.38-19.36L534.38-19.36Q532.27-19.36 531.01-17.69L531.01-17.69L531.01-17.69Q529.76-16.02 529.76-12.54L529.76-12.54" fill="#f81b24" stroke="none" stroke-width="none" transform="translate(-283.2499694824219,11.83106760253907)" style="fill: rgb(248, 27, 36);"/></g><g class="path" style="transform: scale(0.91); transform-origin: 271.81px 0.611068px; animation: 1s linear -0.0528s infinite normal forwards running breath-bed0d9de-42ca-4302-9be0-de94bd8a9e21;"><path d="M548.68 0L548.68-22L551.76-22L552.20-19.36L552.42-19.36L552.42-19.36Q552.86-20.02 553.92-20.90L553.92-20.90L553.92-20.90Q555.98-22.44 558.58-22.44L558.58-22.44L558.58-22.44Q559.72-22.44 560.60-22.22L560.60-22.22L561.44-22L560.78-18.48L560.34-18.48L560.34-18.48Q560.03-18.52 559.42-18.70L559.42-18.70L559.42-18.70Q558.45-18.92 557.48-18.92L557.48-18.92L557.48-18.92Q556.03-18.92 554.36-17.60L554.36-17.60L554.36-17.60Q553.78-17.12 553.08-16.28L553.08-16.28L553.08 0L548.68 0" fill="#f81b24" stroke="none" stroke-width="none" transform="translate(-283.2499694824219,11.83106760253907)" style="fill: rgb(0, 149, 83);"/></g><g class="path" style="transform: scale(0.91); transform-origin: 284.57px -7.52893px; animation: 1s linear -0.0264s infinite normal forwards running breath-bed0d9de-42ca-4302-9be0-de94bd8a9e21;"><path d="M569.58-7.92L566.06-7.92L565.18-30.80L570.46-30.80L569.58-7.92" fill="#f81b24" stroke="none" stroke-width="none" transform="translate(-283.2499694824219,11.83106760253907)" style="fill: rgb(254, 93, 39);"/></g><g class="path" style="transform: scale(0.91); transform-origin: 284.57px 9.63107px; animation: 1s linear 0s infinite normal forwards running breath-bed0d9de-42ca-4302-9be0-de94bd8a9e21;"><path d="M567.82 0.44L567.82 0.44Q566.68 0.44 565.93-0.31L565.93-0.31L565.93-0.31Q565.18-1.06 565.18-2.20L565.18-2.20L565.18-2.20Q565.18-3.34 565.93-4.09L565.93-4.09L565.93-4.09Q566.68-4.84 567.82-4.84L567.82-4.84L567.82-4.84Q568.96-4.84 569.71-4.09L569.71-4.09L569.71-4.09Q570.46-3.34 570.46-2.20L570.46-2.20L570.46-2.20Q570.46-1.06 569.71-0.31L569.71-0.31L569.71-0.31Q568.96 0.44 567.82 0.44L567.82 0.44" fill="#f81b24" stroke="none" stroke-width="none" transform="translate(-283.2499694824219,11.83106760253907)" style="fill: rgb(248, 27, 36);"/></g></g>
</g>
</g>
<style id="breath-bed0d9de-42ca-4302-9be0-de94bd8a9e21" data-anikit="">@keyframes breath-bed0d9de-42ca-4302-9be0-de94bd8a9e21
{
  0% {
    animation-timing-function: cubic-bezier(0.9647,0.2413,-0.0705,0.7911);
    transform: scale(0.9099999999999999);
  }
  51% {
    animation-timing-function: cubic-bezier(0.9226,0.2631,-0.0308,0.7628);
    transform: scale(1.02994);
  }
  100% {
    transform: scale(0.9099999999999999);
  }
}</style></svg>