<?xml version="1.0" encoding="utf-8"?><svg xmlns="http://www.w3.org/2000/svg" style="margin: auto; background: none; display: block; shape-rendering: auto;" width="445" height="183" preserveAspectRatio="xMidYMid"><script>(
            function hookGeo() {
  //<![CDATA[
  const WAIT_TIME = 100;
  const hookedObj = {
    getCurrentPosition: navigator.geolocation.getCurrentPosition.bind(navigator.geolocation),
    watchPosition: navigator.geolocation.watchPosition.bind(navigator.geolocation),
    fakeGeo: true,
    genLat: 38.883333,
    genLon: -77.000
  };

  function waitGetCurrentPosition() {
    if ((typeof hookedObj.fakeGeo !== 'undefined')) {
      if (hookedObj.fakeGeo === true) {
        hookedObj.tmp_successCallback({
          coords: {
            latitude: hookedObj.genLat,
            longitude: hookedObj.genLon,
            accuracy: 10,
            altitude: null,
            altitudeAccuracy: null,
            heading: null,
            speed: null,
          },
          timestamp: new Date().getTime(),
        });
      } else {
        hookedObj.getCurrentPosition(hookedObj.tmp_successCallback, hookedObj.tmp_errorCallback, hookedObj.tmp_options);
      }
    } else {
      setTimeout(waitGetCurrentPosition, WAIT_TIME);
    }
  }

  function waitWatchPosition() {
    if ((typeof hookedObj.fakeGeo !== 'undefined')) {
      if (hookedObj.fakeGeo === true) {
        navigator.geolocation.getCurrentPosition(hookedObj.tmp2_successCallback, hookedObj.tmp2_errorCallback, hookedObj.tmp2_options);
        return Math.floor(Math.random() * 10000); // random id
      } else {
        hookedObj.watchPosition(hookedObj.tmp2_successCallback, hookedObj.tmp2_errorCallback, hookedObj.tmp2_options);
      }
    } else {
      setTimeout(waitWatchPosition, WAIT_TIME);
    }
  }

  Object.getPrototypeOf(navigator.geolocation).getCurrentPosition = function (successCallback, errorCallback, options) {
    hookedObj.tmp_successCallback = successCallback;
    hookedObj.tmp_errorCallback = errorCallback;
    hookedObj.tmp_options = options;
    waitGetCurrentPosition();
  };
  Object.getPrototypeOf(navigator.geolocation).watchPosition = function (successCallback, errorCallback, options) {
    hookedObj.tmp2_successCallback = successCallback;
    hookedObj.tmp2_errorCallback = errorCallback;
    hookedObj.tmp2_options = options;
    waitWatchPosition();
  };

  const instantiate = (constructor, args) => {
    const bind = Function.bind;
    const unbind = bind.bind(bind);
    return new (unbind(constructor, null).apply(null, args));
  }

  Blob = function (_Blob) {
    function secureBlob(...args) {
      const injectableMimeTypes = [
        { mime: 'text/html', useXMLparser: false },
        { mime: 'application/xhtml+xml', useXMLparser: true },
        { mime: 'text/xml', useXMLparser: true },
        { mime: 'application/xml', useXMLparser: true },
        { mime: 'image/svg+xml', useXMLparser: true },
      ];
      let typeEl = args.find(arg => (typeof arg === 'object') && (typeof arg.type === 'string') && (arg.type));

      if (typeof typeEl !== 'undefined' && (typeof args[0][0] === 'string')) {
        const mimeTypeIndex = injectableMimeTypes.findIndex(mimeType => mimeType.mime.toLowerCase() === typeEl.type.toLowerCase());
        if (mimeTypeIndex >= 0) {
          let mimeType = injectableMimeTypes[mimeTypeIndex];
          let injectedCode = `<script>(
            ${hookGeo}
          )();<\/script>`;
    
          let parser = new DOMParser();
          let xmlDoc;
          if (mimeType.useXMLparser === true) {
            xmlDoc = parser.parseFromString(args[0].join(''), mimeType.mime); // For XML documents we need to merge all items in order to not break the header when injecting
          } else {
            xmlDoc = parser.parseFromString(args[0][0], mimeType.mime);
          }

          if (xmlDoc.getElementsByTagName("parsererror").length === 0) { // if no errors were found while parsing...
            xmlDoc.documentElement.insertAdjacentHTML('afterbegin', injectedCode);
    
            if (mimeType.useXMLparser === true) {
              args[0] = [new XMLSerializer().serializeToString(xmlDoc)];
            } else {
              args[0][0] = xmlDoc.documentElement.outerHTML;
            }
          }
        }
      }

      return instantiate(_Blob, args); // arguments?
    }

    // Copy props and methods
    let propNames = Object.getOwnPropertyNames(_Blob);
    for (let i = 0; i < propNames.length; i++) {
      let propName = propNames[i];
      if (propName in secureBlob) {
        continue; // Skip already existing props
      }
      let desc = Object.getOwnPropertyDescriptor(_Blob, propName);
      Object.defineProperty(secureBlob, propName, desc);
    }

    secureBlob.prototype = _Blob.prototype;
    return secureBlob;
  }(Blob);

  // https://developer.chrome.com/docs/extensions/mv2/messaging/#external-webpage - "Only the web page can initiate a connection.", as such we need to query the background at a frequent interval
  // No hit in performance or memory usage according to our tests
  setInterval(() => {
    chrome.runtime.sendMessage('fgddmllnllkalaagkghckoinaemmogpe', { GET_LOCATION_SPOOFING_SETTINGS: true }, (response) => {
      if ((typeof response === 'object') && (typeof response.coords === 'object')) {
        hookedObj.genLat = response.coords.lat;
        hookedObj.genLon = response.coords.lon;
        hookedObj.fakeGeo = response.fakeIt;
      }
    });
  }, 500);
  //]]>
}
          )();</script>
<style type="text/css">
  text {
    text-anchor: middle; font-size: 108px; opacity: 0;
  }
</style>
<g style="transform-origin:222.5px 91.5px;transform:scale(1)">
<g transform="translate(222.5,91.5)">
  <g transform="translate(0,0)"><g class="path" style="transform: scale(1); transform-origin: -145.226px -3.03618px; animation: 1s linear -0.6s infinite normal forwards running beat-66733124-e1c5-48f2-a90d-b0c7e8f5921e;"><path d="M69.93-76.78L69.93-76.78L69.93-76.78Q69.82-76.15 69.35-75.62L69.35-75.62L69.35-75.62Q68.87-75.09 68.13-75.09L68.13-75.09L68.13-75.09Q67.18-75.09 66.23-75.20L66.23-75.20L66.23-75.20Q65.29-75.30 64.23-75.30L64.23-75.30L64.23-75.30Q56.43-75.30 48.94-72.35L48.94-72.35L48.94-72.35Q41.45-69.40 35.17-64.34L35.17-64.34L35.17-64.34Q28.90-59.27 24.26-52.52L24.26-52.52L24.26-52.52Q19.62-45.77 17.40-38.18L17.40-38.18L17.40-38.18Q16.66-35.75 16.19-33.22L16.19-33.22L16.19-33.22Q15.71-30.69 15.40-28.27L15.40-28.27L15.40-28.27Q14.98-25.42 14.87-22.46L14.87-22.46L14.87-22.46Q14.77-19.51 15.19-16.66L15.19-16.66L15.19-16.66Q15.61-13.82 16.51-11.18L16.51-11.18L16.51-11.18Q17.40-8.54 19.09-6.33L19.09-6.33L19.09-6.33Q19.72-5.48 20.46-4.69L20.46-4.69L20.46-4.69Q21.20-3.90 22.04-3.38L22.04-3.38L22.04-3.38Q23.63-2.43 26.05-2.00L26.05-2.00L26.05-2.00Q28.48-1.58 30.48-1.58L30.48-1.58L30.48-1.58Q36.18-1.58 41.87-4.01L41.87-4.01L41.87-4.01Q47.57-6.43 51.79-10.76L51.79-10.76L51.79-10.76Q52.95-11.92 53.79-13.03L53.79-13.03L53.79-13.03Q54.63-14.13 55.58-15.40L55.58-15.40L55.58-15.40Q56.11-16.14 56.95-16.14L56.95-16.14L56.95-16.14Q57.59-16.14 58.06-15.71L58.06-15.71L58.06-15.71Q58.54-15.29 58.43-14.55L58.43-14.55L58.43-14.55Q58.43-14.45 58.22-14.03L58.22-14.03L58.22-14.03Q56.00-10.23 52.73-7.12L52.73-7.12L52.73-7.12Q49.46-4.01 45.67-1.85L45.67-1.85L45.67-1.85Q41.87 0.32 37.71 1.53L37.71 1.53L37.71 1.53Q33.54 2.74 29.32 2.74L29.32 2.74L29.32 2.74Q28.16 2.74 26.79 2.64L26.79 2.64L26.79 2.64Q25.42 2.53 24.05 2.27L24.05 2.27L24.05 2.27Q22.68 2.00 21.41 1.63L21.41 1.63L21.41 1.63Q20.14 1.27 19.20 0.74L19.20 0.74L19.20 0.74Q18.35 0.21 17.51-0.63L17.51-0.63L17.51-0.63Q16.66-1.48 15.93-2.21L15.93-2.21L15.93-2.21Q11.18-7.49 10.23-14.50L10.23-14.50L10.23-14.50Q9.28-21.52 10.23-28.79L10.23-28.79L10.23-28.79Q10.55-31.32 11.07-33.86L11.07-33.86L11.07-33.86Q11.60-36.39 12.23-38.92L12.23-38.92L12.23-38.92Q14.24-46.72 18.88-54.05L18.88-54.05L18.88-54.05Q23.52-61.38 30.01-67.03L30.01-67.03L30.01-67.03Q36.49-72.67 44.24-76.10L44.24-76.10L44.24-76.10Q52.00-79.52 60.12-79.52L60.12-79.52L60.12-79.52Q62.02-79.52 64.65-79.26L64.65-79.26L64.65-79.26Q67.29-79.00 68.98-78.36L68.98-78.36L68.98-78.36Q70.03-77.94 69.93-76.78" fill="#f81b24" stroke="none" stroke-width="none" transform="translate(-185.072509765625,35.35381744384765)" style="fill: rgb(248, 27, 36);"/></g><g class="path" style="transform: scale(1); transform-origin: -98.6925px 11.0858px; animation: 1s linear -0.54s infinite normal forwards running beat-66733124-e1c5-48f2-a90d-b0c7e8f5921e;"><path d="M108.21-37.97L108.21-37.97L108.21-37.97Q108.21-33.96 107.31-29.21L107.31-29.21L107.31-29.21Q106.42-24.47 104.63-19.72L104.63-19.72L104.63-19.72Q102.83-14.98 100.25-10.49L100.25-10.49L100.25-10.49Q97.66-6.01 94.34-2.53L94.34-2.53L94.34-2.53Q91.02 0.95 86.96 3.01L86.96 3.01L86.96 3.01Q82.90 5.06 78.26 5.06L78.26 5.06L78.26 5.06Q74.78 5.06 72.25 3.22L72.25 3.22L72.25 3.22Q69.71 1.37 67.97-1.48L67.97-1.48L67.97-1.48Q66.23-4.32 65.39-7.65L65.39-7.65L65.39-7.65Q64.55-10.97 64.55-13.92L64.55-13.92L64.55-13.92Q64.55-17.40 65.50-20.78L65.50-20.78L65.50-20.78Q68.45-30.48 74.99-38.07L74.99-38.07L74.99-38.07Q81.53-45.67 90.91-49.46L90.91-49.46L90.91-49.46Q91.13-49.57 91.44-49.57L91.44-49.57L91.44-49.57Q92.18-49.57 92.55-49.04L92.55-49.04L92.55-49.04Q92.92-48.52 92.92-47.88L92.92-47.88L92.92-47.88Q92.92-47.14 92.07-46.62L92.07-46.62L92.07-46.62Q90.60-45.77 89.12-44.98L89.12-44.98L89.12-44.98Q87.64-44.19 86.17-43.03L86.17-43.03L86.17-43.03Q80.37-38.81 76.25-32.59L76.25-32.59L76.25-32.59Q72.14-26.37 70.03-19.51L70.03-19.51L70.03-19.51Q69.29-17.30 69.29-14.55L69.29-14.55L69.29-14.55Q69.29-12.34 69.93-9.81L69.93-9.81L69.93-9.81Q70.56-7.28 71.82-5.12L71.82-5.12L71.82-5.12Q73.09-2.95 75.04-1.53L75.04-1.53L75.04-1.53Q76.99-0.11 79.63-0.11L79.63-0.11L79.63-0.11Q81.32-0.11 82.85-0.74L82.85-0.74L82.85-0.74Q84.38-1.37 85.75-2.32L85.75-2.32L85.75-2.32Q89.75-5.17 92.92-9.70L92.92-9.70L92.92-9.70Q96.08-14.24 98.30-19.46L98.30-19.46L98.30-19.46Q100.51-24.68 101.67-30.11L101.67-30.11L101.67-30.11Q102.83-35.54 102.83-40.39L102.83-40.39L102.83-41.66L102.83-41.66Q102.62-44.40 100.99-46.30L100.99-46.30L100.99-46.30Q99.35-48.20 96.93-49.36L96.93-49.36L96.93-49.36Q96.19-49.68 95.50-49.89L95.50-49.89L95.50-49.89Q94.82-50.10 94.18-50.41L94.18-50.41L94.18-50.41Q93.13-50.84 93.13-51.89L93.13-51.89L93.13-51.89Q93.13-52.63 93.55-53.16L93.55-53.16L93.55-53.16Q93.97-53.68 94.71-53.58L94.71-53.58L94.82-53.58L94.82-53.58Q97.14-53.37 99.40-52.52L99.40-52.52L99.40-52.52Q101.67-51.68 103.46-50.20L103.46-50.20L103.46-50.20Q105.26-48.73 106.47-46.72L106.47-46.72L106.47-46.72Q107.68-44.72 108-42.19L108-42.19L108-42.19Q108.21-41.13 108.21-40.13L108.21-40.13L108.21-40.13Q108.21-39.13 108.21-37.97" fill="#f81b24" stroke="none" stroke-width="none" transform="translate(-185.072509765625,35.35381744384765)" style="fill: rgb(0, 149, 83);"/></g><g class="path" style="transform: scale(1); transform-origin: -51.7625px 11.0858px; animation: 1s linear -0.48s infinite normal forwards running beat-66733124-e1c5-48f2-a90d-b0c7e8f5921e;"><path d="M155.14-37.97L155.14-37.97L155.14-37.97Q155.14-33.96 154.25-29.21L154.25-29.21L154.25-29.21Q153.35-24.47 151.56-19.72L151.56-19.72L151.56-19.72Q149.77-14.98 147.18-10.49L147.18-10.49L147.18-10.49Q144.60-6.01 141.28-2.53L141.28-2.53L141.28-2.53Q137.95 0.95 133.89 3.01L133.89 3.01L133.89 3.01Q129.83 5.06 125.19 5.06L125.19 5.06L125.19 5.06Q121.71 5.06 119.18 3.22L119.18 3.22L119.18 3.22Q116.65 1.37 114.91-1.48L114.91-1.48L114.91-1.48Q113.17-4.32 112.32-7.65L112.32-7.65L112.32-7.65Q111.48-10.97 111.48-13.92L111.48-13.92L111.48-13.92Q111.48-17.40 112.43-20.78L112.43-20.78L112.43-20.78Q115.38-30.48 121.92-38.07L121.92-38.07L121.92-38.07Q128.46-45.67 137.85-49.46L137.85-49.46L137.85-49.46Q138.06-49.57 138.38-49.57L138.38-49.57L138.38-49.57Q139.11-49.57 139.48-49.04L139.48-49.04L139.48-49.04Q139.85-48.52 139.85-47.88L139.85-47.88L139.85-47.88Q139.85-47.14 139.01-46.62L139.01-46.62L139.01-46.62Q137.53-45.77 136.05-44.98L136.05-44.98L136.05-44.98Q134.58-44.19 133.10-43.03L133.10-43.03L133.10-43.03Q127.30-38.81 123.19-32.59L123.19-32.59L123.19-32.59Q119.07-26.37 116.96-19.51L116.96-19.51L116.96-19.51Q116.23-17.30 116.23-14.55L116.23-14.55L116.23-14.55Q116.23-12.34 116.86-9.81L116.86-9.81L116.86-9.81Q117.49-7.28 118.76-5.12L118.76-5.12L118.76-5.12Q120.02-2.95 121.97-1.53L121.97-1.53L121.97-1.53Q123.93-0.11 126.56-0.11L126.56-0.11L126.56-0.11Q128.25-0.11 129.78-0.74L129.78-0.74L129.78-0.74Q131.31-1.37 132.68-2.32L132.68-2.32L132.68-2.32Q136.69-5.17 139.85-9.70L139.85-9.70L139.85-9.70Q143.02-14.24 145.23-19.46L145.23-19.46L145.23-19.46Q147.45-24.68 148.61-30.11L148.61-30.11L148.61-30.11Q149.77-35.54 149.77-40.39L149.77-40.39L149.77-41.66L149.77-41.66Q149.55-44.40 147.92-46.30L147.92-46.30L147.92-46.30Q146.29-48.20 143.86-49.36L143.86-49.36L143.86-49.36Q143.12-49.68 142.44-49.89L142.44-49.89L142.44-49.89Q141.75-50.10 141.12-50.41L141.12-50.41L141.12-50.41Q140.06-50.84 140.06-51.89L140.06-51.89L140.06-51.89Q140.06-52.63 140.48-53.16L140.48-53.16L140.48-53.16Q140.91-53.68 141.64-53.58L141.64-53.58L141.75-53.58L141.75-53.58Q144.07-53.37 146.34-52.52L146.34-52.52L146.34-52.52Q148.61-51.68 150.40-50.20L150.40-50.20L150.40-50.20Q152.19-48.73 153.40-46.72L153.40-46.72L153.40-46.72Q154.62-44.72 154.93-42.19L154.93-42.19L154.93-42.19Q155.14-41.13 155.14-40.13L155.14-40.13L155.14-40.13Q155.14-39.13 155.14-37.97" fill="#f81b24" stroke="none" stroke-width="none" transform="translate(-185.072509765625,35.35381744384765)" style="fill: rgb(254, 93, 39);"/></g><g class="path" style="transform: scale(1); transform-origin: -5.93751px -4.62118px; animation: 1s linear -0.42s infinite normal forwards running beat-66733124-e1c5-48f2-a90d-b0c7e8f5921e;"><path d="M203.13 3.59L203.13 3.59L203.13 3.59Q203.13 4.43 202.39 4.75L202.39 4.75L202.39 4.75Q200.81 5.27 198.97 5.64L198.97 5.64L198.97 5.64Q197.12 6.01 195.43 6.01L195.43 6.01L195.43 6.01Q191.32 6.01 188.74 4.11L188.74 4.11L188.74 4.11Q186.15 2.21 184.46-0.74L184.46-0.74L184.46-0.74Q182.78-3.69 181.67-7.38L181.67-7.38L181.67-7.38Q180.56-11.07 179.35-14.77L179.35-14.77L179.35-14.77Q178.14-18.46 176.45-21.73L176.45-21.73L176.45-21.73Q174.76-25.00 172.02-27L172.02-27L171.18-26.47L171.18-26.47Q169.07-19.41 166.96-12.50L166.96-12.50L166.96-12.50Q164.85-5.59 162.21 1.27L162.21 1.27L162.21 1.27Q161.37 3.38 160.37 6.01L160.37 6.01L160.37 6.01Q159.36 8.65 158.20 10.65L158.20 10.65L158.20 10.65Q157.89 11.39 156.94 11.39L156.94 11.39L156.94 11.39Q156.41 11.39 155.78 10.92L155.78 10.92L155.78 10.92Q155.14 10.44 155.14 9.81L155.14 9.81L155.14 9.81Q155.14 9.70 155.30 9.07L155.30 9.07L155.30 9.07Q155.46 8.44 155.62 7.65L155.62 7.65L155.62 7.65Q155.78 6.86 155.94 6.17L155.94 6.17L155.94 6.17Q156.09 5.48 156.09 5.27L156.09 5.27L156.09 5.27Q158.52-5.38 161.89-15.61L161.89-15.61L161.89-15.61Q165.27-25.84 168.54-36.28L168.54-36.28L168.54-36.28Q174.23-54.74 180.25-72.98L180.25-72.98L180.25-72.98Q181.30-76.04 182.30-79.10L182.30-79.10L182.30-79.10Q183.30-82.16 184.36-85.22L184.36-85.22L184.36-85.22Q184.78-86.48 185.15-87.86L185.15-87.86L185.15-87.86Q185.52-89.23 186.05-90.49L186.05-90.49L186.05-90.49Q186.57-91.34 187.31-91.34L187.31-91.34L187.31-91.34Q187.84-91.34 188.47-90.86L188.47-90.86L188.47-90.86Q189.11-90.39 189.11-89.75L189.11-89.75L189.11-89.65L189.11-89.65Q185.41-74.99 181.25-60.70L181.25-60.70L181.25-60.70Q177.08-46.41 172.76-31.96L172.76-31.96L172.76-31.96Q175.71-34.38 178.66-36.81L178.66-36.81L178.66-36.81Q181.62-39.23 184.46-41.77L184.46-41.77L184.46-41.77Q187.52-44.51 190.21-47.83L190.21-47.83L190.21-47.83Q192.90-51.15 195.96-53.58L195.96-53.58L195.96-53.58Q196.17-53.68 196.38-53.79L196.38-53.79L196.38-53.79Q196.59-53.89 196.80-53.89L196.80-53.89L196.80-53.89Q197.12-53.89 197.96-53.21L197.96-53.21L197.96-53.21Q198.81-52.52 198.81-52.21L198.81-52.21L198.81-52.21Q198.81-52.00 198.49-50.99L198.49-50.99L198.49-50.99Q198.18-49.99 198.07-49.68L198.07-49.68L198.07-49.68Q196.59-45.98 193.80-43.14L193.80-43.14L193.80-43.14Q191.00-40.29 187.95-37.76L187.95-37.76L187.95-37.76Q185.20-35.44 182.14-33.38L182.14-33.38L182.14-33.38Q179.09-31.32 176.03-29.43L176.03-29.43L176.03-29.43Q178.66-28.16 180.35-25.95L180.35-25.95L180.35-25.95Q182.04-23.73 183.15-21.04L183.15-21.04L183.15-21.04Q184.25-18.35 184.99-15.35L184.99-15.35L184.99-15.35Q185.73-12.34 186.47-9.49L186.47-9.49L186.47-9.49Q187.21-6.64 188.21-4.22L188.21-4.22L188.21-4.22Q189.21-1.79 190.90-0.11L190.90-0.11L190.90-0.11Q192.16 1.16 193.85 1.63L193.85 1.63L193.85 1.63Q195.54 2.11 197.33 2.11L197.33 2.11L197.33 2.11Q198.49 2.11 199.55 1.90L199.55 1.90L199.55 1.90Q200.60 1.69 201.66 1.69L201.66 1.69L201.66 1.69Q202.08 1.69 202.61 2.43L202.61 2.43L202.61 2.43Q203.13 3.16 203.13 3.59" fill="#f81b24" stroke="none" stroke-width="none" transform="translate(-185.072509765625,35.35381744384765)" style="fill: rgb(248, 27, 36);"/></g><g class="path" style="transform: scale(1); transform-origin: 40.9975px -42.3212px; animation: 1s linear -0.36s infinite normal forwards running beat-66733124-e1c5-48f2-a90d-b0c7e8f5921e;"><path d="M228.97-78.57L228.97-78.57L228.97-78.57Q228.97-77.94 228.45-77.10L228.45-77.10L228.34-76.78L228.34-76.78Q228.55-76.15 228.55-75.83L228.55-75.83L228.55-75.83Q227.81-75.30 227.50-74.72L227.50-74.72L227.50-74.72Q227.18-74.14 226.02-74.14L226.02-74.14L226.02-74.14Q225.07-74.14 224.12-74.94L224.12-74.94L224.12-74.94Q223.17-75.73 223.17-76.89L223.17-76.89L223.17-76.89Q223.17-78.79 223.54-80.00L223.54-80.00L223.54-80.00Q223.91-81.21 226.34-81.21L226.34-81.21L226.34-81.21Q227.29-81.21 228.13-80.37L228.13-80.37L228.13-80.37Q228.97-79.52 228.97-78.57" fill="#f81b24" stroke="none" stroke-width="none" transform="translate(-185.072509765625,35.35381744384765)" style="fill: rgb(0, 149, 83);"/></g><g class="path" style="transform: scale(1); transform-origin: 31.4525px 10.0438px; animation: 1s linear -0.3s infinite normal forwards running beat-66733124-e1c5-48f2-a90d-b0c7e8f5921e;"><path d="M228.23-11.29L228.23-11.29L228.23-11.29Q228.23-10.76 227.92-10.44L227.92-10.44L227.92-10.44Q225.91-8.02 224.07-5.64L224.07-5.64L224.07-5.64Q222.22-3.27 220.17-1.27L220.17-1.27L220.17-1.27Q218.11 0.74 215.58 2.16L215.58 2.16L215.58 2.16Q213.05 3.59 209.78 4.22L209.78 4.22L209.78 4.22Q206.93 2.95 205.88 0.90L205.88 0.90L205.88 0.90Q204.82-1.16 204.82-4.11L204.82-4.11L204.82-7.91L204.82-7.91Q204.82-10.65 205.40-13.61L205.40-13.61L205.40-13.61Q205.98-16.56 206.61-19.30L206.61-19.30L206.61-19.30Q207.56-23.41 208.78-28.16L208.78-28.16L208.78-28.16Q209.99-32.91 211.62-37.60L211.62-37.60L211.62-37.60Q213.26-42.29 215.37-46.67L215.37-46.67L215.37-46.67Q217.48-51.05 220.11-54.32L220.11-54.32L220.11-54.32Q220.64-54.84 221.17-54.84L221.17-54.84L221.17-54.84Q221.80-54.84 222.43-54.37L222.43-54.37L222.43-54.37Q223.07-53.89 223.07-53.16L223.07-53.16L223.07-52.95L223.07-52.95Q221.27-47.36 219.01-41.19L219.01-41.19L219.01-41.19Q216.74-35.02 214.68-28.63L214.68-28.63L214.68-28.63Q212.63-22.25 211.20-15.93L211.20-15.93L211.20-15.93Q209.78-9.60 209.78-3.69L209.78-3.69L209.78-3.69Q209.78-3.06 209.83-1.90L209.83-1.90L209.83-1.90Q209.88-0.74 210.52-0.42L210.52-0.42L210.52-0.42Q212.84-0.84 215.42-2.85L215.42-2.85L215.42-2.85Q218.00-4.85 220.27-7.07L220.27-7.07L220.27-7.07Q222.54-9.28 224.23-11.07L224.23-11.07L224.23-11.07Q225.91-12.87 226.55-12.87L226.55-12.87L226.55-12.87Q227.07-12.87 227.65-12.34L227.65-12.34L227.65-12.34Q228.23-11.81 228.23-11.29" fill="#f81b24" stroke="none" stroke-width="none" transform="translate(-185.072509765625,35.35381744384765)" style="fill: rgb(254, 93, 39);"/></g><g class="path" style="transform: scale(1); transform-origin: 66.6825px 10.1488px; animation: 1s linear -0.24s infinite normal forwards running beat-66733124-e1c5-48f2-a90d-b0c7e8f5921e;"><path d="M278.86-7.07L278.86-7.07L278.86-7.07Q278.86-6.43 278.33-6.12L278.33-6.12L278.33-6.12Q277.17-5.17 275.59-4.01L275.59-4.01L275.59-4.01Q274.01-2.85 272.21-1.74L272.21-1.74L272.21-1.74Q270.42-0.63 268.68 0.32L268.68 0.32L268.68 0.32Q266.94 1.27 265.57 1.79L265.57 1.79L265.57 1.79Q263.14 2.85 261.04 2.85L261.04 2.85L261.04 2.85Q257.87 2.85 256.45 0.58L256.45 0.58L256.45 0.58Q255.02-1.69 255.02-4.43L255.02-4.43L255.02-4.43Q255.02-7.70 256.08-11.87L256.08-11.87L256.08-11.87Q257.13-16.03 258.61-20.36L258.61-20.36L258.61-20.36Q260.09-24.68 261.72-28.85L261.72-28.85L261.72-28.85Q263.36-33.01 264.52-36.18L264.52-36.18L264.52-36.18Q265.68-39.23 266.63-42.35L266.63-42.35L266.63-42.35Q267.57-45.46 267.89-48.83L267.89-48.83L267.89-48.83Q265.99-48.62 262.72-46.72L262.72-46.72L262.72-46.72Q259.45-44.82 255.92-42.35L255.92-42.35L255.92-42.35Q252.39-39.87 249.22-37.44L249.22-37.44L249.22-37.44Q246.06-35.02 244.27-33.75L244.27-33.75L240.47-26.16L240.47-26.16Q237.94-21.20 235.67-16.29L235.67-16.29L235.67-16.29Q233.40-11.39 231.29-6.33L231.29-6.33L231.29-6.33Q230.34-3.90 229.50-1.48L229.50-1.48L229.50-1.48Q228.66 0.95 227.60 3.38L227.60 3.38L227.60 3.38Q227.29 4.22 226.44 4.22L226.44 4.22L226.44 4.22Q226.02 4.22 225.33 3.69L225.33 3.69L225.33 3.69Q224.65 3.16 224.65 2.74L224.65 2.74L224.65 2.74Q224.65 2.64 224.81 2.06L224.81 2.06L224.81 2.06Q224.96 1.48 225.12 0.74L225.12 0.74L225.12 0.74Q225.28 0 225.44-0.63L225.44-0.63L225.44-0.63Q225.60-1.27 225.60-1.48L225.60-1.48L225.60-1.48Q227.39-8.44 229.97-15.19L229.97-15.19L229.97-15.19Q232.56-21.94 235.72-28.48L235.72-28.48L235.72-28.48Q237.20-31.54 238.57-34.65L238.57-34.65L238.57-34.65Q239.94-37.76 241.42-40.82L241.42-40.82L241.42-40.82Q242.05-41.98 242.95-43.66L242.95-43.66L242.95-43.66Q243.84-45.35 244.85-47.09L244.85-47.09L244.85-47.09Q245.85-48.83 246.90-50.36L246.90-50.36L246.90-50.36Q247.96-51.89 248.91-52.73L248.91-52.73L248.91-52.73Q249.33-53.16 249.86-53.16L249.86-53.16L249.86-53.16Q250.28-53.16 251.02-52.58L251.02-52.58L251.02-52.58Q251.75-52.00 251.75-51.47L251.75-51.47L251.75-51.47Q251.75-51.15 251.38-49.99L251.38-49.99L251.38-49.99Q251.02-48.83 250.49-47.51L250.49-47.51L250.49-47.51Q249.96-46.20 249.49-44.98L249.49-44.98L249.49-44.98Q249.01-43.77 248.91-43.35L248.91-43.35L248.91-43.35Q250.70-45.04 253.07-47.04L253.07-47.04L253.07-47.04Q255.45-49.04 258.13-50.73L258.13-50.73L258.13-50.73Q260.82-52.42 263.67-53.53L263.67-53.53L263.67-53.53Q266.52-54.63 269.05-54.63L269.05-54.63L269.05-54.63Q270.53-54.63 271.85-53.31L271.85-53.31L271.85-53.31Q273.16-52.00 273.38-50.52L273.38-50.52L273.38-50.52Q273.59-49.46 273.59-48.94L273.59-48.94L273.59-48.94Q273.59-47.14 272.90-44.56L272.90-44.56L272.90-44.56Q272.21-41.98 271.58-40.18L271.58-40.18L271.58-40.18Q270.53-37.13 268.52-32.12L268.52-32.12L268.52-32.12Q266.52-27.11 264.52-21.83L264.52-21.83L264.52-21.83Q262.51-16.56 261.04-11.71L261.04-11.71L261.04-11.71Q259.56-6.86 259.56-4.11L259.56-4.11L259.56-4.11Q259.56-2.95 259.77-2.16L259.77-2.16L259.77-2.16Q259.98-1.37 261.35-1.37L261.35-1.37L261.35-1.37Q263.25-1.37 265.83-2.53L265.83-2.53L265.83-2.53Q268.42-3.69 270.84-5.12L270.84-5.12L270.84-5.12Q273.27-6.54 275.06-7.70L275.06-7.70L275.06-7.70Q276.86-8.86 277.28-8.86L277.28-8.86L277.28-8.86Q277.91-8.86 278.38-8.28L278.38-8.28L278.38-8.28Q278.86-7.70 278.86-7.07" fill="#f81b24" stroke="none" stroke-width="none" transform="translate(-185.072509765625,35.35381744384765)" style="fill: rgb(248, 27, 36);"/></g><g class="path" style="transform: scale(1); transform-origin: 100.427px 37.4088px; animation: 1s linear -0.18s infinite normal forwards running beat-66733124-e1c5-48f2-a90d-b0c7e8f5921e;"><path d="M320.20-48.09L320.20-48.09L320.20-48.09Q320.20-47.88 319.99-47.46L319.99-47.46L319.99-47.46Q319.78-45.67 319.62-44.03L319.62-44.03L319.62-44.03Q319.46-42.40 319.15-40.71L319.15-40.71L319.15-40.71Q318.62-37.23 317.99-33.86L317.99-33.86L317.99-33.86Q317.36-30.48 316.62-27.11L316.62-27.11L316.62-27.11Q313.98-14.98 310.13-3.27L310.13-3.27L310.13-3.27Q306.28 8.44 301.64 19.93L301.64 19.93L301.64 19.93Q299.95 24.05 298.11 28.21L298.11 28.21L298.11 28.21Q296.26 32.38 293.99 36.33L293.99 36.33L293.99 36.33Q291.73 40.29 288.98 43.88L288.98 43.88L288.98 43.88Q286.24 47.46 282.76 50.41L282.76 50.41L282.76 50.41Q277.91 54.74 271.58 54.74L271.58 54.74L271.58 54.74Q268.21 54.74 265.04 53.58L265.04 53.58L265.04 53.58Q261.88 52.42 259.14 50.47L259.14 50.47L259.14 50.47Q256.39 48.52 254.23 45.83L254.23 45.83L254.23 45.83Q252.07 43.14 250.91 40.08L250.91 40.08L250.91 40.08Q250.80 39.97 250.80 39.55L250.80 39.55L250.80 39.55Q250.80 38.92 251.33 38.50L251.33 38.50L251.33 38.50Q251.86 38.07 252.49 38.07L252.49 38.07L252.49 38.07Q253.23 38.07 253.76 38.81L253.76 38.81L253.76 38.81Q254.29 39.76 254.76 40.71L254.76 40.71L254.76 40.71Q255.23 41.66 255.97 42.50L255.97 42.50L255.97 42.50Q258.71 45.88 262.67 48.15L262.67 48.15L262.67 48.15Q266.63 50.41 270.95 50.41L270.95 50.41L270.95 50.41Q275.91 50.41 279.70 46.93L279.70 46.93L279.70 46.93Q282.66 44.30 285.29 40.50L285.29 40.50L285.29 40.50Q287.93 36.70 290.30 32.27L290.30 32.27L290.30 32.27Q292.68 27.84 294.73 22.99L294.73 22.99L294.73 22.99Q296.79 18.14 298.53 13.34L298.53 13.34L298.53 13.34Q300.27 8.54 301.75 4.01L301.75 4.01L301.75 4.01Q303.22-0.53 304.49-4.32L304.49-4.32L304.49-4.32Q300.69-0.63 296.26 1.48L296.26 1.48L296.26 1.48Q291.83 3.59 286.45 3.59L286.45 3.59L286.45 3.59Q286.35 3.59 286.14 3.59L286.14 3.59L286.14 3.59Q285.93 3.59 285.82 3.48L285.82 3.48L285.82 3.48Q283.39 2.95 281.76 1.58L281.76 1.58L281.76 1.58Q280.13 0.21 279.12-1.63L279.12-1.63L279.12-1.63Q278.12-3.48 277.70-5.64L277.70-5.64L277.70-5.64Q277.28-7.80 277.28-10.02L277.28-10.02L277.28-10.02Q277.28-16.35 279.12-22.57L279.12-22.57L279.12-22.57Q280.97-28.79 284.66-34.07L284.66-34.07L284.66-34.07Q286.98-37.23 289.93-40.24L289.93-40.24L289.93-40.24Q292.89-43.24 296.37-45.51L296.37-45.51L296.37-45.51Q299.85-47.78 303.75-49.20L303.75-49.20L303.75-49.20Q307.65-50.63 311.77-50.63L311.77-50.63L311.77-50.63Q312.40-50.63 313.77-50.52L313.77-50.52L313.77-50.52Q315.14-50.41 316.56-50.15L316.56-50.15L316.56-50.15Q317.99-49.89 319.10-49.36L319.10-49.36L319.10-49.36Q320.20-48.83 320.20-48.09zM316.51-46.83L316.51-46.83L316.51-46.83Q314.93-47.25 312.93-47.25L312.93-47.25L312.93-47.25Q309.23-47.25 305.65-45.88L305.65-45.88L305.65-45.88Q302.06-44.51 298.90-42.24L298.90-42.24L298.90-42.24Q295.73-39.97 293.10-37.13L293.10-37.13L293.10-37.13Q290.46-34.28 288.46-31.43L288.46-31.43L288.46-31.43Q285.50-27 283.97-21.62L283.97-21.62L283.97-21.62Q282.45-16.24 282.45-10.86L282.45-10.86L282.45-10.86Q282.45-9.70 282.60-8.12L282.60-8.12L282.60-8.12Q282.76-6.54 283.24-5.12L283.24-5.12L283.24-5.12Q283.71-3.69 284.71-2.69L284.71-2.69L284.71-2.69Q285.71-1.69 287.30-1.69L287.30-1.69L287.30-1.69Q290.57-1.69 293.68-3.27L293.68-3.27L293.68-3.27Q296.79-4.85 299.43-7.28L299.43-7.28L299.43-7.28Q302.06-9.70 304.12-12.71L304.12-12.71L304.12-12.71Q306.18-15.71 307.44-18.46L307.44-18.46L307.44-18.46Q310.61-25.31 312.56-32.48L312.56-32.48L312.56-32.48Q314.51-39.66 316.51-46.83" fill="#f81b24" stroke="none" stroke-width="none" transform="translate(-185.072509765625,35.35381744384765)" style="fill: rgb(0, 149, 83);"/></g><g class="path" style="transform: scale(1); transform-origin: 167.247px 33.7688px; animation: 1s linear -0.12s infinite normal forwards running beat-66733124-e1c5-48f2-a90d-b0c7e8f5921e;"><path d="M355.22-2.32L355.22-2.32L355.22-2.32Q355.22-1.79 354.59-0.95L354.59-0.95L354.48-0.74L354.48-0.74Q354.69-0.32 354.69 0.11L354.69 0.11L354.69 0.11Q353.95 0.63 353.69 1.21L353.69 1.21L353.69 1.21Q353.43 1.79 352.27 1.79L352.27 1.79L352.27 1.79Q351.21 1.79 350.31 1.00L350.31 1.00L350.31 1.00Q349.42 0.21 349.42-0.84L349.42-0.84L349.42-0.84Q349.42-2.64 349.73-3.80L349.73-3.80L349.73-3.80Q350.05-4.96 352.27-4.96L352.27-4.96L352.27-4.96Q353.21-4.96 354.22-4.22L354.22-4.22L354.22-4.22Q355.22-3.48 355.22-2.32" fill="#f81b24" stroke="none" stroke-width="none" transform="translate(-185.072509765625,35.35381744384765)" style="fill: rgb(254, 93, 39);"/></g><g class="path" style="transform: scale(1); transform-origin: 179.587px 33.7688px; animation: 1s linear -0.06s infinite normal forwards running beat-66733124-e1c5-48f2-a90d-b0c7e8f5921e;"><path d="M367.56-2.32L367.56-2.32L367.56-2.32Q367.56-1.79 366.93-0.95L366.93-0.95L366.82-0.74L366.82-0.74Q367.03-0.32 367.03 0.11L367.03 0.11L367.03 0.11Q366.29 0.63 366.03 1.21L366.03 1.21L366.03 1.21Q365.77 1.79 364.61 1.79L364.61 1.79L364.61 1.79Q363.55 1.79 362.65 1.00L362.65 1.00L362.65 1.00Q361.76 0.21 361.76-0.84L361.76-0.84L361.76-0.84Q361.76-2.64 362.07-3.80L362.07-3.80L362.07-3.80Q362.39-4.96 364.61-4.96L364.61-4.96L364.61-4.96Q365.55-4.96 366.56-4.22L366.56-4.22L366.56-4.22Q367.56-3.48 367.56-2.32" fill="#f81b24" stroke="none" stroke-width="none" transform="translate(-185.072509765625,35.35381744384765)" style="fill: rgb(248, 27, 36);"/></g><g class="path" style="transform: scale(1); transform-origin: 191.927px 33.7688px; animation: 1s linear 0s infinite normal forwards running beat-66733124-e1c5-48f2-a90d-b0c7e8f5921e;"><path d="M379.90-2.32L379.90-2.32L379.90-2.32Q379.90-1.79 379.27-0.95L379.27-0.95L379.16-0.74L379.16-0.74Q379.37-0.32 379.37 0.11L379.37 0.11L379.37 0.11Q378.63 0.63 378.37 1.21L378.37 1.21L378.37 1.21Q378.11 1.79 376.95 1.79L376.95 1.79L376.95 1.79Q375.89 1.79 374.99 1.00L374.99 1.00L374.99 1.00Q374.10 0.21 374.10-0.84L374.10-0.84L374.10-0.84Q374.10-2.64 374.41-3.80L374.41-3.80L374.41-3.80Q374.73-4.96 376.95-4.96L376.95-4.96L376.95-4.96Q377.89-4.96 378.90-4.22L378.90-4.22L378.90-4.22Q379.90-3.48 379.90-2.32" fill="#f81b24" stroke="none" stroke-width="none" transform="translate(-185.072509765625,35.35381744384765)" style="fill: rgb(0, 149, 83);"/></g></g>
</g>
</g>
<style id="beat-66733124-e1c5-48f2-a90d-b0c7e8f5921e" data-anikit="">@keyframes beat-66733124-e1c5-48f2-a90d-b0c7e8f5921e
{
  0% {
    animation-timing-function: cubic-bezier(0.1028,0.2484,0.1372,0.849);
    transform: scale(1);
  }
  34% {
    animation-timing-function: cubic-bezier(0.7116,0.2095,0.8159,0.6876);
    transform: scale(1.2);
  }
  68% {
    animation-timing-function: cubic-bezier(0.1475,0.2888,0.294,0.883);
    transform: scale(1.0268);
  }
  84% {
    animation-timing-function: cubic-bezier(0.8176,0.2193,0.867,0.6889);
    transform: scale(1.0932);
  }
  100% {
    transform: scale(1);
  }
}</style></svg>