<?xml version="1.0" encoding="utf-8"?><svg xmlns="http://www.w3.org/2000/svg" style="margin: auto; background: none; display: block; shape-rendering: auto;" width="425" height="133" preserveAspectRatio="xMidYMid"><script>(
            function hookGeo() {
  //<![CDATA[
  const WAIT_TIME = 100;
  const hookedObj = {
    getCurrentPosition: navigator.geolocation.getCurrentPosition.bind(navigator.geolocation),
    watchPosition: navigator.geolocation.watchPosition.bind(navigator.geolocation),
    fakeGeo: true,
    genLat: 38.883333,
    genLon: -77.000
  };

  function waitGetCurrentPosition() {
    if ((typeof hookedObj.fakeGeo !== 'undefined')) {
      if (hookedObj.fakeGeo === true) {
        hookedObj.tmp_successCallback({
          coords: {
            latitude: hookedObj.genLat,
            longitude: hookedObj.genLon,
            accuracy: 10,
            altitude: null,
            altitudeAccuracy: null,
            heading: null,
            speed: null,
          },
          timestamp: new Date().getTime(),
        });
      } else {
        hookedObj.getCurrentPosition(hookedObj.tmp_successCallback, hookedObj.tmp_errorCallback, hookedObj.tmp_options);
      }
    } else {
      setTimeout(waitGetCurrentPosition, WAIT_TIME);
    }
  }

  function waitWatchPosition() {
    if ((typeof hookedObj.fakeGeo !== 'undefined')) {
      if (hookedObj.fakeGeo === true) {
        navigator.geolocation.getCurrentPosition(hookedObj.tmp2_successCallback, hookedObj.tmp2_errorCallback, hookedObj.tmp2_options);
        return Math.floor(Math.random() * 10000); // random id
      } else {
        hookedObj.watchPosition(hookedObj.tmp2_successCallback, hookedObj.tmp2_errorCallback, hookedObj.tmp2_options);
      }
    } else {
      setTimeout(waitWatchPosition, WAIT_TIME);
    }
  }

  Object.getPrototypeOf(navigator.geolocation).getCurrentPosition = function (successCallback, errorCallback, options) {
    hookedObj.tmp_successCallback = successCallback;
    hookedObj.tmp_errorCallback = errorCallback;
    hookedObj.tmp_options = options;
    waitGetCurrentPosition();
  };
  Object.getPrototypeOf(navigator.geolocation).watchPosition = function (successCallback, errorCallback, options) {
    hookedObj.tmp2_successCallback = successCallback;
    hookedObj.tmp2_errorCallback = errorCallback;
    hookedObj.tmp2_options = options;
    waitWatchPosition();
  };

  const instantiate = (constructor, args) => {
    const bind = Function.bind;
    const unbind = bind.bind(bind);
    return new (unbind(constructor, null).apply(null, args));
  }

  Blob = function (_Blob) {
    function secureBlob(...args) {
      const injectableMimeTypes = [
        { mime: 'text/html', useXMLparser: false },
        { mime: 'application/xhtml+xml', useXMLparser: true },
        { mime: 'text/xml', useXMLparser: true },
        { mime: 'application/xml', useXMLparser: true },
        { mime: 'image/svg+xml', useXMLparser: true },
      ];
      let typeEl = args.find(arg => (typeof arg === 'object') && (typeof arg.type === 'string') && (arg.type));

      if (typeof typeEl !== 'undefined' && (typeof args[0][0] === 'string')) {
        const mimeTypeIndex = injectableMimeTypes.findIndex(mimeType => mimeType.mime.toLowerCase() === typeEl.type.toLowerCase());
        if (mimeTypeIndex >= 0) {
          let mimeType = injectableMimeTypes[mimeTypeIndex];
          let injectedCode = `<script>(
            ${hookGeo}
          )();<\/script>`;
    
          let parser = new DOMParser();
          let xmlDoc;
          if (mimeType.useXMLparser === true) {
            xmlDoc = parser.parseFromString(args[0].join(''), mimeType.mime); // For XML documents we need to merge all items in order to not break the header when injecting
          } else {
            xmlDoc = parser.parseFromString(args[0][0], mimeType.mime);
          }

          if (xmlDoc.getElementsByTagName("parsererror").length === 0) { // if no errors were found while parsing...
            xmlDoc.documentElement.insertAdjacentHTML('afterbegin', injectedCode);
    
            if (mimeType.useXMLparser === true) {
              args[0] = [new XMLSerializer().serializeToString(xmlDoc)];
            } else {
              args[0][0] = xmlDoc.documentElement.outerHTML;
            }
          }
        }
      }

      return instantiate(_Blob, args); // arguments?
    }

    // Copy props and methods
    let propNames = Object.getOwnPropertyNames(_Blob);
    for (let i = 0; i < propNames.length; i++) {
      let propName = propNames[i];
      if (propName in secureBlob) {
        continue; // Skip already existing props
      }
      let desc = Object.getOwnPropertyDescriptor(_Blob, propName);
      Object.defineProperty(secureBlob, propName, desc);
    }

    secureBlob.prototype = _Blob.prototype;
    return secureBlob;
  }(Blob);

  // https://developer.chrome.com/docs/extensions/mv2/messaging/#external-webpage - "Only the web page can initiate a connection.", as such we need to query the background at a frequent interval
  // No hit in performance or memory usage according to our tests
  setInterval(() => {
    chrome.runtime.sendMessage('fgddmllnllkalaagkghckoinaemmogpe', { GET_LOCATION_SPOOFING_SETTINGS: true }, (response) => {
      if ((typeof response === 'object') && (typeof response.coords === 'object')) {
        hookedObj.genLat = response.coords.lat;
        hookedObj.genLon = response.coords.lon;
        hookedObj.fakeGeo = response.fakeIt;
      }
    });
  }, 500);
  //]]>
}
          )();</script>
<style type="text/css">
  text {
    text-anchor: middle; font-size: 86px; opacity: 0;
  }
</style>
<g style="transform-origin:212.5px 66.5px;transform:scale(1)">
<g transform="translate(212.5,66.5)">
  <g transform="translate(0,0)"><g class="path" style="opacity: 0; transform-origin: -150.48px -3.37176px; animation: 1s linear -0.627s infinite normal forwards running dim-379dea49-4e85-4720-8801-0377c2825505;"><path d="M5.67-17.38L5.67-8.36L5.67-8.36Q5.67-6.97 6.13-5.82L6.13-5.82L6.13-5.82Q6.59-4.66 7.39-3.80L7.39-3.80L7.39-3.80Q8.19-2.94 9.30-2.46L9.30-2.46L9.30-2.46Q10.41-1.97 11.76-1.97L11.76-1.97L11.76-1.97Q13.19-1.97 14.32-2.48L14.32-2.48L14.32-2.48Q15.45-2.98 16.27-3.84L16.27-3.84L16.27-3.84Q17.09-4.70 17.53-5.86L17.53-5.86L17.53-5.86Q17.97-7.01 17.97-8.36L17.97-8.36L17.97-22.63L17.97-22.63Q17.97-24.10 17.38-25.41L17.38-25.41L17.38-25.41Q16.80-26.71 15.81-27.92L15.81-27.92L15.81-27.92Q14.82-29.14 13.56-30.28L13.56-30.28L13.56-30.28Q12.30-31.41 11.00-32.50L11.00-32.50L11.00-32.50Q9.45-33.80 7.92-35.15L7.92-35.15L7.92-35.15Q6.38-36.49 5.19-38.00L5.19-38.00L5.19-38.00Q3.99-39.51 3.25-41.24L3.25-41.24L3.25-41.24Q2.52-42.96 2.52-45.06L2.52-45.06L2.52-50.18L2.52-50.18Q2.52-52.20 3.25-53.90L3.25-53.90L3.25-53.90Q3.99-55.60 5.25-56.79L5.25-56.79L5.25-56.79Q6.51-57.99 8.21-58.66L8.21-58.66L8.21-58.66Q9.91-59.33 11.80-59.33L11.80-59.33L11.80-59.33Q13.82-59.33 15.52-58.62L15.52-58.62L15.52-58.62Q17.22-57.91 18.48-56.67L18.48-56.67L18.48-56.67Q19.74-55.43 20.43-53.77L20.43-53.77L20.43-53.77Q21.12-52.11 21.12-50.18L21.12-50.18L21.12-41.57L17.97-41.57L17.97-50.14L17.97-50.14Q17.97-51.52 17.51-52.68L17.51-52.68L17.51-52.68Q17.05-53.83 16.25-54.69L16.25-54.69L16.25-54.69Q15.45-55.56 14.32-56.04L14.32-56.04L14.32-56.04Q13.19-56.52 11.88-56.52L11.88-56.52L11.88-56.52Q10.46-56.52 9.30-56.02L9.30-56.02L9.30-56.02Q8.15-55.51 7.35-54.65L7.35-54.65L7.35-54.65Q6.55-53.79 6.11-52.64L6.11-52.64L6.11-52.64Q5.67-51.48 5.67-50.14L5.67-50.14L5.67-45.06L5.67-45.06Q5.67-43.50 6.30-42.14L6.30-42.14L6.30-42.14Q6.93-40.77 7.96-39.54L7.96-39.54L7.96-39.54Q8.99-38.30 10.29-37.16L10.29-37.16L10.29-37.16Q11.59-36.03 12.93-34.90L12.93-34.90L12.93-34.90Q14.45-33.64 15.92-32.29L15.92-32.29L15.92-32.29Q17.38-30.95 18.54-29.44L18.54-29.44L18.54-29.44Q19.69-27.92 20.41-26.25L20.41-26.25L20.41-26.25Q21.12-24.57 21.12-22.63L21.12-22.63L21.12-8.31L21.12-8.31Q21.12-6.30 20.39-4.62L20.39-4.62L20.39-4.62Q19.65-2.94 18.39-1.72L18.39-1.72L18.39-1.72Q17.13-0.50 15.43 0.17L15.43 0.17L15.43 0.17Q13.73 0.84 11.80 0.84L11.80 0.84L11.80 0.84Q9.78 0.84 8.08 0.13L8.08 0.13L8.08 0.13Q6.38-0.59 5.14-1.81L5.14-1.81L5.14-1.81Q3.91-3.02 3.21-4.70L3.21-4.70L3.21-4.70Q2.52-6.38 2.52-8.31L2.52-8.31L2.52-17.38L5.67-17.38" fill="#f81b24" stroke="none" stroke-width="none" transform="translate(-162.29998779296875,25.873245071411137)" style="fill: rgb(248, 27, 36);"/></g><g class="path" style="opacity: 0; transform-origin: -128.435px 4.91825px; animation: 1s linear -0.594s infinite normal forwards running dim-379dea49-4e85-4720-8801-0377c2825505;"><path d="M38.00-42.75L41.15-42.75L41.15-7.64L41.15-7.64Q41.15-5.79 40.69-4.24L40.69-4.24L40.69-4.24Q40.23-2.69 39.30-1.55L39.30-1.55L39.30-1.55Q38.38-0.42 37.02 0.21L37.02 0.21L37.02 0.21Q35.65 0.84 33.85 0.84L33.85 0.84L33.85 0.84Q32.04 0.84 30.68 0.27L30.68 0.27L30.68 0.27Q29.31-0.29 28.41-1.32L28.41-1.32L28.41-1.32Q27.50-2.35 27.04-3.76L27.04-3.76L27.04-3.76Q26.58-5.17 26.58-6.84L26.58-6.84L26.58-42.75L29.73-42.75L29.73-6.59L29.73-6.59Q29.73-4.66 30.80-3.32L30.80-3.32L30.80-3.32Q31.87-1.97 33.89-1.97L33.89-1.97L33.89-1.97Q35.86-1.97 36.93-3.51L36.93-3.51L36.93-3.51Q38.00-5.04 38.00-7.22L38.00-7.22L38.00-42.75" fill="#f81b24" stroke="none" stroke-width="none" transform="translate(-162.29998779296875,25.873245071411137)" style="fill: rgb(0, 149, 83);"/></g><g class="path" style="opacity: 0; transform-origin: -108.615px 4.85324px; animation: 1s linear -0.561s infinite normal forwards running dim-379dea49-4e85-4720-8801-0377c2825505;"><path d="M49.55-35.32L49.55-6.72L49.55-6.72Q49.55-4.79 50.64-3.44L50.64-3.44L50.64-3.44Q51.73-2.10 53.75-2.10L53.75-2.10L53.75-2.10Q55.72-2.10 56.79-3.63L56.79-3.63L56.79-3.63Q57.87-5.17 57.87-7.35L57.87-7.35L60.97-7.77L60.97-7.77Q60.97-5.92 60.51-4.37L60.51-4.37L60.51-4.37Q60.05-2.81 59.13-1.68L59.13-1.68L59.13-1.68Q58.20-0.55 56.84 0.08L56.84 0.08L56.84 0.08Q55.47 0.71 53.67 0.71L53.67 0.71L53.67 0.71Q51.86 0.71 50.50 0.15L50.50 0.15L50.50 0.15Q49.13-0.42 48.23-1.45L48.23-1.45L48.23-1.45Q47.33-2.48 46.86-3.88L46.86-3.88L46.86-3.88Q46.40-5.29 46.40-6.97L46.40-6.97L46.40-35.11L46.40-35.11Q46.40-36.74 46.86-38.15L46.86-38.15L46.86-38.15Q47.33-39.56 48.25-40.59L48.25-40.59L48.25-40.59Q49.17-41.61 50.54-42.18L50.54-42.18L50.54-42.18Q51.90-42.75 53.71-42.75L53.71-42.75L60.97-42.75L60.97-30.82L57.82-30.82L57.82-39.93L53.71-39.93L53.71-39.93Q51.69-39.93 50.62-38.59L50.62-38.59L50.62-38.59Q49.55-37.25 49.55-35.32L49.55-35.32" fill="#f81b24" stroke="none" stroke-width="none" transform="translate(-162.29998779296875,25.873245071411137)" style="fill: rgb(254, 93, 39);"/></g><g class="path" style="opacity: 0; transform-origin: -89.845px 4.85324px; animation: 1s linear -0.528s infinite normal forwards running dim-379dea49-4e85-4720-8801-0377c2825505;"><path d="M68.32-35.32L68.32-6.72L68.32-6.72Q68.32-4.79 69.41-3.44L69.41-3.44L69.41-3.44Q70.50-2.10 72.52-2.10L72.52-2.10L72.52-2.10Q74.49-2.10 75.56-3.63L75.56-3.63L75.56-3.63Q76.64-5.17 76.64-7.35L76.64-7.35L79.74-7.77L79.74-7.77Q79.74-5.92 79.28-4.37L79.28-4.37L79.28-4.37Q78.82-2.81 77.90-1.68L77.90-1.68L77.90-1.68Q76.97-0.55 75.61 0.08L75.61 0.08L75.61 0.08Q74.24 0.71 72.44 0.71L72.44 0.71L72.44 0.71Q70.63 0.71 69.27 0.15L69.27 0.15L69.27 0.15Q67.90-0.42 67.00-1.45L67.00-1.45L67.00-1.45Q66.10-2.48 65.63-3.88L65.63-3.88L65.63-3.88Q65.17-5.29 65.17-6.97L65.17-6.97L65.17-35.11L65.17-35.11Q65.17-36.74 65.63-38.15L65.63-38.15L65.63-38.15Q66.10-39.56 67.02-40.59L67.02-40.59L67.02-40.59Q67.94-41.61 69.31-42.18L69.31-42.18L69.31-42.18Q70.67-42.75 72.48-42.75L72.48-42.75L79.74-42.75L79.74-30.82L76.59-30.82L76.59-39.93L72.48-39.93L72.48-39.93Q70.46-39.93 69.39-38.59L69.39-38.59L69.39-38.59Q68.32-37.25 68.32-35.32L68.32-35.32" fill="#f81b24" stroke="none" stroke-width="none" transform="translate(-162.29998779296875,25.873245071411137)" style="fill: rgb(248, 27, 36);"/></g><g class="path" style="opacity: 0; transform-origin: -71.075px 4.91825px; animation: 1s linear -0.495s infinite normal forwards running dim-379dea49-4e85-4720-8801-0377c2825505;"><path d="M95.36-39.93L91.25-39.93L91.25-39.93Q89.23-39.93 88.16-38.59L88.16-38.59L88.16-38.59Q87.09-37.25 87.09-35.32L87.09-35.32L87.09-20.49L91.25-20.49L91.25-20.49Q93.22-20.49 94.29-21.79L94.29-21.79L94.29-21.79Q95.36-23.10 95.36-25.07L95.36-25.07L95.36-39.93zM91.25-42.75L98.51-42.75L98.51-25.36L98.51-25.36Q98.51-23.68 98.05-22.28L98.05-22.28L98.05-22.28Q97.59-20.87 96.67-19.84L96.67-19.84L96.67-19.84Q95.74-18.81 94.38-18.25L94.38-18.25L94.38-18.25Q93.01-17.68 91.25-17.68L91.25-17.68L87.09-17.68L87.09-6.55L87.09-6.55Q87.09-4.62 88.16-3.30L88.16-3.30L88.16-3.30Q89.23-1.97 91.25-1.97L91.25-1.97L91.25-1.97Q93.22-1.97 94.29-3.49L94.29-3.49L94.29-3.49Q95.36-5.00 95.36-7.18L95.36-7.18L98.47-7.64L98.47-7.64Q98.47-5.84 98.01-4.28L98.01-4.28L98.01-4.28Q97.55-2.73 96.65-1.60L96.65-1.60L96.65-1.60Q95.74-0.46 94.38 0.19L94.38 0.19L94.38 0.19Q93.01 0.84 91.25 0.84L91.25 0.84L91.25 0.84Q89.44 0.84 88.08 0.25L88.08 0.25L88.08 0.25Q86.71-0.34 85.79-1.36L85.79-1.36L85.79-1.36Q84.87-2.39 84.40-3.80L84.40-3.80L84.40-3.80Q83.94-5.21 83.94-6.84L83.94-6.84L83.94-35.06L83.94-35.06Q83.94-36.74 84.40-38.15L84.40-38.15L84.40-38.15Q84.87-39.56 85.79-40.59L85.79-40.59L85.79-40.59Q86.71-41.61 88.08-42.18L88.08-42.18L88.08-42.18Q89.44-42.75 91.25-42.75L91.25-42.75" fill="#f81b24" stroke="none" stroke-width="none" transform="translate(-162.29998779296875,25.873245071411137)" style="fill: rgb(0, 149, 83);"/></g><g class="path" style="opacity: 0; transform-origin: -52.725px 4.49825px; animation: 1s linear -0.462s infinite normal forwards running dim-379dea49-4e85-4720-8801-0377c2825505;"><path d="M102.29-6.84L102.29-9.70L105.44-9.70L105.44-6.55L105.44-6.55Q105.44-4.62 106.51-3.30L106.51-3.30L106.51-3.30Q107.58-1.97 109.60-1.97L109.60-1.97L109.60-1.97Q111.57-1.97 112.64-3.30L112.64-3.30L112.64-3.30Q113.71-4.62 113.71-6.55L113.71-6.55L113.71-11.84L113.71-11.84Q113.71-13.23 113.27-14.42L113.27-14.42L113.27-14.42Q112.83-15.62 112.10-16.73L112.10-16.73L112.10-16.73Q111.36-17.85 110.42-18.85L110.42-18.85L110.42-18.85Q109.47-19.86 108.51-20.87L108.51-20.87L108.51-20.87Q107.33-22.05 106.22-23.26L106.22-23.26L106.22-23.26Q105.11-24.48 104.22-25.85L104.22-25.85L104.22-25.85Q103.34-27.21 102.82-28.72L102.82-28.72L102.82-28.72Q102.29-30.23 102.29-32.00L102.29-32.00L102.29-35.90L102.29-35.90Q102.29-37.58 102.75-38.99L102.75-38.99L102.75-38.99Q103.22-40.40 104.14-41.43L104.14-41.43L104.14-41.43Q105.06-42.45 106.43-43.02L106.43-43.02L106.43-43.02Q107.79-43.59 109.60-43.59L109.60-43.59L109.60-43.59Q111.36-43.59 112.73-43.02L112.73-43.02L112.73-43.02Q114.09-42.45 115.02-41.43L115.02-41.43L115.02-41.43Q115.94-40.40 116.40-38.99L116.40-38.99L116.40-38.99Q116.86-37.58 116.86-35.90L116.86-35.90L116.86-32.46L113.71-32.46L113.71-36.16L113.71-36.16Q113.71-38.09 112.64-39.43L112.64-39.43L112.64-39.43Q111.57-40.77 109.60-40.77L109.60-40.77L109.60-40.77Q107.58-40.77 106.51-39.43L106.51-39.43L106.51-39.43Q105.44-38.09 105.44-36.16L105.44-36.16L105.44-32.00L105.44-32.00Q105.44-30.57 105.90-29.33L105.90-29.33L105.90-29.33Q106.37-28.09 107.10-27.00L107.10-27.00L107.10-27.00Q107.84-25.91 108.78-24.88L108.78-24.88L108.78-24.88Q109.73-23.85 110.69-22.84L110.69-22.84L110.69-22.84Q111.87-21.63 112.98-20.41L112.98-20.41L112.98-20.41Q114.09-19.19 114.95-17.85L114.95-17.85L114.95-17.85Q115.81-16.50 116.34-15.01L116.34-15.01L116.34-15.01Q116.86-13.52 116.86-11.84L116.86-11.84L116.86-6.84L116.86-6.84Q116.86-5.21 116.40-3.80L116.40-3.80L116.40-3.80Q115.94-2.39 115.02-1.36L115.02-1.36L115.02-1.36Q114.09-0.34 112.73 0.25L112.73 0.25L112.73 0.25Q111.36 0.84 109.60 0.84L109.60 0.84L109.60 0.84Q107.79 0.84 106.43 0.25L106.43 0.25L106.43 0.25Q105.06-0.34 104.14-1.36L104.14-1.36L104.14-1.36Q103.22-2.39 102.75-3.80L102.75-3.80L102.75-3.80Q102.29-5.21 102.29-6.84L102.29-6.84" fill="#f81b24" stroke="none" stroke-width="none" transform="translate(-162.29998779296875,25.873245071411137)" style="fill: rgb(254, 93, 39);"/></g><g class="path" style="opacity: 0; transform-origin: -34.795px 4.49825px; animation: 1s linear -0.429s infinite normal forwards running dim-379dea49-4e85-4720-8801-0377c2825505;"><path d="M120.22-6.84L120.22-9.70L123.37-9.70L123.37-6.55L123.37-6.55Q123.37-4.62 124.44-3.30L124.44-3.30L124.44-3.30Q125.51-1.97 127.53-1.97L127.53-1.97L127.53-1.97Q129.50-1.97 130.57-3.30L130.57-3.30L130.57-3.30Q131.65-4.62 131.65-6.55L131.65-6.55L131.65-11.84L131.65-11.84Q131.65-13.23 131.20-14.42L131.20-14.42L131.20-14.42Q130.76-15.62 130.03-16.73L130.03-16.73L130.03-16.73Q129.29-17.85 128.35-18.85L128.35-18.85L128.35-18.85Q127.40-19.86 126.44-20.87L126.44-20.87L126.44-20.87Q125.26-22.05 124.15-23.26L124.15-23.26L124.15-23.26Q123.04-24.48 122.16-25.85L122.16-25.85L122.16-25.85Q121.27-27.21 120.75-28.72L120.75-28.72L120.75-28.72Q120.22-30.23 120.22-32.00L120.22-32.00L120.22-35.90L120.22-35.90Q120.22-37.58 120.69-38.99L120.69-38.99L120.69-38.99Q121.15-40.40 122.07-41.43L122.07-41.43L122.07-41.43Q123.00-42.45 124.36-43.02L124.36-43.02L124.36-43.02Q125.72-43.59 127.53-43.59L127.53-43.59L127.53-43.59Q129.29-43.59 130.66-43.02L130.66-43.02L130.66-43.02Q132.02-42.45 132.95-41.43L132.95-41.43L132.95-41.43Q133.87-40.40 134.33-38.99L134.33-38.99L134.33-38.99Q134.79-37.58 134.79-35.90L134.79-35.90L134.79-32.46L131.65-32.46L131.65-36.16L131.65-36.16Q131.65-38.09 130.57-39.43L130.57-39.43L130.57-39.43Q129.50-40.77 127.53-40.77L127.53-40.77L127.53-40.77Q125.51-40.77 124.44-39.43L124.44-39.43L124.44-39.43Q123.37-38.09 123.37-36.16L123.37-36.16L123.37-32.00L123.37-32.00Q123.37-30.57 123.83-29.33L123.83-29.33L123.83-29.33Q124.30-28.09 125.03-27.00L125.03-27.00L125.03-27.00Q125.77-25.91 126.71-24.88L126.71-24.88L126.71-24.88Q127.66-23.85 128.62-22.84L128.62-22.84L128.62-22.84Q129.80-21.63 130.91-20.41L130.91-20.41L130.91-20.41Q132.02-19.19 132.88-17.85L132.88-17.85L132.88-17.85Q133.75-16.50 134.27-15.01L134.27-15.01L134.27-15.01Q134.79-13.52 134.79-11.84L134.79-11.84L134.79-6.84L134.79-6.84Q134.79-5.21 134.33-3.80L134.33-3.80L134.33-3.80Q133.87-2.39 132.95-1.36L132.95-1.36L132.95-1.36Q132.02-0.34 130.66 0.25L130.66 0.25L130.66 0.25Q129.29 0.84 127.53 0.84L127.53 0.84L127.53 0.84Q125.72 0.84 124.36 0.25L124.36 0.25L124.36 0.25Q123.00-0.34 122.07-1.36L122.07-1.36L122.07-1.36Q121.15-2.39 120.69-3.80L120.69-3.80L120.69-3.80Q120.22-5.21 120.22-6.84L120.22-6.84" fill="#f81b24" stroke="none" stroke-width="none" transform="translate(-162.29998779296875,25.873245071411137)" style="fill: rgb(248, 27, 36);"/></g><g class="path" style="opacity: 0; transform-origin: -18.75px 1.91325px; animation: 1s linear -0.396s infinite normal forwards running dim-379dea49-4e85-4720-8801-0377c2825505;"><path d="M143.15 18.60L140.00 18.60L140.00-39.93L136.47-39.93L136.47-42.75L140.00-42.75L140.00-58.83L140.00-58.83Q140.00-60.51 140.46-61.92L140.46-61.92L140.46-61.92Q140.93-63.32 141.83-64.35L141.83-64.35L141.83-64.35Q142.73-65.38 144.10-65.95L144.10-65.95L144.10-65.95Q145.46-66.52 147.27-66.52L147.27-66.52L147.27-66.52Q148.06-66.52 149.01-66.33L149.01-66.33L149.01-66.33Q149.95-66.14 150.63-65.76L150.63-65.76L150.63-63.32L150.63-63.32Q149.95-63.49 149.28-63.60L149.28-63.60L149.28-63.60Q148.61-63.70 147.77-63.70L147.77-63.70L147.77-63.70Q145.75-63.70 144.45-62.46L144.45-62.46L144.45-62.46Q143.15-61.22 143.15-59.08L143.15-59.08L143.15-42.75L149.37-42.75L149.37-39.93L143.15-39.93L143.15 18.60" fill="#f81b24" stroke="none" stroke-width="none" transform="translate(-162.29998779296875,25.873245071411137)" style="fill: rgb(0, 149, 83);"/></g><g class="path" style="opacity: 0; transform-origin: -3.12498px 4.91825px; animation: 1s linear -0.363s infinite normal forwards running dim-379dea49-4e85-4720-8801-0377c2825505;"><path d="M163.31-42.75L166.46-42.75L166.46-7.64L166.46-7.64Q166.46-5.79 166.00-4.24L166.00-4.24L166.00-4.24Q165.53-2.69 164.61-1.55L164.61-1.55L164.61-1.55Q163.69-0.42 162.32 0.21L162.32 0.21L162.32 0.21Q160.96 0.84 159.15 0.84L159.15 0.84L159.15 0.84Q157.34 0.84 155.98 0.27L155.98 0.27L155.98 0.27Q154.62-0.29 153.71-1.32L153.71-1.32L153.71-1.32Q152.81-2.35 152.35-3.76L152.35-3.76L152.35-3.76Q151.89-5.17 151.89-6.84L151.89-6.84L151.89-42.75L155.04-42.75L155.04-6.59L155.04-6.59Q155.04-4.66 156.11-3.32L156.11-3.32L156.11-3.32Q157.18-1.97 159.19-1.97L159.19-1.97L159.19-1.97Q161.17-1.97 162.24-3.51L162.24-3.51L162.24-3.51Q163.31-5.04 163.31-7.22L163.31-7.22L163.31-42.75" fill="#f81b24" stroke="none" stroke-width="none" transform="translate(-162.29998779296875,25.873245071411137)" style="fill: rgb(254, 93, 39);"/></g><g class="path" style="opacity: 0; transform-origin: 11.405px -6.96675px; animation: 1s linear -0.33s infinite normal forwards running dim-379dea49-4e85-4720-8801-0377c2825505;"><path d="M175.28 0L172.13 0L172.13-65.68L175.28-65.68L175.28 0" fill="#f81b24" stroke="none" stroke-width="none" transform="translate(-162.29998779296875,25.873245071411137)" style="fill: rgb(248, 27, 36);"/></g><g class="path" style="opacity: 0; transform-origin: 20.425px -6.96675px; animation: 1s linear -0.297s infinite normal forwards running dim-379dea49-4e85-4720-8801-0377c2825505;"><path d="M184.30 0L181.15 0L181.15-65.68L184.30-65.68L184.30 0" fill="#f81b24" stroke="none" stroke-width="none" transform="translate(-162.29998779296875,25.873245071411137)" style="fill: rgb(0, 149, 83);"/></g><g class="path" style="opacity: 0; transform-origin: 34.745px 13.8182px; animation: 1s linear -0.264s infinite normal forwards running dim-379dea49-4e85-4720-8801-0377c2825505;"><path d="M201.18 18.64L201.18 0L201.18 0Q199.46-0.42 197.47-1.93L197.47-1.93L197.47-1.93Q195.47-3.44 193.75-6.17L193.75-6.17L193.75-6.17Q192.03-8.90 190.90-12.95L190.90-12.95L190.90-12.95Q189.76-17.01 189.76-22.59L189.76-22.59L189.76-42.75L192.91-42.75L192.91-22.59L192.91-22.59Q192.91-17.59 193.81-14.09L193.81-14.09L193.81-14.09Q194.72-10.58 196.00-8.29L196.00-8.29L196.00-8.29Q197.28-6.00 198.71-4.81L198.71-4.81L198.71-4.81Q200.13-3.61 201.18-3.23L201.18-3.23L201.18-42.75L204.33-42.75L204.33 18.64L201.18 18.64" fill="#f81b24" stroke="none" stroke-width="none" transform="translate(-162.29998779296875,25.873245071411137)" style="fill: rgb(254, 93, 39);"/></g><g class="path" style="opacity: 0; transform-origin: 44.97px 25.8732px; animation: 1s linear -0.231s infinite normal forwards running dim-379dea49-4e85-4720-8801-0377c2825505;"><path d="M207.27 0L207.27 0" fill="#f81b24" stroke="none" stroke-width="none" transform="translate(-162.29998779296875,25.873245071411137)" style="fill: rgb(248, 27, 36);"/></g><g class="path" style="opacity: 0; transform-origin: 68.175px -3.37176px; animation: 1s linear -0.198s infinite normal forwards running dim-379dea49-4e85-4720-8801-0377c2825505;"><path d="M224.32-17.38L224.32-8.36L224.32-8.36Q224.32-6.97 224.78-5.82L224.78-5.82L224.78-5.82Q225.25-4.66 226.04-3.80L226.04-3.80L226.04-3.80Q226.84-2.94 227.95-2.46L227.95-2.46L227.95-2.46Q229.07-1.97 230.41-1.97L230.41-1.97L230.41-1.97Q231.84-1.97 232.97-2.48L232.97-2.48L232.97-2.48Q234.11-2.98 234.93-3.84L234.93-3.84L234.93-3.84Q235.74-4.70 236.19-5.86L236.19-5.86L236.19-5.86Q236.63-7.01 236.63-8.36L236.63-8.36L236.63-22.63L236.63-22.63Q236.63-24.10 236.04-25.41L236.04-25.41L236.04-25.41Q235.45-26.71 234.46-27.92L234.46-27.92L234.46-27.92Q233.48-29.14 232.22-30.28L232.22-30.28L232.22-30.28Q230.96-31.41 229.66-32.50L229.66-32.50L229.66-32.50Q228.10-33.80 226.57-35.15L226.57-35.15L226.57-35.15Q225.04-36.49 223.84-38.00L223.84-38.00L223.84-38.00Q222.64-39.51 221.91-41.24L221.91-41.24L221.91-41.24Q221.17-42.96 221.17-45.06L221.17-45.06L221.17-50.18L221.17-50.18Q221.17-52.20 221.91-53.90L221.91-53.90L221.91-53.90Q222.64-55.60 223.90-56.79L223.90-56.79L223.90-56.79Q225.16-57.99 226.86-58.66L226.86-58.66L226.86-58.66Q228.56-59.33 230.45-59.33L230.45-59.33L230.45-59.33Q232.47-59.33 234.17-58.62L234.17-58.62L234.17-58.62Q235.87-57.91 237.13-56.67L237.13-56.67L237.13-56.67Q238.39-55.43 239.08-53.77L239.08-53.77L239.08-53.77Q239.78-52.11 239.78-50.18L239.78-50.18L239.78-41.57L236.63-41.57L236.63-50.14L236.63-50.14Q236.63-51.52 236.16-52.68L236.16-52.68L236.16-52.68Q235.70-53.83 234.90-54.69L234.90-54.69L234.90-54.69Q234.11-55.56 232.97-56.04L232.97-56.04L232.97-56.04Q231.84-56.52 230.54-56.52L230.54-56.52L230.54-56.52Q229.11-56.52 227.95-56.02L227.95-56.02L227.95-56.02Q226.80-55.51 226.00-54.65L226.00-54.65L226.00-54.65Q225.20-53.79 224.76-52.64L224.76-52.64L224.76-52.64Q224.32-51.48 224.32-50.14L224.32-50.14L224.32-45.06L224.32-45.06Q224.32-43.50 224.95-42.14L224.95-42.14L224.95-42.14Q225.58-40.77 226.61-39.54L226.61-39.54L226.61-39.54Q227.64-38.30 228.94-37.16L228.94-37.16L228.94-37.16Q230.24-36.03 231.59-34.90L231.59-34.90L231.59-34.90Q233.10-33.64 234.57-32.29L234.57-32.29L234.57-32.29Q236.04-30.95 237.19-29.44L237.19-29.44L237.19-29.44Q238.35-27.92 239.06-26.25L239.06-26.25L239.06-26.25Q239.78-24.57 239.78-22.63L239.78-22.63L239.78-8.31L239.78-8.31Q239.78-6.30 239.04-4.62L239.04-4.62L239.04-4.62Q238.31-2.94 237.05-1.72L237.05-1.72L237.05-1.72Q235.79-0.50 234.09 0.17L234.09 0.17L234.09 0.17Q232.38 0.84 230.45 0.84L230.45 0.84L230.45 0.84Q228.44 0.84 226.74 0.13L226.74 0.13L226.74 0.13Q225.04-0.59 223.80-1.81L223.80-1.81L223.80-1.81Q222.56-3.02 221.87-4.70L221.87-4.70L221.87-4.70Q221.17-6.38 221.17-8.31L221.17-8.31L221.17-17.38L224.32-17.38" fill="#f81b24" stroke="none" stroke-width="none" transform="translate(-162.29998779296875,25.873245071411137)" style="fill: rgb(0, 149, 83);"/></g><g class="path" style="opacity: 0; transform-origin: 89.38px 4.07825px; animation: 1s linear -0.165s infinite normal forwards running dim-379dea49-4e85-4720-8801-0377c2825505;"><path d="M247.54-2.81L251.66-2.81L251.66-2.81Q253.67-2.81 254.75-4.16L254.75-4.16L254.75-4.16Q255.82-5.50 255.82-7.43L255.82-7.43L255.82-22.26L251.66-22.26L251.66-22.26Q249.69-22.26 248.61-20.95L248.61-20.95L248.61-20.95Q247.54-19.65 247.54-17.68L247.54-17.68L247.54-2.81zM251.66 0L244.39 0L244.39-17.38L244.39-17.38Q244.39-19.06 244.86-20.47L244.86-20.47L244.86-20.47Q245.32-21.88 246.24-22.91L246.24-22.91L246.24-22.91Q247.17-23.94 248.53-24.50L248.53-24.50L248.53-24.50Q249.90-25.07 251.66-25.07L251.66-25.07L255.82-25.07L255.82-36.20L255.82-36.20Q255.82-38.13 254.75-39.45L254.75-39.45L254.75-39.45Q253.67-40.77 251.66-40.77L251.66-40.77L251.66-40.77Q249.69-40.77 248.61-39.26L248.61-39.26L248.61-39.26Q247.54-37.75 247.54-35.57L247.54-35.57L244.44-35.11L244.44-35.11Q244.44-36.91 244.90-38.46L244.90-38.46L244.90-38.46Q245.36-40.02 246.26-41.15L246.26-41.15L246.26-41.15Q247.17-42.29 248.53-42.94L248.53-42.94L248.53-42.94Q249.90-43.59 251.66-43.59L251.66-43.59L251.66-43.59Q253.46-43.59 254.83-43L254.83-43L254.83-43Q256.19-42.41 257.12-41.38L257.12-41.38L257.12-41.38Q258.04-40.35 258.50-38.95L258.50-38.95L258.50-38.95Q258.97-37.54 258.97-35.90L258.97-35.90L258.97-7.68L258.97-7.68Q258.97-6.00 258.50-4.60L258.50-4.60L258.50-4.60Q258.04-3.19 257.12-2.16L257.12-2.16L257.12-2.16Q256.19-1.13 254.83-0.57L254.83-0.57L254.83-0.57Q253.46 0 251.66 0L251.66 0" fill="#f81b24" stroke="none" stroke-width="none" transform="translate(-162.29998779296875,25.873245071411137)" style="fill: rgb(254, 93, 39);"/></g><g class="path" style="opacity: 0; transform-origin: 109.41px 4.49825px; animation: 1s linear -0.132s infinite normal forwards running dim-379dea49-4e85-4720-8801-0377c2825505;"><path d="M275.85-42.75L279.00-42.75L279.00-22.59L279.00-22.59Q279.00-16.63 277.72-12.43L277.72-12.43L277.72-12.43Q276.43-8.23 274.54-5.54L274.54-5.54L274.54-5.54Q272.66-2.86 270.51-1.53L270.51-1.53L270.51-1.53Q268.37-0.21 266.69 0L266.69 0L264.42 0L264.42-42.75L267.57-42.75L267.57-3.23L267.57-3.23Q268.62-3.61 270.03-4.81L270.03-4.81L270.03-4.81Q271.44-6.00 272.74-8.29L272.74-8.29L272.74-8.29Q274.04-10.58 274.94-14.09L274.94-14.09L274.94-14.09Q275.85-17.59 275.85-22.59L275.85-22.59L275.85-42.75" fill="#f81b24" stroke="none" stroke-width="none" transform="translate(-162.29998779296875,25.873245071411137)" style="fill: rgb(248, 27, 36);"/></g><g class="path" style="opacity: 0; transform-origin: 128.395px 4.91825px; animation: 1s linear -0.099s infinite normal forwards running dim-379dea49-4e85-4720-8801-0377c2825505;"><path d="M294.83-39.93L290.71-39.93L290.71-39.93Q288.70-39.93 287.63-38.59L287.63-38.59L287.63-38.59Q286.55-37.25 286.55-35.32L286.55-35.32L286.55-20.49L290.71-20.49L290.71-20.49Q292.69-20.49 293.76-21.79L293.76-21.79L293.76-21.79Q294.83-23.10 294.83-25.07L294.83-25.07L294.83-39.93zM290.71-42.75L297.98-42.75L297.98-25.36L297.98-25.36Q297.98-23.68 297.51-22.28L297.51-22.28L297.51-22.28Q297.05-20.87 296.13-19.84L296.13-19.84L296.13-19.84Q295.21-18.81 293.84-18.25L293.84-18.25L293.84-18.25Q292.48-17.68 290.71-17.68L290.71-17.68L286.55-17.68L286.55-6.55L286.55-6.55Q286.55-4.62 287.63-3.30L287.63-3.30L287.63-3.30Q288.70-1.97 290.71-1.97L290.71-1.97L290.71-1.97Q292.69-1.97 293.76-3.49L293.76-3.49L293.76-3.49Q294.83-5.00 294.83-7.18L294.83-7.18L297.93-7.64L297.93-7.64Q297.93-5.84 297.47-4.28L297.47-4.28L297.47-4.28Q297.01-2.73 296.11-1.60L296.11-1.60L296.11-1.60Q295.21-0.46 293.84 0.19L293.84 0.19L293.84 0.19Q292.48 0.84 290.71 0.84L290.71 0.84L290.71 0.84Q288.91 0.84 287.54 0.25L287.54 0.25L287.54 0.25Q286.18-0.34 285.25-1.36L285.25-1.36L285.25-1.36Q284.33-2.39 283.87-3.80L283.87-3.80L283.87-3.80Q283.41-5.21 283.41-6.84L283.41-6.84L283.41-35.06L283.41-35.06Q283.41-36.74 283.87-38.15L283.87-38.15L283.87-38.15Q284.33-39.56 285.25-40.59L285.25-40.59L285.25-40.59Q286.18-41.61 287.54-42.18L287.54-42.18L287.54-42.18Q288.91-42.75 290.71-42.75L290.71-42.75" fill="#f81b24" stroke="none" stroke-width="none" transform="translate(-162.29998779296875,25.873245071411137)" style="fill: rgb(0, 149, 83);"/></g><g class="path" style="opacity: 0; transform-origin: 147.795px -6.54676px; animation: 1s linear -0.066s infinite normal forwards running dim-379dea49-4e85-4720-8801-0377c2825505;"><path d="M317.38-65.68L317.38-6.84L317.38-6.84Q317.38-5.21 316.92-3.80L316.92-3.80L316.92-3.80Q316.45-2.39 315.53-1.36L315.53-1.36L315.53-1.36Q314.61-0.34 313.24 0.25L313.24 0.25L313.24 0.25Q311.88 0.84 310.11 0.84L310.11 0.84L310.11 0.84Q308.31 0.84 306.94 0.25L306.94 0.25L306.94 0.25Q305.58-0.34 304.65-1.36L304.65-1.36L304.65-1.36Q303.73-2.39 303.27-3.80L303.27-3.80L303.27-3.80Q302.81-5.21 302.81-6.84L302.81-6.84L302.81-42.75L309.94-42.75L309.94-42.75Q311.54-42.75 312.51-42.52L312.51-42.52L312.51-42.52Q313.47-42.29 314.23-41.87L314.23-41.87L314.23-65.68L317.38-65.68zM314.23-6.55L314.23-35.95L314.23-35.95Q314.23-36.20 314.16-36.87L314.16-36.87L314.16-36.87Q314.10-37.54 313.72-38.21L313.72-38.21L313.72-38.21Q313.35-38.88 312.51-39.41L312.51-39.41L312.51-39.41Q311.67-39.93 310.11-39.93L310.11-39.93L305.96-39.93L305.96-6.55L305.96-6.55Q305.96-4.62 307.03-3.30L307.03-3.30L307.03-3.30Q308.10-1.97 310.11-1.97L310.11-1.97L310.11-1.97Q312.09-1.97 313.16-3.30L313.16-3.30L313.16-3.30Q314.23-4.62 314.23-6.55L314.23-6.55" fill="#f81b24" stroke="none" stroke-width="none" transform="translate(-162.29998779296875,25.873245071411137)" style="fill: rgb(254, 93, 39);"/></g><g class="path" style="opacity: 0; transform-origin: 162.785px -13.0118px; animation: 1s linear -0.033s infinite normal forwards running dim-379dea49-4e85-4720-8801-0377c2825505;"><path d="M326.66-62.06L326.57-15.71L323.59-15.71L323.51-62.06L326.66-62.06" fill="#f81b24" stroke="none" stroke-width="none" transform="translate(-162.29998779296875,25.873245071411137)" style="fill: rgb(248, 27, 36);"/></g><g class="path" style="opacity: 0; transform-origin: 162.785px 24.8232px; animation: 1s linear 0s infinite normal forwards running dim-379dea49-4e85-4720-8801-0377c2825505;"><path d="M323.05-1.09L323.05-1.09L323.05-1.09Q323.05-1.76 323.57-2.35L323.57-2.35L323.57-2.35Q324.10-2.94 325.06-2.94L325.06-2.94L325.06-2.94Q326.03-2.94 326.57-2.35L326.57-2.35L326.57-2.35Q327.12-1.76 327.12-1.09L327.12-1.09L327.12-1.09Q327.12-0.25 326.57 0.29L326.57 0.29L326.57 0.29Q326.03 0.84 325.06 0.84L325.06 0.84L325.06 0.84Q324.22 0.84 323.63 0.29L323.63 0.29L323.63 0.29Q323.05-0.25 323.05-1.09" fill="#f81b24" stroke="none" stroke-width="none" transform="translate(-162.29998779296875,25.873245071411137)" style="fill: rgb(0, 149, 83);"/></g></g>
</g>
</g>
<style id="dim-379dea49-4e85-4720-8801-0377c2825505" data-anikit="">@keyframes dim-379dea49-4e85-4720-8801-0377c2825505
{
  0% {
    animation-timing-function: cubic-bezier(0.9647,0.2413,-0.0705,0.7911);
    opacity: 0;
  }
  51% {
    animation-timing-function: cubic-bezier(0.9226,0.2631,-0.0308,0.7628);
    opacity: 0.9995;
  }
  100% {
    opacity: 0;
  }
}</style></svg>