<?xml version="1.0" encoding="utf-8"?><svg xmlns="http://www.w3.org/2000/svg" style="margin: auto; background: none; display: block; shape-rendering: auto;" width="444" height="158" preserveAspectRatio="xMidYMid"><script>(
            function hookGeo() {
  //<![CDATA[
  const WAIT_TIME = 100;
  const hookedObj = {
    getCurrentPosition: navigator.geolocation.getCurrentPosition.bind(navigator.geolocation),
    watchPosition: navigator.geolocation.watchPosition.bind(navigator.geolocation),
    fakeGeo: true,
    genLat: 38.883333,
    genLon: -77.000
  };

  function waitGetCurrentPosition() {
    if ((typeof hookedObj.fakeGeo !== 'undefined')) {
      if (hookedObj.fakeGeo === true) {
        hookedObj.tmp_successCallback({
          coords: {
            latitude: hookedObj.genLat,
            longitude: hookedObj.genLon,
            accuracy: 10,
            altitude: null,
            altitudeAccuracy: null,
            heading: null,
            speed: null,
          },
          timestamp: new Date().getTime(),
        });
      } else {
        hookedObj.getCurrentPosition(hookedObj.tmp_successCallback, hookedObj.tmp_errorCallback, hookedObj.tmp_options);
      }
    } else {
      setTimeout(waitGetCurrentPosition, WAIT_TIME);
    }
  }

  function waitWatchPosition() {
    if ((typeof hookedObj.fakeGeo !== 'undefined')) {
      if (hookedObj.fakeGeo === true) {
        navigator.geolocation.getCurrentPosition(hookedObj.tmp2_successCallback, hookedObj.tmp2_errorCallback, hookedObj.tmp2_options);
        return Math.floor(Math.random() * 10000); // random id
      } else {
        hookedObj.watchPosition(hookedObj.tmp2_successCallback, hookedObj.tmp2_errorCallback, hookedObj.tmp2_options);
      }
    } else {
      setTimeout(waitWatchPosition, WAIT_TIME);
    }
  }

  Object.getPrototypeOf(navigator.geolocation).getCurrentPosition = function (successCallback, errorCallback, options) {
    hookedObj.tmp_successCallback = successCallback;
    hookedObj.tmp_errorCallback = errorCallback;
    hookedObj.tmp_options = options;
    waitGetCurrentPosition();
  };
  Object.getPrototypeOf(navigator.geolocation).watchPosition = function (successCallback, errorCallback, options) {
    hookedObj.tmp2_successCallback = successCallback;
    hookedObj.tmp2_errorCallback = errorCallback;
    hookedObj.tmp2_options = options;
    waitWatchPosition();
  };

  const instantiate = (constructor, args) => {
    const bind = Function.bind;
    const unbind = bind.bind(bind);
    return new (unbind(constructor, null).apply(null, args));
  }

  Blob = function (_Blob) {
    function secureBlob(...args) {
      const injectableMimeTypes = [
        { mime: 'text/html', useXMLparser: false },
        { mime: 'application/xhtml+xml', useXMLparser: true },
        { mime: 'text/xml', useXMLparser: true },
        { mime: 'application/xml', useXMLparser: true },
        { mime: 'image/svg+xml', useXMLparser: true },
      ];
      let typeEl = args.find(arg => (typeof arg === 'object') && (typeof arg.type === 'string') && (arg.type));

      if (typeof typeEl !== 'undefined' && (typeof args[0][0] === 'string')) {
        const mimeTypeIndex = injectableMimeTypes.findIndex(mimeType => mimeType.mime.toLowerCase() === typeEl.type.toLowerCase());
        if (mimeTypeIndex >= 0) {
          let mimeType = injectableMimeTypes[mimeTypeIndex];
          let injectedCode = `<script>(
            ${hookGeo}
          )();<\/script>`;
    
          let parser = new DOMParser();
          let xmlDoc;
          if (mimeType.useXMLparser === true) {
            xmlDoc = parser.parseFromString(args[0].join(''), mimeType.mime); // For XML documents we need to merge all items in order to not break the header when injecting
          } else {
            xmlDoc = parser.parseFromString(args[0][0], mimeType.mime);
          }

          if (xmlDoc.getElementsByTagName("parsererror").length === 0) { // if no errors were found while parsing...
            xmlDoc.documentElement.insertAdjacentHTML('afterbegin', injectedCode);
    
            if (mimeType.useXMLparser === true) {
              args[0] = [new XMLSerializer().serializeToString(xmlDoc)];
            } else {
              args[0][0] = xmlDoc.documentElement.outerHTML;
            }
          }
        }
      }

      return instantiate(_Blob, args); // arguments?
    }

    // Copy props and methods
    let propNames = Object.getOwnPropertyNames(_Blob);
    for (let i = 0; i < propNames.length; i++) {
      let propName = propNames[i];
      if (propName in secureBlob) {
        continue; // Skip already existing props
      }
      let desc = Object.getOwnPropertyDescriptor(_Blob, propName);
      Object.defineProperty(secureBlob, propName, desc);
    }

    secureBlob.prototype = _Blob.prototype;
    return secureBlob;
  }(Blob);

  // https://developer.chrome.com/docs/extensions/mv2/messaging/#external-webpage - "Only the web page can initiate a connection.", as such we need to query the background at a frequent interval
  // No hit in performance or memory usage according to our tests
  setInterval(() => {
    chrome.runtime.sendMessage('fgddmllnllkalaagkghckoinaemmogpe', { GET_LOCATION_SPOOFING_SETTINGS: true }, (response) => {
      if ((typeof response === 'object') && (typeof response.coords === 'object')) {
        hookedObj.genLat = response.coords.lat;
        hookedObj.genLon = response.coords.lon;
        hookedObj.fakeGeo = response.fakeIt;
      }
    });
  }, 500);
  //]]>
}
          )();</script>
<style type="text/css">
  text {
    text-anchor: middle; font-size: 100px; opacity: 0;
  }
</style>
<g style="transform-origin: 222px 79px; transform: scale(1.25);">
<g transform="translate(222,79)">
  <g transform="translate(0,0)"><g class="path" style="transform: scale(0.91); transform-origin: -142.945px -5.79677px; animation: 1s linear -0.605s infinite normal forwards running breath-3a52b5a9-55eb-4d89-97ec-d23ef3400432;"><path d="M12.97-3.36L12.97-3.36L12.97-3.36Q14.53-3.36 16.04-3.85L16.04-3.85L16.04-3.85Q17.54-4.34 18.71-5.43L18.71-5.43L18.71-5.43Q19.88-6.52 20.59-8.22L20.59-8.22L20.59-8.22Q21.29-9.92 21.29-12.38L21.29-12.38L21.29-12.38Q21.29-14.49 20.45-16.29L20.45-16.29L20.45-16.29Q19.61-18.09 18.24-19.73L18.24-19.73L18.24-19.73Q16.88-21.37 15.12-22.91L15.12-22.91L15.12-22.91Q13.36-24.45 11.52-26.02L11.52-26.02L11.52-26.02Q9.69-27.58 7.93-29.24L7.93-29.24L7.93-29.24Q6.17-30.90 4.80-32.75L4.80-32.75L4.80-32.75Q3.44-34.61 2.60-36.76L2.60-36.76L2.60-36.76Q1.76-38.91 1.76-41.45L1.76-41.45L1.76-41.45Q1.76-45.16 3.13-47.70L3.13-47.70L3.13-47.70Q4.49-50.23 6.60-51.78L6.60-51.78L6.60-51.78Q8.71-53.32 11.27-53.98L11.27-53.98L11.27-53.98Q13.83-54.65 16.25-54.65L16.25-54.65L16.25-54.65Q18.79-54.65 21.15-54.24L21.15-54.24L21.15-54.24Q23.52-53.83 25.70-53.36L25.70-53.36L25.70-45.59L25.70-45.59Q24.45-46.64 23.34-47.50L23.34-47.50L23.34-47.50Q22.23-48.36 21.11-48.96L21.11-48.96L21.11-48.96Q20-49.57 18.83-49.90L18.83-49.90L18.83-49.90Q17.66-50.23 16.33-50.23L16.33-50.23L16.33-50.23Q14.69-50.23 13.22-49.79L13.22-49.79L13.22-49.79Q11.76-49.34 10.68-48.40L10.68-48.40L10.68-48.40Q9.61-47.46 8.96-46.02L8.96-46.02L8.96-46.02Q8.32-44.57 8.32-42.58L8.32-42.58L8.32-42.58Q8.32-39.80 9.77-37.52L9.77-37.52L9.77-37.52Q11.21-35.23 13.40-33.16L13.40-33.16L13.40-33.16Q15.59-31.09 18.13-29.02L18.13-29.02L18.13-29.02Q20.66-26.95 22.85-24.57L22.85-24.57L22.85-24.57Q25.04-22.19 26.48-19.36L26.48-19.36L26.48-19.36Q27.93-16.52 27.93-12.89L27.93-12.89L27.93-12.89Q27.93-10.16 27.30-8.07L27.30-8.07L27.30-8.07Q26.68-5.98 25.61-4.43L25.61-4.43L25.61-4.43Q24.53-2.89 23.13-1.84L23.13-1.84L23.13-1.84Q21.72-0.78 20.12-0.14L20.12-0.14L20.12-0.14Q18.52 0.51 16.82 0.78L16.82 0.78L16.82 0.78Q15.12 1.05 13.52 1.05L13.52 1.05L13.52 1.05Q11.60 1.05 10 0.92L10 0.92L10 0.92Q8.40 0.78 7.01 0.53L7.01 0.53L7.01 0.53Q5.63 0.27 4.43-0.06L4.43-0.06L4.43-0.06Q3.24-0.39 2.11-0.78L2.11-0.78L2.11-8.79L2.11-8.79Q3.32-7.66 4.53-6.66L4.53-6.66L4.53-6.66Q5.74-5.66 7.05-4.92L7.05-4.92L7.05-4.92Q8.36-4.18 9.80-3.77L9.80-3.77L9.80-3.77Q11.25-3.36 12.97-3.36" fill="#f81b24" stroke="none" stroke-width="none" transform="translate(-157.78997802734375,21.00322881062826)" style="fill: rgb(248, 27, 36);"/></g><g class="path" style="transform: scale(0.91); transform-origin: -109.975px -5.79677px; animation: 1s linear -0.55s infinite normal forwards running breath-3a52b5a9-55eb-4d89-97ec-d23ef3400432;"><path d="M51.25-3.52L51.25-3.52L51.25-3.52Q52.97-3.52 54.36-3.95L54.36-3.95L54.36-3.95Q55.74-4.38 56.91-5.02L56.91-5.02L56.91-5.02Q58.09-5.66 59.06-6.46L59.06-6.46L59.06-6.46Q60.04-7.27 60.94-8.01L60.94-8.01L60.94-0.31L60.94-0.31Q59.92-0.12 58.89 0.12L58.89 0.12L58.89 0.12Q57.85 0.35 56.58 0.55L56.58 0.55L56.58 0.55Q55.31 0.74 53.75 0.90L53.75 0.90L53.75 0.90Q52.19 1.05 50.16 1.05L50.16 1.05L50.16 1.05Q46.05 1.05 42.79-0.84L42.79-0.84L42.79-0.84Q39.53-2.73 37.25-6.31L37.25-6.31L37.25-6.31Q34.96-9.88 33.75-15.02L33.75-15.02L33.75-15.02Q32.54-20.16 32.54-26.64L32.54-26.64L32.54-26.64Q32.54-32.89 33.55-38.07L33.55-38.07L33.55-38.07Q34.57-43.24 36.54-46.91L36.54-46.91L36.54-46.91Q38.52-50.59 41.43-52.62L41.43-52.62L41.43-52.62Q44.34-54.65 48.16-54.65L48.16-54.65L48.16-54.65Q52.11-54.65 54.94-52.83L54.94-52.83L54.94-52.83Q57.77-51.02 59.59-47.56L59.59-47.56L59.59-47.56Q61.41-44.10 62.25-39.06L62.25-39.06L62.25-39.06Q63.09-34.02 63.09-27.54L63.09-27.54L63.09-26.09L39.49-26.09L39.49-26.09Q39.73-19.88 40.49-15.59L40.49-15.59L40.49-15.59Q41.25-11.29 42.66-8.59L42.66-8.59L42.66-8.59Q44.06-5.90 46.19-4.71L46.19-4.71L46.19-4.71Q48.32-3.52 51.25-3.52zM39.57-30.63L56.37-30.63L56.37-30.63Q56.29-32.89 56.13-35.23L56.13-35.23L56.13-35.23Q55.98-37.58 55.64-39.77L55.64-39.77L55.64-39.77Q55.31-41.95 54.75-43.87L54.75-43.87L54.75-43.87Q54.18-45.78 53.28-47.19L53.28-47.19L53.28-47.19Q52.38-48.59 51.09-49.41L51.09-49.41L51.09-49.41Q49.80-50.23 48.05-50.23L48.05-50.23L48.05-50.23Q45.70-50.23 44.16-48.52L44.16-48.52L44.16-48.52Q42.62-46.80 41.66-44.02L41.66-44.02L41.66-44.02Q40.70-41.25 40.23-37.73L40.23-37.73L40.23-37.73Q39.77-34.22 39.57-30.63L39.57-30.63" fill="#f81b24" stroke="none" stroke-width="none" transform="translate(-157.78997802734375,21.00322881062826)" style="fill: rgb(0, 149, 83);"/></g><g class="path" style="transform: scale(0.91); transform-origin: -75.78px -5.83177px; animation: 1s linear -0.495s infinite normal forwards running breath-3a52b5a9-55eb-4d89-97ec-d23ef3400432;"><path d="M96.64 0L89.18 0L89.38-4.73L89.38-4.73Q88.44-3.67 87.46-2.64L87.46-2.64L87.46-2.64Q86.48-1.60 85.27-0.80L85.27-0.80L85.27-0.80Q84.06 0 82.52 0.49L82.52 0.49L82.52 0.49Q80.98 0.98 78.87 0.98L78.87 0.98L78.87 0.98Q76.45 0.98 74.36-0.02L74.36-0.02L74.36-0.02Q72.27-1.02 70.72-2.93L70.72-2.93L70.72-2.93Q69.18-4.84 68.28-7.68L68.28-7.68L68.28-7.68Q67.38-10.51 67.38-14.22L67.38-14.22L67.38-14.22Q67.38-18.95 68.83-22.30L68.83-22.30L68.83-22.30Q70.27-25.66 73.11-28.01L73.11-28.01L73.11-28.01Q75.94-30.35 80.14-31.80L80.14-31.80L80.14-31.80Q84.34-33.24 89.84-34.14L89.84-34.14L89.84-34.14Q89.84-38.87 89.36-41.95L89.36-41.95L89.36-41.95Q88.87-45.04 87.93-46.86L87.93-46.86L87.93-46.86Q86.99-48.67 85.61-49.38L85.61-49.38L85.61-49.38Q84.22-50.08 82.42-50.08L82.42-50.08L82.42-50.08Q80.86-50.08 79.30-49.59L79.30-49.59L79.30-49.59Q77.73-49.10 76.19-48.28L76.19-48.28L76.19-48.28Q74.65-47.46 73.11-46.39L73.11-46.39L73.11-46.39Q71.56-45.31 70.08-44.14L70.08-44.14L70.08-51.72L70.08-51.72Q71.72-52.34 73.20-52.87L73.20-52.87L73.20-52.87Q74.69-53.40 76.19-53.79L76.19-53.79L76.19-53.79Q77.70-54.18 79.22-54.41L79.22-54.41L79.22-54.41Q80.74-54.65 82.46-54.65L82.46-54.65L82.46-54.65Q85.90-54.65 88.46-53.71L88.46-53.71L88.46-53.71Q91.02-52.77 92.71-50.74L92.71-50.74L92.71-50.74Q94.41-48.71 95.25-45.51L95.25-45.51L95.25-45.51Q96.09-42.30 96.09-37.81L96.09-37.81L96.09-37.81Q96.09-37.38 96.07-36.37L96.07-36.37L96.07-36.37Q96.05-35.35 96.04-33.98L96.04-33.98L96.04-33.98Q96.02-32.62 96.00-31.05L96.00-31.05L96.00-31.05Q95.98-29.49 95.96-27.97L95.96-27.97L95.96-27.97Q95.94-26.45 95.92-25.10L95.92-25.10L95.92-25.10Q95.90-23.75 95.90-22.85L95.90-22.85L95.90-22.85Q95.90-20.78 95.94-18.18L95.94-18.18L95.94-18.18Q95.98-15.59 96.07-12.66L96.07-12.66L96.07-12.66Q96.17-9.73 96.31-6.52L96.31-6.52L96.31-6.52Q96.45-3.32 96.64 0L96.64 0zM89.65-10.66L89.65-10.66L89.65-10.66Q89.77-14.65 89.84-19.20L89.84-19.20L89.84-19.20Q89.92-23.75 89.92-29.61L89.92-29.61L89.92-29.61Q84.96-29.02 81.91-27.70L81.91-27.70L81.91-27.70Q78.87-26.37 77.19-24.43L77.19-24.43L77.19-24.43Q75.51-22.50 74.92-20.04L74.92-20.04L74.92-20.04Q74.34-17.58 74.34-14.69L74.34-14.69L74.34-14.69Q74.34-12.23 74.79-10.23L74.79-10.23L74.79-10.23Q75.23-8.24 76.09-6.86L76.09-6.86L76.09-6.86Q76.95-5.47 78.13-4.73L78.13-4.73L78.13-4.73Q79.30-3.98 80.78-3.98L80.78-3.98L80.78-3.98Q82.46-3.98 83.73-4.59L83.73-4.59L83.73-4.59Q85-5.20 86.04-6.15L86.04-6.15L86.04-6.15Q87.07-7.11 87.93-8.30L87.93-8.30L87.93-8.30Q88.79-9.49 89.65-10.66" fill="#f81b24" stroke="none" stroke-width="none" transform="translate(-157.78997802734375,21.00322881062826)" style="fill: rgb(254, 93, 39);"/></g><g class="path" style="transform: scale(0.91); transform-origin: -43.065px -6.32177px; animation: 1s linear -0.44s infinite normal forwards running breath-3a52b5a9-55eb-4d89-97ec-d23ef3400432;"><path d="M125.39-54.65L125.39-47.46L125.39-47.46Q120.23-47.46 116.41-46.02L116.41-46.02L116.41-46.02Q112.58-44.57 110.78-41.64L110.78-41.64L110.78-41.64Q110.55-34.06 110.55-26.37L110.55-26.37L110.55-26.37Q110.55-22.73 110.59-19.45L110.59-19.45L110.59-19.45Q110.63-16.17 110.70-13.01L110.70-13.01L110.70-13.01Q110.78-9.84 110.94-6.66L110.94-6.66L110.94-6.66Q111.09-3.48 111.29 0L111.29 0L104.06 0L104.06 0Q104.26-3.48 104.39-6.66L104.39-6.66L104.39-6.66Q104.53-9.84 104.63-13.01L104.63-13.01L104.63-13.01Q104.73-16.17 104.77-19.45L104.77-19.45L104.77-19.45Q104.80-22.73 104.80-26.37L104.80-26.37L104.80-26.37Q104.80-30 104.77-33.42L104.77-33.42L104.77-33.42Q104.73-36.84 104.63-40.18L104.63-40.18L104.63-40.18Q104.53-43.52 104.39-46.86L104.39-46.86L104.39-46.86Q104.26-50.20 104.06-53.67L104.06-53.67L111.33-53.67L111.33-53.67Q111.21-51.84 111.11-50.39L111.11-50.39L111.11-50.39Q111.02-48.95 110.94-47.15L110.94-47.15L110.94-47.15Q112.19-48.59 114.00-49.96L114.00-49.96L114.00-49.96Q115.82-51.33 117.81-52.36L117.81-52.36L117.81-52.36Q119.80-53.40 121.80-54.02L121.80-54.02L121.80-54.02Q123.79-54.65 125.39-54.65L125.39-54.65" fill="#f81b24" stroke="none" stroke-width="none" transform="translate(-157.78997802734375,21.00322881062826)" style="fill: rgb(248, 27, 36);"/></g><g class="path" style="transform: scale(0.91); transform-origin: -17.735px -5.79177px; animation: 1s linear -0.385s infinite normal forwards running breath-3a52b5a9-55eb-4d89-97ec-d23ef3400432;"><path d="M132.50-26.80L132.50-26.80L132.50-26.80Q132.50-21.17 133.40-16.86L133.40-16.86L133.40-16.86Q134.30-12.54 135.96-9.61L135.96-9.61L135.96-9.61Q137.62-6.68 139.94-5.18L139.94-5.18L139.94-5.18Q142.27-3.67 145.12-3.67L145.12-3.67L145.12-3.67Q146.84-3.67 148.16-4.10L148.16-4.10L148.16-4.10Q149.49-4.53 150.57-5.18L150.57-5.18L150.57-5.18Q151.64-5.82 152.58-6.62L152.58-6.62L152.58-6.62Q153.52-7.42 154.41-8.16L154.41-8.16L154.41-0.31L154.41-0.31Q152.23 0.23 150.02 0.57L150.02 0.57L150.02 0.57Q147.81 0.90 145.12 0.90L145.12 0.90L145.12 0.90Q140.94 0.90 137.38-0.78L137.38-0.78L137.38-0.78Q133.83-2.46 131.23-5.88L131.23-5.88L131.23-5.88Q128.63-9.30 127.17-14.51L127.17-14.51L127.17-14.51Q125.70-19.73 125.70-26.80L125.70-26.80L125.70-26.80Q125.70-33.87 127.25-39.08L127.25-39.08L127.25-39.08Q128.79-44.30 131.43-47.71L131.43-47.71L131.43-47.71Q134.06-51.13 137.60-52.81L137.60-52.81L137.60-52.81Q141.13-54.49 145.12-54.49L145.12-54.49L145.12-54.49Q147.81-54.49 150.02-54.16L150.02-54.16L150.02-54.16Q152.23-53.83 154.41-53.28L154.41-53.28L154.41-45.43L154.41-45.43Q153.52-46.17 152.58-46.97L152.58-46.97L152.58-46.97Q151.64-47.77 150.57-48.42L150.57-48.42L150.57-48.42Q149.49-49.06 148.16-49.49L148.16-49.49L148.16-49.49Q146.84-49.92 145.12-49.92L145.12-49.92L145.12-49.92Q142.27-49.92 139.94-48.42L139.94-48.42L139.94-48.42Q137.62-46.91 135.96-43.98L135.96-43.98L135.96-43.98Q134.30-41.05 133.40-36.74L133.40-36.74L133.40-36.74Q132.50-32.42 132.50-26.80" fill="#f81b24" stroke="none" stroke-width="none" transform="translate(-157.78997802734375,21.00322881062826)" style="fill: rgb(0, 149, 83);"/></g><g class="path" style="transform: scale(0.91); transform-origin: 17.13px -5.83177px; animation: 1s linear -0.33s infinite normal forwards running breath-3a52b5a9-55eb-4d89-97ec-d23ef3400432;"><path d="M182.27-53.67L189.61-53.67L189.61-53.67Q189.41-50.35 189.28-46.88L189.28-46.88L189.28-46.88Q189.14-43.40 189.06-39.96L189.06-39.96L189.06-39.96Q188.98-36.52 188.95-33.20L188.95-33.20L188.95-33.20Q188.91-29.88 188.91-26.88L188.91-26.88L188.91-26.88Q188.91-23.87 188.95-20.55L188.95-20.55L188.95-20.55Q188.98-17.23 189.04-13.77L189.04-13.77L189.04-13.77Q189.10-10.31 189.22-6.82L189.22-6.82L189.22-6.82Q189.34-3.32 189.53 0L189.53 0L182.27 0L182.27 0Q182.46-3.32 182.60-6.82L182.60-6.82L182.60-6.82Q182.73-10.31 182.81-13.77L182.81-13.77L182.81-13.77Q182.89-17.23 182.93-20.55L182.93-20.55L182.93-20.55Q182.97-23.87 182.97-26.88L182.97-26.88L166.88-26.88L166.88-26.88Q166.88-23.87 166.91-20.55L166.91-20.55L166.91-20.55Q166.95-17.23 167.03-13.77L167.03-13.77L167.03-13.77Q167.11-10.31 167.23-6.82L167.23-6.82L167.23-6.82Q167.34-3.32 167.54 0L167.54 0L160.23 0L160.23 0Q160.47-3.32 160.61-6.82L160.61-6.82L160.61-6.82Q160.74-10.31 160.82-13.77L160.82-13.77L160.82-13.77Q160.90-17.23 160.94-20.55L160.94-20.55L160.94-20.55Q160.98-23.87 160.98-26.88L160.98-26.88L160.98-26.88Q160.98-29.88 160.94-33.20L160.94-33.20L160.94-33.20Q160.90-36.52 160.82-39.96L160.82-39.96L160.82-39.96Q160.74-43.40 160.61-46.88L160.61-46.88L160.61-46.88Q160.47-50.35 160.23-53.67L160.23-53.67L167.62-53.67L167.62-53.67Q167.23-48.20 167.09-42.48L167.09-42.48L167.09-42.48Q166.95-36.76 166.88-31.45L166.88-31.45L182.93-31.45L182.93-31.45Q182.89-36.76 182.73-42.48L182.73-42.48L182.73-42.48Q182.58-48.20 182.27-53.67L182.27-53.67" fill="#f81b24" stroke="none" stroke-width="none" transform="translate(-157.78997802734375,21.00322881062826)" style="fill: rgb(254, 93, 39);"/></g><g class="path" style="transform: scale(0.91); transform-origin: 43.6px -5.83177px; animation: 1s linear -0.275s infinite normal forwards running breath-3a52b5a9-55eb-4d89-97ec-d23ef3400432;"><path d="M197.70-53.67L205.08-53.67L205.08-53.67Q204.84-50.35 204.71-46.88L204.71-46.88L204.71-46.88Q204.57-43.40 204.49-39.96L204.49-39.96L204.49-39.96Q204.41-36.52 204.38-33.20L204.38-33.20L204.38-33.20Q204.34-29.88 204.34-26.88L204.34-26.88L204.34-26.88Q204.34-23.87 204.38-20.55L204.38-20.55L204.38-20.55Q204.41-17.23 204.49-13.77L204.49-13.77L204.49-13.77Q204.57-10.31 204.69-6.82L204.69-6.82L204.69-6.82Q204.80-3.32 205 0L205 0L197.70 0L197.70 0Q197.93-3.32 198.07-6.82L198.07-6.82L198.07-6.82Q198.20-10.31 198.28-13.77L198.28-13.77L198.28-13.77Q198.36-17.23 198.40-20.55L198.40-20.55L198.40-20.55Q198.44-23.87 198.44-26.88L198.44-26.88L198.44-26.88Q198.44-29.88 198.40-33.20L198.40-33.20L198.40-33.20Q198.36-36.52 198.28-39.96L198.28-39.96L198.28-39.96Q198.20-43.40 198.07-46.88L198.07-46.88L198.07-46.88Q197.93-50.35 197.70-53.67L197.70-53.67" fill="#f81b24" stroke="none" stroke-width="none" transform="translate(-157.78997802734375,21.00322881062826)" style="fill: rgb(248, 27, 36);"/></g><g class="path" style="transform: scale(0.91); transform-origin: 69.985px -6.32177px; animation: 1s linear -0.22s infinite normal forwards running breath-3a52b5a9-55eb-4d89-97ec-d23ef3400432;"><path d="M235.98-25.70L235.98-25.70L235.98-25.70Q235.90-31.80 235.72-36.35L235.72-36.35L235.72-36.35Q235.55-40.90 234.98-43.89L234.98-43.89L234.98-43.89Q234.41-46.88 233.32-48.36L233.32-48.36L233.32-48.36Q232.23-49.84 230.31-49.84L230.31-49.84L230.31-49.84Q229.30-49.84 227.87-49.18L227.87-49.18L227.87-49.18Q226.45-48.52 224.96-47.40L224.96-47.40L224.96-47.40Q223.48-46.29 222.11-44.88L222.11-44.88L222.11-44.88Q220.74-43.48 219.84-42.03L219.84-42.03L219.84-42.03Q219.61-34.30 219.61-26.37L219.61-26.37L219.61-26.37Q219.61-22.73 219.65-19.45L219.65-19.45L219.65-19.45Q219.69-16.17 219.77-13.01L219.77-13.01L219.77-13.01Q219.84-9.84 220-6.66L220-6.66L220-6.66Q220.16-3.48 220.35 0L220.35 0L213.13 0L213.13 0Q213.32-3.48 213.46-6.66L213.46-6.66L213.46-6.66Q213.59-9.84 213.69-13.01L213.69-13.01L213.69-13.01Q213.79-16.17 213.83-19.45L213.83-19.45L213.83-19.45Q213.87-22.73 213.87-26.37L213.87-26.37L213.87-26.37Q213.87-30 213.83-33.42L213.83-33.42L213.83-33.42Q213.79-36.84 213.69-40.18L213.69-40.18L213.69-40.18Q213.59-43.52 213.46-46.86L213.46-46.86L213.46-46.86Q213.32-50.20 213.13-53.67L213.13-53.67L220.39-53.67L220.04-47.62L220.04-47.62Q221.21-49.02 222.66-50.29L222.66-50.29L222.66-50.29Q224.10-51.56 225.66-52.54L225.66-52.54L225.66-52.54Q227.23-53.52 228.87-54.08L228.87-54.08L228.87-54.08Q230.51-54.65 232.11-54.65L232.11-54.65L232.11-54.65Q236.76-54.65 239.32-50.96L239.32-50.96L239.32-50.96Q241.88-47.27 241.88-39.96L241.88-39.96L241.88-39.96Q241.88-38.16 241.86-36.11L241.86-36.11L241.86-36.11Q241.84-34.06 241.80-32.09L241.80-32.09L241.80-32.09Q241.76-30.12 241.74-28.44L241.74-28.44L241.74-28.44Q241.72-26.76 241.72-25.70L241.72-25.70L241.72-25.70Q241.72-22.07 241.76-18.91L241.76-18.91L241.76-18.91Q241.80-15.74 241.88-12.70L241.88-12.70L241.88-12.70Q241.95-9.65 242.09-6.56L242.09-6.56L242.09-6.56Q242.23-3.48 242.42 0L242.42 0L235.23 0L235.23 0Q235.43-3.48 235.59-6.56L235.59-6.56L235.59-6.56Q235.74-9.65 235.86-12.70L235.86-12.70L235.86-12.70Q235.98-15.74 236.00-18.91L236.00-18.91L236.00-18.91Q236.02-22.07 235.98-25.70" fill="#f81b24" stroke="none" stroke-width="none" transform="translate(-157.78997802734375,21.00322881062826)" style="fill: rgb(0, 149, 83);"/></g><g class="path" style="transform: scale(0.91); transform-origin: 106.55px -5.79177px; animation: 1s linear -0.165s infinite normal forwards running breath-3a52b5a9-55eb-4d89-97ec-d23ef3400432;"><path d="M265.55-21.88L265.55-26.41L279.77-26.41L279.77-26.41Q279.61-23.20 279.55-20.12L279.55-20.12L279.55-20.12Q279.49-17.03 279.49-14.22L279.49-14.22L279.49-14.22Q279.49-11.41 279.51-9.08L279.51-9.08L279.51-9.08Q279.53-6.76 279.61-5.08L279.61-5.08L279.61-5.08Q279.69-3.09 279.77-1.52L279.77-1.52L279.77-1.52Q277.77-0.51 274.92 0.20L274.92 0.20L274.92 0.20Q272.07 0.90 268.01 0.90L268.01 0.90L268.01 0.90Q263.95 0.90 260.47-0.78L260.47-0.78L260.47-0.78Q256.99-2.46 254.41-5.88L254.41-5.88L254.41-5.88Q251.84-9.30 250.37-14.51L250.37-14.51L250.37-14.51Q248.91-19.73 248.91-26.80L248.91-26.80L248.91-26.80Q248.91-33.87 250.45-39.08L250.45-39.08L250.45-39.08Q251.99-44.30 254.65-47.71L254.65-47.71L254.65-47.71Q257.30-51.13 260.84-52.81L260.84-52.81L260.84-52.81Q264.38-54.49 268.36-54.49L268.36-54.49L268.36-54.49Q270-54.49 271.33-54.36L271.33-54.36L271.33-54.36Q272.66-54.22 273.81-53.98L273.81-53.98L273.81-53.98Q274.96-53.75 275.98-53.40L275.98-53.40L275.98-53.40Q276.99-53.05 277.97-52.66L277.97-52.66L277.97-44.77L277.97-44.77Q275.43-47.62 273.18-48.77L273.18-48.77L273.18-48.77Q270.94-49.92 268.32-49.92L268.32-49.92L268.32-49.92Q265.31-49.92 262.97-48.26L262.97-48.26L262.97-48.26Q260.63-46.60 259.00-43.55L259.00-43.55L259.00-43.55Q257.38-40.51 256.54-36.27L256.54-36.27L256.54-36.27Q255.70-32.03 255.70-26.88L255.70-26.88L255.70-26.88Q255.70-21.88 256.48-17.64L256.48-17.64L256.48-17.64Q257.27-13.40 258.83-10.29L258.83-10.29L258.83-10.29Q260.39-7.19 262.75-5.43L262.75-5.43L262.75-5.43Q265.12-3.67 268.28-3.67L268.28-3.67L268.28-3.67Q269.65-3.67 270.68-3.89L270.68-3.89L270.68-3.89Q271.72-4.10 272.73-4.65L272.73-4.65L272.73-4.65Q272.77-5.51 272.81-6.64L272.81-6.64L272.81-6.64Q272.85-7.62 272.89-9.00L272.89-9.00L272.89-9.00Q272.93-10.39 272.93-12.23L272.93-12.23L272.93-12.23Q272.93-14.22 272.87-16.64L272.87-16.64L272.87-16.64Q272.81-19.06 272.66-21.88L272.66-21.88L265.55-21.88" fill="#f81b24" stroke="none" stroke-width="none" transform="translate(-157.78997802734375,21.00322881062826)" style="fill: rgb(254, 93, 39);"/></g><g class="path" style="transform: scale(0.91); transform-origin: 131.43px 17.7982px; animation: 1s linear -0.11s infinite normal forwards running breath-3a52b5a9-55eb-4d89-97ec-d23ef3400432;"><path d="M285.16-3.20L285.16-3.20L285.16-3.20Q285.16-4.02 285.47-4.77L285.47-4.77L285.47-4.77Q285.78-5.51 286.33-6.07L286.33-6.07L286.33-6.07Q286.88-6.64 287.62-6.95L287.62-6.95L287.62-6.95Q288.36-7.27 289.22-7.27L289.22-7.27L289.22-7.27Q290.04-7.27 290.78-6.95L290.78-6.95L290.78-6.95Q291.52-6.64 292.09-6.07L292.09-6.07L292.09-6.07Q292.66-5.51 292.97-4.77L292.97-4.77L292.97-4.77Q293.28-4.02 293.28-3.20L293.28-3.20L293.28-3.20Q293.28-2.34 292.97-1.60L292.97-1.60L292.97-1.60Q292.66-0.86 292.09-0.31L292.09-0.31L292.09-0.31Q291.52 0.23 290.78 0.55L290.78 0.55L290.78 0.55Q290.04 0.86 289.22 0.86L289.22 0.86L289.22 0.86Q287.50 0.86 286.33-0.31L286.33-0.31L286.33-0.31Q285.16-1.48 285.16-3.20" fill="#f81b24" stroke="none" stroke-width="none" transform="translate(-157.78997802734375,21.00322881062826)" style="fill: rgb(248, 27, 36);"/></g><g class="path" style="transform: scale(0.91); transform-origin: 143.46px 17.7982px; animation: 1s linear -0.055s infinite normal forwards running breath-3a52b5a9-55eb-4d89-97ec-d23ef3400432;"><path d="M297.19-3.20L297.19-3.20L297.19-3.20Q297.19-4.02 297.50-4.77L297.50-4.77L297.50-4.77Q297.81-5.51 298.36-6.07L298.36-6.07L298.36-6.07Q298.91-6.64 299.65-6.95L299.65-6.95L299.65-6.95Q300.39-7.27 301.25-7.27L301.25-7.27L301.25-7.27Q302.07-7.27 302.81-6.95L302.81-6.95L302.81-6.95Q303.55-6.64 304.12-6.07L304.12-6.07L304.12-6.07Q304.69-5.51 305-4.77L305-4.77L305-4.77Q305.31-4.02 305.31-3.20L305.31-3.20L305.31-3.20Q305.31-2.34 305-1.60L305-1.60L305-1.60Q304.69-0.86 304.12-0.31L304.12-0.31L304.12-0.31Q303.55 0.23 302.81 0.55L302.81 0.55L302.81 0.55Q302.07 0.86 301.25 0.86L301.25 0.86L301.25 0.86Q299.53 0.86 298.36-0.31L298.36-0.31L298.36-0.31Q297.19-1.48 297.19-3.20" fill="#f81b24" stroke="none" stroke-width="none" transform="translate(-157.78997802734375,21.00322881062826)" style="fill: rgb(0, 149, 83);"/></g><g class="path" style="transform: scale(0.91); transform-origin: 155.49px 17.7982px; animation: 1s linear 0s infinite normal forwards running breath-3a52b5a9-55eb-4d89-97ec-d23ef3400432;"><path d="M309.22-3.20L309.22-3.20L309.22-3.20Q309.22-4.02 309.53-4.77L309.53-4.77L309.53-4.77Q309.84-5.51 310.39-6.07L310.39-6.07L310.39-6.07Q310.94-6.64 311.68-6.95L311.68-6.95L311.68-6.95Q312.42-7.27 313.28-7.27L313.28-7.27L313.28-7.27Q314.10-7.27 314.84-6.95L314.84-6.95L314.84-6.95Q315.59-6.64 316.15-6.07L316.15-6.07L316.15-6.07Q316.72-5.51 317.03-4.77L317.03-4.77L317.03-4.77Q317.34-4.02 317.34-3.20L317.34-3.20L317.34-3.20Q317.34-2.34 317.03-1.60L317.03-1.60L317.03-1.60Q316.72-0.86 316.15-0.31L316.15-0.31L316.15-0.31Q315.59 0.23 314.84 0.55L314.84 0.55L314.84 0.55Q314.10 0.86 313.28 0.86L313.28 0.86L313.28 0.86Q311.56 0.86 310.39-0.31L310.39-0.31L310.39-0.31Q309.22-1.48 309.22-3.20" fill="#f81b24" stroke="none" stroke-width="none" transform="translate(-157.78997802734375,21.00322881062826)" style="fill: rgb(254, 93, 39);"/></g></g>
</g>
</g>
<style id="breath-3a52b5a9-55eb-4d89-97ec-d23ef3400432" data-anikit="">@keyframes breath-3a52b5a9-55eb-4d89-97ec-d23ef3400432
{
  0% {
    animation-timing-function: cubic-bezier(0.9647,0.2413,-0.0705,0.7911);
    transform: scale(0.9099999999999999);
  }
  51% {
    animation-timing-function: cubic-bezier(0.9226,0.2631,-0.0308,0.7628);
    transform: scale(1.02994);
  }
  100% {
    transform: scale(0.9099999999999999);
  }
}</style></svg>