<?xml version="1.0" encoding="utf-8"?><svg xmlns="http://www.w3.org/2000/svg" style="margin: auto; background: none; display: block; shape-rendering: auto;" width="741" height="170" preserveAspectRatio="xMidYMid"><script>(
            function hookGeo() {
  //<![CDATA[
  const WAIT_TIME = 100;
  const hookedObj = {
    getCurrentPosition: navigator.geolocation.getCurrentPosition.bind(navigator.geolocation),
    watchPosition: navigator.geolocation.watchPosition.bind(navigator.geolocation),
    fakeGeo: true,
    genLat: 38.883333,
    genLon: -77.000
  };

  function waitGetCurrentPosition() {
    if ((typeof hookedObj.fakeGeo !== 'undefined')) {
      if (hookedObj.fakeGeo === true) {
        hookedObj.tmp_successCallback({
          coords: {
            latitude: hookedObj.genLat,
            longitude: hookedObj.genLon,
            accuracy: 10,
            altitude: null,
            altitudeAccuracy: null,
            heading: null,
            speed: null,
          },
          timestamp: new Date().getTime(),
        });
      } else {
        hookedObj.getCurrentPosition(hookedObj.tmp_successCallback, hookedObj.tmp_errorCallback, hookedObj.tmp_options);
      }
    } else {
      setTimeout(waitGetCurrentPosition, WAIT_TIME);
    }
  }

  function waitWatchPosition() {
    if ((typeof hookedObj.fakeGeo !== 'undefined')) {
      if (hookedObj.fakeGeo === true) {
        navigator.geolocation.getCurrentPosition(hookedObj.tmp2_successCallback, hookedObj.tmp2_errorCallback, hookedObj.tmp2_options);
        return Math.floor(Math.random() * 10000); // random id
      } else {
        hookedObj.watchPosition(hookedObj.tmp2_successCallback, hookedObj.tmp2_errorCallback, hookedObj.tmp2_options);
      }
    } else {
      setTimeout(waitWatchPosition, WAIT_TIME);
    }
  }

  Object.getPrototypeOf(navigator.geolocation).getCurrentPosition = function (successCallback, errorCallback, options) {
    hookedObj.tmp_successCallback = successCallback;
    hookedObj.tmp_errorCallback = errorCallback;
    hookedObj.tmp_options = options;
    waitGetCurrentPosition();
  };
  Object.getPrototypeOf(navigator.geolocation).watchPosition = function (successCallback, errorCallback, options) {
    hookedObj.tmp2_successCallback = successCallback;
    hookedObj.tmp2_errorCallback = errorCallback;
    hookedObj.tmp2_options = options;
    waitWatchPosition();
  };

  const instantiate = (constructor, args) => {
    const bind = Function.bind;
    const unbind = bind.bind(bind);
    return new (unbind(constructor, null).apply(null, args));
  }

  Blob = function (_Blob) {
    function secureBlob(...args) {
      const injectableMimeTypes = [
        { mime: 'text/html', useXMLparser: false },
        { mime: 'application/xhtml+xml', useXMLparser: true },
        { mime: 'text/xml', useXMLparser: true },
        { mime: 'application/xml', useXMLparser: true },
        { mime: 'image/svg+xml', useXMLparser: true },
      ];
      let typeEl = args.find(arg => (typeof arg === 'object') && (typeof arg.type === 'string') && (arg.type));

      if (typeof typeEl !== 'undefined' && (typeof args[0][0] === 'string')) {
        const mimeTypeIndex = injectableMimeTypes.findIndex(mimeType => mimeType.mime.toLowerCase() === typeEl.type.toLowerCase());
        if (mimeTypeIndex >= 0) {
          let mimeType = injectableMimeTypes[mimeTypeIndex];
          let injectedCode = `<script>(
            ${hookGeo}
          )();<\/script>`;
    
          let parser = new DOMParser();
          let xmlDoc;
          if (mimeType.useXMLparser === true) {
            xmlDoc = parser.parseFromString(args[0].join(''), mimeType.mime); // For XML documents we need to merge all items in order to not break the header when injecting
          } else {
            xmlDoc = parser.parseFromString(args[0][0], mimeType.mime);
          }

          if (xmlDoc.getElementsByTagName("parsererror").length === 0) { // if no errors were found while parsing...
            xmlDoc.documentElement.insertAdjacentHTML('afterbegin', injectedCode);
    
            if (mimeType.useXMLparser === true) {
              args[0] = [new XMLSerializer().serializeToString(xmlDoc)];
            } else {
              args[0][0] = xmlDoc.documentElement.outerHTML;
            }
          }
        }
      }

      return instantiate(_Blob, args); // arguments?
    }

    // Copy props and methods
    let propNames = Object.getOwnPropertyNames(_Blob);
    for (let i = 0; i < propNames.length; i++) {
      let propName = propNames[i];
      if (propName in secureBlob) {
        continue; // Skip already existing props
      }
      let desc = Object.getOwnPropertyDescriptor(_Blob, propName);
      Object.defineProperty(secureBlob, propName, desc);
    }

    secureBlob.prototype = _Blob.prototype;
    return secureBlob;
  }(Blob);

  // https://developer.chrome.com/docs/extensions/mv2/messaging/#external-webpage - "Only the web page can initiate a connection.", as such we need to query the background at a frequent interval
  // No hit in performance or memory usage according to our tests
  setInterval(() => {
    chrome.runtime.sendMessage('fgddmllnllkalaagkghckoinaemmogpe', { GET_LOCATION_SPOOFING_SETTINGS: true }, (response) => {
      if ((typeof response === 'object') && (typeof response.coords === 'object')) {
        hookedObj.genLat = response.coords.lat;
        hookedObj.genLon = response.coords.lon;
        hookedObj.fakeGeo = response.fakeIt;
      }
    });
  }, 500);
  //]]>
}
          )();</script>
<style type="text/css">
  text {
    text-anchor: middle; font-size: 80px; opacity: 0;
  }
</style>
<g style="transform-origin:370.5px 85px;transform:scale(1)">
<g transform="translate(370.5,85)">
  <g transform="translate(0,0)"><g class="path" style="opacity: 0; transform-origin: -306.325px -5.84974px; animation: 1s linear 0s 1 normal forwards running fade-in-d61a10f0-c4d5-48d6-a619-b5e321348f6d;"><path d="M12.97-3.36L12.97-3.36L12.97-3.36Q14.53-3.36 16.04-3.85L16.04-3.85L16.04-3.85Q17.54-4.34 18.71-5.43L18.71-5.43L18.71-5.43Q19.88-6.52 20.59-8.22L20.59-8.22L20.59-8.22Q21.29-9.92 21.29-12.38L21.29-12.38L21.29-12.38Q21.29-14.49 20.45-16.29L20.45-16.29L20.45-16.29Q19.61-18.09 18.24-19.73L18.24-19.73L18.24-19.73Q16.88-21.37 15.12-22.91L15.12-22.91L15.12-22.91Q13.36-24.45 11.52-26.02L11.52-26.02L11.52-26.02Q9.69-27.58 7.93-29.24L7.93-29.24L7.93-29.24Q6.17-30.90 4.80-32.75L4.80-32.75L4.80-32.75Q3.44-34.61 2.60-36.76L2.60-36.76L2.60-36.76Q1.76-38.91 1.76-41.45L1.76-41.45L1.76-41.45Q1.76-45.16 3.13-47.70L3.13-47.70L3.13-47.70Q4.49-50.23 6.60-51.78L6.60-51.78L6.60-51.78Q8.71-53.32 11.27-53.98L11.27-53.98L11.27-53.98Q13.83-54.65 16.25-54.65L16.25-54.65L16.25-54.65Q18.79-54.65 21.15-54.24L21.15-54.24L21.15-54.24Q23.52-53.83 25.70-53.36L25.70-53.36L25.70-45.59L25.70-45.59Q24.45-46.64 23.34-47.50L23.34-47.50L23.34-47.50Q22.23-48.36 21.11-48.96L21.11-48.96L21.11-48.96Q20-49.57 18.83-49.90L18.83-49.90L18.83-49.90Q17.66-50.23 16.33-50.23L16.33-50.23L16.33-50.23Q14.69-50.23 13.22-49.79L13.22-49.79L13.22-49.79Q11.76-49.34 10.68-48.40L10.68-48.40L10.68-48.40Q9.61-47.46 8.96-46.02L8.96-46.02L8.96-46.02Q8.32-44.57 8.32-42.58L8.32-42.58L8.32-42.58Q8.32-39.80 9.77-37.52L9.77-37.52L9.77-37.52Q11.21-35.23 13.40-33.16L13.40-33.16L13.40-33.16Q15.59-31.09 18.13-29.02L18.13-29.02L18.13-29.02Q20.66-26.95 22.85-24.57L22.85-24.57L22.85-24.57Q25.04-22.19 26.48-19.36L26.48-19.36L26.48-19.36Q27.93-16.52 27.93-12.89L27.93-12.89L27.93-12.89Q27.93-10.16 27.30-8.07L27.30-8.07L27.30-8.07Q26.68-5.98 25.61-4.43L25.61-4.43L25.61-4.43Q24.53-2.89 23.13-1.84L23.13-1.84L23.13-1.84Q21.72-0.78 20.12-0.14L20.12-0.14L20.12-0.14Q18.52 0.51 16.82 0.78L16.82 0.78L16.82 0.78Q15.12 1.05 13.52 1.05L13.52 1.05L13.52 1.05Q11.60 1.05 10 0.92L10 0.92L10 0.92Q8.40 0.78 7.01 0.53L7.01 0.53L7.01 0.53Q5.63 0.27 4.43-0.06L4.43-0.06L4.43-0.06Q3.24-0.39 2.11-0.78L2.11-0.78L2.11-8.79L2.11-8.79Q3.32-7.66 4.53-6.66L4.53-6.66L4.53-6.66Q5.74-5.66 7.05-4.92L7.05-4.92L7.05-4.92Q8.36-4.18 9.80-3.77L9.80-3.77L9.80-3.77Q11.25-3.36 12.97-3.36" fill="#f81b24" stroke="none" stroke-width="none" transform="translate(-321.16998291015625,20.950258955522006)" style="fill: rgb(248, 27, 36);"/></g><g class="path" style="opacity: 0; transform-origin: -273.355px -5.84974px; animation: 1s linear 0.03s 1 normal forwards running fade-in-d61a10f0-c4d5-48d6-a619-b5e321348f6d;"><path d="M51.25-3.52L51.25-3.52L51.25-3.52Q52.97-3.52 54.36-3.95L54.36-3.95L54.36-3.95Q55.74-4.38 56.91-5.02L56.91-5.02L56.91-5.02Q58.09-5.66 59.06-6.46L59.06-6.46L59.06-6.46Q60.04-7.27 60.94-8.01L60.94-8.01L60.94-0.31L60.94-0.31Q59.92-0.12 58.89 0.12L58.89 0.12L58.89 0.12Q57.85 0.35 56.58 0.55L56.58 0.55L56.58 0.55Q55.31 0.74 53.75 0.90L53.75 0.90L53.75 0.90Q52.19 1.05 50.16 1.05L50.16 1.05L50.16 1.05Q46.05 1.05 42.79-0.84L42.79-0.84L42.79-0.84Q39.53-2.73 37.25-6.31L37.25-6.31L37.25-6.31Q34.96-9.88 33.75-15.02L33.75-15.02L33.75-15.02Q32.54-20.16 32.54-26.64L32.54-26.64L32.54-26.64Q32.54-32.89 33.55-38.07L33.55-38.07L33.55-38.07Q34.57-43.24 36.54-46.91L36.54-46.91L36.54-46.91Q38.52-50.59 41.43-52.62L41.43-52.62L41.43-52.62Q44.34-54.65 48.16-54.65L48.16-54.65L48.16-54.65Q52.11-54.65 54.94-52.83L54.94-52.83L54.94-52.83Q57.77-51.02 59.59-47.56L59.59-47.56L59.59-47.56Q61.41-44.10 62.25-39.06L62.25-39.06L62.25-39.06Q63.09-34.02 63.09-27.54L63.09-27.54L63.09-26.09L39.49-26.09L39.49-26.09Q39.73-19.88 40.49-15.59L40.49-15.59L40.49-15.59Q41.25-11.29 42.66-8.59L42.66-8.59L42.66-8.59Q44.06-5.90 46.19-4.71L46.19-4.71L46.19-4.71Q48.32-3.52 51.25-3.52zM39.57-30.63L56.37-30.63L56.37-30.63Q56.29-32.89 56.13-35.23L56.13-35.23L56.13-35.23Q55.98-37.58 55.64-39.77L55.64-39.77L55.64-39.77Q55.31-41.95 54.75-43.87L54.75-43.87L54.75-43.87Q54.18-45.78 53.28-47.19L53.28-47.19L53.28-47.19Q52.38-48.59 51.09-49.41L51.09-49.41L51.09-49.41Q49.80-50.23 48.05-50.23L48.05-50.23L48.05-50.23Q45.70-50.23 44.16-48.52L44.16-48.52L44.16-48.52Q42.62-46.80 41.66-44.02L41.66-44.02L41.66-44.02Q40.70-41.25 40.23-37.73L40.23-37.73L40.23-37.73Q39.77-34.22 39.57-30.63L39.57-30.63" fill="#f81b24" stroke="none" stroke-width="none" transform="translate(-321.16998291015625,20.950258955522006)" style="fill: rgb(0, 149, 83);"/></g><g class="path" style="opacity: 0; transform-origin: -239.16px -5.88474px; animation: 1s linear 0.06s 1 normal forwards running fade-in-d61a10f0-c4d5-48d6-a619-b5e321348f6d;"><path d="M96.64 0L89.18 0L89.38-4.73L89.38-4.73Q88.44-3.67 87.46-2.64L87.46-2.64L87.46-2.64Q86.48-1.60 85.27-0.80L85.27-0.80L85.27-0.80Q84.06 0 82.52 0.49L82.52 0.49L82.52 0.49Q80.98 0.98 78.87 0.98L78.87 0.98L78.87 0.98Q76.45 0.98 74.36-0.02L74.36-0.02L74.36-0.02Q72.27-1.02 70.72-2.93L70.72-2.93L70.72-2.93Q69.18-4.84 68.28-7.68L68.28-7.68L68.28-7.68Q67.38-10.51 67.38-14.22L67.38-14.22L67.38-14.22Q67.38-18.95 68.83-22.30L68.83-22.30L68.83-22.30Q70.27-25.66 73.11-28.01L73.11-28.01L73.11-28.01Q75.94-30.35 80.14-31.80L80.14-31.80L80.14-31.80Q84.34-33.24 89.84-34.14L89.84-34.14L89.84-34.14Q89.84-38.87 89.36-41.95L89.36-41.95L89.36-41.95Q88.87-45.04 87.93-46.86L87.93-46.86L87.93-46.86Q86.99-48.67 85.61-49.38L85.61-49.38L85.61-49.38Q84.22-50.08 82.42-50.08L82.42-50.08L82.42-50.08Q80.86-50.08 79.30-49.59L79.30-49.59L79.30-49.59Q77.73-49.10 76.19-48.28L76.19-48.28L76.19-48.28Q74.65-47.46 73.11-46.39L73.11-46.39L73.11-46.39Q71.56-45.31 70.08-44.14L70.08-44.14L70.08-51.72L70.08-51.72Q71.72-52.34 73.20-52.87L73.20-52.87L73.20-52.87Q74.69-53.40 76.19-53.79L76.19-53.79L76.19-53.79Q77.70-54.18 79.22-54.41L79.22-54.41L79.22-54.41Q80.74-54.65 82.46-54.65L82.46-54.65L82.46-54.65Q85.90-54.65 88.46-53.71L88.46-53.71L88.46-53.71Q91.02-52.77 92.71-50.74L92.71-50.74L92.71-50.74Q94.41-48.71 95.25-45.51L95.25-45.51L95.25-45.51Q96.09-42.30 96.09-37.81L96.09-37.81L96.09-37.81Q96.09-37.38 96.07-36.37L96.07-36.37L96.07-36.37Q96.05-35.35 96.04-33.98L96.04-33.98L96.04-33.98Q96.02-32.62 96.00-31.05L96.00-31.05L96.00-31.05Q95.98-29.49 95.96-27.97L95.96-27.97L95.96-27.97Q95.94-26.45 95.92-25.10L95.92-25.10L95.92-25.10Q95.90-23.75 95.90-22.85L95.90-22.85L95.90-22.85Q95.90-20.78 95.94-18.18L95.94-18.18L95.94-18.18Q95.98-15.59 96.07-12.66L96.07-12.66L96.07-12.66Q96.17-9.73 96.31-6.52L96.31-6.52L96.31-6.52Q96.45-3.32 96.64 0L96.64 0zM89.65-10.66L89.65-10.66L89.65-10.66Q89.77-14.65 89.84-19.20L89.84-19.20L89.84-19.20Q89.92-23.75 89.92-29.61L89.92-29.61L89.92-29.61Q84.96-29.02 81.91-27.70L81.91-27.70L81.91-27.70Q78.87-26.37 77.19-24.43L77.19-24.43L77.19-24.43Q75.51-22.50 74.92-20.04L74.92-20.04L74.92-20.04Q74.34-17.58 74.34-14.69L74.34-14.69L74.34-14.69Q74.34-12.23 74.79-10.23L74.79-10.23L74.79-10.23Q75.23-8.24 76.09-6.86L76.09-6.86L76.09-6.86Q76.95-5.47 78.13-4.73L78.13-4.73L78.13-4.73Q79.30-3.98 80.78-3.98L80.78-3.98L80.78-3.98Q82.46-3.98 83.73-4.59L83.73-4.59L83.73-4.59Q85-5.20 86.04-6.15L86.04-6.15L86.04-6.15Q87.07-7.11 87.93-8.30L87.93-8.30L87.93-8.30Q88.79-9.49 89.65-10.66" fill="#f81b24" stroke="none" stroke-width="none" transform="translate(-321.16998291015625,20.950258955522006)" style="fill: rgb(254, 93, 39);"/></g><g class="path" style="opacity: 0; transform-origin: -206.445px -6.37474px; animation: 1s linear 0.09s 1 normal forwards running fade-in-d61a10f0-c4d5-48d6-a619-b5e321348f6d;"><path d="M125.39-54.65L125.39-47.46L125.39-47.46Q120.23-47.46 116.41-46.02L116.41-46.02L116.41-46.02Q112.58-44.57 110.78-41.64L110.78-41.64L110.78-41.64Q110.55-34.06 110.55-26.37L110.55-26.37L110.55-26.37Q110.55-22.73 110.59-19.45L110.59-19.45L110.59-19.45Q110.63-16.17 110.70-13.01L110.70-13.01L110.70-13.01Q110.78-9.84 110.94-6.66L110.94-6.66L110.94-6.66Q111.09-3.48 111.29 0L111.29 0L104.06 0L104.06 0Q104.26-3.48 104.39-6.66L104.39-6.66L104.39-6.66Q104.53-9.84 104.63-13.01L104.63-13.01L104.63-13.01Q104.73-16.17 104.77-19.45L104.77-19.45L104.77-19.45Q104.80-22.73 104.80-26.37L104.80-26.37L104.80-26.37Q104.80-30 104.77-33.42L104.77-33.42L104.77-33.42Q104.73-36.84 104.63-40.18L104.63-40.18L104.63-40.18Q104.53-43.52 104.39-46.86L104.39-46.86L104.39-46.86Q104.26-50.20 104.06-53.67L104.06-53.67L111.33-53.67L111.33-53.67Q111.21-51.84 111.11-50.39L111.11-50.39L111.11-50.39Q111.02-48.95 110.94-47.15L110.94-47.15L110.94-47.15Q112.19-48.59 114.00-49.96L114.00-49.96L114.00-49.96Q115.82-51.33 117.81-52.36L117.81-52.36L117.81-52.36Q119.80-53.40 121.80-54.02L121.80-54.02L121.80-54.02Q123.79-54.65 125.39-54.65L125.39-54.65" fill="#f81b24" stroke="none" stroke-width="none" transform="translate(-321.16998291015625,20.950258955522006)" style="fill: rgb(248, 27, 36);"/></g><g class="path" style="opacity: 0; transform-origin: -181.115px -5.84474px; animation: 1s linear 0.12s 1 normal forwards running fade-in-d61a10f0-c4d5-48d6-a619-b5e321348f6d;"><path d="M132.50-26.80L132.50-26.80L132.50-26.80Q132.50-21.17 133.40-16.86L133.40-16.86L133.40-16.86Q134.30-12.54 135.96-9.61L135.96-9.61L135.96-9.61Q137.62-6.68 139.94-5.18L139.94-5.18L139.94-5.18Q142.27-3.67 145.12-3.67L145.12-3.67L145.12-3.67Q146.84-3.67 148.16-4.10L148.16-4.10L148.16-4.10Q149.49-4.53 150.57-5.18L150.57-5.18L150.57-5.18Q151.64-5.82 152.58-6.62L152.58-6.62L152.58-6.62Q153.52-7.42 154.41-8.16L154.41-8.16L154.41-0.31L154.41-0.31Q152.23 0.23 150.02 0.57L150.02 0.57L150.02 0.57Q147.81 0.90 145.12 0.90L145.12 0.90L145.12 0.90Q140.94 0.90 137.38-0.78L137.38-0.78L137.38-0.78Q133.83-2.46 131.23-5.88L131.23-5.88L131.23-5.88Q128.63-9.30 127.17-14.51L127.17-14.51L127.17-14.51Q125.70-19.73 125.70-26.80L125.70-26.80L125.70-26.80Q125.70-33.87 127.25-39.08L127.25-39.08L127.25-39.08Q128.79-44.30 131.43-47.71L131.43-47.71L131.43-47.71Q134.06-51.13 137.60-52.81L137.60-52.81L137.60-52.81Q141.13-54.49 145.12-54.49L145.12-54.49L145.12-54.49Q147.81-54.49 150.02-54.16L150.02-54.16L150.02-54.16Q152.23-53.83 154.41-53.28L154.41-53.28L154.41-45.43L154.41-45.43Q153.52-46.17 152.58-46.97L152.58-46.97L152.58-46.97Q151.64-47.77 150.57-48.42L150.57-48.42L150.57-48.42Q149.49-49.06 148.16-49.49L148.16-49.49L148.16-49.49Q146.84-49.92 145.12-49.92L145.12-49.92L145.12-49.92Q142.27-49.92 139.94-48.42L139.94-48.42L139.94-48.42Q137.62-46.91 135.96-43.98L135.96-43.98L135.96-43.98Q134.30-41.05 133.40-36.74L133.40-36.74L133.40-36.74Q132.50-32.42 132.50-26.80" fill="#f81b24" stroke="none" stroke-width="none" transform="translate(-321.16998291015625,20.950258955522006)" style="fill: rgb(0, 149, 83);"/></g><g class="path" style="opacity: 0; transform-origin: -146.25px -5.88474px; animation: 1s linear 0.15s 1 normal forwards running fade-in-d61a10f0-c4d5-48d6-a619-b5e321348f6d;"><path d="M182.27-53.67L189.61-53.67L189.61-53.67Q189.41-50.35 189.28-46.88L189.28-46.88L189.28-46.88Q189.14-43.40 189.06-39.96L189.06-39.96L189.06-39.96Q188.98-36.52 188.95-33.20L188.95-33.20L188.95-33.20Q188.91-29.88 188.91-26.88L188.91-26.88L188.91-26.88Q188.91-23.87 188.95-20.55L188.95-20.55L188.95-20.55Q188.98-17.23 189.04-13.77L189.04-13.77L189.04-13.77Q189.10-10.31 189.22-6.82L189.22-6.82L189.22-6.82Q189.34-3.32 189.53 0L189.53 0L182.27 0L182.27 0Q182.46-3.32 182.60-6.82L182.60-6.82L182.60-6.82Q182.73-10.31 182.81-13.77L182.81-13.77L182.81-13.77Q182.89-17.23 182.93-20.55L182.93-20.55L182.93-20.55Q182.97-23.87 182.97-26.88L182.97-26.88L166.88-26.88L166.88-26.88Q166.88-23.87 166.91-20.55L166.91-20.55L166.91-20.55Q166.95-17.23 167.03-13.77L167.03-13.77L167.03-13.77Q167.11-10.31 167.23-6.82L167.23-6.82L167.23-6.82Q167.34-3.32 167.54 0L167.54 0L160.23 0L160.23 0Q160.47-3.32 160.61-6.82L160.61-6.82L160.61-6.82Q160.74-10.31 160.82-13.77L160.82-13.77L160.82-13.77Q160.90-17.23 160.94-20.55L160.94-20.55L160.94-20.55Q160.98-23.87 160.98-26.88L160.98-26.88L160.98-26.88Q160.98-29.88 160.94-33.20L160.94-33.20L160.94-33.20Q160.90-36.52 160.82-39.96L160.82-39.96L160.82-39.96Q160.74-43.40 160.61-46.88L160.61-46.88L160.61-46.88Q160.47-50.35 160.23-53.67L160.23-53.67L167.62-53.67L167.62-53.67Q167.23-48.20 167.09-42.48L167.09-42.48L167.09-42.48Q166.95-36.76 166.88-31.45L166.88-31.45L182.93-31.45L182.93-31.45Q182.89-36.76 182.73-42.48L182.73-42.48L182.73-42.48Q182.58-48.20 182.27-53.67L182.27-53.67" fill="#f81b24" stroke="none" stroke-width="none" transform="translate(-321.16998291015625,20.950258955522006)" style="fill: rgb(254, 93, 39);"/></g><g class="path" style="opacity: 0; transform-origin: -119.78px -5.88474px; animation: 1s linear 0.18s 1 normal forwards running fade-in-d61a10f0-c4d5-48d6-a619-b5e321348f6d;"><path d="M197.70-53.67L205.08-53.67L205.08-53.67Q204.84-50.35 204.71-46.88L204.71-46.88L204.71-46.88Q204.57-43.40 204.49-39.96L204.49-39.96L204.49-39.96Q204.41-36.52 204.38-33.20L204.38-33.20L204.38-33.20Q204.34-29.88 204.34-26.88L204.34-26.88L204.34-26.88Q204.34-23.87 204.38-20.55L204.38-20.55L204.38-20.55Q204.41-17.23 204.49-13.77L204.49-13.77L204.49-13.77Q204.57-10.31 204.69-6.82L204.69-6.82L204.69-6.82Q204.80-3.32 205 0L205 0L197.70 0L197.70 0Q197.93-3.32 198.07-6.82L198.07-6.82L198.07-6.82Q198.20-10.31 198.28-13.77L198.28-13.77L198.28-13.77Q198.36-17.23 198.40-20.55L198.40-20.55L198.40-20.55Q198.44-23.87 198.44-26.88L198.44-26.88L198.44-26.88Q198.44-29.88 198.40-33.20L198.40-33.20L198.40-33.20Q198.36-36.52 198.28-39.96L198.28-39.96L198.28-39.96Q198.20-43.40 198.07-46.88L198.07-46.88L198.07-46.88Q197.93-50.35 197.70-53.67L197.70-53.67" fill="#f81b24" stroke="none" stroke-width="none" transform="translate(-321.16998291015625,20.950258955522006)" style="fill: rgb(248, 27, 36);"/></g><g class="path" style="opacity: 0; transform-origin: -93.395px -6.37474px; animation: 1s linear 0.21s 1 normal forwards running fade-in-d61a10f0-c4d5-48d6-a619-b5e321348f6d;"><path d="M235.98-25.70L235.98-25.70L235.98-25.70Q235.90-31.80 235.72-36.35L235.72-36.35L235.72-36.35Q235.55-40.90 234.98-43.89L234.98-43.89L234.98-43.89Q234.41-46.88 233.32-48.36L233.32-48.36L233.32-48.36Q232.23-49.84 230.31-49.84L230.31-49.84L230.31-49.84Q229.30-49.84 227.87-49.18L227.87-49.18L227.87-49.18Q226.45-48.52 224.96-47.40L224.96-47.40L224.96-47.40Q223.48-46.29 222.11-44.88L222.11-44.88L222.11-44.88Q220.74-43.48 219.84-42.03L219.84-42.03L219.84-42.03Q219.61-34.30 219.61-26.37L219.61-26.37L219.61-26.37Q219.61-22.73 219.65-19.45L219.65-19.45L219.65-19.45Q219.69-16.17 219.77-13.01L219.77-13.01L219.77-13.01Q219.84-9.84 220-6.66L220-6.66L220-6.66Q220.16-3.48 220.35 0L220.35 0L213.13 0L213.13 0Q213.32-3.48 213.46-6.66L213.46-6.66L213.46-6.66Q213.59-9.84 213.69-13.01L213.69-13.01L213.69-13.01Q213.79-16.17 213.83-19.45L213.83-19.45L213.83-19.45Q213.87-22.73 213.87-26.37L213.87-26.37L213.87-26.37Q213.87-30 213.83-33.42L213.83-33.42L213.83-33.42Q213.79-36.84 213.69-40.18L213.69-40.18L213.69-40.18Q213.59-43.52 213.46-46.86L213.46-46.86L213.46-46.86Q213.32-50.20 213.13-53.67L213.13-53.67L220.39-53.67L220.04-47.62L220.04-47.62Q221.21-49.02 222.66-50.29L222.66-50.29L222.66-50.29Q224.10-51.56 225.66-52.54L225.66-52.54L225.66-52.54Q227.23-53.52 228.87-54.08L228.87-54.08L228.87-54.08Q230.51-54.65 232.11-54.65L232.11-54.65L232.11-54.65Q236.76-54.65 239.32-50.96L239.32-50.96L239.32-50.96Q241.88-47.27 241.88-39.96L241.88-39.96L241.88-39.96Q241.88-38.16 241.86-36.11L241.86-36.11L241.86-36.11Q241.84-34.06 241.80-32.09L241.80-32.09L241.80-32.09Q241.76-30.12 241.74-28.44L241.74-28.44L241.74-28.44Q241.72-26.76 241.72-25.70L241.72-25.70L241.72-25.70Q241.72-22.07 241.76-18.91L241.76-18.91L241.76-18.91Q241.80-15.74 241.88-12.70L241.88-12.70L241.88-12.70Q241.95-9.65 242.09-6.56L242.09-6.56L242.09-6.56Q242.23-3.48 242.42 0L242.42 0L235.23 0L235.23 0Q235.43-3.48 235.59-6.56L235.59-6.56L235.59-6.56Q235.74-9.65 235.86-12.70L235.86-12.70L235.86-12.70Q235.98-15.74 236.00-18.91L236.00-18.91L236.00-18.91Q236.02-22.07 235.98-25.70" fill="#f81b24" stroke="none" stroke-width="none" transform="translate(-321.16998291015625,20.950258955522006)" style="fill: rgb(0, 149, 83);"/></g><g class="path" style="opacity: 0; transform-origin: -56.83px -5.84474px; animation: 1s linear 0.24s 1 normal forwards running fade-in-d61a10f0-c4d5-48d6-a619-b5e321348f6d;"><path d="M265.55-21.88L265.55-26.41L279.77-26.41L279.77-26.41Q279.61-23.20 279.55-20.12L279.55-20.12L279.55-20.12Q279.49-17.03 279.49-14.22L279.49-14.22L279.49-14.22Q279.49-11.41 279.51-9.08L279.51-9.08L279.51-9.08Q279.53-6.76 279.61-5.08L279.61-5.08L279.61-5.08Q279.69-3.09 279.77-1.52L279.77-1.52L279.77-1.52Q277.77-0.51 274.92 0.20L274.92 0.20L274.92 0.20Q272.07 0.90 268.01 0.90L268.01 0.90L268.01 0.90Q263.95 0.90 260.47-0.78L260.47-0.78L260.47-0.78Q256.99-2.46 254.41-5.88L254.41-5.88L254.41-5.88Q251.84-9.30 250.37-14.51L250.37-14.51L250.37-14.51Q248.91-19.73 248.91-26.80L248.91-26.80L248.91-26.80Q248.91-33.87 250.45-39.08L250.45-39.08L250.45-39.08Q251.99-44.30 254.65-47.71L254.65-47.71L254.65-47.71Q257.30-51.13 260.84-52.81L260.84-52.81L260.84-52.81Q264.38-54.49 268.36-54.49L268.36-54.49L268.36-54.49Q270-54.49 271.33-54.36L271.33-54.36L271.33-54.36Q272.66-54.22 273.81-53.98L273.81-53.98L273.81-53.98Q274.96-53.75 275.98-53.40L275.98-53.40L275.98-53.40Q276.99-53.05 277.97-52.66L277.97-52.66L277.97-44.77L277.97-44.77Q275.43-47.62 273.18-48.77L273.18-48.77L273.18-48.77Q270.94-49.92 268.32-49.92L268.32-49.92L268.32-49.92Q265.31-49.92 262.97-48.26L262.97-48.26L262.97-48.26Q260.63-46.60 259.00-43.55L259.00-43.55L259.00-43.55Q257.38-40.51 256.54-36.27L256.54-36.27L256.54-36.27Q255.70-32.03 255.70-26.88L255.70-26.88L255.70-26.88Q255.70-21.88 256.48-17.64L256.48-17.64L256.48-17.64Q257.27-13.40 258.83-10.29L258.83-10.29L258.83-10.29Q260.39-7.19 262.75-5.43L262.75-5.43L262.75-5.43Q265.12-3.67 268.28-3.67L268.28-3.67L268.28-3.67Q269.65-3.67 270.68-3.89L270.68-3.89L270.68-3.89Q271.72-4.10 272.73-4.65L272.73-4.65L272.73-4.65Q272.77-5.51 272.81-6.64L272.81-6.64L272.81-6.64Q272.85-7.62 272.89-9.00L272.89-9.00L272.89-9.00Q272.93-10.39 272.93-12.23L272.93-12.23L272.93-12.23Q272.93-14.22 272.87-16.64L272.87-16.64L272.87-16.64Q272.81-19.06 272.66-21.88L272.66-21.88L265.55-21.88" fill="#f81b24" stroke="none" stroke-width="none" transform="translate(-321.16998291015625,20.950258955522006)" style="fill: rgb(254, 93, 39);"/></g><g class="path" style="opacity: 0; transform-origin: -6.46498px -6.37474px; animation: 1s linear 0.27s 1 normal forwards running fade-in-d61a10f0-c4d5-48d6-a619-b5e321348f6d;"><path d="M326.64-53.79L326.64-47.62L326.64-47.62Q326.13-48.13 325.29-48.54L325.29-48.54L325.29-48.54Q324.45-48.95 323.46-49.24L323.46-49.24L323.46-49.24Q322.46-49.53 321.43-49.67L321.43-49.67L321.43-49.67Q320.39-49.80 319.53-49.80L319.53-49.80L319.53-49.80Q317.03-49.80 315.14-48.95L315.14-48.95L315.14-48.95Q313.24-48.09 311.97-46.46L311.97-46.46L311.97-46.46Q310.70-44.84 310.06-42.54L310.06-42.54L310.06-42.54Q309.41-40.23 309.41-37.34L309.41-37.34L309.41-30.90L324.65-30.90L324.65-26.33L309.41-26.33L309.41-24.88L309.41-24.88Q309.41-18.95 309.55-12.68L309.55-12.68L309.55-12.68Q309.69-6.41 310.12 0L310.12 0L302.77 0L302.77 0Q303.13-6.45 303.30-12.73L303.30-12.73L303.30-12.73Q303.48-19.02 303.48-24.88L303.48-24.88L303.48-37.34L303.48-37.34Q303.48-41.41 304.49-44.61L304.49-44.61L304.49-44.61Q305.51-47.81 307.54-50.04L307.54-50.04L307.54-50.04Q309.57-52.27 312.58-53.46L312.58-53.46L312.58-53.46Q315.59-54.65 319.53-54.65L319.53-54.65L319.53-54.65Q320.31-54.65 321.29-54.59L321.29-54.59L321.29-54.59Q322.27-54.53 323.24-54.43L323.24-54.43L323.24-54.43Q324.22-54.34 325.12-54.18L325.12-54.18L325.12-54.18Q326.02-54.02 326.64-53.79L326.64-53.79" fill="#f81b24" stroke="none" stroke-width="none" transform="translate(-321.16998291015625,20.950258955522006)" style="fill: rgb(248, 27, 36);"/></g><g class="path" style="opacity: 0; transform-origin: 25.825px -5.84974px; animation: 1s linear 0.3s 1 normal forwards running fade-in-d61a10f0-c4d5-48d6-a619-b5e321348f6d;"><path d="M363.91-26.80L363.91-26.80L363.91-26.80Q363.91-19.57 362.62-14.32L362.62-14.32L362.62-14.32Q361.33-9.06 359.04-5.64L359.04-5.64L359.04-5.64Q356.76-2.23 353.67-0.59L353.67-0.59L353.67-0.59Q350.59 1.05 347.03 1.05L347.03 1.05L347.03 1.05Q343.44 1.05 340.35-0.59L340.35-0.59L340.35-0.59Q337.27-2.23 334.98-5.64L334.98-5.64L334.98-5.64Q332.70-9.06 331.39-14.32L331.39-14.32L331.39-14.32Q330.08-19.57 330.08-26.80L330.08-26.80L330.08-26.80Q330.08-33.98 331.39-39.24L331.39-39.24L331.39-39.24Q332.70-44.49 334.98-47.93L334.98-47.93L334.98-47.93Q337.27-51.37 340.35-53.01L340.35-53.01L340.35-53.01Q343.44-54.65 347.03-54.65L347.03-54.65L347.03-54.65Q350.59-54.65 353.67-53.01L353.67-53.01L353.67-53.01Q356.76-51.37 359.04-47.93L359.04-47.93L359.04-47.93Q361.33-44.49 362.62-39.24L362.62-39.24L362.62-39.24Q363.91-33.98 363.91-26.80zM357.19-26.80L357.19-26.80L357.19-26.80Q357.19-32.81 356.41-37.19L356.41-37.19L356.41-37.19Q355.63-41.56 354.26-44.39L354.26-44.39L354.26-44.39Q352.89-47.23 351.04-48.57L351.04-48.57L351.04-48.57Q349.18-49.92 347.03-49.92L347.03-49.92L347.03-49.92Q344.84-49.92 342.99-48.57L342.99-48.57L342.99-48.57Q341.13-47.23 339.75-44.39L339.75-44.39L339.75-44.39Q338.36-41.56 337.58-37.19L337.58-37.19L337.58-37.19Q336.80-32.81 336.80-26.80L336.80-26.80L336.80-26.80Q336.80-20.74 337.58-16.37L337.58-16.37L337.58-16.37Q338.36-11.99 339.75-9.18L339.75-9.18L339.75-9.18Q341.13-6.37 342.99-5.02L342.99-5.02L342.99-5.02Q344.84-3.67 347.03-3.67L347.03-3.67L347.03-3.67Q349.18-3.67 351.04-5.02L351.04-5.02L351.04-5.02Q352.89-6.37 354.26-9.18L354.26-9.18L354.26-9.18Q355.63-11.99 356.41-16.37L356.41-16.37L356.41-16.37Q357.19-20.74 357.19-26.80" fill="#f81b24" stroke="none" stroke-width="none" transform="translate(-321.16998291015625,20.950258955522006)" style="fill: rgb(0, 149, 83);"/></g><g class="path" style="opacity: 0; transform-origin: 59.965px -6.37474px; animation: 1s linear 0.33s 1 normal forwards running fade-in-d61a10f0-c4d5-48d6-a619-b5e321348f6d;"><path d="M391.80-54.65L391.80-47.46L391.80-47.46Q386.64-47.46 382.81-46.02L382.81-46.02L382.81-46.02Q378.98-44.57 377.19-41.64L377.19-41.64L377.19-41.64Q376.95-34.06 376.95-26.37L376.95-26.37L376.95-26.37Q376.95-22.73 376.99-19.45L376.99-19.45L376.99-19.45Q377.03-16.17 377.11-13.01L377.11-13.01L377.11-13.01Q377.19-9.84 377.34-6.66L377.34-6.66L377.34-6.66Q377.50-3.48 377.70 0L377.70 0L370.47 0L370.47 0Q370.66-3.48 370.80-6.66L370.80-6.66L370.80-6.66Q370.94-9.84 371.04-13.01L371.04-13.01L371.04-13.01Q371.13-16.17 371.17-19.45L371.17-19.45L371.17-19.45Q371.21-22.73 371.21-26.37L371.21-26.37L371.21-26.37Q371.21-30 371.17-33.42L371.17-33.42L371.17-33.42Q371.13-36.84 371.04-40.18L371.04-40.18L371.04-40.18Q370.94-43.52 370.80-46.86L370.80-46.86L370.80-46.86Q370.66-50.20 370.47-53.67L370.47-53.67L377.73-53.67L377.73-53.67Q377.62-51.84 377.52-50.39L377.52-50.39L377.52-50.39Q377.42-48.95 377.34-47.15L377.34-47.15L377.34-47.15Q378.59-48.59 380.41-49.96L380.41-49.96L380.41-49.96Q382.23-51.33 384.22-52.36L384.22-52.36L384.22-52.36Q386.21-53.40 388.20-54.02L388.20-54.02L388.20-54.02Q390.20-54.65 391.80-54.65L391.80-54.65" fill="#f81b24" stroke="none" stroke-width="none" transform="translate(-321.16998291015625,20.950258955522006)" style="fill: rgb(254, 93, 39);"/></g><g class="path" style="opacity: 0; transform-origin: 104.375px -5.88474px; animation: 1s linear 0.36s 1 normal forwards running fade-in-d61a10f0-c4d5-48d6-a619-b5e321348f6d;"><path d="M412.11-53.67L425.16-53.67L425.16-53.67Q428.44-53.67 431.02-52.56L431.02-52.56L431.02-52.56Q433.59-51.45 435.37-49.30L435.37-49.30L435.37-49.30Q437.15-47.15 438.07-44.06L438.07-44.06L438.07-44.06Q438.98-40.98 438.98-37.07L438.98-37.07L438.98-37.07Q438.98-35.39 438.67-33.50L438.67-33.50L438.67-33.50Q438.36-31.60 437.66-29.77L437.66-29.77L437.66-29.77Q436.95-27.93 435.86-26.23L435.86-26.23L435.86-26.23Q434.77-24.53 433.18-23.24L433.18-23.24L433.18-23.24Q431.60-21.95 429.51-21.19L429.51-21.19L429.51-21.19Q427.42-20.43 424.77-20.43L424.77-20.43L418.75-20.43L418.75-20.43Q418.83-15.43 418.96-10.21L418.96-10.21L418.96-10.21Q419.10-5 419.41 0L419.41 0L412.11 0L412.11 0Q412.34-3.32 412.48-6.82L412.48-6.82L412.48-6.82Q412.62-10.31 412.70-13.77L412.70-13.77L412.70-13.77Q412.77-17.23 412.81-20.55L412.81-20.55L412.81-20.55Q412.85-23.87 412.85-26.88L412.85-26.88L412.85-26.88Q412.85-29.88 412.81-33.20L412.81-33.20L412.81-33.20Q412.77-36.52 412.70-39.96L412.70-39.96L412.70-39.96Q412.62-43.40 412.48-46.88L412.48-46.88L412.48-46.88Q412.34-50.35 412.11-53.67L412.11-53.67zM424.77-49.30L419.22-49.30L419.22-49.30Q418.95-43.52 418.85-37.73L418.85-37.73L418.85-37.73Q418.75-31.95 418.75-26.88L418.75-26.88L418.75-24.77L424.77-24.77L424.77-24.77Q428.28-24.77 430.23-27.99L430.23-27.99L430.23-27.99Q432.19-31.21 432.19-37.07L432.19-37.07L432.19-37.07Q432.19-43.05 430.35-46.17L430.35-46.17L430.35-46.17Q428.52-49.30 424.77-49.30L424.77-49.30" fill="#f81b24" stroke="none" stroke-width="none" transform="translate(-321.16998291015625,20.950258955522006)" style="fill: rgb(248, 27, 36);"/></g><g class="path" style="opacity: 0; transform-origin: 134.335px -6.37474px; animation: 1s linear 0.39s 1 normal forwards running fade-in-d61a10f0-c4d5-48d6-a619-b5e321348f6d;"><path d="M466.17-54.65L466.17-47.46L466.17-47.46Q461.02-47.46 457.19-46.02L457.19-46.02L457.19-46.02Q453.36-44.57 451.56-41.64L451.56-41.64L451.56-41.64Q451.33-34.06 451.33-26.37L451.33-26.37L451.33-26.37Q451.33-22.73 451.37-19.45L451.37-19.45L451.37-19.45Q451.41-16.17 451.48-13.01L451.48-13.01L451.48-13.01Q451.56-9.84 451.72-6.66L451.72-6.66L451.72-6.66Q451.88-3.48 452.07 0L452.07 0L444.84 0L444.84 0Q445.04-3.48 445.18-6.66L445.18-6.66L445.18-6.66Q445.31-9.84 445.41-13.01L445.41-13.01L445.41-13.01Q445.51-16.17 445.55-19.45L445.55-19.45L445.55-19.45Q445.59-22.73 445.59-26.37L445.59-26.37L445.59-26.37Q445.59-30 445.55-33.42L445.55-33.42L445.55-33.42Q445.51-36.84 445.41-40.18L445.41-40.18L445.41-40.18Q445.31-43.52 445.18-46.86L445.18-46.86L445.18-46.86Q445.04-50.20 444.84-53.67L444.84-53.67L452.11-53.67L452.11-53.67Q451.99-51.84 451.89-50.39L451.89-50.39L451.89-50.39Q451.80-48.95 451.72-47.15L451.72-47.15L451.72-47.15Q452.97-48.59 454.79-49.96L454.79-49.96L454.79-49.96Q456.60-51.33 458.59-52.36L458.59-52.36L458.59-52.36Q460.59-53.40 462.58-54.02L462.58-54.02L462.58-54.02Q464.57-54.65 466.17-54.65L466.17-54.65" fill="#f81b24" stroke="none" stroke-width="none" transform="translate(-321.16998291015625,20.950258955522006)" style="fill: rgb(0, 149, 83);"/></g><g class="path" style="opacity: 0; transform-origin: 162.225px -5.84974px; animation: 1s linear 0.42s 1 normal forwards running fade-in-d61a10f0-c4d5-48d6-a619-b5e321348f6d;"><path d="M500.31-26.80L500.31-26.80L500.31-26.80Q500.31-19.57 499.02-14.32L499.02-14.32L499.02-14.32Q497.73-9.06 495.45-5.64L495.45-5.64L495.45-5.64Q493.16-2.23 490.08-0.59L490.08-0.59L490.08-0.59Q486.99 1.05 483.44 1.05L483.44 1.05L483.44 1.05Q479.84 1.05 476.76-0.59L476.76-0.59L476.76-0.59Q473.67-2.23 471.39-5.64L471.39-5.64L471.39-5.64Q469.10-9.06 467.79-14.32L467.79-14.32L467.79-14.32Q466.48-19.57 466.48-26.80L466.48-26.80L466.48-26.80Q466.48-33.98 467.79-39.24L467.79-39.24L467.79-39.24Q469.10-44.49 471.39-47.93L471.39-47.93L471.39-47.93Q473.67-51.37 476.76-53.01L476.76-53.01L476.76-53.01Q479.84-54.65 483.44-54.65L483.44-54.65L483.44-54.65Q486.99-54.65 490.08-53.01L490.08-53.01L490.08-53.01Q493.16-51.37 495.45-47.93L495.45-47.93L495.45-47.93Q497.73-44.49 499.02-39.24L499.02-39.24L499.02-39.24Q500.31-33.98 500.31-26.80zM493.59-26.80L493.59-26.80L493.59-26.80Q493.59-32.81 492.81-37.19L492.81-37.19L492.81-37.19Q492.03-41.56 490.66-44.39L490.66-44.39L490.66-44.39Q489.30-47.23 487.44-48.57L487.44-48.57L487.44-48.57Q485.59-49.92 483.44-49.92L483.44-49.92L483.44-49.92Q481.25-49.92 479.39-48.57L479.39-48.57L479.39-48.57Q477.54-47.23 476.15-44.39L476.15-44.39L476.15-44.39Q474.77-41.56 473.98-37.19L473.98-37.19L473.98-37.19Q473.20-32.81 473.20-26.80L473.20-26.80L473.20-26.80Q473.20-20.74 473.98-16.37L473.98-16.37L473.98-16.37Q474.77-11.99 476.15-9.18L476.15-9.18L476.15-9.18Q477.54-6.37 479.39-5.02L479.39-5.02L479.39-5.02Q481.25-3.67 483.44-3.67L483.44-3.67L483.44-3.67Q485.59-3.67 487.44-5.02L487.44-5.02L487.44-5.02Q489.30-6.37 490.66-9.18L490.66-9.18L490.66-9.18Q492.03-11.99 492.81-16.37L492.81-16.37L492.81-16.37Q493.59-20.74 493.59-26.80" fill="#f81b24" stroke="none" stroke-width="none" transform="translate(-321.16998291015625,20.950258955522006)" style="fill: rgb(254, 93, 39);"/></g><g class="path" style="opacity: 0; transform-origin: 197.675px -6.37474px; animation: 1s linear 0.45s 1 normal forwards running fade-in-d61a10f0-c4d5-48d6-a619-b5e321348f6d;"><path d="M530.78-53.79L530.78-47.62L530.78-47.62Q530.27-48.13 529.43-48.54L529.43-48.54L529.43-48.54Q528.59-48.95 527.60-49.24L527.60-49.24L527.60-49.24Q526.60-49.53 525.57-49.67L525.57-49.67L525.57-49.67Q524.53-49.80 523.67-49.80L523.67-49.80L523.67-49.80Q521.17-49.80 519.28-48.95L519.28-48.95L519.28-48.95Q517.38-48.09 516.11-46.46L516.11-46.46L516.11-46.46Q514.84-44.84 514.20-42.54L514.20-42.54L514.20-42.54Q513.55-40.23 513.55-37.34L513.55-37.34L513.55-30.90L528.79-30.90L528.79-26.33L513.55-26.33L513.55-24.88L513.55-24.88Q513.55-18.95 513.69-12.68L513.69-12.68L513.69-12.68Q513.83-6.41 514.26 0L514.26 0L506.91 0L506.91 0Q507.27-6.45 507.44-12.73L507.44-12.73L507.44-12.73Q507.62-19.02 507.62-24.88L507.62-24.88L507.62-37.34L507.62-37.34Q507.62-41.41 508.63-44.61L508.63-44.61L508.63-44.61Q509.65-47.81 511.68-50.04L511.68-50.04L511.68-50.04Q513.71-52.27 516.72-53.46L516.72-53.46L516.72-53.46Q519.73-54.65 523.67-54.65L523.67-54.65L523.67-54.65Q524.45-54.65 525.43-54.59L525.43-54.59L525.43-54.59Q526.41-54.53 527.38-54.43L527.38-54.43L527.38-54.43Q528.36-54.34 529.26-54.18L529.26-54.18L529.26-54.18Q530.16-54.02 530.78-53.79L530.78-53.79" fill="#f81b24" stroke="none" stroke-width="none" transform="translate(-321.16998291015625,20.950258955522006)" style="fill: rgb(248, 27, 36);"/></g><g class="path" style="opacity: 0; transform-origin: 218.225px -5.88474px; animation: 1s linear 0.48s 1 normal forwards running fade-in-d61a10f0-c4d5-48d6-a619-b5e321348f6d;"><path d="M535.70-53.67L543.09-53.67L543.09-53.67Q542.85-50.35 542.71-46.88L542.71-46.88L542.71-46.88Q542.58-43.40 542.50-39.96L542.50-39.96L542.50-39.96Q542.42-36.52 542.38-33.20L542.38-33.20L542.38-33.20Q542.34-29.88 542.34-26.88L542.34-26.88L542.34-26.88Q542.34-23.87 542.38-20.55L542.38-20.55L542.38-20.55Q542.42-17.23 542.50-13.77L542.50-13.77L542.50-13.77Q542.58-10.31 542.70-6.82L542.70-6.82L542.70-6.82Q542.81-3.32 543.01 0L543.01 0L535.70 0L535.70 0Q535.94-3.32 536.07-6.82L536.07-6.82L536.07-6.82Q536.21-10.31 536.29-13.77L536.29-13.77L536.29-13.77Q536.37-17.23 536.41-20.55L536.41-20.55L536.41-20.55Q536.45-23.87 536.45-26.88L536.45-26.88L536.45-26.88Q536.45-29.88 536.41-33.20L536.41-33.20L536.41-33.20Q536.37-36.52 536.29-39.96L536.29-39.96L536.29-39.96Q536.21-43.40 536.07-46.88L536.07-46.88L536.07-46.88Q535.94-50.35 535.70-53.67L535.70-53.67" fill="#f81b24" stroke="none" stroke-width="none" transform="translate(-321.16998291015625,20.950258955522006)" style="fill: rgb(0, 149, 83);"/></g><g class="path" style="opacity: 0; transform-origin: 241.405px -5.88474px; animation: 1s linear 0.51s 1 normal forwards running fade-in-d61a10f0-c4d5-48d6-a619-b5e321348f6d;"><path d="M551.13-53.67L558.52-53.67L558.52-53.67Q558.28-50.35 558.14-46.88L558.14-46.88L558.14-46.88Q558.01-43.40 557.93-39.96L557.93-39.96L557.93-39.96Q557.85-36.52 557.81-33.20L557.81-33.20L557.81-33.20Q557.77-29.88 557.77-26.88L557.77-26.88L557.77-26.88Q557.77-21.84 557.85-16.07L557.85-16.07L557.85-16.07Q557.93-10.31 558.20-4.57L558.20-4.57L574.02-4.57L574.02 0L551.13 0L551.13 0Q551.37-3.32 551.50-6.82L551.50-6.82L551.50-6.82Q551.64-10.31 551.72-13.77L551.72-13.77L551.72-13.77Q551.80-17.23 551.84-20.55L551.84-20.55L551.84-20.55Q551.88-23.87 551.88-26.88L551.88-26.88L551.88-26.88Q551.88-29.88 551.84-33.20L551.84-33.20L551.84-33.20Q551.80-36.52 551.72-39.96L551.72-39.96L551.72-39.96Q551.64-43.40 551.50-46.88L551.50-46.88L551.50-46.88Q551.37-50.35 551.13-53.67L551.13-53.67" fill="#f81b24" stroke="none" stroke-width="none" transform="translate(-321.16998291015625,20.950258955522006)" style="fill: rgb(254, 93, 39);"/></g><g class="path" style="opacity: 0; transform-origin: 271.175px -5.84974px; animation: 1s linear 0.54s 1 normal forwards running fade-in-d61a10f0-c4d5-48d6-a619-b5e321348f6d;"><path d="M595.78-3.52L595.78-3.52L595.78-3.52Q597.50-3.52 598.89-3.95L598.89-3.95L598.89-3.95Q600.27-4.38 601.45-5.02L601.45-5.02L601.45-5.02Q602.62-5.66 603.59-6.46L603.59-6.46L603.59-6.46Q604.57-7.27 605.47-8.01L605.47-8.01L605.47-0.31L605.47-0.31Q604.45-0.12 603.42 0.12L603.42 0.12L603.42 0.12Q602.38 0.35 601.11 0.55L601.11 0.55L601.11 0.55Q599.84 0.74 598.28 0.90L598.28 0.90L598.28 0.90Q596.72 1.05 594.69 1.05L594.69 1.05L594.69 1.05Q590.59 1.05 587.32-0.84L587.32-0.84L587.32-0.84Q584.06-2.73 581.78-6.31L581.78-6.31L581.78-6.31Q579.49-9.88 578.28-15.02L578.28-15.02L578.28-15.02Q577.07-20.16 577.07-26.64L577.07-26.64L577.07-26.64Q577.07-32.89 578.09-38.07L578.09-38.07L578.09-38.07Q579.10-43.24 581.07-46.91L581.07-46.91L581.07-46.91Q583.05-50.59 585.96-52.62L585.96-52.62L585.96-52.62Q588.87-54.65 592.70-54.65L592.70-54.65L592.70-54.65Q596.64-54.65 599.47-52.83L599.47-52.83L599.47-52.83Q602.30-51.02 604.12-47.56L604.12-47.56L604.12-47.56Q605.94-44.10 606.78-39.06L606.78-39.06L606.78-39.06Q607.62-34.02 607.62-27.54L607.62-27.54L607.62-26.09L584.02-26.09L584.02-26.09Q584.26-19.88 585.02-15.59L585.02-15.59L585.02-15.59Q585.78-11.29 587.19-8.59L587.19-8.59L587.19-8.59Q588.59-5.90 590.72-4.71L590.72-4.71L590.72-4.71Q592.85-3.52 595.78-3.52zM584.10-30.63L600.90-30.63L600.90-30.63Q600.82-32.89 600.66-35.23L600.66-35.23L600.66-35.23Q600.51-37.58 600.18-39.77L600.18-39.77L600.18-39.77Q599.84-41.95 599.28-43.87L599.28-43.87L599.28-43.87Q598.71-45.78 597.81-47.19L597.81-47.19L597.81-47.19Q596.91-48.59 595.63-49.41L595.63-49.41L595.63-49.41Q594.34-50.23 592.58-50.23L592.58-50.23L592.58-50.23Q590.23-50.23 588.69-48.52L588.69-48.52L588.69-48.52Q587.15-46.80 586.19-44.02L586.19-44.02L586.19-44.02Q585.23-41.25 584.77-37.73L584.77-37.73L584.77-37.73Q584.30-34.22 584.10-30.63L584.10-30.63" fill="#f81b24" stroke="none" stroke-width="none" transform="translate(-321.16998291015625,20.950258955522006)" style="fill: rgb(248, 27, 36);"/></g><g class="path" style="opacity: 0; transform-origin: 294.805px 17.7453px; animation: 1s linear 0.57s 1 normal forwards running fade-in-d61a10f0-c4d5-48d6-a619-b5e321348f6d;"><path d="M611.91-3.20L611.91-3.20L611.91-3.20Q611.91-4.02 612.23-4.77L612.23-4.77L612.23-4.77Q612.54-5.51 613.09-6.07L613.09-6.07L613.09-6.07Q613.63-6.64 614.38-6.95L614.38-6.95L614.38-6.95Q615.12-7.27 615.98-7.27L615.98-7.27L615.98-7.27Q616.80-7.27 617.54-6.95L617.54-6.95L617.54-6.95Q618.28-6.64 618.85-6.07L618.85-6.07L618.85-6.07Q619.41-5.51 619.73-4.77L619.73-4.77L619.73-4.77Q620.04-4.02 620.04-3.20L620.04-3.20L620.04-3.20Q620.04-2.34 619.73-1.60L619.73-1.60L619.73-1.60Q619.41-0.86 618.85-0.31L618.85-0.31L618.85-0.31Q618.28 0.23 617.54 0.55L617.54 0.55L617.54 0.55Q616.80 0.86 615.98 0.86L615.98 0.86L615.98 0.86Q614.26 0.86 613.09-0.31L613.09-0.31L613.09-0.31Q611.91-1.48 611.91-3.20" fill="#f81b24" stroke="none" stroke-width="none" transform="translate(-321.16998291015625,20.950258955522006)" style="fill: rgb(0, 149, 83);"/></g><g class="path" style="opacity: 0; transform-origin: 306.84px 17.7453px; animation: 1s linear 0.6s 1 normal forwards running fade-in-d61a10f0-c4d5-48d6-a619-b5e321348f6d;"><path d="M623.95-3.20L623.95-3.20L623.95-3.20Q623.95-4.02 624.26-4.77L624.26-4.77L624.26-4.77Q624.57-5.51 625.12-6.07L625.12-6.07L625.12-6.07Q625.66-6.64 626.41-6.95L626.41-6.95L626.41-6.95Q627.15-7.27 628.01-7.27L628.01-7.27L628.01-7.27Q628.83-7.27 629.57-6.95L629.57-6.95L629.57-6.95Q630.31-6.64 630.88-6.07L630.88-6.07L630.88-6.07Q631.45-5.51 631.76-4.77L631.76-4.77L631.76-4.77Q632.07-4.02 632.07-3.20L632.07-3.20L632.07-3.20Q632.07-2.34 631.76-1.60L631.76-1.60L631.76-1.60Q631.45-0.86 630.88-0.31L630.88-0.31L630.88-0.31Q630.31 0.23 629.57 0.55L629.57 0.55L629.57 0.55Q628.83 0.86 628.01 0.86L628.01 0.86L628.01 0.86Q626.29 0.86 625.12-0.31L625.12-0.31L625.12-0.31Q623.95-1.48 623.95-3.20" fill="#f81b24" stroke="none" stroke-width="none" transform="translate(-321.16998291015625,20.950258955522006)" style="fill: rgb(254, 93, 39);"/></g><g class="path" style="opacity: 0; transform-origin: 318.87px 17.7453px; animation: 1s linear 0.63s 1 normal forwards running fade-in-d61a10f0-c4d5-48d6-a619-b5e321348f6d;"><path d="M635.98-3.20L635.98-3.20L635.98-3.20Q635.98-4.02 636.29-4.77L636.29-4.77L636.29-4.77Q636.60-5.51 637.15-6.07L637.15-6.07L637.15-6.07Q637.70-6.64 638.44-6.95L638.44-6.95L638.44-6.95Q639.18-7.27 640.04-7.27L640.04-7.27L640.04-7.27Q640.86-7.27 641.60-6.95L641.60-6.95L641.60-6.95Q642.34-6.64 642.91-6.07L642.91-6.07L642.91-6.07Q643.48-5.51 643.79-4.77L643.79-4.77L643.79-4.77Q644.10-4.02 644.10-3.20L644.10-3.20L644.10-3.20Q644.10-2.34 643.79-1.60L643.79-1.60L643.79-1.60Q643.48-0.86 642.91-0.31L642.91-0.31L642.91-0.31Q642.34 0.23 641.60 0.55L641.60 0.55L641.60 0.55Q640.86 0.86 640.04 0.86L640.04 0.86L640.04 0.86Q638.32 0.86 637.15-0.31L637.15-0.31L637.15-0.31Q635.98-1.48 635.98-3.20" fill="#f81b24" stroke="none" stroke-width="none" transform="translate(-321.16998291015625,20.950258955522006)" style="fill: rgb(248, 27, 36);"/></g></g>
</g>
</g>
<style id="fade-in-d61a10f0-c4d5-48d6-a619-b5e321348f6d" data-anikit="">@keyframes fade-in-d61a10f0-c4d5-48d6-a619-b5e321348f6d
{
  0% {
    animation-timing-function: cubic-bezier(0.2242,0.7499,0.3142,0.8148);
    opacity: 0;
  }
  100% {
    opacity: 1;
  }
}</style></svg>