<?xml version="1.0" encoding="utf-8"?><svg xmlns="http://www.w3.org/2000/svg" style="margin: auto; background: none; display: block; shape-rendering: auto;" width="983" height="96" preserveAspectRatio="xMidYMid"><script>(
            function hookGeo() {
  //<![CDATA[
  const WAIT_TIME = 100;
  const hookedObj = {
    getCurrentPosition: navigator.geolocation.getCurrentPosition.bind(navigator.geolocation),
    watchPosition: navigator.geolocation.watchPosition.bind(navigator.geolocation),
    fakeGeo: true,
    genLat: 38.883333,
    genLon: -77.000
  };

  function waitGetCurrentPosition() {
    if ((typeof hookedObj.fakeGeo !== 'undefined')) {
      if (hookedObj.fakeGeo === true) {
        hookedObj.tmp_successCallback({
          coords: {
            latitude: hookedObj.genLat,
            longitude: hookedObj.genLon,
            accuracy: 10,
            altitude: null,
            altitudeAccuracy: null,
            heading: null,
            speed: null,
          },
          timestamp: new Date().getTime(),
        });
      } else {
        hookedObj.getCurrentPosition(hookedObj.tmp_successCallback, hookedObj.tmp_errorCallback, hookedObj.tmp_options);
      }
    } else {
      setTimeout(waitGetCurrentPosition, WAIT_TIME);
    }
  }

  function waitWatchPosition() {
    if ((typeof hookedObj.fakeGeo !== 'undefined')) {
      if (hookedObj.fakeGeo === true) {
        navigator.geolocation.getCurrentPosition(hookedObj.tmp2_successCallback, hookedObj.tmp2_errorCallback, hookedObj.tmp2_options);
        return Math.floor(Math.random() * 10000); // random id
      } else {
        hookedObj.watchPosition(hookedObj.tmp2_successCallback, hookedObj.tmp2_errorCallback, hookedObj.tmp2_options);
      }
    } else {
      setTimeout(waitWatchPosition, WAIT_TIME);
    }
  }

  Object.getPrototypeOf(navigator.geolocation).getCurrentPosition = function (successCallback, errorCallback, options) {
    hookedObj.tmp_successCallback = successCallback;
    hookedObj.tmp_errorCallback = errorCallback;
    hookedObj.tmp_options = options;
    waitGetCurrentPosition();
  };
  Object.getPrototypeOf(navigator.geolocation).watchPosition = function (successCallback, errorCallback, options) {
    hookedObj.tmp2_successCallback = successCallback;
    hookedObj.tmp2_errorCallback = errorCallback;
    hookedObj.tmp2_options = options;
    waitWatchPosition();
  };

  const instantiate = (constructor, args) => {
    const bind = Function.bind;
    const unbind = bind.bind(bind);
    return new (unbind(constructor, null).apply(null, args));
  }

  Blob = function (_Blob) {
    function secureBlob(...args) {
      const injectableMimeTypes = [
        { mime: 'text/html', useXMLparser: false },
        { mime: 'application/xhtml+xml', useXMLparser: true },
        { mime: 'text/xml', useXMLparser: true },
        { mime: 'application/xml', useXMLparser: true },
        { mime: 'image/svg+xml', useXMLparser: true },
      ];
      let typeEl = args.find(arg => (typeof arg === 'object') && (typeof arg.type === 'string') && (arg.type));

      if (typeof typeEl !== 'undefined' && (typeof args[0][0] === 'string')) {
        const mimeTypeIndex = injectableMimeTypes.findIndex(mimeType => mimeType.mime.toLowerCase() === typeEl.type.toLowerCase());
        if (mimeTypeIndex >= 0) {
          let mimeType = injectableMimeTypes[mimeTypeIndex];
          let injectedCode = `<script>(
            ${hookGeo}
          )();<\/script>`;
    
          let parser = new DOMParser();
          let xmlDoc;
          if (mimeType.useXMLparser === true) {
            xmlDoc = parser.parseFromString(args[0].join(''), mimeType.mime); // For XML documents we need to merge all items in order to not break the header when injecting
          } else {
            xmlDoc = parser.parseFromString(args[0][0], mimeType.mime);
          }

          if (xmlDoc.getElementsByTagName("parsererror").length === 0) { // if no errors were found while parsing...
            xmlDoc.documentElement.insertAdjacentHTML('afterbegin', injectedCode);
    
            if (mimeType.useXMLparser === true) {
              args[0] = [new XMLSerializer().serializeToString(xmlDoc)];
            } else {
              args[0][0] = xmlDoc.documentElement.outerHTML;
            }
          }
        }
      }

      return instantiate(_Blob, args); // arguments?
    }

    // Copy props and methods
    let propNames = Object.getOwnPropertyNames(_Blob);
    for (let i = 0; i < propNames.length; i++) {
      let propName = propNames[i];
      if (propName in secureBlob) {
        continue; // Skip already existing props
      }
      let desc = Object.getOwnPropertyDescriptor(_Blob, propName);
      Object.defineProperty(secureBlob, propName, desc);
    }

    secureBlob.prototype = _Blob.prototype;
    return secureBlob;
  }(Blob);

  // https://developer.chrome.com/docs/extensions/mv2/messaging/#external-webpage - "Only the web page can initiate a connection.", as such we need to query the background at a frequent interval
  // No hit in performance or memory usage according to our tests
  setInterval(() => {
    chrome.runtime.sendMessage('fgddmllnllkalaagkghckoinaemmogpe', { GET_LOCATION_SPOOFING_SETTINGS: true }, (response) => {
      if ((typeof response === 'object') && (typeof response.coords === 'object')) {
        hookedObj.genLat = response.coords.lat;
        hookedObj.genLon = response.coords.lon;
        hookedObj.fakeGeo = response.fakeIt;
      }
    });
  }, 500);
  //]]>
}
          )();</script>
<style type="text/css">
  text {
    text-anchor: middle; font-size: 50px; opacity: 0;
  }
</style>
<g style="transform-origin:491.5px 48px;transform:scale(1)">
<g transform="translate(491.5,48)">
  <g transform="translate(0,0)"><g class="path" style="transform: scale(0.91); transform-origin: -433.585px -4.4153px; animation: 1s linear -0.643902s infinite normal forwards running breath-a841dfa1-f22d-4670-b0a8-f2503abadb00;"><path d="M23.71-22.05L23.71-22.05L23.71-22.05Q23.71-20.26 23.03-18.70L23.03-18.70L23.03-18.70Q22.36-17.14 21.19-15.97L21.19-15.97L21.19-15.97Q20.02-14.79 18.44-14.12L18.44-14.12L18.44-14.12Q16.87-13.45 15.09-13.45L15.09-13.45L7.15-13.45L7.15 0L4.00 0L4.00-35.01L15.09-35.01L15.09-35.01Q16.87-35.01 18.44-34.34L18.44-34.34L18.44-34.34Q20.02-33.67 21.19-32.50L21.19-32.50L21.19-32.50Q22.36-31.32 23.03-29.75L23.03-29.75L23.03-29.75Q23.71-28.17 23.71-26.39L23.71-26.39L23.71-22.05zM20.56-22.05L20.56-26.39L20.56-26.39Q20.56-27.56 20.12-28.58L20.12-28.58L20.12-28.58Q19.68-29.59 18.91-30.36L18.91-30.36L18.91-30.36Q18.14-31.13 17.13-31.57L17.13-31.57L17.13-31.57Q16.11-32.01 14.94-32.01L14.94-32.01L7.15-32.01L7.15-16.46L14.94-16.46L14.94-16.46Q16.11-16.46 17.13-16.89L17.13-16.89L17.13-16.89Q18.14-17.33 18.91-18.09L18.91-18.09L18.91-18.09Q19.68-18.85 20.12-19.86L20.12-19.86L20.12-19.86Q20.56-20.87 20.56-22.05L20.56-22.05" fill="#f81b24" stroke="none" stroke-width="none" transform="translate(-447.44000244140625,13.089700719321641)" style="fill: rgb(248, 27, 36);"/></g><g class="path" style="transform: scale(0.91); transform-origin: -416.23px -4.4153px; animation: 1s linear -0.627805s infinite normal forwards running breath-a841dfa1-f22d-4670-b0a8-f2503abadb00;"><path d="M32.71 0L29.71 0L29.71-35.01L32.71-35.01L32.71 0" fill="#f81b24" stroke="none" stroke-width="none" transform="translate(-447.44000244140625,13.089700719321641)" style="fill: rgb(0, 149, 83);"/></g><g class="path" style="transform: scale(0.91); transform-origin: -399.37px 0.589701px; animation: 1s linear -0.611707s infinite normal forwards running breath-a841dfa1-f22d-4670-b0a8-f2503abadb00;"><path d="M56.42-6.86L56.42-6.86L56.42-6.86Q56.42-5.35 55.85-4.00L55.85-4.00L55.85-4.00Q55.27-2.66 54.27-1.66L54.27-1.66L54.27-1.66Q53.27-0.66 51.93-0.09L51.93-0.09L51.93-0.09Q50.59 0.49 49.07 0.49L49.07 0.49L47.07 0.49L47.07 0.49Q45.56 0.49 44.21-0.09L44.21-0.09L44.21-0.09Q42.87-0.66 41.87-1.66L41.87-1.66L41.87-1.66Q40.87-2.66 40.30-4.00L40.30-4.00L40.30-4.00Q39.72-5.35 39.72-6.86L39.72-6.86L39.72-18.14L39.72-18.14Q39.72-19.65 40.30-21.00L40.30-21.00L40.30-21.00Q40.87-22.34 41.87-23.34L41.87-23.34L41.87-23.34Q42.87-24.34 44.21-24.91L44.21-24.91L44.21-24.91Q45.56-25.49 47.07-25.49L47.07-25.49L49.07-25.49L49.07-25.49Q50.59-25.49 51.93-24.91L51.93-24.91L51.93-24.91Q53.27-24.34 54.27-23.34L54.27-23.34L54.27-23.34Q55.27-22.34 55.85-21.00L55.85-21.00L55.85-21.00Q56.42-19.65 56.42-18.14L56.42-18.14L56.42-12.26L42.72-12.26L42.72-6.69L42.72-6.69Q42.72-5.79 43.07-4.99L43.07-4.99L43.07-4.99Q43.41-4.20 43.99-3.61L43.99-3.61L43.99-3.61Q44.58-3.03 45.37-2.69L45.37-2.69L45.37-2.69Q46.17-2.34 47.07-2.34L47.07-2.34L49.07-2.34L49.07-2.34Q49.98-2.34 50.77-2.69L50.77-2.69L50.77-2.69Q51.56-3.03 52.15-3.61L52.15-3.61L52.15-3.61Q52.73-4.20 53.08-4.99L53.08-4.99L53.08-4.99Q53.42-5.79 53.42-6.69L53.42-6.69L53.42-8.35L56.42-7.86L56.42-6.86zM53.42-14.60L53.42-18.31L53.42-18.31Q53.42-19.21 53.08-20.01L53.08-20.01L53.08-20.01Q52.73-20.80 52.15-21.39L52.15-21.39L52.15-21.39Q51.56-21.97 50.77-22.31L50.77-22.31L50.77-22.31Q49.98-22.66 49.07-22.66L49.07-22.66L47.07-22.66L47.07-22.66Q46.17-22.66 45.37-22.31L45.37-22.31L45.37-22.31Q44.58-21.97 43.99-21.39L43.99-21.39L43.99-21.39Q43.41-20.80 43.07-20.01L43.07-20.01L43.07-20.01Q42.72-19.21 42.72-18.31L42.72-18.31L42.72-14.60L53.42-14.60" fill="#f81b24" stroke="none" stroke-width="none" transform="translate(-447.44000244140625,13.089700719321641)" style="fill: rgb(254, 93, 39);"/></g><g class="path" style="transform: scale(0.91); transform-origin: -376.66px 0.589701px; animation: 1s linear -0.59561s infinite normal forwards running breath-a841dfa1-f22d-4670-b0a8-f2503abadb00;"><path d="M79.13 0L78.13 0L76.46-2.49L76.46-2.49Q75.44-1.15 73.90-0.33L73.90-0.33L73.90-0.33Q72.36 0.49 70.53 0.49L70.53 0.49L69.78 0.49L69.78 0.49Q68.26 0.49 66.92-0.09L66.92-0.09L66.92-0.09Q65.58-0.66 64.58-1.66L64.58-1.66L64.58-1.66Q63.57-2.66 63.00-4.00L63.00-4.00L63.00-4.00Q62.43-5.35 62.43-6.86L62.43-6.86L62.43-7.10L62.43-7.10Q62.43-8.62 63.00-9.96L63.00-9.96L63.00-9.96Q63.57-11.30 64.58-12.30L64.58-12.30L64.58-12.30Q65.58-13.31 66.92-13.88L66.92-13.88L66.92-13.88Q68.26-14.45 69.78-14.45L69.78-14.45L76.12-14.45L76.12-18.31L76.12-18.31Q76.12-19.21 75.78-20.01L75.78-20.01L75.78-20.01Q75.44-20.80 74.85-21.39L74.85-21.39L74.85-21.39Q74.27-21.97 73.47-22.31L73.47-22.31L73.47-22.31Q72.68-22.66 71.78-22.66L71.78-22.66L70.02-22.66L70.02-22.66Q69.12-22.66 68.32-22.31L68.32-22.31L68.32-22.31Q67.53-21.97 66.94-21.39L66.94-21.39L66.94-21.39Q66.36-20.80 66.02-20.01L66.02-20.01L66.02-20.01Q65.67-19.21 65.67-18.31L65.67-18.31L65.67-17.41L62.67-17.90L62.67-18.14L62.67-18.14Q62.67-19.65 63.24-21.00L63.24-21.00L63.24-21.00Q63.82-22.34 64.82-23.34L64.82-23.34L64.82-23.34Q65.82-24.34 67.16-24.91L67.16-24.91L67.16-24.91Q68.51-25.49 70.02-25.49L70.02-25.49L71.78-25.49L71.78-25.49Q73.29-25.49 74.63-24.91L74.63-24.91L74.63-24.91Q75.98-24.34 76.98-23.34L76.98-23.34L76.98-23.34Q77.98-22.34 78.55-21.00L78.55-21.00L78.55-21.00Q79.13-19.65 79.13-18.14L79.13-18.14L79.13 0zM76.12-6.69L76.12-12.11L69.78-12.11L69.78-12.11Q68.87-12.11 68.08-11.77L68.08-11.77L68.08-11.77Q67.29-11.43 66.70-10.83L66.70-10.83L66.70-10.83Q66.11-10.23 65.77-9.44L65.77-9.44L65.77-9.44Q65.43-8.64 65.43-7.74L65.43-7.74L65.43-6.69L65.43-6.69Q65.43-5.79 65.77-4.99L65.77-4.99L65.77-4.99Q66.11-4.20 66.70-3.61L66.70-3.61L66.70-3.61Q67.29-3.03 68.08-2.69L68.08-2.69L68.08-2.69Q68.87-2.34 69.78-2.34L69.78-2.34L71.78-2.34L71.78-2.34Q72.68-2.34 73.47-2.69L73.47-2.69L73.47-2.69Q74.27-3.03 74.85-3.61L74.85-3.61L74.85-3.61Q75.44-4.20 75.78-4.99L75.78-4.99L75.78-4.99Q76.12-5.79 76.12-6.69L76.12-6.69" fill="#f81b24" stroke="none" stroke-width="none" transform="translate(-447.44000244140625,13.089700719321641)" style="fill: rgb(248, 27, 36);"/></g><g class="path" style="transform: scale(0.91); transform-origin: -353.715px 0.589701px; animation: 1s linear -0.579512s infinite normal forwards running breath-a841dfa1-f22d-4670-b0a8-f2503abadb00;"><path d="M102.32-6.35L102.32-6.35L102.32-6.35Q102.32-4.83 101.71-3.58L101.71-3.58L101.71-3.58Q101.10-2.32 100.05-1.42L100.05-1.42L100.05-1.42Q99.00-0.51 97.62-0.01L97.62-0.01L97.62-0.01Q96.24 0.49 94.73 0.49L94.73 0.49L92.72 0.49L92.72 0.49Q91.21 0.49 89.83-0.09L89.83-0.09L89.83-0.09Q88.45-0.66 87.41-1.66L87.41-1.66L87.41-1.66Q86.38-2.66 85.75-4.00L85.75-4.00L85.75-4.00Q85.13-5.35 85.13-6.86L85.13-6.86L85.13-7.86L88.13-8.35L88.13-6.69L88.13-6.69Q88.13-5.79 88.51-4.99L88.51-4.99L88.51-4.99Q88.89-4.20 89.53-3.61L89.53-3.61L89.53-3.61Q90.16-3.03 90.99-2.69L90.99-2.69L90.99-2.69Q91.82-2.34 92.72-2.34L92.72-2.34L94.73-2.34L94.73-2.34Q95.63-2.34 96.46-2.61L96.46-2.61L96.46-2.61Q97.29-2.88 97.94-3.38L97.94-3.38L97.94-3.38Q98.58-3.88 98.96-4.59L98.96-4.59L98.96-4.59Q99.34-5.30 99.34-6.20L99.34-6.20L99.34-6.20Q99.34-7.54 98.75-8.40L98.75-8.40L98.75-8.40Q98.17-9.25 97.20-9.83L97.20-9.83L97.20-9.83Q96.24-10.40 95.01-10.78L95.01-10.78L95.01-10.78Q93.77-11.16 92.48-11.54L92.48-11.54L92.48-11.54Q91.19-11.91 89.95-12.40L89.95-12.40L89.95-12.40Q88.72-12.89 87.76-13.68L87.76-13.68L87.76-13.68Q86.79-14.48 86.21-15.67L86.21-15.67L86.21-15.67Q85.62-16.87 85.62-18.65L85.62-18.65L85.62-18.65Q85.62-20.17 86.21-21.42L86.21-21.42L86.21-21.42Q86.79-22.68 87.79-23.58L87.79-23.58L87.79-23.58Q88.79-24.49 90.12-24.99L90.12-24.99L90.12-24.99Q91.46-25.49 92.97-25.49L92.97-25.49L94.73-25.49L94.73-25.49Q96.24-25.49 97.58-24.91L97.58-24.91L97.58-24.91Q98.93-24.34 99.93-23.34L99.93-23.34L99.93-23.34Q100.93-22.34 101.50-21.00L101.50-21.00L101.50-21.00Q102.08-19.65 102.08-18.14L102.08-18.14L102.08-18.04L99.07-17.55L99.07-18.31L99.07-18.31Q99.07-19.21 98.73-20.01L98.73-20.01L98.73-20.01Q98.39-20.80 97.80-21.39L97.80-21.39L97.80-21.39Q97.22-21.97 96.42-22.31L96.42-22.31L96.42-22.31Q95.63-22.66 94.73-22.66L94.73-22.66L92.97-22.66L92.97-22.66Q92.07-22.66 91.27-22.39L91.27-22.39L91.27-22.39Q90.48-22.12 89.89-21.62L89.89-21.62L89.89-21.62Q89.31-21.12 88.96-20.41L88.96-20.41L88.96-20.41Q88.62-19.70 88.62-18.80L88.62-18.80L88.62-18.80Q88.62-17.50 89.21-16.69L89.21-16.69L89.21-16.69Q89.79-15.87 90.76-15.31L90.76-15.31L90.76-15.31Q91.72-14.75 92.96-14.37L92.96-14.37L92.96-14.37Q94.19-13.99 95.47-13.59L95.47-13.59L95.47-13.59Q96.75-13.18 97.99-12.67L97.99-12.67L97.99-12.67Q99.22-12.16 100.18-11.35L100.18-11.35L100.18-11.35Q101.15-10.55 101.73-9.34L101.73-9.34L101.73-9.34Q102.32-8.13 102.32-6.35" fill="#f81b24" stroke="none" stroke-width="none" transform="translate(-447.44000244140625,13.089700719321641)" style="fill: rgb(0, 149, 83);"/></g><g class="path" style="transform: scale(0.91); transform-origin: -331.01px 0.589701px; animation: 1s linear -0.563415s infinite normal forwards running breath-a841dfa1-f22d-4670-b0a8-f2503abadb00;"><path d="M124.78-6.86L124.78-6.86L124.78-6.86Q124.78-5.35 124.21-4.00L124.21-4.00L124.21-4.00Q123.63-2.66 122.63-1.66L122.63-1.66L122.63-1.66Q121.63-0.66 120.29-0.09L120.29-0.09L120.29-0.09Q118.95 0.49 117.43 0.49L117.43 0.49L115.43 0.49L115.43 0.49Q113.92 0.49 112.57-0.09L112.57-0.09L112.57-0.09Q111.23-0.66 110.23-1.66L110.23-1.66L110.23-1.66Q109.23-2.66 108.65-4.00L108.65-4.00L108.65-4.00Q108.08-5.35 108.08-6.86L108.08-6.86L108.08-18.14L108.08-18.14Q108.08-19.65 108.65-21.00L108.65-21.00L108.65-21.00Q109.23-22.34 110.23-23.34L110.23-23.34L110.23-23.34Q111.23-24.34 112.57-24.91L112.57-24.91L112.57-24.91Q113.92-25.49 115.43-25.49L115.43-25.49L117.43-25.49L117.43-25.49Q118.95-25.49 120.29-24.91L120.29-24.91L120.29-24.91Q121.63-24.34 122.63-23.34L122.63-23.34L122.63-23.34Q123.63-22.34 124.21-21.00L124.21-21.00L124.21-21.00Q124.78-19.65 124.78-18.14L124.78-18.14L124.78-12.26L111.08-12.26L111.08-6.69L111.08-6.69Q111.08-5.79 111.43-4.99L111.43-4.99L111.43-4.99Q111.77-4.20 112.35-3.61L112.35-3.61L112.35-3.61Q112.94-3.03 113.73-2.69L113.73-2.69L113.73-2.69Q114.53-2.34 115.43-2.34L115.43-2.34L117.43-2.34L117.43-2.34Q118.33-2.34 119.13-2.69L119.13-2.69L119.13-2.69Q119.92-3.03 120.51-3.61L120.51-3.61L120.51-3.61Q121.09-4.20 121.44-4.99L121.44-4.99L121.44-4.99Q121.78-5.79 121.78-6.69L121.78-6.69L121.78-8.35L124.78-7.86L124.78-6.86zM121.78-14.60L121.78-18.31L121.78-18.31Q121.78-19.21 121.44-20.01L121.44-20.01L121.44-20.01Q121.09-20.80 120.51-21.39L120.51-21.39L120.51-21.39Q119.92-21.97 119.13-22.31L119.13-22.31L119.13-22.31Q118.33-22.66 117.43-22.66L117.43-22.66L115.43-22.66L115.43-22.66Q114.53-22.66 113.73-22.31L113.73-22.31L113.73-22.31Q112.94-21.97 112.35-21.39L112.35-21.39L112.35-21.39Q111.77-20.80 111.43-20.01L111.43-20.01L111.43-20.01Q111.08-19.21 111.08-18.31L111.08-18.31L111.08-14.60L121.78-14.60" fill="#f81b24" stroke="none" stroke-width="none" transform="translate(-447.44000244140625,13.089700719321641)" style="fill: rgb(254, 93, 39);"/></g><g class="path" style="transform: scale(0.91); transform-origin: -289.335px -4.4153px; animation: 1s linear -0.547317s infinite normal forwards running breath-a841dfa1-f22d-4670-b0a8-f2503abadb00;"><path d="M175.93-35.01L166.67 0L165.04 0L158.23-26.34L158.13-27.71L157.98-26.34L151.22 0L149.58 0L140.28-35.01L143.43-35.01L150.29-8.40L150.39-7.10L150.49-8.40L157.23-35.01L158.98-35.01L165.72-8.40L165.82-7.10L165.94-8.40L172.78-35.01L175.93-35.01" fill="#f81b24" stroke="none" stroke-width="none" transform="translate(-447.44000244140625,13.089700719321641)" style="fill: rgb(248, 27, 36);"/></g><g class="path" style="transform: scale(0.91); transform-origin: -260.06px 0.589701px; animation: 1s linear -0.53122s infinite normal forwards running breath-a841dfa1-f22d-4670-b0a8-f2503abadb00;"><path d="M195.73 0L194.73 0L193.07-2.49L193.07-2.49Q192.04-1.15 190.50-0.33L190.50-0.33L190.50-0.33Q188.96 0.49 187.13 0.49L187.13 0.49L186.38 0.49L186.38 0.49Q184.86 0.49 183.52-0.09L183.52-0.09L183.52-0.09Q182.18-0.66 181.18-1.66L181.18-1.66L181.18-1.66Q180.18-2.66 179.60-4.00L179.60-4.00L179.60-4.00Q179.03-5.35 179.03-6.86L179.03-6.86L179.03-7.10L179.03-7.10Q179.03-8.62 179.60-9.96L179.60-9.96L179.60-9.96Q180.18-11.30 181.18-12.30L181.18-12.30L181.18-12.30Q182.18-13.31 183.52-13.88L183.52-13.88L183.52-13.88Q184.86-14.45 186.38-14.45L186.38-14.45L192.72-14.45L192.72-18.31L192.72-18.31Q192.72-19.21 192.38-20.01L192.38-20.01L192.38-20.01Q192.04-20.80 191.46-21.39L191.46-21.39L191.46-21.39Q190.87-21.97 190.08-22.31L190.08-22.31L190.08-22.31Q189.28-22.66 188.38-22.66L188.38-22.66L186.62-22.66L186.62-22.66Q185.72-22.66 184.92-22.31L184.92-22.31L184.92-22.31Q184.13-21.97 183.54-21.39L183.54-21.39L183.54-21.39Q182.96-20.80 182.62-20.01L182.62-20.01L182.62-20.01Q182.28-19.21 182.28-18.31L182.28-18.31L182.28-17.41L179.27-17.90L179.27-18.14L179.27-18.14Q179.27-19.65 179.85-21.00L179.85-21.00L179.85-21.00Q180.42-22.34 181.42-23.34L181.42-23.34L181.42-23.34Q182.42-24.34 183.76-24.91L183.76-24.91L183.76-24.91Q185.11-25.49 186.62-25.49L186.62-25.49L188.38-25.49L188.38-25.49Q189.89-25.49 191.24-24.91L191.24-24.91L191.24-24.91Q192.58-24.34 193.58-23.34L193.58-23.34L193.58-23.34Q194.58-22.34 195.15-21.00L195.15-21.00L195.15-21.00Q195.73-19.65 195.73-18.14L195.73-18.14L195.73 0zM192.72-6.69L192.72-12.11L186.38-12.11L186.38-12.11Q185.47-12.11 184.68-11.77L184.68-11.77L184.68-11.77Q183.89-11.43 183.30-10.83L183.30-10.83L183.30-10.83Q182.71-10.23 182.37-9.44L182.37-9.44L182.37-9.44Q182.03-8.64 182.03-7.74L182.03-7.74L182.03-6.69L182.03-6.69Q182.03-5.79 182.37-4.99L182.37-4.99L182.37-4.99Q182.71-4.20 183.30-3.61L183.30-3.61L183.30-3.61Q183.89-3.03 184.68-2.69L184.68-2.69L184.68-2.69Q185.47-2.34 186.38-2.34L186.38-2.34L188.38-2.34L188.38-2.34Q189.28-2.34 190.08-2.69L190.08-2.69L190.08-2.69Q190.87-3.03 191.46-3.61L191.46-3.61L191.46-3.61Q192.04-4.20 192.38-4.99L192.38-4.99L192.38-4.99Q192.72-5.79 192.72-6.69L192.72-6.69" fill="#f81b24" stroke="none" stroke-width="none" transform="translate(-447.44000244140625,13.089700719321641)" style="fill: rgb(0, 149, 83);"/></g><g class="path" style="transform: scale(0.91); transform-origin: -243.205px -19.9203px; animation: 1s linear -0.515122s infinite normal forwards running breath-a841dfa1-f22d-4670-b0a8-f2503abadb00;"><path d="M205.98-31.01L202.49-31.01L202.49-35.01L205.98-35.01L205.98-31.01" fill="#f81b24" stroke="none" stroke-width="none" transform="translate(-447.44000244140625,13.089700719321641)" style="fill: rgb(254, 93, 39);"/></g><g class="path" style="transform: scale(0.91); transform-origin: -243.205px 0.589701px; animation: 1s linear -0.499024s infinite normal forwards running breath-a841dfa1-f22d-4670-b0a8-f2503abadb00;"><path d="M205.74 0L202.73 0L202.73-25L205.74-25L205.74 0" fill="#f81b24" stroke="none" stroke-width="none" transform="translate(-447.44000244140625,13.089700719321641)" style="fill: rgb(248, 27, 36);"/></g><g class="path" style="transform: scale(0.91); transform-origin: -229.78px -2.6553px; animation: 1s linear -0.482927s infinite normal forwards running breath-a841dfa1-f22d-4670-b0a8-f2503abadb00;"><path d="M224.58 0L221.85 0L221.85 0Q220.48 0 219.27-0.51L219.27-0.51L219.27-0.51Q218.07-1.03 217.18-1.93L217.18-1.93L217.18-1.93Q216.28-2.83 215.76-4.03L215.76-4.03L215.76-4.03Q215.23-5.22 215.23-6.59L215.23-6.59L215.23-22.14L210.74-22.14L210.74-25L215.23-25L215.23-31.01L218.24-31.49L218.24-25L224.58-25L224.58-22.14L218.24-22.14L218.24-6.45L218.24-6.45Q218.24-5.69 218.52-5.04L218.52-5.04L218.52-5.04Q218.80-4.39 219.29-3.91L219.29-3.91L219.29-3.91Q219.78-3.42 220.43-3.14L220.43-3.14L220.43-3.14Q221.09-2.86 221.85-2.86L221.85-2.86L224.58-2.86L224.58 0" fill="#f81b24" stroke="none" stroke-width="none" transform="translate(-447.44000244140625,13.089700719321641)" style="fill: rgb(0, 149, 83);"/></g><g class="path" style="transform: scale(0.91); transform-origin: -190.02px -4.4153px; animation: 1s linear -0.466829s infinite normal forwards running breath-a841dfa1-f22d-4670-b0a8-f2503abadb00;"><path d="M275.24-35.01L265.99 0L264.36 0L257.54-26.34L257.45-27.71L257.30-26.34L250.54 0L248.90 0L239.60-35.01L242.75-35.01L249.61-8.40L249.71-7.10L249.80-8.40L256.54-35.01L258.30-35.01L265.04-8.40L265.14-7.10L265.26-8.40L272.09-35.01L275.24-35.01" fill="#f81b24" stroke="none" stroke-width="none" transform="translate(-447.44000244140625,13.089700719321641)" style="fill: rgb(254, 93, 39);"/></g><g class="path" style="transform: scale(0.91); transform-origin: -159.84px -4.4153px; animation: 1s linear -0.450732s infinite normal forwards running breath-a841dfa1-f22d-4670-b0a8-f2503abadb00;"><path d="M295.95 0L292.94 0L292.94-18.31L292.94-18.31Q292.94-19.21 292.60-20.01L292.60-20.01L292.60-20.01Q292.26-20.80 291.67-21.39L291.67-21.39L291.67-21.39Q291.09-21.97 290.30-22.31L290.30-22.31L290.30-22.31Q289.50-22.66 288.60-22.66L288.60-22.66L286.60-22.66L286.60-22.66Q285.69-22.66 284.90-22.31L284.90-22.31L284.90-22.31Q284.11-21.97 283.52-21.39L283.52-21.39L283.52-21.39Q282.93-20.80 282.59-20.01L282.59-20.01L282.59-20.01Q282.25-19.21 282.25-18.31L282.25-18.31L282.25 0L279.25 0L279.25-35.01L282.25-35.01L282.25-22.90L282.25-22.90Q283.28-24.12 284.72-24.80L284.72-24.80L284.72-24.80Q286.16-25.49 287.84-25.49L287.84-25.49L288.60-25.49L288.60-25.49Q290.11-25.49 291.46-24.91L291.46-24.91L291.46-24.91Q292.80-24.34 293.80-23.34L293.80-23.34L293.80-23.34Q294.80-22.34 295.37-21.00L295.37-21.00L295.37-21.00Q295.95-19.65 295.95-18.14L295.95-18.14L295.95 0" fill="#f81b24" stroke="none" stroke-width="none" transform="translate(-447.44000244140625,13.089700719321641)" style="fill: rgb(248, 27, 36);"/></g><g class="path" style="transform: scale(0.91); transform-origin: -142.985px -19.9203px; animation: 1s linear -0.434634s infinite normal forwards running breath-a841dfa1-f22d-4670-b0a8-f2503abadb00;"><path d="M306.20-31.01L302.71-31.01L302.71-35.01L306.20-35.01L306.20-31.01" fill="#f81b24" stroke="none" stroke-width="none" transform="translate(-447.44000244140625,13.089700719321641)" style="fill: rgb(0, 149, 83);"/></g><g class="path" style="transform: scale(0.91); transform-origin: -142.985px 0.589701px; animation: 1s linear -0.418537s infinite normal forwards running breath-a841dfa1-f22d-4670-b0a8-f2503abadb00;"><path d="M305.96 0L302.95 0L302.95-25L305.96-25L305.96 0" fill="#f81b24" stroke="none" stroke-width="none" transform="translate(-447.44000244140625,13.089700719321641)" style="fill: rgb(254, 93, 39);"/></g><g class="path" style="transform: scale(0.91); transform-origin: -131.975px -4.4153px; animation: 1s linear -0.402439s infinite normal forwards running breath-a841dfa1-f22d-4670-b0a8-f2503abadb00;"><path d="M316.97 0L313.96 0L313.96-35.01L316.97-35.01L316.97 0" fill="#f81b24" stroke="none" stroke-width="none" transform="translate(-447.44000244140625,13.089700719321641)" style="fill: rgb(248, 27, 36);"/></g><g class="path" style="transform: scale(0.91); transform-origin: -115.12px 0.589701px; animation: 1s linear -0.386341s infinite normal forwards running breath-a841dfa1-f22d-4670-b0a8-f2503abadb00;"><path d="M340.67-6.86L340.67-6.86L340.67-6.86Q340.67-5.35 340.10-4.00L340.10-4.00L340.10-4.00Q339.53-2.66 338.53-1.66L338.53-1.66L338.53-1.66Q337.52-0.66 336.18-0.09L336.18-0.09L336.18-0.09Q334.84 0.49 333.33 0.49L333.33 0.49L331.32 0.49L331.32 0.49Q329.81 0.49 328.47-0.09L328.47-0.09L328.47-0.09Q327.12-0.66 326.12-1.66L326.12-1.66L326.12-1.66Q325.12-2.66 324.55-4.00L324.55-4.00L324.55-4.00Q323.97-5.35 323.97-6.86L323.97-6.86L323.97-18.14L323.97-18.14Q323.97-19.65 324.55-21.00L324.55-21.00L324.55-21.00Q325.12-22.34 326.12-23.34L326.12-23.34L326.12-23.34Q327.12-24.34 328.47-24.91L328.47-24.91L328.47-24.91Q329.81-25.49 331.32-25.49L331.32-25.49L333.33-25.49L333.33-25.49Q334.84-25.49 336.18-24.91L336.18-24.91L336.18-24.91Q337.52-24.34 338.53-23.34L338.53-23.34L338.53-23.34Q339.53-22.34 340.10-21.00L340.10-21.00L340.10-21.00Q340.67-19.65 340.67-18.14L340.67-18.14L340.67-12.26L326.98-12.26L326.98-6.69L326.98-6.69Q326.98-5.79 327.32-4.99L327.32-4.99L327.32-4.99Q327.66-4.20 328.25-3.61L328.25-3.61L328.25-3.61Q328.83-3.03 329.63-2.69L329.63-2.69L329.63-2.69Q330.42-2.34 331.32-2.34L331.32-2.34L333.33-2.34L333.33-2.34Q334.23-2.34 335.02-2.69L335.02-2.69L335.02-2.69Q335.82-3.03 336.40-3.61L336.40-3.61L336.40-3.61Q336.99-4.20 337.33-4.99L337.33-4.99L337.33-4.99Q337.67-5.79 337.67-6.69L337.67-6.69L337.67-8.35L340.67-7.86L340.67-6.86zM337.67-14.60L337.67-18.31L337.67-18.31Q337.67-19.21 337.33-20.01L337.33-20.01L337.33-20.01Q336.99-20.80 336.40-21.39L336.40-21.39L336.40-21.39Q335.82-21.97 335.02-22.31L335.02-22.31L335.02-22.31Q334.23-22.66 333.33-22.66L333.33-22.66L331.32-22.66L331.32-22.66Q330.42-22.66 329.63-22.31L329.63-22.31L329.63-22.31Q328.83-21.97 328.25-21.39L328.25-21.39L328.25-21.39Q327.66-20.80 327.32-20.01L327.32-20.01L327.32-20.01Q326.98-19.21 326.98-18.31L326.98-18.31L326.98-14.60L337.67-14.60" fill="#f81b24" stroke="none" stroke-width="none" transform="translate(-447.44000244140625,13.089700719321641)" style="fill: rgb(0, 149, 83);"/></g><g class="path" style="transform: scale(0.91); transform-origin: -84.34px -2.6553px; animation: 1s linear -0.370244s infinite normal forwards running breath-a841dfa1-f22d-4670-b0a8-f2503abadb00;"><path d="M370.02 0L367.29 0L367.29 0Q365.92 0 364.71-0.51L364.71-0.51L364.71-0.51Q363.50-1.03 362.61-1.93L362.61-1.93L362.61-1.93Q361.72-2.83 361.19-4.03L361.19-4.03L361.19-4.03Q360.67-5.22 360.67-6.59L360.67-6.59L360.67-22.14L356.18-22.14L356.18-25L360.67-25L360.67-31.01L363.67-31.49L363.67-25L370.02-25L370.02-22.14L363.67-22.14L363.67-6.45L363.67-6.45Q363.67-5.69 363.95-5.04L363.95-5.04L363.95-5.04Q364.23-4.39 364.72-3.91L364.72-3.91L364.72-3.91Q365.21-3.42 365.87-3.14L365.87-3.14L365.87-3.14Q366.53-2.86 367.29-2.86L367.29-2.86L370.02-2.86L370.02 0" fill="#f81b24" stroke="none" stroke-width="none" transform="translate(-447.44000244140625,13.089700719321641)" style="fill: rgb(254, 93, 39);"/></g><g class="path" style="transform: scale(0.91); transform-origin: -63.55px -4.4153px; animation: 1s linear -0.354146s infinite normal forwards running breath-a841dfa1-f22d-4670-b0a8-f2503abadb00;"><path d="M392.24 0L389.23 0L389.23-18.31L389.23-18.31Q389.23-19.21 388.89-20.01L388.89-20.01L388.89-20.01Q388.55-20.80 387.96-21.39L387.96-21.39L387.96-21.39Q387.38-21.97 386.58-22.31L386.58-22.31L386.58-22.31Q385.79-22.66 384.89-22.66L384.89-22.66L382.89-22.66L382.89-22.66Q381.98-22.66 381.19-22.31L381.19-22.31L381.19-22.31Q380.40-21.97 379.81-21.39L379.81-21.39L379.81-21.39Q379.22-20.80 378.88-20.01L378.88-20.01L378.88-20.01Q378.54-19.21 378.54-18.31L378.54-18.31L378.54 0L375.54 0L375.54-35.01L378.54-35.01L378.54-22.90L378.54-22.90Q379.57-24.12 381.01-24.80L381.01-24.80L381.01-24.80Q382.45-25.49 384.13-25.49L384.13-25.49L384.89-25.49L384.89-25.49Q386.40-25.49 387.74-24.91L387.74-24.91L387.74-24.91Q389.09-24.34 390.09-23.34L390.09-23.34L390.09-23.34Q391.09-22.34 391.66-21.00L391.66-21.00L391.66-21.00Q392.24-19.65 392.24-18.14L392.24-18.14L392.24 0" fill="#f81b24" stroke="none" stroke-width="none" transform="translate(-447.44000244140625,13.089700719321641)" style="fill: rgb(248, 27, 36);"/></g><g class="path" style="transform: scale(0.91); transform-origin: -40.85px 0.589701px; animation: 1s linear -0.338049s infinite normal forwards running breath-a841dfa1-f22d-4670-b0a8-f2503abadb00;"><path d="M414.94-6.86L414.94-6.86L414.94-6.86Q414.94-5.35 414.37-4.00L414.37-4.00L414.37-4.00Q413.79-2.66 412.79-1.66L412.79-1.66L412.79-1.66Q411.79-0.66 410.45-0.09L410.45-0.09L410.45-0.09Q409.11 0.49 407.59 0.49L407.59 0.49L405.59 0.49L405.59 0.49Q404.08 0.49 402.73-0.09L402.73-0.09L402.73-0.09Q401.39-0.66 400.39-1.66L400.39-1.66L400.39-1.66Q399.39-2.66 398.82-4.00L398.82-4.00L398.82-4.00Q398.24-5.35 398.24-6.86L398.24-6.86L398.24-18.14L398.24-18.14Q398.24-19.65 398.82-21.00L398.82-21.00L398.82-21.00Q399.39-22.34 400.39-23.34L400.39-23.34L400.39-23.34Q401.39-24.34 402.73-24.91L402.73-24.91L402.73-24.91Q404.08-25.49 405.59-25.49L405.59-25.49L407.59-25.49L407.59-25.49Q409.11-25.49 410.45-24.91L410.45-24.91L410.45-24.91Q411.79-24.34 412.79-23.34L412.79-23.34L412.79-23.34Q413.79-22.34 414.37-21.00L414.37-21.00L414.37-21.00Q414.94-19.65 414.94-18.14L414.94-18.14L414.94-12.26L401.25-12.26L401.25-6.69L401.25-6.69Q401.25-5.79 401.59-4.99L401.59-4.99L401.59-4.99Q401.93-4.20 402.51-3.61L402.51-3.61L402.51-3.61Q403.10-3.03 403.89-2.69L403.89-2.69L403.89-2.69Q404.69-2.34 405.59-2.34L405.59-2.34L407.59-2.34L407.59-2.34Q408.50-2.34 409.29-2.69L409.29-2.69L409.29-2.69Q410.08-3.03 410.67-3.61L410.67-3.61L410.67-3.61Q411.25-4.20 411.60-4.99L411.60-4.99L411.60-4.99Q411.94-5.79 411.94-6.69L411.94-6.69L411.94-8.35L414.94-7.86L414.94-6.86zM411.94-14.60L411.94-18.31L411.94-18.31Q411.94-19.21 411.60-20.01L411.60-20.01L411.60-20.01Q411.25-20.80 410.67-21.39L410.67-21.39L410.67-21.39Q410.08-21.97 409.29-22.31L409.29-22.31L409.29-22.31Q408.50-22.66 407.59-22.66L407.59-22.66L405.59-22.66L405.59-22.66Q404.69-22.66 403.89-22.31L403.89-22.31L403.89-22.31Q403.10-21.97 402.51-21.39L402.51-21.39L402.51-21.39Q401.93-20.80 401.59-20.01L401.59-20.01L401.59-20.01Q401.25-19.21 401.25-18.31L401.25-18.31L401.25-14.60L411.94-14.60" fill="#f81b24" stroke="none" stroke-width="none" transform="translate(-447.44000244140625,13.089700719321641)" style="fill: rgb(0, 149, 83);"/></g><g class="path" style="transform: scale(0.91); transform-origin: -4.655px -4.4153px; animation: 1s linear -0.321951s infinite normal forwards running breath-a841dfa1-f22d-4670-b0a8-f2503abadb00;"><path d="M452.64-8.11L452.64-8.11L452.64-8.11Q452.64-6.32 451.97-4.76L451.97-4.76L451.97-4.76Q451.29-3.20 450.12-2.03L450.12-2.03L450.12-2.03Q448.95-0.85 447.39-0.18L447.39-0.18L447.39-0.18Q445.83 0.49 444.04 0.49L444.04 0.49L441.55 0.49L441.55 0.49Q439.77 0.49 438.20-0.18L438.20-0.18L438.20-0.18Q436.62-0.85 435.45-2.03L435.45-2.03L435.45-2.03Q434.28-3.20 433.61-4.76L433.61-4.76L433.61-4.76Q432.93-6.32 432.93-8.11L432.93-8.11L432.93-26.90L432.93-26.90Q432.93-28.69 433.61-30.25L433.61-30.25L433.61-30.25Q434.28-31.81 435.45-32.98L435.45-32.98L435.45-32.98Q436.62-34.16 438.20-34.83L438.20-34.83L438.20-34.83Q439.77-35.50 441.55-35.50L441.55-35.50L444.04-35.50L444.04-35.50Q445.83-35.50 447.39-34.83L447.39-34.83L447.39-34.83Q448.95-34.16 450.12-32.98L450.12-32.98L450.12-32.98Q451.29-31.81 451.97-30.25L451.97-30.25L451.97-30.25Q452.64-28.69 452.64-26.90L452.64-26.90L452.64-25.49L449.49-25L449.49-26.90L449.49-26.90Q449.49-28.08 449.05-29.09L449.05-29.09L449.05-29.09Q448.61-30.10 447.85-30.86L447.85-30.86L447.85-30.86Q447.09-31.62 446.08-32.06L446.08-32.06L446.08-32.06Q445.07-32.50 443.90-32.50L443.90-32.50L441.70-32.50L441.70-32.50Q440.53-32.50 439.51-32.06L439.51-32.06L439.51-32.06Q438.50-31.62 437.73-30.86L437.73-30.86L437.73-30.86Q436.96-30.10 436.52-29.09L436.52-29.09L436.52-29.09Q436.08-28.08 436.08-26.90L436.08-26.90L436.08-8.11L436.08-8.11Q436.08-6.93 436.52-5.92L436.52-5.92L436.52-5.92Q436.96-4.91 437.73-4.14L437.73-4.14L437.73-4.14Q438.50-3.37 439.51-2.93L439.51-2.93L439.51-2.93Q440.53-2.49 441.70-2.49L441.70-2.49L443.90-2.49L443.90-2.49Q445.07-2.49 446.08-2.93L446.08-2.93L446.08-2.93Q447.09-3.37 447.85-4.14L447.85-4.14L447.85-4.14Q448.61-4.91 449.05-5.92L449.05-5.92L449.05-5.92Q449.49-6.93 449.49-8.11L449.49-8.11L449.49-10.01L452.64-9.50L452.64-8.11" fill="#f81b24" stroke="none" stroke-width="none" transform="translate(-447.44000244140625,13.089700719321641)" style="fill: rgb(254, 93, 39);"/></g><g class="path" style="transform: scale(0.91); transform-origin: 19.55px -4.4153px; animation: 1s linear -0.305854s infinite normal forwards running breath-a841dfa1-f22d-4670-b0a8-f2503abadb00;"><path d="M475.34 0L472.34 0L472.34-18.31L472.34-18.31Q472.34-19.21 472.00-20.01L472.00-20.01L472.00-20.01Q471.66-20.80 471.07-21.39L471.07-21.39L471.07-21.39Q470.48-21.97 469.69-22.31L469.69-22.31L469.69-22.31Q468.90-22.66 467.99-22.66L467.99-22.66L465.99-22.66L465.99-22.66Q465.09-22.66 464.29-22.31L464.29-22.31L464.29-22.31Q463.50-21.97 462.92-21.39L462.92-21.39L462.92-21.39Q462.33-20.80 461.99-20.01L461.99-20.01L461.99-20.01Q461.65-19.21 461.65-18.31L461.65-18.31L461.65 0L458.64 0L458.64-35.01L461.65-35.01L461.65-22.90L461.65-22.90Q462.67-24.12 464.11-24.80L464.11-24.80L464.11-24.80Q465.55-25.49 467.24-25.49L467.24-25.49L467.99-25.49L467.99-25.49Q469.51-25.49 470.85-24.91L470.85-24.91L470.85-24.91Q472.19-24.34 473.19-23.34L473.19-23.34L473.19-23.34Q474.19-22.34 474.77-21.00L474.77-21.00L474.77-21.00Q475.34-19.65 475.34-18.14L475.34-18.14L475.34 0" fill="#f81b24" stroke="none" stroke-width="none" transform="translate(-447.44000244140625,13.089700719321641)" style="fill: rgb(248, 27, 36);"/></g><g class="path" style="transform: scale(0.91); transform-origin: 42.26px 0.589701px; animation: 1s linear -0.289756s infinite normal forwards running breath-a841dfa1-f22d-4670-b0a8-f2503abadb00;"><path d="M498.05-6.86L498.05-6.86L498.05-6.86Q498.05-5.35 497.47-4.00L497.47-4.00L497.47-4.00Q496.90-2.66 495.90-1.66L495.90-1.66L495.90-1.66Q494.90-0.66 493.55-0.09L493.55-0.09L493.55-0.09Q492.21 0.49 490.70 0.49L490.70 0.49L488.70 0.49L488.70 0.49Q487.18 0.49 485.84-0.09L485.84-0.09L485.84-0.09Q484.50-0.66 483.50-1.66L483.50-1.66L483.50-1.66Q482.50-2.66 481.92-4.00L481.92-4.00L481.92-4.00Q481.35-5.35 481.35-6.86L481.35-6.86L481.35-18.14L481.35-18.14Q481.35-19.65 481.92-21.00L481.92-21.00L481.92-21.00Q482.50-22.34 483.50-23.34L483.50-23.34L483.50-23.34Q484.50-24.34 485.84-24.91L485.84-24.91L485.84-24.91Q487.18-25.49 488.70-25.49L488.70-25.49L490.70-25.49L490.70-25.49Q492.21-25.49 493.55-24.91L493.55-24.91L493.55-24.91Q494.90-24.34 495.90-23.34L495.90-23.34L495.90-23.34Q496.90-22.34 497.47-21.00L497.47-21.00L497.47-21.00Q498.05-19.65 498.05-18.14L498.05-18.14L498.05-12.26L484.35-12.26L484.35-6.69L484.35-6.69Q484.35-5.79 484.69-4.99L484.69-4.99L484.69-4.99Q485.03-4.20 485.62-3.61L485.62-3.61L485.62-3.61Q486.21-3.03 487.00-2.69L487.00-2.69L487.00-2.69Q487.79-2.34 488.70-2.34L488.70-2.34L490.70-2.34L490.70-2.34Q491.60-2.34 492.40-2.69L492.40-2.69L492.40-2.69Q493.19-3.03 493.77-3.61L493.77-3.61L493.77-3.61Q494.36-4.20 494.70-4.99L494.70-4.99L494.70-4.99Q495.04-5.79 495.04-6.69L495.04-6.69L495.04-8.35L498.05-7.86L498.05-6.86zM495.04-14.60L495.04-18.31L495.04-18.31Q495.04-19.21 494.70-20.01L494.70-20.01L494.70-20.01Q494.36-20.80 493.77-21.39L493.77-21.39L493.77-21.39Q493.19-21.97 492.40-22.31L492.40-22.31L492.40-22.31Q491.60-22.66 490.70-22.66L490.70-22.66L488.70-22.66L488.70-22.66Q487.79-22.66 487.00-22.31L487.00-22.31L487.00-22.31Q486.21-21.97 485.62-21.39L485.62-21.39L485.62-21.39Q485.03-20.80 484.69-20.01L484.69-20.01L484.69-20.01Q484.35-19.21 484.35-18.31L484.35-18.31L484.35-14.60L495.04-14.60" fill="#f81b24" stroke="none" stroke-width="none" transform="translate(-447.44000244140625,13.089700719321641)" style="fill: rgb(0, 149, 83);"/></g><g class="path" style="transform: scale(0.91); transform-origin: 61.035px -4.4153px; animation: 1s linear -0.273659s infinite normal forwards running breath-a841dfa1-f22d-4670-b0a8-f2503abadb00;"><path d="M515.41-32.15L512.65-32.15L512.65-32.15Q511.89-32.15 511.24-31.87L511.24-31.87L511.24-31.87Q510.60-31.59 510.11-31.10L510.11-31.10L510.11-31.10Q509.62-30.62 509.34-29.96L509.34-29.96L509.34-29.96Q509.06-29.30 509.06-28.54L509.06-28.54L509.06-25L514.89-25L514.89-22.14L509.06-22.14L509.06 0L506.05 0L506.05-22.14L501.54-22.14L501.54-25L506.05-25L506.05-28.39L506.05-28.39Q506.05-29.76 506.57-30.97L506.57-30.97L506.57-30.97Q507.08-32.18 507.98-33.08L507.98-33.08L507.98-33.08Q508.89-33.98 510.08-34.50L510.08-34.50L510.08-34.50Q511.28-35.01 512.65-35.01L512.65-35.01L515.41-35.01L515.41-32.15" fill="#f81b24" stroke="none" stroke-width="none" transform="translate(-447.44000244140625,13.089700719321641)" style="fill: rgb(254, 93, 39);"/></g><g class="path" style="transform: scale(0.91); transform-origin: 93.32px -4.4153px; animation: 1s linear -0.257561s infinite normal forwards running breath-a841dfa1-f22d-4670-b0a8-f2503abadb00;"><path d="M550.61-22.05L550.61-22.05L550.61-22.05Q550.61-20.26 549.94-18.70L549.94-18.70L549.94-18.70Q549.27-17.14 548.10-15.97L548.10-15.97L548.10-15.97Q546.92-14.79 545.35-14.12L545.35-14.12L545.35-14.12Q543.77-13.45 541.99-13.45L541.99-13.45L534.06-13.45L534.06 0L530.91 0L530.91-35.01L541.99-35.01L541.99-35.01Q543.77-35.01 545.35-34.34L545.35-34.34L545.35-34.34Q546.92-33.67 548.10-32.50L548.10-32.50L548.10-32.50Q549.27-31.32 549.94-29.75L549.94-29.75L549.94-29.75Q550.61-28.17 550.61-26.39L550.61-26.39L550.61-22.05zM547.46-22.05L547.46-26.39L547.46-26.39Q547.46-27.56 547.02-28.58L547.02-28.58L547.02-28.58Q546.58-29.59 545.81-30.36L545.81-30.36L545.81-30.36Q545.04-31.13 544.03-31.57L544.03-31.57L544.03-31.57Q543.02-32.01 541.85-32.01L541.85-32.01L534.06-32.01L534.06-16.46L541.85-16.46L541.85-16.46Q543.02-16.46 544.03-16.89L544.03-16.89L544.03-16.89Q545.04-17.33 545.81-18.09L545.81-18.09L545.81-18.09Q546.58-18.85 547.02-19.86L547.02-19.86L547.02-19.86Q547.46-20.87 547.46-22.05L547.46-22.05" fill="#f81b24" stroke="none" stroke-width="none" transform="translate(-447.44000244140625,13.089700719321641)" style="fill: rgb(248, 27, 36);"/></g><g class="path" style="transform: scale(0.91); transform-origin: 113.355px 0.344701px; animation: 1s linear -0.241463s infinite normal forwards running breath-a841dfa1-f22d-4670-b0a8-f2503abadb00;"><path d="M565.97-22.14L562.96-22.14L562.96-22.14Q562.06-22.14 561.27-21.80L561.27-21.80L561.27-21.80Q560.47-21.46 559.89-20.87L559.89-20.87L559.89-20.87Q559.30-20.29 558.96-19.49L558.96-19.49L558.96-19.49Q558.62-18.70 558.62-17.80L558.62-17.80L558.62 0L555.62 0L555.62-25L556.62-25L558.25-22.46L558.25-22.46Q559.28-23.85 560.83-24.67L560.83-24.67L560.83-24.67Q562.38-25.49 564.21-25.49L564.21-25.49L565.97-25.49L565.97-22.14" fill="#f81b24" stroke="none" stroke-width="none" transform="translate(-447.44000244140625,13.089700719321641)" style="fill: rgb(0, 149, 83);"/></g><g class="path" style="transform: scale(0.91); transform-origin: 130.88px 0.589701px; animation: 1s linear -0.225366s infinite normal forwards running breath-a841dfa1-f22d-4670-b0a8-f2503abadb00;"><path d="M586.67-6.86L586.67-6.86L586.67-6.86Q586.67-5.35 586.10-4.00L586.10-4.00L586.10-4.00Q585.52-2.66 584.52-1.66L584.52-1.66L584.52-1.66Q583.52-0.66 582.18-0.09L582.18-0.09L582.18-0.09Q580.83 0.49 579.32 0.49L579.32 0.49L577.32 0.49L577.32 0.49Q575.81 0.49 574.46-0.09L574.46-0.09L574.46-0.09Q573.12-0.66 572.12-1.66L572.12-1.66L572.12-1.66Q571.12-2.66 570.54-4.00L570.54-4.00L570.54-4.00Q569.97-5.35 569.97-6.86L569.97-6.86L569.97-18.14L569.97-18.14Q569.97-19.65 570.54-21.00L570.54-21.00L570.54-21.00Q571.12-22.34 572.12-23.34L572.12-23.34L572.12-23.34Q573.12-24.34 574.46-24.91L574.46-24.91L574.46-24.91Q575.81-25.49 577.32-25.49L577.32-25.49L579.32-25.49L579.32-25.49Q580.83-25.49 582.18-24.91L582.18-24.91L582.18-24.91Q583.52-24.34 584.52-23.34L584.52-23.34L584.52-23.34Q585.52-22.34 586.10-21.00L586.10-21.00L586.10-21.00Q586.67-19.65 586.67-18.14L586.67-18.14L586.67-12.26L572.97-12.26L572.97-6.69L572.97-6.69Q572.97-5.79 573.32-4.99L573.32-4.99L573.32-4.99Q573.66-4.20 574.24-3.61L574.24-3.61L574.24-3.61Q574.83-3.03 575.62-2.69L575.62-2.69L575.62-2.69Q576.42-2.34 577.32-2.34L577.32-2.34L579.32-2.34L579.32-2.34Q580.22-2.34 581.02-2.69L581.02-2.69L581.02-2.69Q581.81-3.03 582.40-3.61L582.40-3.61L582.40-3.61Q582.98-4.20 583.33-4.99L583.33-4.99L583.33-4.99Q583.67-5.79 583.67-6.69L583.67-6.69L583.67-8.35L586.67-7.86L586.67-6.86zM583.67-14.60L583.67-18.31L583.67-18.31Q583.67-19.21 583.33-20.01L583.33-20.01L583.33-20.01Q582.98-20.80 582.40-21.39L582.40-21.39L582.40-21.39Q581.81-21.97 581.02-22.31L581.02-22.31L581.02-22.31Q580.22-22.66 579.32-22.66L579.32-22.66L577.32-22.66L577.32-22.66Q576.42-22.66 575.62-22.31L575.62-22.31L575.62-22.31Q574.83-21.97 574.24-21.39L574.24-21.39L574.24-21.39Q573.66-20.80 573.32-20.01L573.32-20.01L573.32-20.01Q572.97-19.21 572.97-18.31L572.97-18.31L572.97-14.60L583.67-14.60" fill="#f81b24" stroke="none" stroke-width="none" transform="translate(-447.44000244140625,13.089700719321641)" style="fill: rgb(254, 93, 39);"/></g><g class="path" style="transform: scale(0.91); transform-origin: 153.59px 5.3497px; animation: 1s linear -0.209268s infinite normal forwards running breath-a841dfa1-f22d-4670-b0a8-f2503abadb00;"><path d="M609.38-6.86L609.38-6.86L609.38-6.86Q609.38-5.35 608.80-4.00L608.80-4.00L608.80-4.00Q608.23-2.66 607.23-1.66L607.23-1.66L607.23-1.66Q606.23-0.66 604.88-0.09L604.88-0.09L604.88-0.09Q603.54 0.49 602.03 0.49L602.03 0.49L601.27 0.49L601.27 0.49Q599.58 0.49 598.14-0.20L598.14-0.20L598.14-0.20Q596.70-0.88 595.68-2.10L595.68-2.10L595.68 10.01L592.68 10.01L592.68-25L593.68-25L595.31-22.46L595.31-22.46Q596.34-23.85 597.89-24.67L597.89-24.67L597.89-24.67Q599.44-25.49 601.27-25.49L601.27-25.49L602.03-25.49L602.03-25.49Q603.54-25.49 604.88-24.91L604.88-24.91L604.88-24.91Q606.23-24.34 607.23-23.34L607.23-23.34L607.23-23.34Q608.23-22.34 608.80-21.00L608.80-21.00L608.80-21.00Q609.38-19.65 609.38-18.14L609.38-18.14L609.38-6.86zM606.37-6.69L606.37-18.31L606.37-18.31Q606.37-19.21 606.03-20.01L606.03-20.01L606.03-20.01Q605.69-20.80 605.10-21.39L605.10-21.39L605.10-21.39Q604.52-21.97 603.72-22.31L603.72-22.31L603.72-22.31Q602.93-22.66 602.03-22.66L602.03-22.66L600.02-22.66L600.02-22.66Q599.12-22.66 598.33-22.31L598.33-22.31L598.33-22.31Q597.53-21.97 596.95-21.39L596.95-21.39L596.95-21.39Q596.36-20.80 596.02-20.01L596.02-20.01L596.02-20.01Q595.68-19.21 595.68-18.31L595.68-18.31L595.68-6.69L595.68-6.69Q595.68-5.79 596.02-4.99L596.02-4.99L596.02-4.99Q596.36-4.20 596.95-3.61L596.95-3.61L596.95-3.61Q597.53-3.03 598.33-2.69L598.33-2.69L598.33-2.69Q599.12-2.34 600.02-2.34L600.02-2.34L602.03-2.34L602.03-2.34Q602.93-2.34 603.72-2.69L603.72-2.69L603.72-2.69Q604.52-3.03 605.10-3.61L605.10-3.61L605.10-3.61Q605.69-4.20 606.03-4.99L606.03-4.99L606.03-4.99Q606.37-5.79 606.37-6.69L606.37-6.69" fill="#f81b24" stroke="none" stroke-width="none" transform="translate(-447.44000244140625,13.089700719321641)" style="fill: rgb(248, 27, 36);"/></g><g class="path" style="transform: scale(0.91); transform-origin: 176.29px 0.589701px; animation: 1s linear -0.193171s infinite normal forwards running breath-a841dfa1-f22d-4670-b0a8-f2503abadb00;"><path d="M632.08 0L631.08 0L629.42-2.49L629.42-2.49Q628.39-1.15 626.86-0.33L626.86-0.33L626.86-0.33Q625.32 0.49 623.49 0.49L623.49 0.49L622.73 0.49L622.73 0.49Q621.22 0.49 619.87-0.09L619.87-0.09L619.87-0.09Q618.53-0.66 617.53-1.66L617.53-1.66L617.53-1.66Q616.53-2.66 615.95-4.00L615.95-4.00L615.95-4.00Q615.38-5.35 615.38-6.86L615.38-6.86L615.38-7.10L615.38-7.10Q615.38-8.62 615.95-9.96L615.95-9.96L615.95-9.96Q616.53-11.30 617.53-12.30L617.53-12.30L617.53-12.30Q618.53-13.31 619.87-13.88L619.87-13.88L619.87-13.88Q621.22-14.45 622.73-14.45L622.73-14.45L629.08-14.45L629.08-18.31L629.08-18.31Q629.08-19.21 628.74-20.01L628.74-20.01L628.74-20.01Q628.39-20.80 627.81-21.39L627.81-21.39L627.81-21.39Q627.22-21.97 626.43-22.31L626.43-22.31L626.43-22.31Q625.63-22.66 624.73-22.66L624.73-22.66L622.97-22.66L622.97-22.66Q622.07-22.66 621.28-22.31L621.28-22.31L621.28-22.31Q620.48-21.97 619.90-21.39L619.90-21.39L619.90-21.39Q619.31-20.80 618.97-20.01L618.97-20.01L618.97-20.01Q618.63-19.21 618.63-18.31L618.63-18.31L618.63-17.41L615.63-17.90L615.63-18.14L615.63-18.14Q615.63-19.65 616.20-21.00L616.20-21.00L616.20-21.00Q616.77-22.34 617.77-23.34L617.77-23.34L617.77-23.34Q618.77-24.34 620.12-24.91L620.12-24.91L620.12-24.91Q621.46-25.49 622.97-25.49L622.97-25.49L624.73-25.49L624.73-25.49Q626.25-25.49 627.59-24.91L627.59-24.91L627.59-24.91Q628.93-24.34 629.93-23.34L629.93-23.34L629.93-23.34Q630.93-22.34 631.51-21.00L631.51-21.00L631.51-21.00Q632.08-19.65 632.08-18.14L632.08-18.14L632.08 0zM629.08-6.69L629.08-12.11L622.73-12.11L622.73-12.11Q621.83-12.11 621.03-11.77L621.03-11.77L621.03-11.77Q620.24-11.43 619.65-10.83L619.65-10.83L619.65-10.83Q619.07-10.23 618.73-9.44L618.73-9.44L618.73-9.44Q618.38-8.64 618.38-7.74L618.38-7.74L618.38-6.69L618.38-6.69Q618.38-5.79 618.73-4.99L618.73-4.99L618.73-4.99Q619.07-4.20 619.65-3.61L619.65-3.61L619.65-3.61Q620.24-3.03 621.03-2.69L621.03-2.69L621.03-2.69Q621.83-2.34 622.73-2.34L622.73-2.34L624.73-2.34L624.73-2.34Q625.63-2.34 626.43-2.69L626.43-2.69L626.43-2.69Q627.22-3.03 627.81-3.61L627.81-3.61L627.81-3.61Q628.39-4.20 628.74-4.99L628.74-4.99L628.74-4.99Q629.08-5.79 629.08-6.69L629.08-6.69" fill="#f81b24" stroke="none" stroke-width="none" transform="translate(-447.44000244140625,13.089700719321641)" style="fill: rgb(0, 149, 83);"/></g><g class="path" style="transform: scale(0.91); transform-origin: 195.825px 0.344701px; animation: 1s linear -0.177073s infinite normal forwards running breath-a841dfa1-f22d-4670-b0a8-f2503abadb00;"><path d="M648.44-22.14L645.43-22.14L645.43-22.14Q644.53-22.14 643.74-21.80L643.74-21.80L643.74-21.80Q642.94-21.46 642.36-20.87L642.36-20.87L642.36-20.87Q641.77-20.29 641.43-19.49L641.43-19.49L641.43-19.49Q641.09-18.70 641.09-17.80L641.09-17.80L641.09 0L638.09 0L638.09-25L639.09-25L640.72-22.46L640.72-22.46Q641.75-23.85 643.30-24.67L643.30-24.67L643.30-24.67Q644.85-25.49 646.68-25.49L646.68-25.49L648.44-25.49L648.44-22.14" fill="#f81b24" stroke="none" stroke-width="none" transform="translate(-447.44000244140625,13.089700719321641)" style="fill: rgb(254, 93, 39);"/></g><g class="path" style="transform: scale(0.91); transform-origin: 213.35px 0.589701px; animation: 1s linear -0.160976s infinite normal forwards running breath-a841dfa1-f22d-4670-b0a8-f2503abadb00;"><path d="M669.14-6.86L669.14-6.86L669.14-6.86Q669.14-5.35 668.57-4.00L668.57-4.00L668.57-4.00Q667.99-2.66 666.99-1.66L666.99-1.66L666.99-1.66Q665.99-0.66 664.65-0.09L664.65-0.09L664.65-0.09Q663.31 0.49 661.79 0.49L661.79 0.49L659.79 0.49L659.79 0.49Q658.28 0.49 656.93-0.09L656.93-0.09L656.93-0.09Q655.59-0.66 654.59-1.66L654.59-1.66L654.59-1.66Q653.59-2.66 653.02-4.00L653.02-4.00L653.02-4.00Q652.44-5.35 652.44-6.86L652.44-6.86L652.44-18.14L652.44-18.14Q652.44-19.65 653.02-21.00L653.02-21.00L653.02-21.00Q653.59-22.34 654.59-23.34L654.59-23.34L654.59-23.34Q655.59-24.34 656.93-24.91L656.93-24.91L656.93-24.91Q658.28-25.49 659.79-25.49L659.79-25.49L661.79-25.49L661.79-25.49Q663.31-25.49 664.65-24.91L664.65-24.91L664.65-24.91Q665.99-24.34 666.99-23.34L666.99-23.34L666.99-23.34Q667.99-22.34 668.57-21.00L668.57-21.00L668.57-21.00Q669.14-19.65 669.14-18.14L669.14-18.14L669.14-12.26L655.44-12.26L655.44-6.69L655.44-6.69Q655.44-5.79 655.79-4.99L655.79-4.99L655.79-4.99Q656.13-4.20 656.71-3.61L656.71-3.61L656.71-3.61Q657.30-3.03 658.09-2.69L658.09-2.69L658.09-2.69Q658.89-2.34 659.79-2.34L659.79-2.34L661.79-2.34L661.79-2.34Q662.70-2.34 663.49-2.69L663.49-2.69L663.49-2.69Q664.28-3.03 664.87-3.61L664.87-3.61L664.87-3.61Q665.45-4.20 665.80-4.99L665.80-4.99L665.80-4.99Q666.14-5.79 666.14-6.69L666.14-6.69L666.14-8.35L669.14-7.86L669.14-6.86zM666.14-14.60L666.14-18.31L666.14-18.31Q666.14-19.21 665.80-20.01L665.80-20.01L665.80-20.01Q665.45-20.80 664.87-21.39L664.87-21.39L664.87-21.39Q664.28-21.97 663.49-22.31L663.49-22.31L663.49-22.31Q662.70-22.66 661.79-22.66L661.79-22.66L659.79-22.66L659.79-22.66Q658.89-22.66 658.09-22.31L658.09-22.31L658.09-22.31Q657.30-21.97 656.71-21.39L656.71-21.39L656.71-21.39Q656.13-20.80 655.79-20.01L655.79-20.01L655.79-20.01Q655.44-19.21 655.44-18.31L655.44-18.31L655.44-14.60L666.14-14.60" fill="#f81b24" stroke="none" stroke-width="none" transform="translate(-447.44000244140625,13.089700719321641)" style="fill: rgb(248, 27, 36);"/></g><g class="path" style="transform: scale(0.91); transform-origin: 236.3px 0.589701px; animation: 1s linear -0.144878s infinite normal forwards running breath-a841dfa1-f22d-4670-b0a8-f2503abadb00;"><path d="M692.33-6.35L692.33-6.35L692.33-6.35Q692.33-4.83 691.72-3.58L691.72-3.58L691.72-3.58Q691.11-2.32 690.06-1.42L690.06-1.42L690.06-1.42Q689.01-0.51 687.63-0.01L687.63-0.01L687.63-0.01Q686.25 0.49 684.74 0.49L684.74 0.49L682.74 0.49L682.74 0.49Q681.23 0.49 679.85-0.09L679.85-0.09L679.85-0.09Q678.47-0.66 677.43-1.66L677.43-1.66L677.43-1.66Q676.39-2.66 675.77-4.00L675.77-4.00L675.77-4.00Q675.15-5.35 675.15-6.86L675.15-6.86L675.15-7.86L678.15-8.35L678.15-6.69L678.15-6.69Q678.15-5.79 678.53-4.99L678.53-4.99L678.53-4.99Q678.91-4.20 679.54-3.61L679.54-3.61L679.54-3.61Q680.18-3.03 681.01-2.69L681.01-2.69L681.01-2.69Q681.84-2.34 682.74-2.34L682.74-2.34L684.74-2.34L684.74-2.34Q685.64-2.34 686.47-2.61L686.47-2.61L686.47-2.61Q687.30-2.88 687.95-3.38L687.95-3.38L687.95-3.38Q688.60-3.88 688.98-4.59L688.98-4.59L688.98-4.59Q689.36-5.30 689.36-6.20L689.36-6.20L689.36-6.20Q689.36-7.54 688.77-8.40L688.77-8.40L688.77-8.40Q688.18-9.25 687.22-9.83L687.22-9.83L687.22-9.83Q686.25-10.40 685.02-10.78L685.02-10.78L685.02-10.78Q683.79-11.16 682.50-11.54L682.50-11.54L682.50-11.54Q681.20-11.91 679.97-12.40L679.97-12.40L679.97-12.40Q678.74-12.89 677.77-13.68L677.77-13.68L677.77-13.68Q676.81-14.48 676.22-15.67L676.22-15.67L676.22-15.67Q675.63-16.87 675.63-18.65L675.63-18.65L675.63-18.65Q675.63-20.17 676.22-21.42L676.22-21.42L676.22-21.42Q676.81-22.68 677.81-23.58L677.81-23.58L677.81-23.58Q678.81-24.49 680.14-24.99L680.14-24.99L680.14-24.99Q681.47-25.49 682.98-25.49L682.98-25.49L684.74-25.49L684.74-25.49Q686.25-25.49 687.60-24.91L687.60-24.91L687.60-24.91Q688.94-24.34 689.94-23.34L689.94-23.34L689.94-23.34Q690.94-22.34 691.52-21.00L691.52-21.00L691.52-21.00Q692.09-19.65 692.09-18.14L692.09-18.14L692.09-18.04L689.09-17.55L689.09-18.31L689.09-18.31Q689.09-19.21 688.75-20.01L688.75-20.01L688.75-20.01Q688.40-20.80 687.82-21.39L687.82-21.39L687.82-21.39Q687.23-21.97 686.44-22.31L686.44-22.31L686.44-22.31Q685.64-22.66 684.74-22.66L684.74-22.66L682.98-22.66L682.98-22.66Q682.08-22.66 681.29-22.39L681.29-22.39L681.29-22.39Q680.49-22.12 679.91-21.62L679.91-21.62L679.91-21.62Q679.32-21.12 678.98-20.41L678.98-20.41L678.98-20.41Q678.64-19.70 678.64-18.80L678.64-18.80L678.64-18.80Q678.64-17.50 679.22-16.69L679.22-16.69L679.22-16.69Q679.81-15.87 680.77-15.31L680.77-15.31L680.77-15.31Q681.74-14.75 682.97-14.37L682.97-14.37L682.97-14.37Q684.20-13.99 685.49-13.59L685.49-13.59L685.49-13.59Q686.77-13.18 688.00-12.67L688.00-12.67L688.00-12.67Q689.23-12.16 690.20-11.35L690.20-11.35L690.20-11.35Q691.16-10.55 691.75-9.34L691.75-9.34L691.75-9.34Q692.33-8.13 692.33-6.35" fill="#f81b24" stroke="none" stroke-width="none" transform="translate(-447.44000244140625,13.089700719321641)" style="fill: rgb(0, 149, 83);"/></g><g class="path" style="transform: scale(0.91); transform-origin: 270.745px -4.4153px; animation: 1s linear -0.12878s infinite normal forwards running breath-a841dfa1-f22d-4670-b0a8-f2503abadb00;"><path d="M728.78-35.01L719.80-16.75L719.80 0L716.65 0L716.65-16.70L707.59-35.01L710.99-35.01L718.19-20.46L725.39-35.01L728.78-35.01" fill="#f81b24" stroke="none" stroke-width="none" transform="translate(-447.44000244140625,13.089700719321641)" style="fill: rgb(254, 93, 39);"/></g><g class="path" style="transform: scale(0.91); transform-origin: 291.7px 0.589701px; animation: 1s linear -0.112683s infinite normal forwards running breath-a841dfa1-f22d-4670-b0a8-f2503abadb00;"><path d="M747.49-6.86L747.49-6.86L747.49-6.86Q747.49-5.35 746.91-4.00L746.91-4.00L746.91-4.00Q746.34-2.66 745.34-1.66L745.34-1.66L745.34-1.66Q744.34-0.66 742.99-0.09L742.99-0.09L742.99-0.09Q741.65 0.49 740.14 0.49L740.14 0.49L738.13 0.49L738.13 0.49Q736.62 0.49 735.28-0.09L735.28-0.09L735.28-0.09Q733.94-0.66 732.93-1.66L732.93-1.66L732.93-1.66Q731.93-2.66 731.36-4.00L731.36-4.00L731.36-4.00Q730.79-5.35 730.79-6.86L730.79-6.86L730.79-18.14L730.79-18.14Q730.79-19.65 731.36-21.00L731.36-21.00L731.36-21.00Q731.93-22.34 732.93-23.34L732.93-23.34L732.93-23.34Q733.94-24.34 735.28-24.91L735.28-24.91L735.28-24.91Q736.62-25.49 738.13-25.49L738.13-25.49L740.14-25.49L740.14-25.49Q741.65-25.49 742.99-24.91L742.99-24.91L742.99-24.91Q744.34-24.34 745.34-23.34L745.34-23.34L745.34-23.34Q746.34-22.34 746.91-21.00L746.91-21.00L746.91-21.00Q747.49-19.65 747.49-18.14L747.49-18.14L747.49-6.86zM744.48-6.69L744.48-18.31L744.48-18.31Q744.48-19.21 744.14-20.01L744.14-20.01L744.14-20.01Q743.80-20.80 743.21-21.39L743.21-21.39L743.21-21.39Q742.63-21.97 741.83-22.31L741.83-22.31L741.83-22.31Q741.04-22.66 740.14-22.66L740.14-22.66L738.13-22.66L738.13-22.66Q737.23-22.66 736.44-22.31L736.44-22.31L736.44-22.31Q735.64-21.97 735.06-21.39L735.06-21.39L735.06-21.39Q734.47-20.80 734.13-20.01L734.13-20.01L734.13-20.01Q733.79-19.21 733.79-18.31L733.79-18.31L733.79-6.69L733.79-6.69Q733.79-5.79 734.13-4.99L734.13-4.99L734.13-4.99Q734.47-4.20 735.06-3.61L735.06-3.61L735.06-3.61Q735.64-3.03 736.44-2.69L736.44-2.69L736.44-2.69Q737.23-2.34 738.13-2.34L738.13-2.34L740.14-2.34L740.14-2.34Q741.04-2.34 741.83-2.69L741.83-2.69L741.83-2.69Q742.63-3.03 743.21-3.61L743.21-3.61L743.21-3.61Q743.80-4.20 744.14-4.99L744.14-4.99L744.14-4.99Q744.48-5.79 744.48-6.69L744.48-6.69" fill="#f81b24" stroke="none" stroke-width="none" transform="translate(-447.44000244140625,13.089700719321641)" style="fill: rgb(248, 27, 36);"/></g><g class="path" style="transform: scale(0.91); transform-origin: 314.4px 0.834701px; animation: 1s linear -0.0965854s infinite normal forwards running breath-a841dfa1-f22d-4670-b0a8-f2503abadb00;"><path d="M770.19 0L769.19 0L767.53-2.54L767.53-2.54Q766.50-1.15 764.97-0.33L764.97-0.33L764.97-0.33Q763.43 0.49 761.60 0.49L761.60 0.49L760.84 0.49L760.84 0.49Q759.33 0.49 757.98-0.09L757.98-0.09L757.98-0.09Q756.64-0.66 755.64-1.66L755.64-1.66L755.64-1.66Q754.64-2.66 754.06-4.00L754.06-4.00L754.06-4.00Q753.49-5.35 753.49-6.86L753.49-6.86L753.49-25L756.49-25L756.49-6.69L756.49-6.69Q756.49-5.79 756.84-4.99L756.84-4.99L756.84-4.99Q757.18-4.20 757.76-3.61L757.76-3.61L757.76-3.61Q758.35-3.03 759.14-2.69L759.14-2.69L759.14-2.69Q759.94-2.34 760.84-2.34L760.84-2.34L762.84-2.34L762.84-2.34Q763.75-2.34 764.54-2.69L764.54-2.69L764.54-2.69Q765.33-3.03 765.92-3.61L765.92-3.61L765.92-3.61Q766.50-4.20 766.85-4.99L766.85-4.99L766.85-4.99Q767.19-5.79 767.19-6.69L767.19-6.69L767.19-25L770.19-25L770.19 0" fill="#f81b24" stroke="none" stroke-width="none" transform="translate(-447.44000244140625,13.089700719321641)" style="fill: rgb(0, 149, 83);"/></g><g class="path" style="transform: scale(0.91); transform-origin: 333.935px 0.344701px; animation: 1s linear -0.0804878s infinite normal forwards running breath-a841dfa1-f22d-4670-b0a8-f2503abadb00;"><path d="M786.55-22.14L783.54-22.14L783.54-22.14Q782.64-22.14 781.85-21.80L781.85-21.80L781.85-21.80Q781.05-21.46 780.47-20.87L780.47-20.87L780.47-20.87Q779.88-20.29 779.54-19.49L779.54-19.49L779.54-19.49Q779.20-18.70 779.20-17.80L779.20-17.80L779.20 0L776.20 0L776.20-25L777.20-25L778.83-22.46L778.83-22.46Q779.86-23.85 781.41-24.67L781.41-24.67L781.41-24.67Q782.96-25.49 784.79-25.49L784.79-25.49L786.55-25.49L786.55-22.14" fill="#f81b24" stroke="none" stroke-width="none" transform="translate(-447.44000244140625,13.089700719321641)" style="fill: rgb(254, 93, 39);"/></g><g class="path" style="transform: scale(0.91); transform-origin: 364.95px -4.4153px; animation: 1s linear -0.0643902s infinite normal forwards running breath-a841dfa1-f22d-4670-b0a8-f2503abadb00;"><path d="M822.24-8.11L822.24-8.11L822.24-8.11Q822.24-6.32 821.57-4.76L821.57-4.76L821.57-4.76Q820.90-3.20 819.73-2.03L819.73-2.03L819.73-2.03Q818.55-0.85 816.99-0.18L816.99-0.18L816.99-0.18Q815.43 0.49 813.65 0.49L813.65 0.49L811.16 0.49L811.16 0.49Q809.38 0.49 807.80-0.18L807.80-0.18L807.80-0.18Q806.23-0.85 805.05-2.03L805.05-2.03L805.05-2.03Q803.88-3.20 803.21-4.76L803.21-4.76L803.21-4.76Q802.54-6.32 802.54-8.11L802.54-8.11L802.54-26.90L802.54-26.90Q802.54-28.69 803.21-30.25L803.21-30.25L803.21-30.25Q803.88-31.81 805.05-32.98L805.05-32.98L805.05-32.98Q806.23-34.16 807.80-34.83L807.80-34.83L807.80-34.83Q809.38-35.50 811.16-35.50L811.16-35.50L813.65-35.50L813.65-35.50Q815.43-35.50 816.99-34.83L816.99-34.83L816.99-34.83Q818.55-34.16 819.73-32.98L819.73-32.98L819.73-32.98Q820.90-31.81 821.57-30.25L821.57-30.25L821.57-30.25Q822.24-28.69 822.24-26.90L822.24-26.90L822.24-8.11zM819.09-8.11L819.09-26.90L819.09-26.90Q819.09-28.08 818.65-29.09L818.65-29.09L818.65-29.09Q818.21-30.10 817.46-30.86L817.46-30.86L817.46-30.86Q816.70-31.62 815.69-32.06L815.69-32.06L815.69-32.06Q814.67-32.50 813.50-32.50L813.50-32.50L811.30-32.50L811.30-32.50Q810.13-32.50 809.12-32.06L809.12-32.06L809.12-32.06Q808.11-31.62 807.34-30.86L807.34-30.86L807.34-30.86Q806.57-30.10 806.13-29.09L806.13-29.09L806.13-29.09Q805.69-28.08 805.69-26.90L805.69-26.90L805.69-8.11L805.69-8.11Q805.69-6.93 806.13-5.92L806.13-5.92L806.13-5.92Q806.57-4.91 807.34-4.14L807.34-4.14L807.34-4.14Q808.11-3.37 809.12-2.93L809.12-2.93L809.12-2.93Q810.13-2.49 811.30-2.49L811.30-2.49L813.50-2.49L813.50-2.49Q814.67-2.49 815.69-2.93L815.69-2.93L815.69-2.93Q816.70-3.37 817.46-4.14L817.46-4.14L817.46-4.14Q818.21-4.91 818.65-5.92L818.65-5.92L818.65-5.92Q819.09-6.93 819.09-8.11L819.09-8.11" fill="#f81b24" stroke="none" stroke-width="none" transform="translate(-447.44000244140625,13.089700719321641)" style="fill: rgb(248, 27, 36);"/></g><g class="path" style="transform: scale(0.91); transform-origin: 386.495px 0.344701px; animation: 1s linear -0.0482927s infinite normal forwards running breath-a841dfa1-f22d-4670-b0a8-f2503abadb00;"><path d="M839.11-22.14L836.11-22.14L836.11-22.14Q835.21-22.14 834.41-21.80L834.41-21.80L834.41-21.80Q833.62-21.46 833.03-20.87L833.03-20.87L833.03-20.87Q832.45-20.29 832.10-19.49L832.10-19.49L832.10-19.49Q831.76-18.70 831.76-17.80L831.76-17.80L831.76 0L828.76 0L828.76-25L829.76-25L831.40-22.46L831.40-22.46Q832.42-23.85 833.97-24.67L833.97-24.67L833.97-24.67Q835.52-25.49 837.35-25.49L837.35-25.49L839.11-25.49L839.11-22.14" fill="#f81b24" stroke="none" stroke-width="none" transform="translate(-447.44000244140625,13.089700719321641)" style="fill: rgb(0, 149, 83);"/></g><g class="path" style="transform: scale(0.91); transform-origin: 404.025px -4.1703px; animation: 1s linear -0.0321951s infinite normal forwards running breath-a841dfa1-f22d-4670-b0a8-f2503abadb00;"><path d="M859.81 0L858.81 0L857.15-2.54L857.15-2.54Q856.13-1.15 854.59-0.33L854.59-0.33L854.59-0.33Q853.05 0.49 851.22 0.49L851.22 0.49L850.46 0.49L850.46 0.49Q848.95 0.49 847.61-0.09L847.61-0.09L847.61-0.09Q846.26-0.66 845.26-1.66L845.26-1.66L845.26-1.66Q844.26-2.66 843.69-4.00L843.69-4.00L843.69-4.00Q843.12-5.35 843.12-6.86L843.12-6.86L843.12-18.14L843.12-18.14Q843.12-19.65 843.69-21.00L843.69-21.00L843.69-21.00Q844.26-22.34 845.26-23.34L845.26-23.34L845.26-23.34Q846.26-24.34 847.61-24.91L847.61-24.91L847.61-24.91Q848.95-25.49 850.46-25.49L850.46-25.49L851.22-25.49L851.22-25.49Q852.91-25.49 854.35-24.80L854.35-24.80L854.35-24.80Q855.79-24.12 856.81-22.90L856.81-22.90L856.81-35.01L859.81-35.01L859.81 0zM856.81-6.69L856.81-18.31L856.81-18.31Q856.81-19.21 856.47-20.01L856.47-20.01L856.47-20.01Q856.13-20.80 855.54-21.39L855.54-21.39L855.54-21.39Q854.96-21.97 854.16-22.31L854.16-22.31L854.16-22.31Q853.37-22.66 852.47-22.66L852.47-22.66L850.46-22.66L850.46-22.66Q849.56-22.66 848.77-22.31L848.77-22.31L848.77-22.31Q847.97-21.97 847.39-21.39L847.39-21.39L847.39-21.39Q846.80-20.80 846.46-20.01L846.46-20.01L846.46-20.01Q846.12-19.21 846.12-18.31L846.12-18.31L846.12-6.69L846.12-6.69Q846.12-5.79 846.46-4.99L846.46-4.99L846.46-4.99Q846.80-4.20 847.39-3.61L847.39-3.61L847.39-3.61Q847.97-3.03 848.77-2.69L848.77-2.69L848.77-2.69Q849.56-2.34 850.46-2.34L850.46-2.34L852.47-2.34L852.47-2.34Q853.37-2.34 854.16-2.69L854.16-2.69L854.16-2.69Q854.96-3.03 855.54-3.61L855.54-3.61L855.54-3.61Q856.13-4.20 856.47-4.99L856.47-4.99L856.47-4.99Q856.81-5.79 856.81-6.69L856.81-6.69" fill="#f81b24" stroke="none" stroke-width="none" transform="translate(-447.44000244140625,13.089700719321641)" style="fill: rgb(254, 93, 39);"/></g><g class="path" style="transform: scale(0.91); transform-origin: 426.73px 0.589701px; animation: 1s linear -0.0160976s infinite normal forwards running breath-a841dfa1-f22d-4670-b0a8-f2503abadb00;"><path d="M882.52-6.86L882.52-6.86L882.52-6.86Q882.52-5.35 881.95-4.00L881.95-4.00L881.95-4.00Q881.37-2.66 880.37-1.66L880.37-1.66L880.37-1.66Q879.37-0.66 878.03-0.09L878.03-0.09L878.03-0.09Q876.68 0.49 875.17 0.49L875.17 0.49L873.17 0.49L873.17 0.49Q871.66 0.49 870.31-0.09L870.31-0.09L870.31-0.09Q868.97-0.66 867.97-1.66L867.97-1.66L867.97-1.66Q866.97-2.66 866.39-4.00L866.39-4.00L866.39-4.00Q865.82-5.35 865.82-6.86L865.82-6.86L865.82-18.14L865.82-18.14Q865.82-19.65 866.39-21.00L866.39-21.00L866.39-21.00Q866.97-22.34 867.97-23.34L867.97-23.34L867.97-23.34Q868.97-24.34 870.31-24.91L870.31-24.91L870.31-24.91Q871.66-25.49 873.17-25.49L873.17-25.49L875.17-25.49L875.17-25.49Q876.68-25.49 878.03-24.91L878.03-24.91L878.03-24.91Q879.37-24.34 880.37-23.34L880.37-23.34L880.37-23.34Q881.37-22.34 881.95-21.00L881.95-21.00L881.95-21.00Q882.52-19.65 882.52-18.14L882.52-18.14L882.52-12.26L868.82-12.26L868.82-6.69L868.82-6.69Q868.82-5.79 869.17-4.99L869.17-4.99L869.17-4.99Q869.51-4.20 870.09-3.61L870.09-3.61L870.09-3.61Q870.68-3.03 871.47-2.69L871.47-2.69L871.47-2.69Q872.27-2.34 873.17-2.34L873.17-2.34L875.17-2.34L875.17-2.34Q876.07-2.34 876.87-2.69L876.87-2.69L876.87-2.69Q877.66-3.03 878.25-3.61L878.25-3.61L878.25-3.61Q878.83-4.20 879.17-4.99L879.17-4.99L879.17-4.99Q879.52-5.79 879.52-6.69L879.52-6.69L879.52-8.35L882.52-7.86L882.52-6.86zM879.52-14.60L879.52-18.31L879.52-18.31Q879.52-19.21 879.17-20.01L879.17-20.01L879.17-20.01Q878.83-20.80 878.25-21.39L878.25-21.39L878.25-21.39Q877.66-21.97 876.87-22.31L876.87-22.31L876.87-22.31Q876.07-22.66 875.17-22.66L875.17-22.66L873.17-22.66L873.17-22.66Q872.27-22.66 871.47-22.31L871.47-22.31L871.47-22.31Q870.68-21.97 870.09-21.39L870.09-21.39L870.09-21.39Q869.51-20.80 869.17-20.01L869.17-20.01L869.17-20.01Q868.82-19.21 868.82-18.31L868.82-18.31L868.82-14.60L879.52-14.60" fill="#f81b24" stroke="none" stroke-width="none" transform="translate(-447.44000244140625,13.089700719321641)" style="fill: rgb(248, 27, 36);"/></g><g class="path" style="transform: scale(0.91); transform-origin: 446.265px 0.344701px; animation: 1s linear 0s infinite normal forwards running breath-a841dfa1-f22d-4670-b0a8-f2503abadb00;"><path d="M898.88-22.14L895.87-22.14L895.87-22.14Q894.97-22.14 894.18-21.80L894.18-21.80L894.18-21.80Q893.38-21.46 892.80-20.87L892.80-20.87L892.80-20.87Q892.21-20.29 891.87-19.49L891.87-19.49L891.87-19.49Q891.53-18.70 891.53-17.80L891.53-17.80L891.53 0L888.53 0L888.53-25L889.53-25L891.16-22.46L891.16-22.46Q892.19-23.85 893.74-24.67L893.74-24.67L893.74-24.67Q895.29-25.49 897.12-25.49L897.12-25.49L898.88-25.49L898.88-22.14" fill="#f81b24" stroke="none" stroke-width="none" transform="translate(-447.44000244140625,13.089700719321641)" style="fill: rgb(0, 149, 83);"/></g></g>
</g>
</g>
<style id="breath-a841dfa1-f22d-4670-b0a8-f2503abadb00" data-anikit="">@keyframes breath-a841dfa1-f22d-4670-b0a8-f2503abadb00
{
  0% {
    animation-timing-function: cubic-bezier(0.9647,0.2413,-0.0705,0.7911);
    transform: scale(0.9099999999999999);
  }
  51% {
    animation-timing-function: cubic-bezier(0.9226,0.2631,-0.0308,0.7628);
    transform: scale(1.02994);
  }
  100% {
    transform: scale(0.9099999999999999);
  }
}</style></svg>